<svg width="360" height="640" viewBox="0 0 360 640" fill="none" xmlns="http://www.w3.org/2000/svg">
<g clip-path="url(#clip0_109_122)">
<rect width="360" height="640" fill="white"/>
<path fill-rule="evenodd" clip-rule="evenodd" d="M44.513 595.538C59.5452 597.86 74.0493 601.203 86.9746 610.11C100.825 619.654 112.516 632.065 120.527 647.918C130.161 666.984 144.124 688.85 137.092 709.293C130.035 729.805 103.735 729.519 87.9593 742.59C71.9665 755.84 64.403 785.775 44.513 785.999C24.6569 786.223 15.7378 757.744 0.426419 743.577C-13.5295 730.664 -33.1073 724.948 -41.1224 706.766C-49.6785 687.356 -49.9131 663.975 -43.6996 643.477C-37.5336 623.136 -24.6553 604.905 -7.40363 595.529C8.55772 586.855 26.9396 592.823 44.513 595.538Z" fill="#5C3AE2"/>
<path fill-rule="evenodd" clip-rule="evenodd" d="M20.4909 -67.6023C31.9722 -62.3918 42.8038 -56.4824 51.1314 -46.4734C60.0549 -35.7481 66.6142 -23.2106 69.4657 -8.73925C72.8949 8.6647 79.1548 29.2741 68.971 44.0631C58.7531 58.9019 37.821 52.8077 22.3057 59.7479C6.57664 66.7837 -6.15232 89.0484 -22.0808 84.792C-37.9823 80.5432 -38.7368 55.767 -47.7936 41.017C-56.0486 27.5729 -70.4 18.6328 -72.7345 2.29716C-75.2265 -15.1411 -70.1877 -33.9015 -60.6457 -48.9168C-51.1765 -63.8178 -36.8206 -75.5331 -20.9528 -79.1874C-6.27183 -82.5683 7.06871 -73.6937 20.4909 -67.6023Z" fill="#5C3AE2"/>
<path fill-rule="evenodd" clip-rule="evenodd" d="M312.006 -96.1975C332.427 -101.08 351.406 -84.154 368.262 -71.7252C381.462 -61.9928 388.849 -47.5744 397.12 -33.439C404.931 -20.0875 411.829 -6.99324 414.992 8.14436C419.205 28.3063 429.248 50.7821 418.388 68.338C407.467 85.9921 383.341 90.7686 362.641 92.7742C344.142 94.5663 325.275 89.5104 310.122 78.8276C296.988 69.5683 296.858 50.3102 285.841 38.6299C270.679 22.5558 237.963 20.765 234.75 -1.07679C231.713 -21.7258 259.766 -32.6965 272.96 -48.9415C286.165 -65.1999 291.605 -91.3203 312.006 -96.1975Z" fill="#FFC800"/>
<path fill-rule="evenodd" clip-rule="evenodd" d="M247.651 681.697C241.687 660.168 258.999 639.336 271.602 620.934C281.47 606.524 296.547 598.114 311.289 588.777C325.213 579.957 338.898 572.12 354.899 568.175C376.21 562.921 399.767 551.378 418.869 562.253C438.077 573.188 444.068 598.66 446.98 620.596C449.581 640.198 444.905 660.456 434.098 676.98C424.73 691.302 404.228 692.18 392.203 704.345C375.655 721.085 374.975 755.944 351.837 760.199C329.963 764.221 317.229 734.811 299.436 721.404C281.628 707.986 253.61 703.205 247.651 681.697Z" fill="#FFC800"/>
<path d="M305.647 8.88749L306.772 9.29499L306.953 9.68507C307.647 9.96316 308.33 10.2459 308.999 10.5355C309.564 10.7832 310.111 11.0814 310.684 11.2952C311.258 11.509 311.935 11.8427 312.596 12.0517C313.257 12.2607 313.898 12.2694 314.387 12.6781C314.971 13.1454 315.742 13.0094 316.333 13.3528C316.918 13.637 317.517 13.8916 318.128 14.1156L318.21 13.8914C320.09 14.3986 321.974 14.9522 324.077 14.8935C324.098 14.9379 324.243 15.0566 324.406 15.2147L324.582 14.8569C325.715 14.931 326.855 14.9055 327.976 14.9914C329.356 15.1066 330.749 14.9032 332.119 15.2155C332.841 15.3609 333.586 15.3467 334.302 15.1738C334.726 15.0788 334.769 15.3648 335.006 15.5007L335.314 15.0397L338.072 15.1752L337.895 15.7496C338.28 15.9727 338.511 16.5078 339.405 16.2486L338.576 17.0479L339.618 17.3799L339.941 16.8998L340.796 16.9707C340.847 17.0793 340.911 17.2176 340.871 17.2602C340.62 17.5867 340.349 17.893 340.113 18.2125C340.295 18.9021 340.875 18.5608 341.287 18.6993L341.169 19.0124L341.655 19.3869L340.932 20.6227C339.725 21.2248 338.555 21.8985 337.428 22.6404C336.844 23.0619 336.076 23.2687 335.666 23.7951C335.141 24.4228 334.328 24.4165 333.855 24.9361C333.382 25.4559 332.583 25.635 332.078 26.0978C331.573 26.5605 330.794 26.7841 330.289 27.2468C329.096 28.3473 327.54 28.9916 326.502 30.2841C325.829 30.3985 325.473 31.1944 324.705 31.1187C324.229 31.7441 323.643 32.2769 322.975 32.6907C322.079 33.3469 321.419 34.2897 320.352 34.7972C320.018 35.064 319.728 35.381 319.492 35.7368L323.658 35.0922L324.563 35.542L325.422 34.8069C326.854 34.7119 328.337 34.0533 329.873 34.5822C330.053 33.8981 330.805 34.005 331.185 33.6605C332.961 33.7238 334.523 33.0943 336.358 32.7405L336.827 32.9368C337.513 32.8883 337.99 32.3005 338.752 32.4028C339.368 32.4337 339.978 32.2679 340.494 31.9295C341.076 31.5962 341.74 31.4353 342.41 31.4659C343.139 31.4992 343.579 31.0491 344.254 30.9273L344.948 31.2055C346.223 30.463 347.697 30.0963 349.145 29.556L349.836 29.9193L351.218 29.2772L351.033 29.9635C351.318 29.8059 351.643 29.7352 351.969 29.7602C352.294 29.7852 352.604 29.9046 352.862 30.1039C352.846 30.2618 352.833 30.4417 352.821 30.5972L355.784 31.7297C355.851 32.1311 355.898 32.4392 355.966 32.8455L355.605 33.2832L355.752 33.5993L356.368 33.5293C356.796 34.2965 356.568 35.0449 356.259 35.7764C355.683 36.1762 355.683 36.1761 355.621 37.1534L356.044 36.5665L356.366 36.963L355.572 37.488L355.932 37.6689L355.378 40.5071L354.78 40.7846L355.276 41.0108L354.862 41.4128L355.126 41.9806L354.896 42.6095C354.49 42.498 353.995 42.6738 353.694 42.2194C353.542 43.0162 354.217 43.021 354.789 43.2835L354.12 43.6661C354.041 44.3749 353.817 45.0552 354.15 45.8246C354.446 46.4614 353.939 47.0751 353.429 47.6302L353.901 47.885L353.24 48.3603L353.503 48.7721C353.328 49.3474 353.227 49.9429 353.204 50.5438C353.267 51.4565 352.537 52.1076 352.618 53.0426C352.651 53.8926 352.522 54.7411 352.236 55.5423C351.937 56.7372 351.717 57.9503 351.576 59.1739L352.317 58.83L352.322 58.1434L353.074 58.2381C353.354 57.8817 353.609 57.5066 353.837 57.1156C354.01 56.7771 354.477 56.53 354.246 56.0314C354.804 55.9403 354.918 55.4249 355.084 54.9937L355.381 55.1021C356.025 53.5678 356.95 52.1673 358.108 50.9726L358.632 49.4387L359.076 49.2323L360.208 47.2242L360.953 47.7546L361.752 46.633C361.501 46.3239 361.284 46.0522 361.073 45.7904L362.773 42.9901C362.842 43.386 362.783 43.7936 362.605 44.1542C363.29 44.2324 363.142 43.6046 363.358 43.3064L364.084 43.4492C364.034 43.1725 363.979 42.8982 363.937 42.6413L364.234 42.7496L363.673 42.3561L364.386 41.4244L364.857 41.5597L365.03 41.1435C364.791 40.8103 364.541 40.4524 364.307 40.129L366.592 36.817L366.753 36.8802L366.633 37.5001L368.368 36.274C368.745 36.699 369.118 37.126 369.644 37.7281L370.318 37.8889C369.474 39.3633 368.75 40.9037 368.155 42.495C367.246 44.6095 365.974 46.5089 364.951 48.5202C363.877 50.6396 362.538 52.6418 361.302 54.6567C360.606 55.8202 359.948 57.0019 359.228 58.1525C358.22 59.7672 357.23 61.3972 356.112 62.9309C355.615 63.6058 355.399 64.4202 354.753 65.0324C354.2 65.5595 353.916 66.3695 353.519 67.0643C352.45 68.8014 351.481 70.5982 350.616 72.4456C350.087 73.6699 349.399 74.8118 348.695 76.1771L347.075 76.9292C346.894 76.5392 346.536 76.1953 346.769 75.5712L345.729 75.9163C344.598 75.0785 343.79 73.8771 343.44 72.5139L344 71.5218L344.67 70.8081C344.32 70.4546 344.06 70.1914 343.819 69.9433C343.945 69.2845 344.041 68.6395 344.225 68.0019C344.409 67.3643 344.034 66.7641 344.927 66.4757C344.633 66.3723 344.544 66.3356 344.37 66.2722C344.88 65.7414 344.265 64.8323 345.115 64.4258C345.035 64.175 344.961 63.9513 344.873 63.6857L345.204 63.4298C345.069 61.5483 345.632 59.7502 346.068 57.8973C346.022 57.7986 345.897 57.6586 345.901 57.537C345.957 57.0248 345.876 56.3478 346.177 56.0521C346.65 55.5445 346.214 54.6845 347.012 54.386C346.86 54.0601 346.755 53.743 346.623 53.408L347.034 53.0009L346.787 52.3898L347.417 50.7885L348.102 51.3587L348.294 50.1173L347.764 49.7635C347.935 49.5702 348.076 49.3527 348.184 49.1182C348.214 48.8982 348.205 48.6745 348.159 48.4574L347.594 48.1196L348.135 47.3462L348.889 47.2242L348.637 46.6811C348.981 46.221 349.229 45.9019 349.086 45.2719C348.84 44.1859 349.055 42.9939 349.105 41.8483C349.11 41.678 349.355 41.5097 349.475 41.3525L349.227 41.2333C349.342 40.6427 349.511 40.0639 349.732 39.5043C350.066 38.9599 350.445 38.4447 350.865 37.9637C350.851 37.6102 350.528 37.6641 349.871 38.1492L350.386 37.1121L351.213 37.1359L350.443 36.3953L350.544 35.916C350.361 35.8571 350.082 35.6688 349.96 35.7433C349.424 36.0163 348.813 36.1041 348.221 35.9928C347.356 36.713 346.242 36.564 345.278 36.8918C344.227 37.2575 343.144 37.5216 342.043 37.68C340.987 37.7679 339.943 37.9688 338.93 38.2795C337.899 38.6443 336.821 38.713 335.785 39.0022C334.713 39.2777 333.619 39.4605 332.516 39.5485C331.458 39.6496 330.457 40.0005 329.386 40.0842C328.284 40.1691 327.192 40.3471 326.121 40.616C325.052 40.8969 324.011 40.8399 322.97 41.0413C321.929 41.2427 320.889 41.4075 319.837 41.5185C318.784 41.6294 317.647 41.7013 316.553 41.8012C315.459 41.9013 314.452 42.0208 313.314 42.1413L312.054 41.6764L312.169 41.2925C311.943 40.7015 311.451 40.9358 311.109 40.9089C310.737 40.3794 310.381 39.8846 310.007 39.3501L310.114 39.0123C309.159 38.5976 309.361 37.7778 309.51 37.0661C309.715 36.3325 309.968 35.6133 310.269 34.9132C311.482 34.1275 312.119 32.5531 313.779 32.2625C313.732 32.0443 313.699 31.9095 313.642 31.6838L316.037 30.0554L315.988 29.7179C316.637 29.1644 317.272 28.6054 317.91 28.0929C318.154 27.8633 318.466 27.7185 318.799 27.6801C319.104 27.7307 319.418 27.6881 319.699 27.5576C319.98 27.4271 320.215 27.2148 320.374 26.9487C320.561 26.6814 320.964 26.5664 321.174 26.2047L320.118 26.6954C320.121 26.4958 320.101 26.3612 320.123 26.357C320.803 26.0422 321.41 25.5887 321.905 25.0252C322.287 24.5887 322.822 24.3162 323.4 24.2646C324.025 24.3167 324.37 23.8981 325.135 23.813C324.804 23.6306 324.713 23.5767 324.615 23.5203C325.18 22.6574 325.44 22.3386 326.212 22.3585C326.82 22.376 327.155 21.9862 327.572 21.6548L326.175 22.1237L328.29 20.5407C325.704 20.5417 323.495 19.9715 321.255 19.6073C319.447 19.4011 317.694 18.8626 316.082 18.0189C315.767 17.8589 315.355 17.9005 315.027 17.7644C314.462 17.5289 313.936 17.1729 313.358 16.9614C312.78 16.7499 312.219 16.7703 311.7 16.5312C310.353 15.9566 309.088 15.1214 307.683 14.6157C307.546 14.5655 307.493 14.296 307.381 14.1077C307.138 14.0764 306.825 14.1258 306.612 14.0028C305.551 13.4193 304.523 12.7766 303.533 12.0778C302.768 11.5029 301.967 11.0049 301.226 10.3406C300.59 9.67113 300.002 8.95762 299.466 8.20522C298.878 7.41267 298.593 6.43632 298.661 5.45208C299.995 5.82903 300.407 4.37719 301.392 3.99166L299.989 4.51131L299.89 4.29909L301.574 3.51716C301.875 3.3773 302.247 3.30039 302.289 2.87289C302.64 3.18994 302.75 2.57445 303.001 2.67428C303.449 2.85036 303.28 2.11248 303.727 2.23498C304.001 2.27452 304.281 2.23789 304.536 2.12918C304.84 2.00887 305.137 1.87103 305.425 1.71644L305.938 2.2402L305.863 1.54886L306.428 1.22659C306.804 1.36413 307.257 1.52565 307.657 1.67596L308.208 1.37783L308.157 0.723676L308.701 1.17281L308.998 1.03519L308.998 0.350945C309.89 0.24271 310.763 0.27523 311.618 -0.145827C312.075 -0.266747 312.549 -0.308247 313.019 -0.268506L313.117 -0.45815L315.643 -0.899166L315.229 -0.0465985C315.65 -0.163766 316.028 -0.399749 316.318 -0.726402L316.458 -0.695462L316.752 -0.592006L316.841 -0.867111C316.857 -0.910452 316.884 -0.953541 316.905 -0.99929L318.264 -1.1622L318.814 0.0227133L319.036 0.0217638L319.148 -0.732411L318.54 -1.17609L320.349 -1.53069L320.636 -1.15955C321.099 -1.93277 321.77 -1.79416 322.462 -1.63548C322.688 -1.59037 322.921 -1.58277 323.15 -1.61316C323.649 -1.67672 324.146 -1.78162 324.748 -1.88117L325.038 -1.55381L326.033 -2.09977C325.929 -2.12957 326.054 -2.05542 326.173 -2.06901C327.133 -2.16062 328.081 -2.35498 329.032 -2.37625C329.124 -2.40315 329.216 -2.43547 329.305 -2.47308C329.912 -2.5871 330.477 -2.00328 331.089 -2.35341C331.7 -2.70354 332.185 -2.38273 332.735 -2.45215C333.285 -2.52148 333.922 -2.54703 334.514 -2.57625C334.697 -2.55992 334.881 -2.55704 335.064 -2.56764C335.279 -2.64215 335.486 -2.7382 335.682 -2.85426L336.334 -2.50916L337.247 -2.93341C338.049 -2.61559 338.858 -2.2829 339.727 -2.76435C339.764 -2.79122 339.808 -2.80962 339.853 -2.81846C339.899 -2.82716 339.946 -2.82608 339.991 -2.81529C341.165 -2.30413 342.369 -2.86363 343.577 -2.68024C344.784 -2.49684 345.967 -2.70383 347.138 -2.61161C348.705 -2.49337 350.264 -2.26332 351.827 -2.07699C351.977 -2.06222 352.12 -2.00859 352.242 -1.92145C353.312 -1.12834 354.37 -0.323349 355.326 0.4031C355.505 1.12424 355.653 1.71548 355.846 2.47845L355.189 3.46761C354.34 3.52595 353.528 3.63903 352.698 3.62241C351.87 3.63031 351.043 3.57727 350.223 3.46343C348.439 3.18791 346.643 3.326 344.852 3.17937C343.8 3.09791 342.712 3.3272 341.686 2.92745C339.906 3.24386 338.142 3.04923 336.356 3.0806C335.578 3.03001 334.798 3.04501 334.024 3.1254C333.304 3.25561 332.566 3.26841 331.84 3.33515C329.54 3.55137 327.277 3.74423 324.998 3.96836C323.816 4.08528 322.629 4.22879 321.454 4.41412C320.28 4.59945 319.076 4.88866 317.906 5.00588C315.854 5.21459 313.95 5.97324 311.925 6.25342C310.852 6.48586 309.812 6.85008 308.828 7.33792C307.862 7.81658 306.901 8.30507 305.647 8.88749Z" fill="#1D1D1D"/>
<g clip-path="url(#clip1_109_122)">
<path d="M19.0442 -10.8052L18.1636 -11.3683L18.1597 -12.4433L17.5997 -12.3556L16.9623 -13.5514C17.0911 -13.8437 17.2056 -14.0935 17.3213 -14.3554L16.6109 -14.3962C16.6802 -14.9593 16.7401 -15.4571 16.8022 -15.9989L17.2603 -15.8869L17.6239 -16.4556C18.431 -16.2626 19.2945 -16.5117 19.9189 -15.8411C20.0791 -16.0101 20.2896 -16.1231 20.5191 -16.1637C20.7484 -16.2042 20.9849 -16.1702 21.1935 -16.0664C21.9903 -15.7766 22.9291 -15.9515 23.5936 -15.5459C24.3596 -15.0562 25.2206 -15.1196 26.0103 -14.8794C26.9549 -14.5985 27.9269 -14.3 28.9256 -14.1138C29.9242 -13.9275 30.9567 -13.7841 31.8243 -13.1907C33.7541 -13.1067 35.4512 -12.1637 37.2579 -11.6547C38.7144 -11.3472 40.1313 -10.8749 41.4809 -10.2466C41.963 -9.9901 42.6615 -10.1831 42.689 -9.21574C43.4167 -9.61618 44.0282 -9.70346 44.6513 -9.25328C45.1218 -8.95561 45.6396 -8.74037 46.1825 -8.61665C47.5593 -8.18318 48.9101 -7.67098 50.2283 -7.08279C51.4635 -6.60961 52.6369 -5.96914 53.8579 -5.52442C55.5002 -4.92012 56.7812 -3.79106 58.2614 -2.97373C58.5136 -2.81245 58.6503 -2.46026 58.8853 -2.25184C59.1203 -2.04342 59.6102 -1.93044 59.7194 -1.66677C59.8286 -1.4031 60.178 -1.37364 60.3325 -1.19083C60.6016 -0.93472 60.8486 -0.65407 61.1568 -0.327741C61.1374 -0.00427482 61.5298 0.382309 61.2307 0.850065C61.1574 0.96473 61.2385 1.33312 61.3514 1.39894C62.2229 1.88508 61.9727 2.70086 61.9442 3.5032C61.3605 4.71928 60.3029 5.16078 58.9298 4.97409C58.748 4.95463 58.5699 4.91019 58.4003 4.8422C57.7818 4.49873 57.1311 4.21688 56.4574 4.00064C55.7674 3.80729 55.1155 3.49752 54.5298 3.08468C53.9566 2.71814 53.3747 2.13279 52.7686 2.1006C52.1624 2.06841 51.7596 1.22297 51.0471 1.54919C50.9212 0.887249 50.1401 1.25997 49.8823 0.804443C49.2363 0.895214 48.8596 0.382927 48.3365 0.190646C47.8134 -0.00177243 47.3822 -0.20638 46.9036 -0.357263C45.3503 -0.877906 43.8356 -1.5073 42.3709 -2.2411C41.4403 -2.09948 40.9408 -3.11682 40.0056 -3.06873C39.2077 -3.02332 38.5179 -3.56122 37.7954 -3.83585C36.9728 -4.13573 36.1323 -4.49856 35.3132 -4.85437C34.494 -5.21017 33.7439 -5.43143 32.9617 -5.74412C31.8142 -6.2129 30.55 -6.38799 29.4362 -6.99038C28.6404 -6.75619 28.2366 -7.66056 27.4554 -7.61087C26.7681 -7.65743 26.1011 -7.8628 25.5066 -8.21084C24.0435 -8.84266 22.456 -8.94672 20.9885 -9.491L19.883 -9.89418C20.0306 -10.2262 20.1452 -10.476 20.3172 -10.8764L19.0442 -10.8052Z" fill="#1D1D1D"/>
<path d="M30.8364 16.7705L31.14 16.6998L31.1484 17.8488L31.7435 17.3829C32.084 17.6586 32.632 17.8929 32.7585 18.271C32.9588 18.8772 33.5448 18.567 33.8179 18.9483C34.091 19.3297 34.6531 19.4306 34.7759 19.774C34.9692 20.3306 35.4797 20.4114 35.7941 20.7481C36.0936 21.1075 36.3734 21.4828 36.6325 21.8722L37.563 22.1247L37.482 23.2616L38.2131 22.6438C38.9374 24.0372 40.5536 24.5409 41.3306 25.8518C41.2731 26.0023 41.2302 26.13 41.1055 26.4767L41.6646 26.0266L42.4235 26.8607C42.3003 27.0533 42.2156 27.2769 42.0629 27.5864L42.5063 27.5597L42.8528 28.1495C43.0632 28.0125 43.2421 27.8944 43.4135 27.7779L43.9014 28.9751L43.602 29.5848L44.7757 29.6893C44.8297 30.6153 45.5192 31.4568 45.2523 32.5007L44.7761 32.6291C44.8621 33.02 45.0132 33.0263 45.616 32.6493C45.7013 32.6941 45.7826 32.746 45.859 32.8047C45.8911 32.8253 45.8923 32.8841 45.9496 33.0369L45.307 33.466C45.253 33.7222 45.1834 34.0332 45.1154 34.4225L44.5363 33.671C44.422 34.0115 44.3334 34.2713 44.1745 34.7319L43.4451 33.6194L43.8458 33.4879L43.3745 32.6891L42.8379 33.5283L41.7986 33.4259L40.4451 31.5009C39.7877 31.1739 39.2203 30.6912 38.792 30.0949L38.3179 30.1796L37.7417 29.2619L38.1456 29.1455C38.1124 29.0661 38.1006 28.9229 38.0505 28.9102C37.4951 28.7684 36.8049 28.8375 36.5883 28.0141C36.5477 27.8654 36.08 27.7988 35.846 27.7202C35.2812 27.5464 34.7662 27.2404 34.3435 26.8275C33.921 26.4145 33.6031 25.9067 33.4163 25.3461C33.1664 25.301 32.9243 25.2202 32.6975 25.1063C32.4498 24.9479 32.2021 24.4664 32.0729 24.5067C31.4037 24.7248 31.5658 24.0467 31.2891 23.8633C31.0038 23.6958 30.7594 23.4669 30.574 23.193C30.1794 22.6737 29.7109 22.2151 29.1831 21.8318C27.504 20.4324 25.9511 18.8882 24.5422 17.2171C23.4052 15.9569 22.3362 14.6371 21.3395 13.2632C20.6316 12.3584 20.0724 11.3466 19.6832 10.2659C19.4155 9.30004 18.9906 8.3177 19.0176 7.20431L19.5145 6.97281L19.4574 6.58731L20.9374 6.29332C21.1317 6.47974 21.2769 6.7112 21.36 6.96732C21.4432 7.22335 21.4618 7.49599 21.414 7.76099L22.0377 7.04843L22.3953 7.27711L22.2717 7.84426L22.8758 7.8493L23.0639 8.36369L24.0269 8.19124C24.0492 8.68628 24.1101 9.17881 24.2091 9.66442C24.3259 10.0881 25.0621 10.2099 24.78 10.9341L24.2501 11.1767L25.0584 11.7517L24.9389 11.0292C25.2093 11.1647 25.4536 11.3471 25.6604 11.568C25.9489 12.0381 26.2906 12.4733 26.6787 12.8652C27.0324 13.2407 27.4168 13.5858 27.8279 13.8972C28.1868 14.1847 28.466 14.5766 28.8248 14.8641C29.1837 15.1518 29.6742 15.3749 30.0308 15.7063C30.3346 16.0329 30.6046 16.3894 30.8364 16.7705Z" fill="#1D1D1D"/>
<path d="M18.7539 52.9397L18.0825 53.9898C17.7297 54.0905 17.357 54.1005 16.9993 54.0186C16.6417 53.9367 16.3105 53.7657 16.0366 53.5216L16.0604 52.7163C14.9095 52.6976 15.3043 51.393 14.5416 51.1509C14.0174 49.9499 13.8578 48.6333 13.247 47.4868C13.1796 47.3003 13.1343 47.1066 13.1122 46.9096C12.8067 45.559 12.3792 44.2389 11.8348 42.9657C11.4945 42.0684 11.2196 41.1477 11.0121 40.2107C10.7845 39.1926 10.4224 38.2093 9.93548 37.2868C9.8696 37.1012 9.82589 36.9084 9.80517 36.7125C9.67892 35.9335 9.49156 35.1656 9.24485 34.4159C9.05566 33.8382 8.90125 33.2497 8.78236 32.6536C8.53486 31.6291 8.35117 30.5902 8.23217 29.543C8.06867 28.4952 7.87517 27.4538 7.77347 26.4003C7.78469 25.9378 7.8488 25.4782 7.96465 25.0302L9.77294 24.7587C10.255 24.7827 10.0117 25.5573 10.3293 25.9801L10.8405 25.9386L12.2543 27.3144C12.9088 29.3222 13.7548 31.556 14.4028 33.8568C14.7148 34.9824 15.141 36.073 15.6745 37.1121C15.9917 37.9154 16.2423 38.7434 16.424 39.5878C17.1636 41.7604 17.7215 43.9906 18.0916 46.2556C18.3756 48.3883 19.057 50.4652 18.7539 52.9397Z" fill="#1D1D1D"/>
</g>
</g>
<defs>
<clipPath id="clip0_109_122">
<rect width="360" height="640" fill="white"/>
</clipPath>
<clipPath id="clip1_109_122">
<rect width="52" height="71" fill="white" transform="translate(28.0782 61.5249) rotate(-147.405)"/>
</clipPath>
</defs>
</svg>
