<svg width="360" height="640" viewBox="0 0 360 640" fill="none" xmlns="http://www.w3.org/2000/svg">
<g clip-path="url(#clip0_1_180)">
<rect width="360" height="640" fill="white"/>
<path fill-rule="evenodd" clip-rule="evenodd" d="M295.966 -22.282C301.358 -34.54 307.828 -46.0983 320.409 -54.9521C333.891 -64.4395 350.279 -71.3855 369.959 -74.3515C393.627 -77.9184 421.298 -84.4959 443.532 -73.5078C465.841 -62.4829 460.751 -40.1147 472.925 -23.4667C485.267 -6.58935 518.318 7.16748 514.975 24.1911C511.638 41.1859 477.276 41.846 458.214 51.452C440.839 60.2077 430.721 75.5154 408.363 77.9169C384.495 80.4805 357.567 74.9755 335.122 64.673C312.847 54.4491 294.215 39.0137 286.557 22.008C279.473 6.27416 289.663 -7.95197 295.966 -22.282Z" fill="#5C3AE2"/>
<path fill-rule="evenodd" clip-rule="evenodd" d="M0.389946 -109.99C21.3792 -109.42 35.3308 -88.1592 48.3956 -71.7913C58.6262 -58.9743 62.0304 -43.1352 66.3605 -27.3409C70.4502 -12.4225 73.7235 2.01071 72.8611 17.4512C71.7123 38.0166 75.5957 62.3258 60.5619 76.4727C45.4441 90.6988 20.9043 89.0684 0.389946 85.6479C-17.9419 82.5912 -34.8576 72.8244 -46.7297 58.5836C-57.0192 46.2406 -52.1605 27.6051 -59.7797 13.4712C-70.2648 -5.97944 -101.402 -16.1766 -98.8521 -38.1056C-96.4414 -58.8371 -66.5047 -62.1733 -49.556 -74.45C-32.593 -86.7367 -20.5782 -110.559 0.389946 -109.99Z" fill="#FFC800"/>
<path fill-rule="evenodd" clip-rule="evenodd" d="M-1.70882 497.857C19.6102 504.533 27.7106 530.379 36.3256 550.952C43.0717 567.062 41.9519 584.289 41.7927 601.739C41.6423 618.221 40.7971 633.968 35.4258 649.548C28.2716 670.299 25.18 696.349 5.67883 706.49C-13.9313 716.687 -38.5763 707.893 -58.5805 698.433C-76.4564 689.978 -90.9321 675.055 -98.9448 657.009C-105.889 641.368 -95.4982 623.673 -99.1886 606.971C-104.267 583.986 -133.175 564.494 -124.19 542.752C-115.696 522.197 -84.0826 527.465 -63.165 519.798C-42.23 512.124 -23.0064 491.187 -1.70882 497.857Z" fill="#FFC800"/>
<g clip-path="url(#clip1_1_180)">
<path d="M19.776 15.4995L18.8954 14.9365L18.8915 13.8615L18.3315 13.9492L17.6941 12.7534C17.8229 12.4611 17.9374 12.2113 18.0531 11.9494L17.3427 11.9085C17.412 11.3455 17.4719 10.8476 17.534 10.3059L17.9921 10.4179L18.3557 9.84921C19.1628 10.0422 20.0263 9.79309 20.6507 10.4637C20.8109 10.2947 21.0214 10.1816 21.2509 10.1411C21.4802 10.1006 21.7167 10.1346 21.9253 10.2384C22.7221 10.5282 23.6609 10.3532 24.3254 10.7588C25.0914 11.2486 25.9524 11.1852 26.7421 11.4254C27.6867 11.7062 28.6587 12.0048 29.6574 12.191C30.656 12.3773 31.6885 12.5207 32.5561 13.1141C34.4859 13.198 36.183 14.1411 37.9897 14.6501C39.4462 14.9575 40.8631 15.4299 42.2127 16.0582C42.6948 16.3147 43.3933 16.1217 43.4208 17.089C44.1485 16.6886 44.76 16.6013 45.3831 17.0515C45.8536 17.3492 46.3714 17.5644 46.9143 17.6881C48.2911 18.1216 49.6419 18.6338 50.9601 19.222C52.1953 19.6952 53.3687 20.3356 54.5897 20.7804C56.232 21.3847 57.513 22.5137 58.9932 23.3311C59.2454 23.4923 59.3821 23.8445 59.6171 24.0529C59.8521 24.2614 60.342 24.3743 60.4512 24.638C60.5604 24.9017 60.9098 24.9311 61.0643 25.1139C61.3334 25.3701 61.5804 25.6507 61.8886 25.977C61.8692 26.3005 62.2616 26.6871 61.9625 27.1548C61.8892 27.2695 61.9702 27.6379 62.0832 27.7037C62.9547 28.1899 62.7045 29.0056 62.676 29.808C62.0923 31.0241 61.0347 31.4656 59.6616 31.2789C59.4798 31.2594 59.3017 31.215 59.1321 31.147C58.5136 30.8035 57.8629 30.5217 57.1892 30.3054C56.4992 30.1121 55.8473 29.8023 55.2616 29.3895C54.6884 29.0229 54.1065 28.4376 53.5004 28.4054C52.8942 28.3732 52.4914 27.5277 51.7789 27.854C51.653 27.192 50.8719 27.5648 50.6141 27.1092C49.9681 27.2 49.5914 26.6877 49.0683 26.4954C48.5452 26.303 48.114 26.0984 47.6354 25.9475C46.0821 25.4269 44.5674 24.7975 43.1027 24.0637C42.1721 24.2053 41.6726 23.188 40.7374 23.236C39.9395 23.2815 39.2497 22.7436 38.5272 22.4689C37.7046 22.1691 36.8641 21.8062 36.045 21.4504C35.2258 21.0946 34.4756 20.8733 33.6935 20.5607C32.546 20.0919 31.2818 19.9168 30.168 19.3144C29.3722 19.5486 28.9684 18.6442 28.1872 18.6939C27.4999 18.6474 26.8329 18.442 26.2384 18.0939C24.7753 17.4621 23.1878 17.3581 21.7202 16.8138L20.6148 16.4106C20.7624 16.0786 20.877 15.8288 21.049 15.4284L19.776 15.4995Z" fill="#222222"/>
<path d="M31.5682 43.0753L31.8718 43.0046L31.8802 44.1536L32.4753 43.6877C32.8158 43.9635 33.3638 44.1977 33.4903 44.5758C33.6906 45.182 34.2766 44.8718 34.5497 45.2532C34.8228 45.6345 35.3849 45.7355 35.5077 46.0789C35.701 46.6354 36.2115 46.7162 36.5259 47.0529C36.8254 47.4123 37.1052 47.7877 37.3643 48.177L38.2948 48.4295L38.2138 49.5665L38.9449 48.9486C39.6692 50.342 41.2854 50.8457 42.0624 52.1566C42.0049 52.3071 41.962 52.4349 41.8373 52.7815L42.3964 52.3314L43.1553 53.1655C43.0321 53.3581 42.9473 53.5817 42.7947 53.8912L43.2381 53.8646L43.5846 54.4543C43.795 54.3173 43.9739 54.1992 44.1453 54.0827L44.6332 55.2799L44.3338 55.8896L45.5075 55.9941C45.5615 56.9201 46.251 57.7616 45.9841 58.8055L45.5079 58.9339C45.5939 59.3248 45.745 59.3311 46.3478 58.9541C46.4331 58.9989 46.5144 59.0508 46.5908 59.1095C46.6229 59.1301 46.6241 59.1889 46.6814 59.3417L46.0388 59.7708C45.9848 60.027 45.9152 60.338 45.8472 60.7273L45.2681 59.9758C45.1538 60.3163 45.0651 60.5762 44.9063 61.0367L44.1769 59.9242L44.5776 59.7927L44.1063 58.9939L43.5697 59.8331L42.5304 59.7307L41.1769 57.8057C40.5195 57.4787 39.9521 56.996 39.5238 56.3997L39.0497 56.4844L38.4735 55.5667L38.8774 55.4503C38.8442 55.3709 38.8324 55.2277 38.7823 55.2151C38.2269 55.0732 37.5367 55.1423 37.3201 54.3189C37.2795 54.1702 36.8118 54.1036 36.5777 54.025C36.013 53.8512 35.498 53.5452 35.0753 53.1323C34.6528 52.7193 34.3349 52.2115 34.1481 51.6509C33.8982 51.6058 33.6561 51.525 33.4293 51.4111C33.1816 51.2527 32.9339 50.7712 32.8047 50.8115C32.1355 51.0296 32.2976 50.3516 32.0209 50.1681C31.7356 50.0007 31.4912 49.7718 31.3058 49.4978C30.9112 48.9785 30.4426 48.5199 29.9149 48.1367C28.2358 46.7372 26.6829 45.193 25.274 43.5219C24.137 42.2617 23.068 40.9419 22.0713 39.568C21.3634 38.6632 20.8042 37.6514 20.415 36.5707C20.1473 35.6048 19.7224 34.6225 19.7494 33.5091L20.2463 33.2776L20.1892 32.8921L21.6692 32.5981C21.8635 32.7845 22.0087 33.016 22.0918 33.2721C22.175 33.5282 22.1935 33.8008 22.1458 34.0658L22.7694 33.3532L23.1271 33.5819L23.0035 34.1491L23.6076 34.1541L23.7956 34.6685L24.7587 34.4961C24.781 34.9911 24.8419 35.4836 24.9409 35.9692C25.0577 36.3929 25.7939 36.5147 25.5118 37.2389L24.9819 37.4815L25.7902 38.0565L25.6707 37.334C25.9411 37.4695 26.1854 37.6519 26.3922 37.8728C26.6807 38.3429 27.0224 38.7781 27.4105 39.17C27.7642 39.5455 28.1486 39.8906 28.5597 40.202C28.9186 40.4895 29.1978 40.8814 29.5566 41.1689C29.9155 41.4566 30.406 41.6797 30.7626 42.0111C31.0664 42.3377 31.3364 42.6942 31.5682 43.0753Z" fill="#222222"/>
<path d="M19.4857 79.2445L18.8143 80.2946C18.4615 80.3953 18.0888 80.4052 17.7311 80.3234C17.3735 80.2415 17.0423 80.0705 16.7684 79.8264L16.7922 79.0211C15.6413 79.0023 16.0361 77.6978 15.2735 77.4556C14.7492 76.2547 14.5896 74.938 13.9788 73.7916C13.9114 73.6051 13.8661 73.4114 13.844 73.2143C13.5385 71.8638 13.111 70.5437 12.5666 69.2705C12.2263 68.3731 11.9514 67.4524 11.7439 66.5154C11.5163 65.4974 11.1542 64.5141 10.6673 63.5916C10.6014 63.406 10.5577 63.2131 10.537 63.0172C10.4107 62.2382 10.2234 61.4704 9.97666 60.7207C9.78747 60.143 9.63306 59.5545 9.51417 58.9584C9.26667 57.9339 9.08298 56.895 8.96399 55.8478C8.80048 54.8 8.60698 53.7586 8.50529 52.7051C8.5165 52.2426 8.58061 51.7829 8.69646 51.335L10.5048 51.0635C10.9869 51.0874 10.7435 51.8621 11.0611 52.2848L11.5723 52.2434L12.9861 53.6192C13.6406 55.627 14.4866 57.8607 15.1346 60.1616C15.4466 61.2872 15.8728 62.3778 16.4063 63.4169C16.7235 64.2202 16.9742 65.0482 17.1558 65.8925C17.8954 68.0651 18.4533 70.2954 18.8235 72.5603C19.1074 74.6931 19.7888 76.77 19.4857 79.2445Z" fill="#222222"/>
</g>
<path fill-rule="evenodd" clip-rule="evenodd" d="M374.682 594.77C387.142 596.699 399.164 599.477 409.877 606.876C421.357 614.805 431.048 625.115 437.688 638.286C445.673 654.125 457.247 672.291 451.418 689.274C445.569 706.315 423.769 706.077 410.694 716.936C397.437 727.944 391.168 752.813 374.682 752.999C358.224 753.185 350.831 729.525 338.14 717.756C326.572 707.029 310.344 702.28 303.701 687.174C296.609 671.05 296.414 651.625 301.564 634.596C306.675 617.697 317.35 602.551 331.649 594.763C344.879 587.556 360.116 592.514 374.682 594.77Z" fill="#5C3AE2"/>
<path fill-rule="evenodd" clip-rule="evenodd" d="M-49.3181 255.77C-36.8583 257.699 -24.8362 260.477 -14.1227 267.876C-2.6426 275.805 7.04806 286.115 13.688 299.286C21.6733 315.125 33.2473 333.291 27.4181 350.274C21.5694 367.315 -0.230519 367.077 -13.3065 377.936C-26.5625 388.944 -32.8318 413.813 -49.3181 413.999C-65.7764 414.185 -73.1692 390.525 -85.8605 378.756C-97.4282 368.029 -113.656 363.28 -120.299 348.174C-127.391 332.05 -127.586 312.625 -122.436 295.596C-117.325 278.697 -106.65 263.551 -92.3506 255.763C-79.1206 248.556 -63.8843 253.514 -49.3181 255.77Z" fill="#5C3AE2"/>
<path fill-rule="evenodd" clip-rule="evenodd" d="M478.405 514.956C457.979 524.002 434.841 509.919 414.795 500.14C399.098 492.483 388.576 478.797 377.185 465.577C366.425 453.091 356.673 440.698 350.432 425.445C342.121 405.13 327.26 383.512 335.228 363.027C343.239 342.427 367.563 332.779 388.838 326.693C407.85 321.256 428.573 322.922 446.499 331.2C462.036 338.374 465.9 358.528 479.691 368.646C498.669 382.571 533.254 378.151 540.843 400.419C548.018 421.471 520.784 438.365 510.12 457.926C499.448 477.503 498.811 505.919 478.405 514.956Z" fill="#FFC800"/>
</g>
<defs>
<clipPath id="clip0_1_180">
<rect width="360" height="640" fill="white"/>
</clipPath>
<clipPath id="clip1_1_180">
<rect width="52" height="71" fill="white" transform="translate(28.81 87.8297) rotate(-147.405)"/>
</clipPath>
</defs>
</svg>
