<svg width="1920" height="1080" viewBox="0 0 1920 1080" fill="none" xmlns="http://www.w3.org/2000/svg">
<g clip-path="url(#clip0_205_81)">
<rect width="1920" height="1080" fill="white"/>
<path fill-rule="evenodd" clip-rule="evenodd" d="M173.286 820.628C222.241 826.607 269.476 835.214 311.57 858.144C356.675 882.716 394.75 914.667 420.839 955.482C452.213 1004.57 497.688 1060.86 474.785 1113.49C451.805 1166.3 366.152 1165.57 314.776 1199.22C262.693 1233.33 238.061 1310.4 173.286 1310.97C108.62 1311.55 79.574 1238.23 29.7096 1201.76C-15.7405 1168.51 -79.4992 1153.8 -105.602 1106.99C-133.466 1057.02 -134.23 996.821 -113.995 944.049C-93.9141 891.679 -51.9737 844.743 4.20956 820.606C56.1906 798.274 116.055 813.639 173.286 820.628Z" fill="#5C3AE2"/>
<path fill-rule="evenodd" clip-rule="evenodd" d="M1039.11 938.211C1083.16 942.294 1125.66 948.17 1163.54 963.826C1204.13 980.603 1238.39 1002.42 1261.86 1030.29C1290.1 1063.8 1331.02 1102.24 1310.41 1138.17C1289.73 1174.23 1212.66 1173.72 1166.43 1196.7C1119.56 1219.99 1097.39 1272.61 1039.11 1273.01C980.92 1273.4 954.783 1223.34 909.913 1198.44C869.015 1175.74 811.643 1165.69 788.155 1133.73C763.081 1099.61 762.394 1058.51 780.602 1022.48C798.672 986.723 836.411 954.676 886.967 938.196C933.741 922.948 987.609 933.439 1039.11 938.211Z" fill="#5C3AE2"/>
<path fill-rule="evenodd" clip-rule="evenodd" d="M96.5152 -34.5808C118.647 -26.6357 139.527 -17.6251 155.579 -2.36332C172.781 13.9906 185.425 33.1078 190.921 55.1737C197.532 81.7112 209.599 113.136 189.968 135.687C170.271 158.313 129.922 149.021 100.013 159.603C69.6934 170.331 45.1564 204.28 14.4518 197.79C-16.2007 191.312 -17.6552 153.533 -35.1134 131.042C-51.0261 110.542 -78.6907 96.9107 -83.1906 72.002C-87.9945 45.4121 -78.2814 16.8063 -59.8878 -6.08915C-41.6345 -28.8101 -13.9614 -46.6736 16.6262 -52.2457C44.926 -57.4009 70.6419 -43.8689 96.5152 -34.5808Z" fill="#5C3AE2"/>
<path fill-rule="evenodd" clip-rule="evenodd" d="M1853.77 -147.639C1898.36 -146.683 1927.99 -111.009 1955.74 -83.5455C1977.47 -62.0396 1984.7 -35.463 1993.9 -8.9615C2002.58 16.0701 2009.54 40.2879 2007.7 66.1957C2005.26 100.703 2013.51 141.491 1981.58 165.229C1949.47 189.099 1897.35 186.363 1853.77 180.624C1814.84 175.495 1778.91 159.107 1753.69 135.212C1731.84 114.502 1742.16 83.2329 1725.97 59.5175C1703.7 26.8811 1637.56 9.77108 1642.98 -27.0238C1648.1 -61.8094 1711.69 -67.4073 1747.69 -88.0065C1783.72 -108.622 1809.24 -148.594 1853.77 -147.639Z" fill="#FFC800"/>
<path fill-rule="evenodd" clip-rule="evenodd" d="M616.198 -297.535C662.154 -354.785 765.896 -358.244 850.629 -367.35C916.981 -374.481 979.627 -357.678 1044.06 -343.517C1104.91 -330.141 1162.36 -315.304 1214.67 -287.333C1284.35 -250.077 1377.69 -220.571 1395.78 -155.452C1413.98 -89.9683 1356.87 -24.6315 1301.92 26.5791C1252.81 72.341 1183.15 103.06 1108.37 112.383C1043.56 120.463 988.415 76.1181 922.917 73.8273C832.781 70.6738 731.825 140.11 660.304 96.7102C592.688 55.6803 643.693 -32.8479 636.16 -100.178C628.622 -167.564 570.287 -240.343 616.198 -297.535Z" fill="#FFC800"/>
<path fill-rule="evenodd" clip-rule="evenodd" d="M-5.72732 341.732C30.231 342.506 54.1327 371.385 76.515 393.618C94.0417 411.027 99.8738 432.542 107.292 453.995C114.298 474.259 119.906 493.864 118.429 514.837C116.461 542.771 123.114 575.791 97.3579 595.006C71.4585 614.33 29.4174 612.115 -5.72732 607.469C-37.133 603.317 -66.1126 590.051 -86.4517 570.708C-104.079 553.942 -95.7555 528.629 -108.809 509.431C-126.771 483.011 -180.115 469.16 -175.747 439.374C-171.617 411.214 -120.33 406.682 -91.2936 390.007C-62.233 373.318 -41.6495 340.959 -5.72732 341.732Z" fill="#FFC800"/>
<path fill-rule="evenodd" clip-rule="evenodd" d="M1764.87 1049.09C1756.92 1026.39 1780 1004.42 1796.8 985.009C1809.96 969.811 1830.06 960.941 1849.72 951.093C1868.28 941.791 1886.53 933.525 1907.86 929.364C1936.28 923.823 1967.69 911.649 1993.16 923.118C2018.77 934.651 2026.76 961.516 2030.64 984.652C2034.11 1005.33 2027.87 1026.69 2013.46 1044.12C2000.97 1059.23 1973.64 1060.15 1957.6 1072.98C1935.54 1090.64 1934.63 1127.4 1903.78 1131.89C1874.62 1136.13 1857.64 1105.11 1833.91 1090.97C1810.17 1076.82 1772.81 1071.78 1764.87 1049.09Z" fill="#FFC800"/>
<path d="M1097.57 1079.66C1096.94 1079.97 1096.23 1080.23 1095.47 1080.42C1082.48 1082.29 1069.56 1084.39 1056.46 1085.91C1039.75 1087.84 1022.92 1089.34 1006.11 1090.91C1001.85 1091.31 997.499 1091.34 993.213 1091.64C990.497 1091.83 987.847 1092.29 985.13 1092.46C978.07 1092.9 970.991 1093.26 963.902 1093.61C962.668 1093.66 961.396 1093.33 960.143 1093.34C959.377 1093.34 958.641 1093.87 957.876 1093.88C951.227 1094 944.578 1094.16 937.93 1094.12C928.89 1094.06 919.821 1094.12 910.829 1093.62C897.12 1092.89 883.517 1091.6 871.827 1086.74C864.174 1083.55 857.477 1079.86 856.243 1073.84C855.287 1069.46 857.2 1065.54 861.094 1061.97C863.963 1059.27 867.541 1056.82 870.66 1054.21C871.53 1053.5 871.903 1052.56 872.726 1051.81C873.879 1050.6 875.259 1049.47 876.84 1048.45C886.223 1043.16 896.48 1038.47 907.452 1034.43C915.516 1031.39 923.714 1028.42 932.123 1025.77C959.062 1017.28 987.043 1010.34 1016.68 1005.96C1036.49 1003.04 1056.53 1000.8 1076.89 1000.07C1089.18 999.633 1101.55 999.954 1113.88 999.989C1123.87 999.989 1133.86 1000.13 1143.84 1000.19C1162.16 1000.32 1180.24 1001.5 1197.82 1004.71C1206.61 1006.32 1214.83 1008.62 1221.39 1012.67C1228.94 1017.34 1231.34 1025.62 1226.47 1031.44C1222.56 1036.12 1216.73 1040.13 1209.53 1043.08C1205.7 1044.67 1201.74 1046.16 1198.18 1047.94C1195.15 1049.47 1192.8 1051.47 1189.82 1053.03C1185.14 1055.46 1180.11 1057.61 1175.38 1060.04C1173.87 1060.8 1172.97 1061.99 1171.62 1062.9C1167.95 1065.35 1164.59 1068.06 1160.36 1070.1C1153.87 1073.23 1146.82 1075.96 1139.87 1078.74C1136.16 1080.23 1132.16 1081.46 1128.3 1082.8C1126.96 1082.8 1125.63 1082.99 1124.44 1083.36C1123.24 1083.73 1122.21 1084.26 1121.43 1084.91C1116.92 1086.13 1112.43 1087.37 1107.91 1088.58C1106.96 1088.83 1105.91 1089.02 1104.93 1089.23L1094.03 1091.84C1092.91 1092.39 1091.7 1092.87 1090.42 1093.26C1063.96 1099.32 1036.88 1104.33 1009.33 1108.27C991.96 1110.74 974.645 1113.42 957.139 1115.5C941.785 1117.32 926.192 1118.46 910.695 1119.84C908.217 1120.06 905.663 1119.95 903.157 1120.06C901.792 1120.13 900.417 1120.03 899.123 1119.75C897.83 1119.48 896.648 1119.05 895.657 1118.49C895.402 1118.35 895.119 1118.24 894.815 1118.15C894.021 1117.91 893.208 1117.68 892.404 1117.44L894.595 1116.48C894.429 1116.38 894.247 1116.29 894.049 1116.21C893.274 1115.97 892.49 1115.76 891.715 1115.53C892.595 1115.21 893.456 1114.64 894.384 1114.6C925.417 1113.33 955.292 1108.47 985.264 1103.96C1020.31 1098.69 1054.9 1092.47 1088.58 1084.6C1096.35 1082.79 1104.02 1080.83 1111.62 1078.79C1117.18 1077.27 1122.56 1075.53 1127.73 1073.57C1125 1074.14 1122.28 1074.71 1119.54 1075.22C1113.8 1076.31 1107.94 1077.36 1102.16 1078.47C1101.4 1078.69 1100.68 1078.97 1100.04 1079.3L1097.57 1079.66ZM928.89 1038.97C925.857 1039.78 922.72 1040.48 919.811 1041.44C906.541 1045.76 894.33 1051.16 883.526 1057.49C879.776 1059.69 876.916 1062.44 873.587 1064.94C869.589 1067.83 867.269 1071.43 866.977 1075.19C866.881 1076.31 867.312 1077.74 868.46 1078.52C871.081 1080.32 874.687 1081.39 878.925 1082C876.055 1078.84 874.821 1075.69 877.835 1072.64C879.941 1070.5 882.515 1068.52 885.488 1066.78C894.499 1061.56 905.337 1057.89 916.358 1054.45C933.654 1049.06 951.811 1044.91 970.388 1041.42C994.386 1036.83 1019.09 1033.69 1044.13 1032.05C1052.82 1031.47 1061.55 1031.07 1070.27 1030.72C1087.97 1030.02 1105.75 1030.47 1123.29 1032.08C1132.86 1032.94 1142.26 1034.12 1151.36 1036.28C1160.61 1038.47 1169 1041.08 1173.53 1046.76C1174.08 1047.45 1174.71 1047.68 1175.98 1047.29C1178.97 1046.35 1182.08 1045.53 1185.05 1044.56C1187.47 1043.77 1190.25 1043.08 1191.97 1041.88C1195.89 1039.25 1198.23 1035.92 1198.6 1032.4C1198.88 1029.58 1198.11 1026.75 1195.38 1024.52C1192.11 1021.85 1188.68 1019 1183.48 1017.58C1180.96 1016.89 1179.97 1014.84 1176.61 1015.04C1176.34 1015.04 1176 1014.53 1175.65 1014.27C1174.59 1013.47 1172.32 1013.77 1171.6 1012.67C1171.45 1012.72 1171.29 1012.76 1171.13 1012.79C1170.45 1012.93 1169.72 1012.98 1169 1012.94C1161.7 1011.43 1154.48 1009.79 1146.86 1008.87C1139.93 1007.96 1132.84 1007.6 1125.75 1007.81C1121.29 1007.98 1116.75 1008.87 1112.17 1007.88C1111.29 1007.69 1109.92 1008.49 1108.74 1008.58C1100.89 1009.15 1093.04 1009.79 1085.16 1010.18C1077.51 1010.56 1070.12 1012.3 1062.21 1011.75C1060.39 1011.63 1057.97 1011.62 1056.24 1012.9C1055.46 1013.47 1053.27 1012.72 1051.45 1013.27C1049.64 1013.83 1046.9 1013.65 1044.58 1013.79C1044.51 1013.79 1044.44 1013.86 1044.35 1013.87C1039.26 1014.59 1034.35 1015.71 1029.35 1016.56C1010.47 1019.79 991.664 1023.11 973.315 1027.34C969.183 1028.29 965.136 1029.4 960.879 1030.2C955.235 1031.23 949.4 1031.92 944.483 1034.04C942.627 1034.84 940.14 1035.11 937.987 1035.68C937.17 1035.94 936.393 1036.24 935.663 1036.59L928.89 1038.97ZM1043.26 1038.34L1044.78 1037.24C1044.25 1037.15 1043.68 1037.11 1043.12 1037.12C1042.16 1037.29 1041.21 1037.55 1040.25 1037.78L1043.39 1038.29C1042.74 1038.58 1042.13 1039.07 1041.43 1039.12C1040.1 1039.22 1038.65 1038.88 1037.36 1039.05C1035.52 1039.28 1033.8 1039.94 1031.96 1040.2C1017.67 1041.98 1003.32 1043.59 989.09 1045.5C983.484 1046.25 978.041 1047.53 972.636 1048.75C963.453 1050.81 953.724 1051.96 944.894 1054.61C944.158 1054.84 943.182 1054.78 942.416 1054.99C939.546 1055.76 936.677 1056.55 933.807 1057.41C931.214 1058.2 928.756 1059.17 926.154 1059.91C923.552 1060.66 920.892 1061.11 918.309 1061.78C911.364 1063.57 905.758 1066.57 899.894 1069.31C896.73 1070.91 893.811 1072.68 891.17 1074.59C889.769 1075.6 888.541 1076.7 887.506 1077.86C886.31 1079.09 887.334 1079.73 889.419 1079.87C895.446 1080.28 901.482 1080.97 907.519 1080.97C935.835 1080.97 963.807 1078.59 991.702 1076.08C1007.31 1074.67 1022.85 1072.95 1038.38 1071.2C1064.05 1068.31 1089.53 1064.9 1114.63 1060.49C1132.32 1057.49 1149.73 1053.91 1166.78 1049.78C1168.95 1049.25 1168.7 1048.76 1167.45 1047.92C1163.2 1045.1 1157.64 1043.33 1151.96 1042.11C1144.67 1040.55 1136.86 1039.85 1129.29 1038.73C1128.76 1038.65 1128.4 1038.16 1127.9 1037.94C1127.39 1037.72 1126.61 1037.43 1125.98 1037.18L1125.21 1037.75L1127.3 1037.99L1126.81 1038.38C1125.46 1038.24 1124.06 1037.89 1122.78 1038C1118.73 1038.33 1114.86 1037.56 1110.85 1037.55C1104.04 1037.55 1097.22 1037.18 1090.41 1036.98C1088.62 1036.92 1086.84 1036.76 1085.05 1036.75C1083.44 1036.75 1081.85 1036.89 1080.27 1036.96C1079.08 1037.03 1077.88 1037.08 1076.7 1037.16C1075.51 1037.23 1074.16 1037.62 1073.42 1037.34C1071.22 1036.53 1069.21 1037.04 1067.18 1037.34C1065.42 1037.63 1063.79 1038.09 1062.73 1036.69C1062.56 1036.47 1061.78 1036.4 1061.22 1036.3C1061.15 1036.3 1060.78 1036.61 1060.84 1036.68C1061.92 1037.92 1060.09 1037.35 1059.47 1037.46C1058.62 1037.58 1057.75 1037.67 1056.88 1037.73C1055.39 1037.86 1053.91 1037.99 1052.42 1038.11C1050.61 1038.25 1048.54 1038.11 1047.07 1038.58C1045.37 1039.08 1044.45 1038.71 1043.26 1038.33V1038.34ZM1189.51 1008.97C1189.1 1009.21 1188.64 1009.69 1188.28 1009.66C1184.78 1009.39 1181.31 1009.03 1177.81 1008.72C1177.14 1008.69 1176.47 1008.69 1175.81 1008.72C1176.19 1009.04 1176.64 1009.33 1177.14 1009.59C1180.23 1010.8 1183.45 1011.88 1186.46 1013.19C1196.62 1017.5 1202.87 1023.34 1204.64 1030.75C1205.12 1032.76 1204.71 1034.85 1204.71 1037.31C1212.09 1034.03 1218.11 1030.63 1221.56 1025.97C1223.24 1023.68 1223.56 1021.15 1220.8 1018.98C1215.24 1014.59 1206.83 1013.01 1198.7 1011.18C1195.58 1010.45 1191.76 1010.77 1189.51 1008.96V1008.97ZM1094.14 1001.28C1058.15 1000.97 1001.16 1005.91 935.711 1025.85C919.045 1030.86 903.33 1036.93 888.836 1043.96C950.71 1017.67 1019.22 1002.98 1094.14 1001.27V1001.28ZM893.16 1064.84L893.475 1065.18C896.948 1063.84 900.373 1062.45 903.903 1061.17C916.342 1056.6 929.447 1052.73 943.057 1049.58C955.073 1046.87 967.126 1044.09 979.476 1042.04C994.993 1039.46 1010.8 1037.45 1026.56 1035.46C1033.18 1034.63 1040.01 1034.38 1046.76 1033.89C1050.7 1033.61 1054.65 1033.36 1058.59 1033.12C1062.53 1032.87 1066.55 1032.63 1070.53 1032.39C1067.5 1032.12 1064.43 1032.06 1061.38 1032.21C1052.25 1032.86 1043.13 1033.59 1034.03 1034.4C1010.22 1036.49 986.718 1039.47 964.017 1044.31C950.567 1047.17 937.337 1050.43 924.193 1053.77C913.039 1056.57 902.594 1060.29 893.16 1064.83V1064.84ZM1133.58 1074.54L1133.12 1074.11C1129.99 1075.12 1126.94 1076.21 1123.74 1077.12C1116.32 1079.21 1108.92 1081.31 1101.37 1083.22C1092.41 1085.52 1083.34 1087.61 1074.25 1089.69C1072.84 1090.02 1071.23 1090.98 1069.47 1089.92C1069.15 1090.03 1068.84 1090.16 1068.56 1090.3C1067.55 1090.74 1066.64 1091.36 1065.54 1091.57C1048.47 1094.78 1031.38 1097.96 1014.26 1101.12C1011.76 1101.58 1009.25 1102 1006.73 1102.43C1008.12 1102.53 1009.53 1102.44 1010.85 1102.18C1029.05 1098.89 1047.22 1095.59 1065.38 1092.27C1067.18 1091.94 1067.98 1092.01 1067.72 1093.3C1067.79 1093.76 1068.01 1094.22 1068.36 1094.63C1068.75 1094.23 1069.21 1093.85 1069.53 1093.42C1070.25 1092.47 1069.91 1091.3 1072.34 1090.78C1081.55 1088.77 1090.69 1086.65 1099.77 1084.43C1105.77 1082.95 1111.61 1081.23 1117.49 1079.6C1121.32 1078.54 1125.14 1077.48 1128.97 1076.33C1130.56 1075.79 1132.1 1075.18 1133.58 1074.53V1074.54ZM1023.74 1074.86L1023.9 1075.26C1031.72 1074.4 1039.55 1073.58 1047.35 1072.64C1067.94 1070.18 1088.48 1067.55 1108.64 1064.05C1116.8 1062.62 1124.9 1061.03 1132.98 1059.46C1137.08 1058.66 1141.11 1057.74 1145.17 1056.84C1146.73 1056.51 1148.3 1056.18 1149.87 1055.85L1149.58 1055.35C1108.64 1064.11 1066.5 1070.19 1023.74 1074.85V1074.86ZM1034.83 1081.74C1068.95 1078.47 1102.51 1073.93 1134.6 1066.05C1102.02 1072.71 1068.68 1077.95 1034.83 1081.71V1081.74ZM1164.64 1002.75V1002.37L1140.82 1001.65C1140.82 1001.81 1140.82 1001.96 1140.82 1002.11L1164.64 1002.75ZM998.819 1103.65L999.03 1104.12L1003.44 1103.33L1003.29 1102.99L998.819 1103.65Z" fill="#1D1D1D"/>
<path fill-rule="evenodd" clip-rule="evenodd" d="M1903.58 442.726C1920.19 444.761 1936.22 447.69 1950.5 455.494C1965.81 463.857 1978.73 474.731 1987.58 488.622C1998.23 505.328 2013.66 524.486 2005.89 542.399C1998.09 560.371 1969.03 560.121 1951.59 571.573C1933.92 583.183 1925.56 609.412 1903.58 609.608C1881.63 609.805 1871.77 584.851 1854.85 572.438C1839.43 561.124 1817.79 556.115 1808.93 540.184C1799.48 523.177 1799.22 502.691 1806.09 484.731C1812.9 466.907 1827.13 450.933 1846.2 442.718C1863.84 435.118 1884.15 440.347 1903.58 442.726Z" fill="#5C3AE2"/>
<path d="M1828.42 520.474C1827.17 519.74 1825.65 519.331 1826.02 517.513C1826.19 516.339 1826.51 515.193 1826.99 514.106C1828.62 510.916 1830.11 507.617 1832.16 504.711C1834.88 500.846 1838.74 498.309 1843.59 498.113C1848.23 497.934 1852.87 498.179 1857.51 498.293C1863.89 498.456 1870.28 499.011 1876.21 495.756C1880.02 493.672 1883.24 491.135 1885.28 487.129C1887.59 482.594 1890.03 478.109 1892.76 473.825C1896.57 467.838 1901.94 463.962 1909.13 462.939C1909.86 462.835 1910.76 462.53 1911.3 462.841C1912.17 463.434 1912.9 464.218 1913.42 465.132C1913.61 465.443 1913.23 466.45 1912.84 466.678C1912 467.179 1910.97 467.32 1910.06 467.718C1909.35 468.07 1908.66 468.466 1908 468.905C1907.88 468.981 1907.75 469.155 1907.64 469.139C1905.22 468.872 1904.12 470.995 1902.44 472.04C1898.55 474.457 1896.23 478.207 1894.12 482.105C1892.13 485.79 1890.24 489.524 1888.21 493.182C1887.63 494.249 1886.87 495.209 1885.96 496.018C1883.34 498.266 1880.66 500.263 1877.32 501.635C1870.84 504.302 1864.34 503.546 1857.72 503.159C1853.63 502.914 1849.49 502.691 1845.43 503.056C1840.27 503.519 1836.72 506.779 1833.83 510.921C1833.08 512.01 1831.94 512.832 1831.18 513.915C1830.67 514.639 1830.57 515.624 1830.22 516.463C1829.66 517.753 1829.05 519.043 1828.42 520.474ZM1910.72 463.973L1910.62 463.619L1903.36 465.628L1903.48 466.047L1910.72 463.973Z" fill="#1D1D1D"/>
<path d="M1895.26 455.852L1894.28 456.679H1895.65C1896.62 458.459 1896 459.765 1894.68 460.909C1893.52 461.905 1892.44 463.042 1890.73 462.988C1890.55 462.988 1890.26 463.059 1890.19 463.173C1889.54 464.724 1888.39 464.659 1887.16 464.098C1887.09 464.833 1887.16 465.584 1886.91 466.161C1886.54 466.777 1886.07 467.329 1885.52 467.794C1882.62 470.788 1881.5 474.658 1880.04 478.414C1878.71 481.86 1876.85 485.055 1873.54 487.075C1872.95 487.319 1872.35 487.502 1871.72 487.619C1871.18 488.49 1870.4 489.568 1868.71 489.725C1867.73 489.818 1866.82 490.678 1865.83 490.814C1863.11 491.135 1860.33 491.587 1857.63 491.358C1855.14 491.135 1852.64 490.27 1850.26 489.35C1845.22 487.443 1839.73 487.065 1834.47 488.261C1831.46 488.842 1828.75 490.445 1826.78 492.801C1826.11 493.507 1825.4 494.176 1824.65 494.804C1821.27 498.091 1818.57 502.012 1816.71 506.344C1816.13 507.694 1815.59 509.065 1815.01 510.404C1814.74 511.041 1814.43 511.357 1813.67 510.845C1811.81 509.594 1811.5 508.772 1812.04 506.453C1814.18 497.161 1819.83 490.406 1827.48 485.148C1830.88 482.823 1834.87 482.344 1838.84 482.459C1841.54 482.596 1844.22 482.984 1846.84 483.618C1849.29 484.162 1851.65 485.088 1854.07 485.763C1857.02 486.585 1859.96 486.04 1862.88 485.545C1870.26 484.298 1874.82 479.922 1877.07 472.889C1879.56 465.084 1884.57 459.444 1892 456.015C1892.92 455.59 1894.01 455.542 1895.03 455.318C1895.13 455.482 1895.19 455.667 1895.26 455.852ZM1863.08 486.813L1863.18 487.173L1867.67 485.959L1867.57 485.605L1863.08 486.813ZM1827.07 486.813L1827.28 487.205L1830.96 485.175L1830.72 484.734L1827.07 486.813Z" fill="#1D1D1D"/>
<path d="M1908.78 488.222C1908.24 488.848 1907.63 489.463 1907.07 490.105C1906.83 490.377 1906.39 490.867 1906.45 490.954C1907.33 492.135 1906.41 493.132 1905.77 493.567C1904.14 494.721 1904.69 496.359 1904.45 497.813C1904.32 498.678 1903.24 500.039 1902.44 500.186C1902.38 499.794 1902.32 499.408 1902.25 499.021C1901.88 499.151 1901.54 499.335 1901.22 499.566C1900.73 500.069 1900.26 500.6 1899.82 501.155L1901.19 501.427C1901.27 501.923 1901.34 502.402 1901.42 502.875C1899.93 503.419 1898.43 503.686 1897.29 504.965C1896.67 505.662 1895.81 505.989 1896.3 507.143C1896.34 507.241 1895.76 507.79 1895.66 507.736C1893.33 506.533 1892.07 508.683 1891.37 509.804C1890.89 510.589 1890.19 511.21 1889.35 511.584C1888.81 511.857 1887.91 511.486 1887.17 511.427C1886.95 511.439 1886.73 511.475 1886.51 511.535C1886.55 511.976 1886.58 512.379 1886.6 512.771C1885.27 513.315 1885.27 513.315 1882.25 512.499C1881.98 514.165 1880.62 514.725 1878.87 513.822C1878.78 514.154 1878.68 514.469 1878.67 514.513C1876.86 514.469 1874.97 512.651 1873.41 515.319C1872.04 513.805 1870.61 514.453 1869.05 515.248C1868.32 515.618 1867.33 515.558 1866.47 515.563C1862.91 515.563 1859.39 515.83 1855.96 516.859C1854.26 517.365 1852.83 518.394 1851.23 518.862C1847.78 519.875 1846.2 522.934 1843.78 525.046C1842.64 526.036 1842.07 527.658 1841.21 528.976C1840.67 529.776 1840.46 531.044 1838.94 530.293C1837.77 529.711 1837.31 528.97 1837.85 527.539C1840.38 520.909 1844.47 515.754 1851.22 512.842C1856.29 510.664 1861.56 510.632 1866.91 510.49C1870.36 510.392 1873.8 510.153 1877.26 509.995C1877.8 509.995 1878.7 509.489 1878.46 510.752L1877.79 511.002V511.236C1878.12 511.299 1878.45 511.325 1878.79 511.312C1879.17 511.263 1879.54 510.991 1879.9 511.002C1882.87 511.111 1885.37 509.674 1887.86 508.422C1890.47 507.015 1893 505.465 1895.44 503.779C1896.16 503.208 1896.83 502.57 1897.43 501.874L1897.39 501.906L1899.16 500.502L1897.08 500.377C1898.06 499.185 1898.87 498.058 1899.83 497.073C1900.47 496.419 1900.92 496.708 1901.37 497.862L1903.63 497.704L1902.64 496.381C1902.01 496.327 1901.22 496.452 1901.09 496.213C1900.89 495.689 1900.87 495.119 1901.01 494.58C1901.15 493.811 1901.38 493.061 1901.69 492.342C1901.97 491.857 1902.31 491.404 1902.69 490.992C1902.4 489.811 1902.9 488.597 1905 485.903L1905.96 486.376C1905.77 484.553 1905.96 484.259 1906.85 484.33V486.181L1906.82 486.137C1907.14 486.779 1907.45 487.422 1907.79 488.14L1908.5 487.944L1908.78 488.222Z" fill="#1D1D1D"/>
<path d="M1783.26 19.9141L1785.34 21.0633L1785.5 21.7742C1786.76 22.5261 1788.01 23.2812 1789.22 24.0409C1790.24 24.6878 1791.2 25.4086 1792.26 26.004C1793.31 26.5996 1794.52 27.4345 1795.76 28.0604C1797 28.6863 1798.3 28.9785 1799.08 29.8536C1800.02 30.8642 1801.68 30.9787 1802.7 31.7921C1803.74 32.5069 1804.83 33.1796 1805.96 33.8079L1806.25 33.4801C1809.82 35.1186 1813.38 36.8338 1817.72 37.6521C1817.74 37.7331 1817.97 37.9885 1818.22 38.3156L1818.78 37.8123C1821.06 38.4242 1823.41 38.8781 1825.66 39.5038C1828.42 40.2898 1831.39 40.5655 1834.02 41.6663C1835.42 42.2156 1836.96 42.5162 1838.52 42.5469C1839.44 42.5771 1839.37 43.0594 1839.78 43.3827L1840.67 42.7692L1846.24 44.1864L1845.56 45.0404C1846.23 45.5693 1846.41 46.5368 1848.38 46.505L1846.25 47.4403L1848.2 48.4312L1849.12 47.7932L1850.84 48.2796C1850.88 48.4775 1850.94 48.7295 1850.83 48.7811C1850.14 49.2015 1849.41 49.5799 1848.76 49.9954C1848.75 51.1922 1850.13 50.8907 1850.89 51.2944L1850.48 51.7503L1851.27 52.5684L1849.11 54.2576C1846.31 54.7091 1843.54 55.2929 1840.82 56.0058C1839.39 56.4352 1837.71 56.4368 1836.58 57.112C1835.16 57.9016 1833.5 57.5382 1832.24 58.175C1830.99 58.8121 1829.25 58.7554 1827.96 59.2859C1826.67 59.8164 1824.96 59.8408 1823.67 60.3713C1820.62 61.6366 1817.08 62.0054 1814.24 63.6494C1812.8 63.5426 1811.63 64.6777 1810.1 64.2218C1808.78 65.0287 1807.29 65.6374 1805.69 66.018C1803.5 66.6925 1801.63 67.9338 1799.16 68.293C1798.33 68.5806 1797.56 68.9684 1796.88 69.4426L1805.77 70.207L1807.38 71.329L1809.54 70.5106C1812.53 70.9786 1815.93 70.555 1818.79 72.0794C1819.53 71.049 1821.01 71.5488 1821.98 71.1554C1825.59 72.0294 1829.13 71.6875 1833.09 71.9106L1833.94 72.4325C1835.37 72.6518 1836.67 71.9063 1838.18 72.4029C1839.42 72.7207 1840.76 72.717 1842.01 72.3927C1843.38 72.1049 1844.83 72.1328 1846.19 72.4731C1847.66 72.8439 1848.81 72.3051 1850.26 72.4012L1851.53 73.1532C1854.55 72.5037 1857.77 72.5497 1861.03 72.3026L1862.25 73.1913L1865.43 72.7511L1864.68 73.7828C1865.35 73.6513 1866.05 73.6781 1866.71 73.8598C1867.36 74.0414 1867.93 74.3699 1868.35 74.8051C1868.23 75.0536 1868.1 75.3398 1868 75.5867L1873.44 78.7089C1873.36 79.3883 1873.29 79.9081 1873.2 80.5964L1872.22 81.149L1872.35 81.7251L1873.65 81.879C1874.11 83.3086 1873.23 84.4223 1872.2 85.4739C1870.8 85.8715 1870.8 85.8713 1870.13 87.4282L1871.32 86.661L1871.76 87.4435L1869.85 87.9494L1870.49 88.399L1867.79 92.7583L1866.42 92.9486L1867.31 93.5302L1866.24 94.0023L1866.47 95.037L1865.65 95.9564C1864.88 95.5994 1863.77 95.6695 1863.4 94.8024C1862.65 96.0278 1864.03 96.3284 1865.06 97.0023L1863.48 97.332C1862.93 98.4466 1862.1 99.4518 1862.36 100.843C1862.61 102.004 1861.24 102.778 1859.89 103.457L1860.72 104.075L1859.1 104.558L1859.41 105.339C1858.74 106.196 1858.21 107.117 1857.83 108.081C1857.46 109.588 1855.6 110.326 1855.25 111.876C1854.86 113.269 1854.13 114.588 1853.1 115.762C1851.83 117.569 1850.71 119.439 1849.76 121.361L1851.46 121.125L1851.85 120.015L1853.34 120.495C1854.11 120.039 1854.83 119.542 1855.52 119.007C1856.06 118.534 1857.15 118.336 1856.95 117.427C1858.14 117.522 1858.66 116.737 1859.24 116.11L1859.79 116.414C1861.95 114.207 1864.61 112.339 1867.64 110.906L1869.56 108.647L1870.58 108.506L1874 105.743L1875.24 106.926L1877.49 105.455C1877.14 104.845 1876.85 104.31 1876.56 103.794L1881.58 99.994C1881.5 100.665 1881.16 101.301 1880.6 101.808C1881.96 102.232 1882 101.15 1882.61 100.761L1884.02 101.308C1884.07 100.837 1884.1 100.369 1884.16 99.9344L1884.71 100.239L1883.77 99.3573L1885.75 98.1572L1886.64 98.581L1887.22 97.9814C1886.91 97.3377 1886.6 96.6489 1886.3 96.023L1892.79 91.6476L1893.09 91.8199L1892.5 92.7724L1896.73 91.5389C1897.27 92.3915 1897.8 93.2454 1898.55 94.4495L1899.84 95.0032C1897.3 97.0261 1894.97 99.2084 1892.88 101.529C1889.86 104.561 1886.21 107.087 1883.01 109.903C1879.64 112.871 1875.8 115.535 1872.16 118.264C1870.1 119.847 1868.1 121.477 1865.99 123.029C1863.04 125.208 1860.12 127.42 1856.99 129.42C1855.6 130.298 1854.71 131.525 1853.05 132.236C1851.63 132.85 1850.6 134.04 1849.4 134.993C1846.26 137.344 1843.29 139.836 1840.5 142.455C1838.74 144.209 1836.71 145.761 1834.52 147.668L1830.79 148.183C1830.63 147.473 1830.08 146.76 1830.9 145.849L1828.58 145.957C1826.73 144.108 1825.73 141.81 1825.76 139.449L1827.45 138.084L1829.22 137.218C1828.69 136.493 1828.31 135.954 1827.95 135.447C1828.57 134.434 1829.12 133.43 1829.85 132.477C1830.57 131.523 1830.14 130.388 1832.12 130.308C1831.58 130.013 1831.41 129.914 1831.09 129.736C1832.43 129.097 1831.67 127.357 1833.63 127.067C1833.61 126.626 1833.58 126.231 1833.54 125.763L1834.36 125.492C1835.12 122.383 1837.26 119.714 1839.17 116.9C1839.13 116.72 1838.95 116.439 1839.02 116.244C1839.42 115.438 1839.63 114.306 1840.41 113.957C1841.65 113.34 1841.23 111.756 1843.03 111.619C1842.9 111.025 1842.86 110.465 1842.77 109.865L1843.84 109.384L1843.67 108.286L1845.84 105.965L1846.93 107.186L1848 105.258L1847.11 104.454C1847.57 104.215 1847.98 103.924 1848.33 103.59C1848.51 103.247 1848.61 102.881 1848.64 102.509L1847.67 101.716L1849.2 100.697L1850.81 100.827L1850.59 99.8372C1851.55 99.241 1852.23 98.8315 1852.29 97.7484C1852.38 95.8815 1853.47 94.0427 1854.2 92.2077C1854.31 91.9338 1854.9 91.7679 1855.23 91.5647L1854.79 91.2641C1855.35 90.3569 1856.02 89.4922 1856.78 88.6812C1857.76 87.944 1858.82 87.2736 1859.94 86.6765C1860.11 86.0973 1859.42 86.0444 1857.8 86.5454L1859.43 85.0879L1861.11 85.4858L1859.94 83.951L1860.41 83.2184C1860.07 83.0432 1859.6 82.6167 1859.31 82.6847C1858.06 82.8942 1856.76 82.771 1855.61 82.3339C1853.44 83.1252 1851.24 82.4 1849.08 82.5127C1846.73 82.6491 1844.37 82.6067 1842.02 82.3854C1839.81 82.0691 1837.56 81.9415 1835.32 82.0053C1833 82.1487 1830.76 81.7918 1828.47 81.8105C1826.13 81.7914 1823.79 81.6128 1821.48 81.2762C1819.25 80.9808 1817.01 81.1148 1814.77 80.785C1812.47 80.4445 1810.13 80.2587 1807.79 80.2294C1805.44 80.2201 1803.34 79.6758 1801.1 79.5502C1798.85 79.4246 1796.63 79.2402 1794.42 78.9627C1792.2 78.6853 1789.83 78.3081 1787.53 77.995C1785.24 77.6821 1783.11 77.4386 1780.71 77.1396L1778.38 75.8388L1778.83 75.2669C1778.69 74.2106 1777.56 74.3769 1776.87 74.1846C1776.4 73.1649 1775.94 72.2084 1775.47 71.1796L1775.87 70.6786C1774.14 69.5918 1775 68.3507 1775.7 67.2621C1776.52 66.162 1777.44 65.1064 1778.44 64.1023C1781.36 63.3558 1783.53 61.0808 1787.09 61.3305C1787.11 60.9563 1787.12 60.7238 1787.12 60.3332L1792.92 58.734L1793.01 58.1659C1794.64 57.5506 1796.25 56.9203 1797.84 56.3667C1798.47 56.1006 1799.18 56.0014 1799.89 56.0837C1800.49 56.2984 1801.15 56.3655 1801.8 56.276C1802.45 56.1866 1803.04 55.9446 1803.51 55.5821C1804.05 55.2304 1804.93 55.219 1805.56 54.7241L1803.13 55.0606C1803.25 54.7386 1803.28 54.5115 1803.33 54.5143C1804.89 54.2996 1806.39 53.8281 1807.71 53.1297C1808.73 52.5881 1809.98 52.379 1811.19 52.5463C1812.44 52.902 1813.38 52.3735 1814.99 52.5678C1814.41 52.1284 1814.26 52.0016 1814.09 51.8676C1815.72 50.7146 1816.43 50.3108 1818 50.6781C1819.23 50.9706 1820.13 50.4844 1821.17 50.1281L1818.05 50.2814L1823.25 48.6346C1817.95 47.5131 1813.74 45.6294 1809.35 44.0665C1805.76 42.9473 1802.46 41.3128 1799.62 39.2455C1799.07 38.8495 1798.2 38.7378 1797.6 38.3751C1796.57 37.7478 1795.69 36.9425 1794.62 36.3487C1793.55 35.7546 1792.39 35.5442 1791.46 34.9313C1789.02 33.415 1786.89 31.5123 1784.28 30.0824C1784.03 29.9414 1784.07 29.4815 1783.94 29.128C1783.46 28.9719 1782.8 28.916 1782.43 28.624C1780.57 27.2172 1778.82 25.7293 1777.17 24.167C1775.92 22.903 1774.55 21.7478 1773.4 20.3495C1772.46 18.9881 1771.65 17.5763 1770.97 16.1242C1770.2 14.5846 1770.15 12.8782 1770.83 11.3127C1773.36 12.5027 1775 10.3286 1777.23 10.1316L1774.07 10.3644L1773.98 9.97768L1777.86 9.44146C1778.55 9.34555 1779.36 9.38261 1779.68 8.7078C1780.22 9.37418 1780.79 8.42459 1781.25 8.6951C1782.07 9.17502 1782.13 7.90583 1782.98 8.29849C1783.52 8.48168 1784.11 8.54388 1784.69 8.47841C1785.38 8.41538 1786.06 8.32086 1786.74 8.19536L1787.5 9.26721L1787.73 8.11416L1789.06 7.83698C1789.76 8.22315 1790.6 8.68174 1791.33 9.09904L1792.63 8.85542L1792.88 7.77271L1793.75 8.7372L1794.43 8.64282L1794.81 7.53391C1796.7 7.74587 1798.47 8.17786 1800.45 7.86665C1801.45 7.86898 1802.45 8.00763 1803.39 8.27642L1803.69 8.01163L1809.11 8.39383L1807.79 9.5957C1808.72 9.58855 1809.63 9.37022 1810.4 8.96673L1810.67 9.07785L1811.22 9.37322L1811.55 8.96571C1811.6 8.90238 1811.68 8.84468 1811.75 8.7796L1814.63 9.10561L1815.1 11.2651L1815.56 11.3598L1816.2 10.186L1815.2 9.20278L1819.1 9.41404L1819.48 10.14C1820.86 9.08789 1822.16 9.60377 1823.49 10.1614C1823.93 10.333 1824.4 10.4464 1824.88 10.4966C1825.94 10.6102 1827.02 10.6562 1828.31 10.7563L1828.72 11.4128L1831.06 10.9599C1830.86 10.8665 1831.08 11.0408 1831.33 11.0707C1833.35 11.339 1835.4 11.4358 1837.35 11.814C1837.56 11.8108 1837.76 11.798 1837.97 11.7757C1839.27 11.8546 1840.11 13.0463 1841.56 12.7444C1843 12.4426 1843.82 13.1732 1844.98 13.2995C1846.15 13.426 1847.47 13.6609 1848.7 13.8709C1849.06 13.9768 1849.44 14.0614 1849.82 14.1238C1850.3 14.0963 1850.78 14.0304 1851.24 13.9272L1852.39 14.7699L1854.49 14.4789C1855.96 15.3422 1857.44 16.2326 1859.48 15.8296C1859.57 15.8025 1859.67 15.7914 1859.77 15.7969C1859.87 15.8026 1859.96 15.8248 1860.05 15.8619C1862.17 17.2 1864.95 16.8163 1867.32 17.638C1869.7 18.4596 1872.23 18.6376 1874.58 19.2956C1877.73 20.1679 1880.8 21.218 1883.9 22.1987C1884.19 22.2875 1884.46 22.4364 1884.66 22.6307C1886.42 24.3811 1888.14 26.1453 1889.7 27.7377C1889.67 28.9841 1889.65 30.0069 1889.63 31.327L1887.74 32.6449C1885.97 32.3707 1884.24 32.2014 1882.55 31.8141C1880.85 31.4674 1879.19 31.0223 1877.57 30.4818C1874.06 29.2602 1870.31 28.7039 1866.72 27.6886C1864.61 27.0997 1862.25 26.9989 1860.37 25.9055C1856.55 25.6455 1853.04 24.5636 1849.36 23.8388C1847.8 23.4193 1846.19 23.1048 1844.56 22.8987C1843.02 22.7972 1841.5 22.4973 1839.97 22.2905C1835.14 21.642 1830.4 20.9718 1825.61 20.3455C1823.12 20.0216 1820.61 19.7384 1818.1 19.5288C1815.59 19.3192 1812.97 19.2651 1810.51 18.947C1806.19 18.3943 1801.87 18.7968 1797.57 18.3717C1795.24 18.2823 1792.91 18.4209 1790.63 18.7843C1788.38 19.1406 1786.15 19.5147 1783.26 19.9141Z" fill="#1D1D1D"/>
<g clip-path="url(#clip1_205_81)">
<path d="M70.295 49.326L69.0219 48.5119L69.0163 46.9577L68.2066 47.0846L67.2852 45.3558C67.4714 44.9331 67.6369 44.572 67.8042 44.1934L66.7771 44.1343C66.8772 43.3203 66.9638 42.6005 67.0537 41.8173L67.716 41.9792L68.2417 41.1571C69.4085 41.436 70.6568 41.0759 71.5596 42.0454C71.7913 41.8011 72.0955 41.6377 72.4273 41.579C72.7589 41.5205 73.1008 41.5697 73.4023 41.7197C74.5542 42.1387 75.9115 41.8858 76.8723 42.4722C77.9796 43.1802 79.2244 43.0886 80.3662 43.4358C81.7318 43.8418 83.1371 44.2735 84.5809 44.5427C86.0247 44.8121 87.5174 45.0193 88.7717 45.8773C91.5617 45.9986 94.0152 47.362 96.6272 48.0979C98.733 48.5424 100.781 49.2253 102.733 50.1336C103.43 50.5044 104.439 50.2254 104.479 51.624C105.531 51.045 106.415 50.9188 107.316 51.5697C107.996 52 108.745 52.3112 109.53 52.4901C111.52 53.1168 113.473 53.8573 115.379 54.7076C117.165 55.3917 118.861 56.3177 120.626 56.9606C123.001 57.8343 124.853 59.4666 126.993 60.6483C127.357 60.8814 127.555 61.3906 127.895 61.6919C128.235 61.9933 128.943 62.1566 129.101 62.5378C129.259 62.919 129.764 62.9616 129.987 63.2259C130.376 63.5961 130.733 64.0019 131.179 64.4737C131.151 64.9413 131.718 65.5002 131.286 66.1765C131.18 66.3422 131.297 66.8748 131.46 66.97C132.72 67.6728 132.358 68.8522 132.317 70.0122C131.473 71.7703 129.944 72.4086 127.959 72.1387C127.696 72.1106 127.439 72.0463 127.194 71.9481C126.299 71.4515 125.359 71.044 124.385 70.7314C123.387 70.4518 122.445 70.004 121.598 69.4071C120.769 68.8772 119.928 68.0309 119.052 67.9844C118.175 67.9379 117.593 66.7156 116.563 67.1872C116.381 66.2302 115.252 66.7691 114.879 66.1105C113.945 66.2417 113.4 65.5011 112.644 65.2231C111.888 64.9449 111.264 64.6491 110.572 64.431C108.327 63.6783 106.137 62.7683 104.019 61.7075C102.674 61.9122 101.952 60.4414 100.6 60.5109C99.4461 60.5766 98.4488 59.7989 97.4044 59.4019C96.2151 58.9683 94.9999 58.4438 93.8156 57.9294C92.6314 57.415 91.5468 57.0951 90.4161 56.643C88.7571 55.9653 86.9294 55.7121 85.3191 54.8412C84.1686 55.1798 83.5848 53.8723 82.4553 53.9442C81.4617 53.8769 80.4974 53.58 79.638 53.0768C77.5226 52.1633 75.2275 52.0129 73.1059 51.226L71.5077 50.6431C71.7211 50.1632 71.8867 49.8019 72.1355 49.2231L70.295 49.326Z" fill="#1D1D1D"/>
<path d="M87.3435 89.1933L87.7824 89.0911L87.7945 90.7522L88.6549 90.0786C89.1471 90.4773 89.9395 90.8159 90.1224 91.3626C90.412 92.239 91.2592 91.7905 91.6539 92.3419C92.0487 92.8932 92.8615 93.0391 93.0389 93.5356C93.3185 94.3402 94.0565 94.457 94.5111 94.9438C94.944 95.4635 95.3485 96.0061 95.7232 96.569L97.0683 96.934L96.9513 98.5778L98.0083 97.6845C99.0554 99.699 101.392 100.427 102.515 102.322C102.432 102.54 102.37 102.725 102.19 103.226L102.998 102.575L104.095 103.781C103.917 104.06 103.795 104.383 103.574 104.83L104.215 104.792L104.716 105.644C105.02 105.446 105.279 105.276 105.527 105.107L106.232 106.838L105.799 107.719L107.496 107.87C107.574 109.209 108.571 110.426 108.185 111.935L107.497 112.121C107.621 112.686 107.839 112.695 108.711 112.15C108.834 112.215 108.952 112.29 109.062 112.375C109.109 112.404 109.11 112.489 109.193 112.71L108.264 113.331C108.186 113.701 108.086 114.151 107.987 114.713L107.15 113.627C106.985 114.119 106.857 114.495 106.627 115.161L105.572 113.552L106.152 113.362L105.47 112.207L104.694 113.421L103.192 113.273L101.235 110.49C100.285 110.017 99.4644 109.319 98.8451 108.457L98.1597 108.579L97.3268 107.253L97.9107 107.084C97.8627 106.97 97.8456 106.762 97.7732 106.744C96.9703 106.539 95.9724 106.639 95.6593 105.449C95.6006 105.234 94.9243 105.137 94.586 105.024C93.7695 104.772 93.0249 104.33 92.4139 103.733C91.8031 103.136 91.3435 102.402 91.0733 101.591C90.7121 101.526 90.3621 101.409 90.0341 101.245C89.676 101.016 89.3179 100.319 89.1312 100.378C88.1637 100.693 88.398 99.7128 87.9979 99.4475C87.5855 99.2055 87.2322 98.8746 86.9641 98.4785C86.3936 97.7278 85.7162 97.0647 84.9532 96.5106C82.5257 94.4874 80.2806 92.255 78.2437 89.8389C76.5999 88.017 75.0544 86.1089 73.6135 84.1226C72.5901 82.8146 71.7816 81.3518 71.2189 79.7893C70.8319 78.393 70.2175 76.9727 70.2566 75.3631L70.975 75.0284L70.8924 74.4711L73.0322 74.046C73.3131 74.3155 73.5229 74.6502 73.6431 75.0205C73.7634 75.3906 73.7902 75.7848 73.7211 76.1679L74.6228 75.1377L75.1399 75.4683L74.9612 76.2883L75.8346 76.2956L76.1064 77.0392L77.4988 76.7899C77.5309 77.5056 77.6191 78.2177 77.7622 78.9198C77.931 79.5322 78.9954 79.7084 78.5875 80.7554L77.8215 81.1061L78.99 81.9374L78.8172 80.8928C79.2081 81.0887 79.5613 81.3525 79.8603 81.6718C80.2774 82.3514 80.7715 82.9807 81.3326 83.5473C81.8439 84.09 82.3997 84.589 82.994 85.0392C83.5128 85.4549 83.9166 86.0214 84.4353 86.4372C84.9541 86.853 85.6632 87.1756 86.1788 87.6548C86.618 88.1269 87.0083 88.6423 87.3435 89.1933Z" fill="#1D1D1D"/>
<path d="M69.8753 141.484L68.9046 143.003C68.3945 143.148 67.8558 143.163 67.3386 143.044C66.8215 142.926 66.3428 142.679 65.9467 142.326L65.9812 141.162C64.3172 141.134 64.8881 139.248 63.7854 138.898C63.0276 137.162 62.7967 135.258 61.9137 133.601C61.8163 133.331 61.7508 133.051 61.7188 132.766C61.2772 130.814 60.6591 128.905 59.8721 127.065C59.3801 125.767 58.9827 124.436 58.6826 123.082C58.3536 121.61 57.8301 120.188 57.1262 118.854C57.0309 118.586 56.9677 118.307 56.9377 118.024C56.7552 116.898 56.4844 115.788 56.1277 114.704C55.8542 113.869 55.6309 113.018 55.459 112.156C55.1012 110.675 54.8357 109.173 54.6636 107.659C54.4272 106.144 54.1475 104.639 54.0005 103.115C54.0167 102.447 54.1094 101.782 54.2768 101.135L56.8912 100.742C57.5882 100.777 57.2364 101.897 57.6955 102.508L58.4345 102.448L60.4785 104.437C61.4248 107.34 62.6479 110.569 63.5847 113.896C64.0358 115.523 64.652 117.1 65.4233 118.602C65.8819 119.763 66.2442 120.96 66.5069 122.181C67.5761 125.322 68.3826 128.546 68.9178 131.821C69.3283 134.904 70.3134 137.907 69.8753 141.484Z" fill="#1D1D1D"/>
</g>
</g>
<defs>
<clipPath id="clip0_205_81">
<rect width="1920" height="1080" fill="white"/>
</clipPath>
<clipPath id="clip1_205_81">
<rect width="75.1783" height="102.647" fill="white" transform="translate(83.3557 153.896) rotate(-147.405)"/>
</clipPath>
</defs>
</svg>
