<svg width="1920" height="1080" viewBox="0 0 1920 1080" fill="none" xmlns="http://www.w3.org/2000/svg">
<g clip-path="url(#clip0_205_82)">
<rect width="1920" height="1080" fill="white"/>
<path fill-rule="evenodd" clip-rule="evenodd" d="M1531.22 -33.5859C1541.18 -51.4878 1553.12 -68.368 1576.35 -81.2984C1601.24 -95.1541 1631.5 -105.298 1667.83 -109.63C1711.53 -114.839 1762.62 -124.445 1803.67 -108.398C1844.86 -92.2967 1835.46 -59.6293 1857.94 -35.316C1880.72 -10.6678 1941.75 9.42319 1935.57 34.2851C1929.41 59.1048 1865.97 60.0689 1830.78 74.0979C1798.7 86.885 1780.02 109.241 1738.74 112.748C1694.67 116.492 1644.95 108.452 1603.51 93.4063C1562.39 78.4749 1527.99 55.9325 1513.85 31.0967C1500.77 8.11856 1519.58 -12.6578 1531.22 -33.5859Z" fill="#5C3AE2"/>
<path fill-rule="evenodd" clip-rule="evenodd" d="M-227.948 540.958C-215.258 512.862 -200.675 486.147 -175.094 464.451C-147.683 441.203 -115.301 423.13 -77.5087 413.366C-32.0583 401.624 21.57 382.548 61.3416 403.365C101.247 424.251 87.0644 474.754 106.671 509.766C126.548 545.259 186.195 570.479 176.404 608.829C166.631 647.114 101.566 654.127 63.5861 678.539C28.9691 700.79 6.72749 736.423 -36.0107 745.365C-81.6336 754.911 -131.393 747.031 -171.704 727.771C-211.706 708.658 -243.764 677.383 -254.764 640.848C-264.941 607.046 -242.782 573.804 -227.948 540.958Z" fill="#5C3AE2"/>
<path fill-rule="evenodd" clip-rule="evenodd" d="M82.8526 -190.874C147.936 -189.478 191.196 -137.382 231.707 -97.2764C263.43 -65.871 273.986 -27.0607 287.412 11.6399C300.094 48.194 310.243 83.5596 307.569 121.393C304.007 171.784 316.049 231.349 269.432 266.013C222.555 300.871 146.463 296.876 82.8526 288.495C26.0098 281.005 -26.442 257.073 -63.2549 222.179C-95.1603 191.935 -80.0944 146.273 -103.72 111.641C-136.232 63.9815 -232.782 38.9954 -224.875 -14.7368C-217.4 -65.5348 -124.573 -73.7095 -72.0185 -103.791C-19.4202 -133.897 17.835 -192.268 82.8526 -190.874Z" fill="#FFC800"/>
<path fill-rule="evenodd" clip-rule="evenodd" d="M268.87 802.083C339.295 819.528 366.054 887.067 394.513 940.825C416.798 982.92 413.099 1027.93 412.573 1073.53C412.076 1116.6 409.284 1157.75 391.541 1198.46C367.907 1252.68 357.694 1320.75 293.274 1347.25C228.494 1373.9 147.082 1350.92 80.9997 1326.2C21.9484 1304.11 -25.8708 1265.11 -52.3397 1217.96C-75.2794 1177.09 -40.9545 1130.85 -53.1453 1087.2C-69.9209 1027.14 -165.416 976.211 -135.735 919.397C-107.675 865.685 -3.24394 879.452 65.8552 859.416C135.012 839.365 198.515 784.656 268.87 802.083Z" fill="#FFC800"/>
<path fill-rule="evenodd" clip-rule="evenodd" d="M1249.28 973.625C1356.19 998.987 1410.43 1062.79 1464.08 1114.57C1506.08 1155.12 1510.73 1194.62 1520.16 1235.1C1529.06 1273.32 1534.17 1309.52 1517.32 1343.24C1494.87 1388.15 1495.15 1447.25 1406.85 1461.8C1318.05 1476.43 1193.83 1444.61 1091.65 1413.39C1000.34 1385.48 921.677 1344.12 872.42 1298.49C829.73 1258.94 869.6 1222.62 842.013 1182.11C804.049 1126.36 652.985 1067.71 683.699 1021.35C712.735 977.512 868.562 1004.36 965.154 996.209C1061.83 988.052 1142.48 948.288 1249.28 973.625Z" fill="#FFC800"/>
<path fill-rule="evenodd" clip-rule="evenodd" d="M2025.49 523.895C1987.77 537.106 1945.05 516.54 1908.04 502.258C1879.06 491.075 1859.64 471.087 1838.6 451.781C1818.74 433.545 1800.73 415.446 1789.21 393.17C1773.87 363.501 1746.43 331.93 1761.14 302.012C1775.93 271.928 1820.84 257.837 1860.12 248.95C1895.22 241.008 1933.48 243.443 1966.58 255.531C1995.26 266.009 2002.4 295.442 2027.86 310.219C2062.9 330.556 2126.75 324.101 2140.76 356.622C2154.01 387.367 2103.73 412.039 2084.04 440.607C2064.34 469.198 2063.16 510.698 2025.49 523.895Z" fill="#FFC800"/>
<path fill-rule="evenodd" clip-rule="evenodd" d="M1916.25 899.998C1953.12 904.495 1988.69 910.968 2020.39 928.214C2054.37 946.694 2083.04 970.724 2102.69 1001.42C2126.32 1038.34 2160.57 1080.68 2143.32 1120.26C2126.01 1159.98 2061.5 1159.43 2022.81 1184.73C1983.58 1210.39 1965.03 1268.35 1916.25 1268.79C1867.54 1269.22 1845.67 1214.08 1808.11 1186.65C1773.88 1161.64 1725.86 1150.57 1706.2 1115.37C1685.22 1077.79 1684.64 1032.51 1699.88 992.822C1715.01 953.435 1746.59 918.134 1788.91 899.981C1828.06 883.185 1873.14 894.741 1916.25 899.998Z" fill="#5C3AE2"/>
<path fill-rule="evenodd" clip-rule="evenodd" d="M1113.27 -232.982C1146.78 -196.326 1176.84 -159.313 1191.38 -117.484C1206.96 -72.662 1211.11 -28.3298 1198.77 13.0126C1183.93 62.7326 1174.34 126.189 1114.18 141.164C1053.82 156.189 987.386 97.6905 920.178 82.3602C852.044 66.819 770.923 94.7828 719.77 51.1998C668.704 7.69155 704.814 -54.4949 695.063 -109.441C686.174 -159.522 648.091 -211.28 665.23 -256.106C683.526 -303.959 731.235 -339.363 789.419 -356.228C847.16 -372.965 917.647 -371.731 980.982 -347.628C1039.58 -325.328 1074.1 -275.835 1113.27 -232.982Z" fill="#5C3AE2"/>
<path d="M79.8944 184.456C77.0987 182.812 73.7077 181.899 74.5464 177.832C74.9197 175.207 75.6435 172.643 76.6979 170.21C80.3444 163.075 83.6747 155.697 88.2573 149.195C94.3347 140.55 102.94 134.876 113.783 134.438C124.126 134.036 134.507 134.584 144.863 134.839C159.096 135.205 173.378 136.447 186.615 129.165C195.123 124.502 202.319 118.828 206.877 109.867C212.031 99.7246 217.476 89.6917 223.578 80.1093C232.086 66.716 244.071 58.0468 260.116 55.7578C261.745 55.5264 263.762 54.8445 264.977 55.5385C266.92 56.8665 268.537 58.6193 269.707 60.6644C270.12 61.3585 269.28 63.6112 268.405 64.1226C266.534 65.2428 264.224 65.5591 262.194 66.448C260.613 67.2358 259.082 68.1225 257.612 69.1025C257.332 69.2729 257.04 69.6623 256.798 69.6259C251.388 69.0293 248.933 73.7779 245.177 76.1156C236.499 81.5216 231.309 89.9109 226.605 98.6288C222.168 106.872 217.938 115.224 213.404 123.406C212.109 125.795 210.41 127.941 208.384 129.75C202.526 134.779 196.546 139.247 189.094 142.315C174.63 148.282 160.105 146.589 145.337 145.725C136.196 145.177 126.946 144.678 117.879 145.493C106.356 146.528 98.4309 153.822 91.9889 163.087C90.3114 165.522 87.7589 167.361 86.0571 169.784C84.9268 171.403 84.6956 173.607 83.9179 175.482C82.6658 178.368 81.3044 181.254 79.8944 184.456ZM263.665 58.071L263.447 57.2797L247.244 61.7725L247.499 62.71L263.665 58.071Z" fill="#1D1D1D"/>
<path d="M229.151 39.9054L226.975 41.7561H230.014C232.189 45.7376 230.816 48.6597 227.85 51.2166C225.261 53.4447 222.866 55.9896 219.038 55.8678C218.637 55.8678 217.98 56.0261 217.822 56.2818C216.376 59.7519 213.823 59.6058 211.064 58.3517C210.906 59.9955 211.064 61.6757 210.517 62.9663C209.684 64.3444 208.633 65.5781 207.406 66.6191C200.939 73.3158 198.423 81.9728 195.178 90.3739C192.2 98.0812 188.043 105.229 180.653 109.746C179.346 110.293 177.985 110.701 176.593 110.963C175.377 112.911 173.651 115.322 169.871 115.675C167.671 115.882 165.641 117.806 163.441 118.111C157.363 118.829 151.153 119.839 145.136 119.328C139.557 118.829 133.99 116.893 128.666 114.835C117.41 110.57 105.15 109.723 93.4165 112.4C86.6933 113.698 80.6251 117.286 76.2413 122.555C74.7362 124.135 73.1457 125.63 71.4767 127.035C63.9309 134.387 57.9085 143.159 53.7548 152.848C52.4663 155.868 51.2388 158.936 49.9504 161.931C49.3427 163.356 48.662 164.062 46.9725 162.917C42.8034 160.117 42.1105 158.278 43.326 153.092C48.1029 132.308 60.7074 117.197 77.8095 105.435C85.3942 100.236 94.2916 99.1649 103.165 99.4206C109.188 99.727 115.17 100.595 121.032 102.014C126.502 103.232 131.777 105.301 137.186 106.811C143.762 108.65 150.338 107.432 156.853 106.324C173.323 103.536 183.509 93.7466 188.529 78.0156C194.096 60.5555 205.278 47.9413 221.87 40.2705C223.924 39.3208 226.367 39.2114 228.64 38.7122C228.859 39.0774 229.005 39.4914 229.151 39.9054ZM157.303 109.161L157.522 109.965L167.537 107.25L167.331 106.458L157.303 109.161ZM76.8735 109.161L77.3598 110.038L85.5766 105.496L85.0293 104.51L76.8735 109.161Z" fill="#1D1D1D"/>
<path d="M259.353 112.312C258.138 113.712 256.777 115.088 255.525 116.525C254.99 117.133 254.006 118.229 254.151 118.424C256.096 121.066 254.054 123.294 252.632 124.268C248.986 126.85 250.201 130.514 249.678 133.765C249.386 135.701 246.968 138.745 245.193 139.074C245.047 138.197 244.913 137.333 244.768 136.468C243.947 136.76 243.173 137.17 242.471 137.686C241.362 138.813 240.315 140 239.335 141.241L242.385 141.85C242.567 142.958 242.738 144.03 242.908 145.089C239.578 146.307 236.235 146.903 233.682 149.764C232.297 151.323 230.388 152.053 231.482 154.635C231.567 154.854 230.267 156.084 230.036 155.962C224.846 153.271 222.038 158.081 220.458 160.589C219.398 162.343 217.829 163.732 215.961 164.57C214.745 165.179 212.74 164.351 211.099 164.217C210.597 164.245 210.1 164.326 209.616 164.461C209.701 165.447 209.762 166.348 209.822 167.225C206.857 168.442 206.857 168.442 200.099 166.616C199.503 170.342 196.452 171.596 192.563 169.575C192.344 170.317 192.137 171.023 192.113 171.121C188.065 171.023 183.835 166.957 180.359 172.923C177.296 169.538 174.111 170.987 170.635 172.765C169.006 173.592 166.794 173.458 164.861 173.471C156.924 173.471 149.06 174.067 141.39 176.369C137.61 177.501 134.401 179.802 130.84 180.849C123.133 183.114 119.596 189.957 114.199 194.681C111.659 196.897 110.371 200.525 108.462 203.472C107.247 205.262 106.785 208.099 103.394 206.419C100.768 205.116 99.7473 203.46 100.963 200.257C106.615 185.427 115.743 173.897 130.803 167.383C142.132 162.512 153.897 162.44 165.858 162.123C173.552 161.904 181.234 161.368 188.952 161.015C190.168 161.015 192.174 159.883 191.639 162.707L190.143 163.267V163.791C190.876 163.932 191.622 163.989 192.368 163.961C193.219 163.852 194.045 163.243 194.86 163.267C201.484 163.511 207.075 160.296 212.618 157.496C218.449 154.35 224.102 150.883 229.55 147.11C231.164 145.833 232.653 144.407 233.999 142.849L233.901 142.922L237.852 139.78L233.221 139.5C235.396 136.834 237.208 134.313 239.359 132.11C240.781 130.648 241.79 131.294 242.787 133.875L247.843 133.522L245.643 130.563C244.221 130.442 242.459 130.722 242.167 130.186C241.734 129.016 241.67 127.741 241.984 126.533C242.307 124.815 242.816 123.136 243.503 121.529C244.137 120.443 244.887 119.431 245.74 118.509C245.108 115.867 246.214 113.152 250.894 107.125L253.045 108.184C252.62 104.105 253.045 103.448 255.039 103.606V107.746L254.966 107.648C255.671 109.085 256.364 110.522 257.141 112.129L258.709 111.691L259.353 112.312Z" fill="#1D1D1D"/>
<g clip-path="url(#clip1_205_82)">
<path d="M1629.56 66.7847L1631.22 66.0347L1631.84 66.2692C1632.89 65.8368 1633.94 65.4199 1634.98 65.0264C1635.86 64.6968 1636.78 64.4423 1637.63 64.0669C1638.49 63.6916 1639.58 63.3373 1640.53 62.8633C1641.47 62.3893 1642.19 61.7184 1643.16 61.6453C1644.29 61.537 1644.99 60.5686 1646 60.3158C1646.95 60.0052 1647.87 59.6473 1648.78 59.2435L1648.63 58.911C1651.23 57.4681 1653.88 56.0723 1656.12 53.7724C1656.19 53.7991 1656.48 53.7748 1656.82 53.7742L1656.63 53.1954C1657.95 52.0726 1659.18 50.8325 1660.49 49.736C1662.13 48.3955 1663.44 46.6912 1665.27 45.5777C1666.21 44.9694 1667.01 44.1618 1667.61 43.2115C1667.98 42.6568 1668.33 42.9245 1668.73 42.8211L1668.58 41.9891L1671.74 39.2063L1672.16 40.0237C1672.82 39.858 1673.64 40.1989 1674.34 38.9651L1674.29 40.7215L1675.78 39.9771L1675.62 39.1079L1676.63 38.2767C1676.81 38.342 1677.02 38.4251 1677.02 38.5145C1677.1 39.1382 1677.12 39.7625 1677.21 40.3628C1678.14 40.9242 1678.41 39.9343 1679.01 39.6477L1679.21 40.1166L1680.14 40.01L1680.67 42.131C1679.98 44.0733 1679.42 46.0548 1678.97 48.0647C1678.78 49.1474 1678.16 50.1903 1678.27 51.2021C1678.36 52.4471 1677.47 53.3045 1677.5 54.376C1677.54 55.4477 1676.85 56.493 1676.79 57.5367C1676.73 58.5804 1676.11 59.6526 1676.05 60.6963C1675.91 63.1696 1674.9 65.5282 1675.13 68.0468C1674.52 68.8874 1674.97 70.1377 1674.05 70.8705C1674.2 72.0611 1674.12 73.2679 1673.83 74.4312C1673.55 76.1015 1673.82 77.8358 1673.2 79.5251C1673.11 80.1718 1673.13 80.8272 1673.25 81.4679L1677.13 76.3344L1678.6 75.8649L1678.76 74.1471C1680.23 72.5206 1681.15 70.2238 1683.39 69.1704C1682.86 68.2296 1683.8 67.5475 1683.85 66.7662C1685.86 64.948 1686.9 62.5984 1688.54 60.2614L1689.26 59.9776C1689.96 59.1958 1689.85 58.045 1690.8 57.3473C1691.51 56.7261 1692 55.8959 1692.2 54.9768C1692.49 53.9939 1693.04 53.1116 1693.81 52.4335C1694.64 51.6944 1694.64 50.7348 1695.25 49.8834L1696.31 49.4511C1696.92 47.2823 1698.14 45.3139 1699.15 43.1839L1700.29 42.8473L1701.13 40.6751L1701.65 41.6237C1701.8 41.1477 1702.08 40.7245 1702.46 40.4063C1702.84 40.088 1703.31 39.8886 1703.81 39.8326C1703.95 40.0232 1704.13 40.2334 1704.28 40.4162L1708.73 38.5074C1709.23 38.8763 1709.61 39.1636 1710.12 39.5355L1710.19 40.3983L1710.68 40.5884L1711.28 39.8573C1712.57 40.2422 1713.11 41.3045 1713.55 42.4333C1713.35 43.4838 1713.35 43.4837 1714.32 44.6199L1714.16 43.5271L1714.93 43.6188L1714.62 45.038L1715.21 44.8534L1717.62 48.5502L1717.26 49.4888L1718.04 49.2103L1718.01 50.0899L1718.91 50.4313L1719.32 51.3643C1718.76 51.6737 1718.41 52.3917 1717.59 52.2143C1718.27 53.2482 1719.02 52.5367 1719.92 52.2162L1719.6 53.3457C1720.26 54.2056 1720.74 55.1887 1721.92 55.6769C1722.92 56.0598 1723.02 57.2708 1723.05 58.4211L1723.84 58.198L1723.62 59.4214L1724.35 59.5925C1724.77 60.4086 1725.29 61.1675 1725.9 61.8507C1726.94 62.7822 1726.84 64.2709 1727.92 65.2094C1728.86 66.1042 1729.62 67.1708 1730.16 68.3518C1731.1 69.9781 1732.15 71.5407 1733.29 73.0297L1733.74 71.866L1733.01 71.1086L1733.94 70.413C1733.87 69.7256 1733.75 69.044 1733.58 68.3729C1733.41 67.8185 1733.66 67.0512 1732.88 66.7514C1733.39 66.0588 1732.97 65.3724 1732.69 64.7241L1733.13 64.5277C1732.21 62.1631 1731.73 59.6466 1731.73 57.1074L1730.67 54.8709L1730.94 54.1727L1730.04 50.771L1731.42 50.5605L1731.11 48.4826C1730.5 48.4116 1729.98 48.344 1729.47 48.2822L1728.35 43.409C1728.85 43.7694 1729.22 44.2782 1729.41 44.8616C1730.24 44.2197 1729.41 43.6892 1729.33 43.1335L1730.28 42.5177C1729.93 42.2684 1729.57 42.0269 1729.26 41.7895L1729.7 41.593L1728.66 41.7583L1728.45 39.9798L1729.11 39.6273L1728.86 38.9879C1728.25 38.8769 1727.59 38.7511 1726.99 38.6459L1725.97 32.591L1726.22 32.4886L1726.74 33.2952L1727.34 30.1085C1728.21 30.1726 1729.07 30.2444 1730.28 30.3449L1731.19 29.8037C1731.84 32.3157 1732.68 34.7714 1733.72 37.1469C1734.97 40.4277 1735.6 43.8598 1736.62 47.1488C1737.69 50.611 1738.35 54.2262 1739.14 57.747C1739.62 59.7606 1740.15 61.7533 1740.59 63.7783C1741.2 66.6182 1741.85 69.4546 1742.25 72.3224C1742.43 73.5894 1743.06 74.7106 1743 76.0674C1742.95 77.2327 1743.5 78.4215 1743.81 79.6047C1744.48 82.6429 1745.33 85.64 1746.35 88.5816C1747.07 90.485 1747.53 92.4665 1748.21 94.7099L1747.24 97.2545C1746.62 97.02 1745.87 97.0236 1745.46 96.0935L1744.69 97.5767C1742.56 97.8613 1740.39 97.4048 1738.56 96.2837L1738.12 94.6027L1738.1 93.1084C1737.34 93.0935 1736.77 93.0819 1736.25 93.0667C1735.68 92.2114 1735.1 91.4025 1734.63 90.5089C1734.15 89.6151 1733.1 89.3563 1733.77 88.0921C1733.34 88.2915 1733.2 88.3459 1732.95 88.461C1732.94 87.338 1731.3 86.9955 1731.8 85.6475C1731.45 85.4584 1731.13 85.2921 1730.75 85.0942L1730.84 84.4618C1728.69 82.5459 1727.4 79.9784 1725.91 77.4864C1725.75 77.427 1725.46 77.4066 1725.34 77.2697C1724.86 76.6492 1724.05 75.9934 1724.06 75.3498C1724.04 74.292 1722.65 73.8131 1723.21 72.6386C1722.69 72.4427 1722.24 72.2073 1721.74 71.9804L1721.76 71.0977L1720.84 70.692L1719.83 68.2684L1721.18 68.1647L1720.07 66.6017L1719.12 66.778C1719.1 66.3846 1719.02 65.9958 1718.89 65.6247C1718.69 65.3518 1718.44 65.116 1718.16 64.9275L1717.18 65.158L1716.95 63.7363L1717.65 62.8017L1716.8 62.4752C1716.69 61.6053 1716.62 60.9925 1715.79 60.4541C1714.37 59.5269 1713.34 57.9935 1712.17 56.686C1712 56.4943 1712.09 56.0487 1712.05 55.75L1711.65 55.8825C1711.15 55.1135 1710.72 54.3 1710.37 53.4522C1710.16 52.5013 1710.02 51.5343 1709.97 50.5613C1709.58 50.1892 1709.28 50.5914 1709.08 51.8209L1708.54 50.1385L1709.47 49.2853L1707.84 49.2928L1707.44 48.6602C1707.18 48.7906 1706.67 48.8815 1706.62 49.0921C1706.32 49.9608 1705.75 50.7068 1704.98 51.2132C1704.8 52.9222 1703.42 53.9424 1702.71 55.3261C1701.95 56.843 1701.05 58.2835 1700.01 59.6273C1698.95 60.8458 1698.02 62.175 1697.24 63.592C1696.5 65.0871 1695.39 66.3084 1694.56 67.7263C1693.68 69.1674 1692.68 70.5301 1691.56 71.7992C1690.51 73.0338 1689.79 74.4823 1688.71 75.7127C1687.59 76.976 1686.58 78.3314 1685.7 79.7643C1684.82 81.2089 1683.62 82.2527 1682.7 83.5794C1681.77 84.9061 1680.81 86.1917 1679.78 87.4321C1678.74 88.6725 1677.57 89.9597 1676.48 91.2318C1675.39 92.504 1674.41 93.7049 1673.3 95.0467L1671.42 95.8771L1671.14 95.3337C1670.26 94.9274 1669.97 95.7062 1669.57 96.0408C1668.6 95.8564 1667.69 95.6929 1666.71 95.5055L1666.47 95.0216C1664.98 95.5824 1664.33 94.4707 1663.74 93.5325C1663.18 92.5115 1662.69 91.4547 1662.28 90.369C1662.77 88.2189 1661.8 85.8177 1663.3 83.7357C1663.02 83.5471 1662.84 83.4341 1662.54 83.2474L1663.43 78.9194L1663.02 78.6016C1663.14 77.3056 1663.24 76.019 1663.4 74.7795C1663.42 74.2686 1663.61 73.779 1663.93 73.3831C1664.32 73.1136 1664.62 72.7335 1664.79 72.2919C1664.96 71.8506 1664.99 71.3683 1664.88 70.9084C1664.8 70.416 1665.12 69.8621 1664.96 69.2426L1664.33 70.9028C1664.12 70.6807 1663.95 70.5552 1663.97 70.5271C1664.38 69.4592 1664.57 68.3173 1664.51 67.1747C1664.46 66.2908 1664.76 65.4232 1665.34 64.7526C1666.08 64.1461 1666.01 63.3202 1666.76 62.4143C1666.2 62.5662 1666.05 62.604 1665.88 62.6466C1665.58 61.1007 1665.53 60.4753 1666.39 59.6771C1667.08 59.0498 1667.03 58.2667 1667.13 57.4615L1666.1 59.4594L1666.74 55.4775C1663.91 58.2275 1660.88 59.9514 1658.04 61.9333C1655.84 63.6286 1653.35 64.9029 1650.69 65.6923C1650.17 65.8511 1649.77 66.3355 1649.26 66.5343C1648.39 66.8775 1647.44 67.0462 1646.58 67.4294C1645.72 67.8124 1645.13 68.4307 1644.31 68.7206C1642.22 69.5234 1639.95 69.9526 1637.87 70.8924C1637.67 70.9835 1637.33 70.7448 1637 70.6572C1636.71 70.8808 1636.41 71.2677 1636.05 71.3595C1634.27 71.8488 1632.46 72.2376 1630.63 72.5239C1629.18 72.7078 1627.78 73.0144 1626.26 73.0743C1624.85 73.0174 1623.45 72.8613 1622.06 72.6068C1620.58 72.3634 1619.23 71.5976 1618.26 70.4474C1620.12 69.4429 1619.03 67.4154 1619.69 65.946L1618.71 68.0064L1618.38 67.8788L1619.39 65.2333C1619.57 64.7602 1619.9 64.2802 1619.49 63.7679C1620.21 63.7418 1619.68 62.9505 1620.06 62.7937C1620.73 62.5104 1619.76 61.8818 1620.38 61.5409C1620.73 61.2926 1620.99 60.955 1621.16 60.565C1621.36 60.1103 1621.54 59.644 1621.69 59.1686L1622.81 59.1964L1621.99 58.5192L1622.27 57.5664C1622.83 57.3174 1623.5 57.0126 1624.09 56.7521L1624.38 55.8394L1623.63 55.1781L1624.7 55.091L1624.88 54.6254L1624.15 53.876C1625.01 52.8094 1626.01 51.9168 1626.49 50.5472C1626.87 49.9295 1627.34 49.3801 1627.9 48.9234L1627.8 48.6116L1630.1 45.4439L1630.55 46.8178C1630.89 46.2423 1631.05 45.5822 1631.02 44.9163L1631.21 44.8009L1631.64 44.6017L1631.45 44.2066C1631.42 44.1422 1631.4 44.0653 1631.38 43.9931L1632.69 42.3706L1634.55 43.083L1634.79 42.8465L1634.12 41.9018L1632.98 42.0625L1634.58 39.7506L1635.29 39.8525C1634.98 38.5137 1635.86 37.9527 1636.78 37.391C1637.08 37.1995 1637.34 36.9605 1637.56 36.6836C1638.04 36.0841 1638.47 35.4406 1639.03 34.6917L1639.69 34.7419L1640.2 33.0868C1640.06 33.1646 1640.27 33.1134 1640.39 32.9713C1641.34 31.851 1642.17 30.6305 1643.19 29.597C1643.26 29.4689 1643.33 29.3366 1643.39 29.2008C1643.93 28.4305 1645.17 28.469 1645.47 27.4356C1645.76 26.4022 1646.64 26.2379 1647.17 25.5774C1647.69 24.9169 1648.36 24.2126 1648.98 23.5508C1649.2 23.3742 1649.4 23.1819 1649.59 22.9755C1649.75 22.6656 1649.87 22.3406 1649.96 22.0058L1651.04 21.6902L1651.59 20.2549C1652.81 19.7507 1654.05 19.2555 1654.49 17.805C1654.5 17.7353 1654.53 17.6693 1654.57 17.6111C1654.61 17.5531 1654.66 17.5043 1654.72 17.4682C1656.55 16.7805 1657.28 14.8875 1658.79 13.8049C1660.31 12.7224 1661.38 11.2392 1662.77 10.0954C1664.61 8.55896 1666.56 7.15355 1668.47 5.69636C1668.65 5.55384 1668.86 5.46077 1669.09 5.42631C1671.1 5.15687 1673.12 4.9137 1674.94 4.69347C1675.9 5.29292 1676.69 5.78238 1677.71 6.41338L1678.04 8.19461C1677.17 9.16102 1676.41 10.1476 1675.48 11.0115C1674.58 11.8999 1673.62 12.7208 1672.6 13.4675C1670.35 15.0625 1668.53 17.123 1666.42 18.8656C1665.18 19.8947 1664.23 21.3019 1662.68 21.9545C1661.07 24.1924 1658.93 25.8552 1657.01 27.7877C1656.1 28.5584 1655.27 29.404 1654.5 30.3153C1653.85 31.2228 1653.06 32.0215 1652.34 32.8655C1650.05 35.547 1647.77 38.1635 1645.52 40.8307C1644.35 42.2151 1643.2 43.6346 1642.11 45.0856C1641.02 46.5367 1640.01 48.133 1638.85 49.5048C1636.83 51.9139 1635.55 54.7687 1633.63 57.2272C1632.7 58.6224 1631.95 60.1269 1631.39 61.7067C1630.84 63.2575 1630.31 64.8143 1629.56 66.7847Z" fill="#1D1D1D"/>
</g>
</g>
<defs>
<clipPath id="clip0_205_82">
<rect width="1920" height="1080" fill="white"/>
</clipPath>
<clipPath id="clip1_205_82">
<rect width="90.0314" height="132.758" fill="white" transform="translate(1769.67 39.4935) rotate(110.939)"/>
</clipPath>
</defs>
</svg>
