<svg width="500" height="500" viewBox="0 0 500 500" fill="none" xmlns="http://www.w3.org/2000/svg">
<path d="M249 466.94C368.901 466.94 466.1 410.823 466.1 341.6C466.1 272.377 368.901 216.26 249 216.26C129.099 216.26 31.9 272.377 31.9 341.6C31.9 410.823 129.099 466.94 249 466.94Z" fill="#EBEBEB"/>
<path d="M466.1 341.48C466.05 312.74 448.98 284.01 414.9 260.75L413.07 259.52L106.83 436.33L108.72 437.26C149 457 198.9 466.91 248.78 466.94L466.1 341.48Z" fill="#FAFAFA"/>
<path d="M199.81 272.78C220.929 272.78 238.05 262.894 238.05 250.7C238.05 238.506 220.929 228.62 199.81 228.62C178.691 228.62 161.57 238.506 161.57 250.7C161.57 262.894 178.691 272.78 199.81 272.78Z" fill="#E0E0E0"/>
<path opacity="0.05" d="M319.42 403.05C350.431 403.05 375.57 388.535 375.57 370.63C375.57 352.725 350.431 338.21 319.42 338.21C288.409 338.21 263.27 352.725 263.27 370.63C263.27 388.535 288.409 403.05 319.42 403.05Z" fill="black"/>
<path d="M96.67 382.05C121.07 382.05 140.85 370.629 140.85 356.54C140.85 342.451 121.07 331.03 96.67 331.03C72.27 331.03 52.49 342.451 52.49 356.54C52.49 370.629 72.27 382.05 96.67 382.05Z" fill="#E0E0E0"/>
<path d="M191 143.5V250.5C191 251.78 191.85 253.07 193.55 254.05C195.454 255.012 197.557 255.512 199.69 255.512C201.823 255.512 203.926 255.012 205.83 254.05C207.53 253.05 208.38 251.78 208.38 250.5V143.5H191Z" fill="#5C3AE2"/>
<path d="M257.21 198.86L203.4 68.9H195.9L142.08 198.9C141.693 199.839 141.518 200.852 141.568 201.867C141.618 202.881 141.892 203.872 142.369 204.768C142.847 205.665 143.517 206.444 144.332 207.052C145.146 207.659 146.085 208.078 147.08 208.28L147.96 208.45C149.666 208.788 151.18 209.76 152.197 211.171C153.214 212.581 153.658 214.325 153.44 216.05V216.05C153.3 217.19 153.447 218.346 153.868 219.414C154.288 220.483 154.969 221.429 155.848 222.167C156.728 222.905 157.778 223.412 158.903 223.641C160.028 223.871 161.192 223.815 162.29 223.48L164.95 222.66C166.548 222.168 168.27 222.275 169.794 222.962C171.319 223.648 172.54 224.867 173.23 226.39L175.91 232.29C176.309 233.17 176.889 233.957 177.612 234.598C178.336 235.239 179.186 235.72 180.108 236.011C181.029 236.301 182.002 236.394 182.962 236.284C183.922 236.174 184.848 235.862 185.68 235.37L196.12 229.18C197.179 228.551 198.388 228.218 199.62 228.218C200.852 228.218 202.061 228.551 203.12 229.18L213.56 235.37C214.392 235.862 215.318 236.174 216.278 236.284C217.238 236.394 218.211 236.301 219.133 236.011C220.054 235.72 220.905 235.239 221.628 234.598C222.351 233.957 222.931 233.17 223.33 232.29L226 226.39C226.692 224.867 227.915 223.647 229.441 222.961C230.967 222.274 232.691 222.167 234.29 222.66L236.95 223.47C238.047 223.808 239.211 223.866 240.336 223.638C241.461 223.411 242.511 222.905 243.39 222.167C244.269 221.429 244.95 220.482 245.369 219.414C245.788 218.345 245.933 217.189 245.79 216.05V216.05C245.577 214.324 246.025 212.582 247.043 211.172C248.061 209.763 249.575 208.79 251.28 208.45L252.16 208.28C253.166 208.087 254.116 207.673 254.941 207.066C255.767 206.459 256.446 205.676 256.93 204.773C257.414 203.871 257.69 202.871 257.739 201.848C257.787 200.825 257.606 199.804 257.21 198.86Z" fill="#FFC800"/>
<path opacity="0.3" d="M257.21 198.86L203.4 68.9H195.9L142.08 198.9C141.693 199.839 141.518 200.852 141.568 201.867C141.618 202.881 141.892 203.872 142.369 204.768C142.847 205.665 143.517 206.444 144.332 207.052C145.146 207.659 146.085 208.078 147.08 208.28L147.96 208.45C149.666 208.788 151.18 209.76 152.197 211.171C153.214 212.581 153.658 214.325 153.44 216.05V216.05C153.3 217.19 153.447 218.346 153.868 219.414C154.288 220.483 154.969 221.429 155.848 222.167C156.728 222.905 157.778 223.412 158.903 223.641C160.028 223.871 161.192 223.815 162.29 223.48L164.95 222.66C166.548 222.168 168.27 222.275 169.794 222.962C171.319 223.648 172.54 224.867 173.23 226.39L175.91 232.29C176.309 233.17 176.889 233.957 177.612 234.598C178.336 235.239 179.186 235.72 180.108 236.011C181.029 236.301 182.002 236.394 182.962 236.284C183.922 236.174 184.848 235.862 185.68 235.37L196.12 229.18C197.179 228.551 198.388 228.218 199.62 228.218C200.852 228.218 202.061 228.551 203.12 229.18L213.56 235.37C214.392 235.862 215.318 236.174 216.278 236.284C217.238 236.394 218.211 236.301 219.133 236.011C220.054 235.72 220.905 235.239 221.628 234.598C222.351 233.957 222.931 233.17 223.33 232.29L226 226.39C226.692 224.867 227.915 223.647 229.441 222.961C230.967 222.274 232.691 222.167 234.29 222.66L236.95 223.47C238.047 223.808 239.211 223.866 240.336 223.638C241.461 223.411 242.511 222.905 243.39 222.167C244.269 221.429 244.95 220.482 245.369 219.414C245.788 218.345 245.933 217.189 245.79 216.05V216.05C245.577 214.324 246.025 212.582 247.043 211.172C248.061 209.763 249.575 208.79 251.28 208.45L252.16 208.28C253.166 208.087 254.116 207.673 254.941 207.066C255.767 206.459 256.446 205.676 256.93 204.773C257.414 203.871 257.69 202.871 257.739 201.848C257.787 200.825 257.606 199.804 257.21 198.86Z" fill="black"/>
<path opacity="0.1" d="M189.89 83.42L195.89 69.76H203.39L213.33 92.91L245.81 171.34C245.654 172.164 245.243 172.919 244.635 173.497C244.026 174.075 243.251 174.447 242.42 174.56C241.102 174.777 239.918 175.494 239.113 176.56C238.309 177.627 237.946 178.963 238.1 180.29L238.21 181.29C238.315 182.176 238.189 183.075 237.846 183.898C237.502 184.722 236.952 185.443 236.248 185.992C235.544 186.541 234.711 186.899 233.828 187.032C232.946 187.164 232.044 187.067 231.21 186.75L228.55 185.75C227.308 185.277 225.932 185.297 224.705 185.807C223.477 186.316 222.492 187.276 221.95 188.49L218.65 195.9C218.349 196.57 217.909 197.169 217.361 197.657C216.812 198.146 216.166 198.513 215.466 198.735C214.765 198.957 214.026 199.028 213.296 198.944C212.566 198.861 211.862 198.624 211.23 198.25L202.31 192.25C201.504 191.769 200.583 191.515 199.645 191.515C198.707 191.515 197.786 191.769 196.98 192.25L187.03 198.25C186.398 198.624 185.694 198.861 184.964 198.944C184.234 199.028 183.495 198.957 182.794 198.735C182.094 198.513 181.448 198.146 180.9 197.657C180.351 197.169 179.912 196.57 179.61 195.9L176.31 188.49C175.768 187.276 174.783 186.316 173.555 185.807C172.328 185.297 170.952 185.277 169.71 185.75L167.05 186.75C166.216 187.064 165.315 187.159 164.434 187.025C163.553 186.891 162.721 186.533 162.018 185.984C161.315 185.436 160.765 184.716 160.42 183.894C160.076 183.072 159.948 182.176 160.05 181.29L160.17 180.29C160.324 178.963 159.961 177.627 159.157 176.56C158.353 175.494 157.168 174.777 155.85 174.56C155.255 174.482 154.686 174.268 154.187 173.935C153.687 173.602 153.271 173.159 152.97 172.64L189.89 83.42Z" fill="black"/>
<path d="M245.21 161.08L203.4 63.71H195.9L153 161.08C151.46 164.21 152.34 167.94 155.79 168.51C157.108 168.727 158.293 169.444 159.097 170.51C159.901 171.577 160.264 172.913 160.11 174.24L159.99 175.24C159.889 176.126 160.017 177.022 160.362 177.844C160.707 178.666 161.256 179.386 161.959 179.935C162.661 180.484 163.492 180.843 164.373 180.979C165.254 181.115 166.155 181.022 166.99 180.71L169.65 179.71C170.892 179.237 172.268 179.257 173.495 179.767C174.723 180.276 175.709 181.236 176.25 182.45L179.55 189.86C179.849 190.532 180.287 191.133 180.836 191.624C181.384 192.114 182.03 192.482 182.731 192.704C183.433 192.926 184.173 192.997 184.904 192.912C185.635 192.827 186.339 192.588 186.97 192.21L196.92 186.27C197.726 185.789 198.647 185.535 199.585 185.535C200.524 185.535 201.444 185.789 202.25 186.27L211.17 192.21C211.801 192.588 212.506 192.827 213.236 192.912C213.967 192.997 214.708 192.926 215.409 192.704C216.11 192.482 216.756 192.114 217.305 191.624C217.853 191.133 218.291 190.532 218.59 189.86L221.89 182.45C222.432 181.236 223.417 180.276 224.645 179.767C225.872 179.257 227.248 179.237 228.49 179.71L231.15 180.71C231.985 181.025 232.887 181.12 233.769 180.985C234.651 180.851 235.484 180.491 236.187 179.942C236.89 179.393 237.44 178.671 237.784 177.848C238.128 177.024 238.254 176.126 238.15 175.24L238.04 174.24C237.886 172.912 238.248 171.575 239.053 170.506C239.857 169.438 241.041 168.72 242.36 168.5V168.5C245.88 167.94 246.76 164.21 245.21 161.08Z" fill="#FFC800"/>
<path opacity="0.2" d="M245.21 161.08L203.4 63.71H195.9L153 161.08C151.46 164.21 152.34 167.94 155.79 168.51C157.108 168.727 158.293 169.444 159.097 170.51C159.901 171.577 160.264 172.913 160.11 174.24L159.99 175.24C159.889 176.126 160.017 177.022 160.362 177.844C160.707 178.666 161.256 179.386 161.959 179.935C162.661 180.484 163.492 180.843 164.373 180.979C165.254 181.115 166.155 181.022 166.99 180.71L169.65 179.71C170.892 179.237 172.268 179.257 173.495 179.767C174.723 180.276 175.709 181.236 176.25 182.45L179.55 189.86C179.849 190.532 180.287 191.133 180.836 191.624C181.384 192.114 182.03 192.482 182.731 192.704C183.433 192.926 184.173 192.997 184.904 192.912C185.635 192.827 186.339 192.588 186.97 192.21L196.92 186.27C197.726 185.789 198.647 185.535 199.585 185.535C200.524 185.535 201.444 185.789 202.25 186.27L211.17 192.21C211.801 192.588 212.506 192.827 213.236 192.912C213.967 192.997 214.708 192.926 215.409 192.704C216.11 192.482 216.756 192.114 217.305 191.624C217.853 191.133 218.291 190.532 218.59 189.86L221.89 182.45C222.432 181.236 223.417 180.276 224.645 179.767C225.872 179.257 227.248 179.237 228.49 179.71L231.15 180.71C231.985 181.025 232.887 181.12 233.769 180.985C234.651 180.851 235.484 180.491 236.187 179.942C236.89 179.393 237.44 178.671 237.784 177.848C238.128 177.024 238.254 176.126 238.15 175.24L238.04 174.24C237.886 172.912 238.248 171.575 239.053 170.506C239.857 169.438 241.041 168.72 242.36 168.5V168.5C245.88 167.94 246.76 164.21 245.21 161.08Z" fill="black"/>
<path opacity="0.1" d="M195.9 63.71H203.4L233.87 134.66C233.634 134.868 233.376 135.049 233.1 135.2L232.87 135.33C232.086 135.773 231.446 136.432 231.024 137.227C230.603 138.023 230.417 138.923 230.49 139.82V139.82C230.555 140.568 230.439 141.321 230.152 142.015C229.865 142.709 229.415 143.324 228.841 143.807C228.266 144.291 227.583 144.629 226.851 144.793C226.118 144.957 225.356 144.942 224.63 144.75L222.81 144.27C221.792 144.002 220.712 144.085 219.747 144.506C218.782 144.927 217.987 145.661 217.49 146.59L215 151.24C214.414 152.325 213.426 153.137 212.247 153.5C211.069 153.863 209.795 153.748 208.7 153.18L201.82 149.58C201.15 149.23 200.406 149.048 199.65 149.048C198.895 149.048 198.15 149.23 197.48 149.58L190.6 153.18C189.505 153.748 188.232 153.863 187.053 153.5C185.875 153.137 184.886 152.325 184.3 151.24L181.81 146.59C181.312 145.66 180.515 144.926 179.548 144.505C178.581 144.084 177.5 144.001 176.48 144.27L174.67 144.75C173.944 144.942 173.183 144.957 172.45 144.793C171.717 144.629 171.034 144.291 170.46 143.807C169.885 143.324 169.435 142.709 169.148 142.015C168.861 141.321 168.745 140.568 168.81 139.82C168.885 138.924 168.7 138.025 168.278 137.23C167.856 136.436 167.215 135.78 166.43 135.34L166.2 135.21C165.708 134.927 165.271 134.558 164.91 134.12L195.9 63.71Z" fill="black"/>
<path d="M234.8 122.78L203.37 56.71L203.12 56.31C202.77 55.6991 202.264 55.1916 201.655 54.8386C201.046 54.4856 200.354 54.2997 199.65 54.2997C198.946 54.2997 198.254 54.4856 197.645 54.8386C197.036 55.1916 196.53 55.6991 196.18 56.31L195.93 56.72L164.5 122.78C164.167 123.318 163.947 123.918 163.852 124.543C163.758 125.168 163.791 125.806 163.95 126.418C164.109 127.031 164.39 127.604 164.777 128.105C165.164 128.605 165.648 129.022 166.2 129.33L166.43 129.46C167.214 129.901 167.855 130.557 168.276 131.351C168.698 132.145 168.883 133.044 168.81 133.94C168.745 134.688 168.861 135.441 169.148 136.135C169.435 136.829 169.885 137.444 170.46 137.927C171.034 138.411 171.717 138.749 172.45 138.913C173.183 139.077 173.944 139.062 174.67 138.87L176.48 138.39C177.5 138.123 178.58 138.206 179.547 138.627C180.513 139.048 181.311 139.782 181.81 140.71L184.3 145.36C184.884 146.447 185.872 147.26 187.052 147.623C188.231 147.987 189.506 147.87 190.6 147.3L197.48 143.71C198.15 143.36 198.894 143.178 199.65 143.178C200.406 143.178 201.15 143.36 201.82 143.71L208.7 147.3C209.794 147.87 211.069 147.987 212.248 147.623C213.428 147.26 214.416 146.447 215 145.36L217.49 140.71C217.988 139.782 218.783 139.049 219.748 138.628C220.713 138.207 221.792 138.124 222.81 138.39L224.63 138.87C225.356 139.062 226.118 139.077 226.85 138.913C227.583 138.749 228.266 138.411 228.841 137.927C229.415 137.444 229.865 136.829 230.152 136.135C230.439 135.441 230.555 134.688 230.49 133.94V133.94C230.417 133.044 230.602 132.145 231.024 131.351C231.446 130.557 232.086 129.901 232.87 129.46L233.1 129.33C233.652 129.022 234.137 128.605 234.523 128.105C234.91 127.604 235.191 127.031 235.35 126.418C235.509 125.806 235.542 125.168 235.448 124.543C235.353 123.918 235.133 123.318 234.8 122.78V122.78Z" fill="#FFC800"/>
<path opacity="0.1" d="M234.8 122.78L203.37 56.71L203.12 56.31C202.77 55.6991 202.264 55.1916 201.655 54.8386C201.046 54.4856 200.354 54.2997 199.65 54.2997C198.946 54.2997 198.254 54.4856 197.645 54.8386C197.036 55.1916 196.53 55.6991 196.18 56.31L195.93 56.72L164.5 122.78C164.167 123.318 163.947 123.918 163.852 124.543C163.758 125.168 163.791 125.806 163.95 126.418C164.109 127.031 164.39 127.604 164.777 128.105C165.164 128.605 165.648 129.022 166.2 129.33L166.43 129.46C167.214 129.901 167.855 130.557 168.276 131.351C168.698 132.145 168.883 133.044 168.81 133.94C168.745 134.688 168.861 135.441 169.148 136.135C169.435 136.829 169.885 137.444 170.46 137.927C171.034 138.411 171.717 138.749 172.45 138.913C173.183 139.077 173.944 139.062 174.67 138.87L176.48 138.39C177.5 138.123 178.58 138.206 179.547 138.627C180.513 139.048 181.311 139.782 181.81 140.71L184.3 145.36C184.884 146.447 185.872 147.26 187.052 147.623C188.231 147.987 189.506 147.87 190.6 147.3L197.48 143.71C198.15 143.36 198.894 143.178 199.65 143.178C200.406 143.178 201.15 143.36 201.82 143.71L208.7 147.3C209.794 147.87 211.069 147.987 212.248 147.623C213.428 147.26 214.416 146.447 215 145.36L217.49 140.71C217.988 139.782 218.783 139.049 219.748 138.628C220.713 138.207 221.792 138.124 222.81 138.39L224.63 138.87C225.356 139.062 226.118 139.077 226.85 138.913C227.583 138.749 228.266 138.411 228.841 137.927C229.415 137.444 229.865 136.829 230.152 136.135C230.439 135.441 230.555 134.688 230.49 133.94V133.94C230.417 133.044 230.602 132.145 231.024 131.351C231.446 130.557 232.086 129.901 232.87 129.46L233.1 129.33C233.652 129.022 234.137 128.605 234.523 128.105C234.91 127.604 235.191 127.031 235.35 126.418C235.509 125.806 235.542 125.168 235.448 124.543C235.353 123.918 235.133 123.318 234.8 122.78V122.78Z" fill="black"/>
<path d="M195.46 253.82C195.401 252.445 194.812 251.146 193.818 250.194C192.824 249.242 191.501 248.711 190.125 248.711C188.749 248.711 187.426 249.242 186.432 250.194C185.438 251.146 184.85 252.445 184.79 253.82V254.12C184.869 254.555 185.052 254.964 185.324 255.312C185.595 255.661 185.948 255.938 186.35 256.12C187.521 256.712 188.814 257.02 190.125 257.02C191.436 257.02 192.73 256.712 193.9 256.12C194.302 255.936 194.653 255.659 194.924 255.311C195.196 254.963 195.38 254.554 195.46 254.12V253.82V253.82Z" fill="#37474F"/>
<path d="M193.9 256.15C194.302 255.966 194.653 255.689 194.925 255.341C195.196 254.992 195.38 254.584 195.46 254.15V253.85C195.434 252.918 195.163 252.009 194.675 251.214C194.187 250.419 193.499 249.766 192.68 249.32C192.68 249.38 195.34 252.67 193.4 254.87C192.06 256.39 187.4 256.67 185.4 255.47C185.666 255.755 185.977 255.995 186.32 256.18C187.497 256.772 188.797 257.077 190.114 257.072C191.431 257.067 192.728 256.751 193.9 256.15V256.15Z" fill="#222222"/>
<path d="M186.83 256.51C186.78 255.545 186.362 254.636 185.661 253.971C184.961 253.305 184.031 252.934 183.065 252.934C182.099 252.934 181.169 253.305 180.469 253.971C179.768 254.636 179.35 255.545 179.3 256.51V256.72C179.353 257.03 179.481 257.322 179.673 257.571C179.864 257.821 180.114 258.019 180.4 258.15C181.226 258.569 182.139 258.787 183.065 258.787C183.991 258.787 184.904 258.569 185.73 258.15C186.016 258.019 186.266 257.821 186.457 257.571C186.649 257.322 186.777 257.03 186.83 256.72C186.835 256.683 186.835 256.646 186.83 256.61C186.835 256.577 186.835 256.543 186.83 256.51V256.51Z" fill="#455A64"/>
<path d="M185.73 258.15C186.016 258.019 186.266 257.821 186.458 257.571C186.649 257.322 186.777 257.03 186.83 256.72C186.835 256.684 186.835 256.647 186.83 256.61C186.835 256.577 186.835 256.543 186.83 256.51C186.82 256.082 186.735 255.659 186.58 255.26C186.67 256.87 185.91 257.85 183.53 258.16C181.15 258.47 179.59 257.45 179.39 257.08C179.587 257.543 179.941 257.922 180.39 258.15C181.217 258.571 182.132 258.79 183.06 258.79C183.988 258.79 184.903 258.571 185.73 258.15Z" fill="#37474F"/>
<path d="M214.46 252.74C214.41 251.783 213.995 250.881 213.3 250.221C212.605 249.561 211.683 249.193 210.725 249.193C209.767 249.193 208.845 249.561 208.15 250.221C207.455 250.881 207.04 251.783 206.99 252.74C206.985 252.773 206.985 252.807 206.99 252.84C206.985 252.877 206.985 252.914 206.99 252.95C207.039 253.259 207.165 253.55 207.355 253.798C207.545 254.046 207.795 254.243 208.08 254.37C208.9 254.784 209.806 255 210.725 255C211.644 255 212.55 254.784 213.37 254.37C213.654 254.24 213.902 254.043 214.092 253.796C214.282 253.548 214.408 253.258 214.46 252.95V252.74Z" fill="#455A64"/>
<path d="M213.37 254.37C213.654 254.24 213.902 254.043 214.092 253.796C214.282 253.548 214.408 253.258 214.46 252.95V252.74C214.451 252.315 214.366 251.895 214.21 251.5C214.3 253.1 213.54 254.07 211.21 254.37C208.88 254.67 207.3 253.67 207.1 253.31C207.301 253.769 207.654 254.143 208.1 254.37C208.918 254.781 209.82 254.995 210.735 254.995C211.65 254.995 212.552 254.781 213.37 254.37V254.37Z" fill="#37474F"/>
<path d="M105.5 241.57V357.16C105.5 358.55 104.58 359.94 102.75 361C100.691 362.041 98.4169 362.583 96.1101 362.583C93.8033 362.583 91.5288 362.041 89.4701 361C87.6401 359.94 86.7301 358.55 86.7301 357.16V241.57H105.5Z" fill="#5C3AE2"/>
<path d="M33.91 301.4L92.06 161H100.16L158.32 301.46C158.74 302.475 158.93 303.571 158.876 304.669C158.822 305.766 158.525 306.838 158.006 307.807C157.488 308.776 156.761 309.618 155.878 310.272C154.995 310.926 153.978 311.376 152.9 311.59L151.9 311.78C150.058 312.147 148.422 313.197 147.323 314.72C146.223 316.243 145.739 318.126 145.97 319.99V319.99C146.12 321.22 145.96 322.467 145.504 323.619C145.049 324.772 144.313 325.791 143.363 326.586C142.413 327.382 141.279 327.926 140.065 328.171C138.85 328.417 137.594 328.354 136.41 327.99L133.54 327.11C131.81 326.563 129.94 326.668 128.282 327.405C126.624 328.141 125.293 329.459 124.54 331.11L121.65 337.49C121.219 338.441 120.591 339.291 119.809 339.984C119.027 340.676 118.108 341.196 117.112 341.509C116.115 341.823 115.064 341.922 114.026 341.802C112.989 341.681 111.988 341.343 111.09 340.81L99.9 334.12C98.7518 333.443 97.4431 333.086 96.11 333.086C94.777 333.086 93.4683 333.443 92.32 334.12L81 340.81C80.1019 341.343 79.1013 341.681 78.0637 341.802C77.0261 341.922 75.9748 341.823 74.9783 341.509C73.9818 341.196 73.0626 340.676 72.2806 339.984C71.4986 339.291 70.8715 338.441 70.44 337.49L67.55 331.11C66.7969 329.459 65.4659 328.141 63.808 327.405C62.1501 326.668 60.2799 326.563 58.55 327.11L55.67 327.99C54.486 328.354 53.2297 328.417 52.0154 328.171C50.801 327.926 49.6673 327.382 48.7172 326.586C47.7672 325.791 47.031 324.772 46.5757 323.619C46.1203 322.467 45.9603 321.22 46.11 319.99V319.99C46.3458 318.126 45.866 316.243 44.7673 314.719C43.6685 313.195 42.0328 312.145 40.19 311.78L39.19 311.59C38.1169 311.361 37.1079 310.897 36.2353 310.232C35.3628 309.566 34.6485 308.716 34.1437 307.742C33.6389 306.768 33.3561 305.694 33.3157 304.597C33.2753 303.501 33.4783 302.409 33.91 301.4V301.4Z" fill="#FFC800"/>
<path opacity="0.3" d="M33.91 301.4L92.06 161H100.16L158.32 301.46C158.74 302.475 158.93 303.571 158.876 304.669C158.822 305.766 158.525 306.838 158.006 307.807C157.488 308.776 156.761 309.618 155.878 310.272C154.995 310.926 153.978 311.376 152.9 311.59L151.9 311.78C150.058 312.147 148.422 313.197 147.323 314.72C146.223 316.243 145.739 318.126 145.97 319.99V319.99C146.12 321.22 145.96 322.467 145.504 323.619C145.049 324.772 144.313 325.791 143.363 326.586C142.413 327.382 141.279 327.926 140.065 328.171C138.85 328.417 137.594 328.354 136.41 327.99L133.54 327.11C131.81 326.563 129.94 326.668 128.282 327.405C126.624 328.141 125.293 329.459 124.54 331.11L121.65 337.49C121.219 338.441 120.591 339.291 119.809 339.984C119.027 340.676 118.108 341.196 117.112 341.509C116.115 341.823 115.064 341.922 114.026 341.802C112.989 341.681 111.988 341.343 111.09 340.81L99.9 334.12C98.7518 333.443 97.4431 333.086 96.11 333.086C94.777 333.086 93.4683 333.443 92.32 334.12L81 340.81C80.1019 341.343 79.1013 341.681 78.0637 341.802C77.0261 341.922 75.9748 341.823 74.9783 341.509C73.9818 341.196 73.0626 340.676 72.2806 339.984C71.4986 339.291 70.8715 338.441 70.44 337.49L67.55 331.11C66.7969 329.459 65.4659 328.141 63.808 327.405C62.1501 326.668 60.2799 326.563 58.55 327.11L55.67 327.99C54.486 328.354 53.2297 328.417 52.0154 328.171C50.801 327.926 49.6673 327.382 48.7172 326.586C47.7672 325.791 47.031 324.772 46.5757 323.619C46.1203 322.467 45.9603 321.22 46.11 319.99V319.99C46.3458 318.126 45.866 316.243 44.7673 314.719C43.6685 313.195 42.0328 312.145 40.19 311.78L39.19 311.59C38.1169 311.361 37.1079 310.897 36.2353 310.232C35.3628 309.566 34.6485 308.716 34.1437 307.742C33.6389 306.768 33.3561 305.694 33.3157 304.597C33.2753 303.501 33.4783 302.409 33.91 301.4V301.4Z" fill="black"/>
<path opacity="0.1" d="M106.66 176.64L100.16 161.88H92.0601L81.3201 186.88L46.2201 271.64C46.3899 272.529 46.8345 273.342 47.4911 273.965C48.1478 274.587 48.9835 274.988 49.8801 275.11V275.11C51.3054 275.347 52.585 276.123 53.4543 277.277C54.3236 278.431 54.7159 279.875 54.5501 281.31L54.4301 282.39C54.319 283.349 54.4567 284.32 54.8299 285.21C55.203 286.1 55.7992 286.879 56.5608 287.472C57.3224 288.065 58.2238 288.451 59.1783 288.595C60.1327 288.738 61.108 288.633 62.0101 288.29L64.8801 287.19C66.2281 286.682 67.7197 286.709 69.0479 287.267C70.3761 287.825 71.4398 288.871 72.0201 290.19L75.5801 298.19C75.9022 298.915 76.3744 299.563 76.9654 300.092C77.5565 300.621 78.253 301.019 79.009 301.259C79.765 301.499 80.5633 301.576 81.3512 301.485C82.1392 301.393 82.8988 301.136 83.5801 300.73L93.2301 294.31C94.099 293.79 95.0926 293.516 96.1051 293.516C97.1176 293.516 98.1112 293.79 98.9801 294.31L109.75 300.73C110.432 301.135 111.191 301.391 111.979 301.481C112.766 301.571 113.564 301.494 114.32 301.254C115.075 301.014 115.771 300.617 116.363 300.089C116.954 299.561 117.427 298.914 117.75 298.19L121.31 290.19C121.89 288.871 122.954 287.825 124.282 287.267C125.611 286.709 127.102 286.682 128.45 287.19L131.32 288.29C132.222 288.633 133.197 288.738 134.152 288.595C135.106 288.451 136.008 288.065 136.769 287.472C137.531 286.879 138.127 286.1 138.5 285.21C138.874 284.32 139.011 283.349 138.9 282.39L138.78 281.31C138.614 279.875 139.007 278.431 139.876 277.277C140.745 276.123 142.025 275.347 143.45 275.11C144.093 275.027 144.707 274.797 145.247 274.438C145.786 274.079 146.235 273.601 146.56 273.04L106.66 176.64Z" fill="black"/>
<path d="M46.87 260.56L92.06 155.34H100.16L146.48 260.56C148.14 263.95 147.19 267.98 143.48 268.56C142.055 268.797 140.775 269.572 139.906 270.727C139.037 271.881 138.644 273.325 138.81 274.76L138.93 275.83C139.041 276.789 138.903 277.76 138.53 278.65C138.157 279.54 137.561 280.319 136.799 280.912C136.038 281.505 135.136 281.891 134.182 282.035C133.227 282.178 132.252 282.073 131.35 281.73L128.48 280.64C127.132 280.132 125.64 280.159 124.312 280.717C122.984 281.275 121.92 282.321 121.34 283.64L117.78 291.64C117.455 292.363 116.982 293.009 116.391 293.536C115.799 294.063 115.103 294.459 114.348 294.699C113.593 294.939 112.796 295.017 112.009 294.927C111.221 294.838 110.462 294.583 109.78 294.18L99 287.75C98.1311 287.23 97.1375 286.956 96.125 286.956C95.1125 286.956 94.1189 287.23 93.25 287.75L83.6 294.18C82.918 294.583 82.1586 294.838 81.3714 294.927C80.5842 295.017 79.787 294.939 79.032 294.699C78.2769 294.459 77.5809 294.063 76.9895 293.536C76.3981 293.009 75.9246 292.363 75.6 291.64L72.04 283.64C71.4597 282.321 70.396 281.275 69.0678 280.717C67.7396 280.159 66.248 280.132 64.9 280.64L62 281.76C61.0979 282.103 60.1226 282.208 59.1682 282.065C58.2137 281.921 57.3123 281.535 56.5507 280.942C55.7891 280.349 55.193 279.57 54.8198 278.68C54.4466 277.79 54.3089 276.819 54.42 275.86L54.54 274.78C54.7056 273.346 54.313 271.903 53.4435 270.751C52.5741 269.598 51.2945 268.824 49.87 268.59V268.59C46.16 268 45.2 263.94 46.87 260.56Z" fill="#FFC800"/>
<path opacity="0.2" d="M46.87 260.56L92.06 155.34H100.16L146.48 260.56C148.14 263.95 147.19 267.98 143.48 268.56C142.055 268.797 140.775 269.572 139.906 270.727C139.037 271.881 138.644 273.325 138.81 274.76L138.93 275.83C139.041 276.789 138.903 277.76 138.53 278.65C138.157 279.54 137.561 280.319 136.799 280.912C136.038 281.505 135.136 281.891 134.182 282.035C133.227 282.178 132.252 282.073 131.35 281.73L128.48 280.64C127.132 280.132 125.64 280.159 124.312 280.717C122.984 281.275 121.92 282.321 121.34 283.64L117.78 291.64C117.455 292.363 116.982 293.009 116.391 293.536C115.799 294.063 115.103 294.459 114.348 294.699C113.593 294.939 112.796 295.017 112.009 294.927C111.221 294.838 110.462 294.583 109.78 294.18L99 287.75C98.1311 287.23 97.1375 286.956 96.125 286.956C95.1125 286.956 94.1189 287.23 93.25 287.75L83.6 294.18C82.918 294.583 82.1586 294.838 81.3714 294.927C80.5842 295.017 79.787 294.939 79.032 294.699C78.2769 294.459 77.5809 294.063 76.9895 293.536C76.3981 293.009 75.9246 292.363 75.6 291.64L72.04 283.64C71.4597 282.321 70.396 281.275 69.0678 280.717C67.7396 280.159 66.248 280.132 64.9 280.64L62 281.76C61.0979 282.103 60.1226 282.208 59.1682 282.065C58.2137 281.921 57.3123 281.535 56.5507 280.942C55.7891 280.349 55.193 279.57 54.8198 278.68C54.4466 277.79 54.3089 276.819 54.42 275.86L54.54 274.78C54.7056 273.346 54.313 271.903 53.4435 270.751C52.5741 269.598 51.2945 268.824 49.87 268.59V268.59C46.16 268 45.2 263.94 46.87 260.56Z" fill="black"/>
<path opacity="0.1" d="M100.16 155.34H92.06L59.13 232C59.386 232.221 59.6641 232.416 59.96 232.58L60.21 232.72C61.0596 233.195 61.7539 233.906 62.2098 234.766C62.6656 235.626 62.8636 236.6 62.78 237.57V237.57C62.7118 238.379 62.8387 239.192 63.1501 239.942C63.4615 240.691 63.9482 241.355 64.5695 241.877C65.1907 242.399 65.9283 242.765 66.7201 242.943C67.512 243.121 68.335 243.106 69.12 242.9L71.12 242.38C72.2199 242.088 73.3863 242.176 74.43 242.63C75.4737 243.083 76.3335 243.876 76.87 244.88L79.57 249.88C80.1984 251.055 81.2658 251.934 82.5395 252.326C83.8133 252.717 85.1901 252.589 86.37 251.97L93.81 248.09C94.5322 247.706 95.3373 247.506 96.155 247.506C96.9727 247.506 97.7778 247.706 98.5 248.09L105.93 251.97C107.112 252.587 108.489 252.714 109.764 252.322C111.038 251.931 112.108 251.054 112.74 249.88L115.43 244.88C115.97 243.877 116.831 243.085 117.876 242.631C118.921 242.177 120.089 242.089 121.19 242.38L123.19 242.9C123.975 243.107 124.797 243.122 125.589 242.944C126.38 242.766 127.117 242.4 127.738 241.877C128.359 241.355 128.844 240.691 129.155 239.941C129.465 239.191 129.59 238.378 129.52 237.57C129.44 236.602 129.639 235.631 130.095 234.773C130.55 233.915 131.243 233.206 132.09 232.73L132.35 232.58C132.881 232.282 133.349 231.885 133.73 231.41L100.16 155.34Z" fill="black"/>
<path d="M58.13 219.18L92.13 147.78L92.39 147.35C92.768 146.689 93.3138 146.14 93.9724 145.758C94.6309 145.376 95.3787 145.175 96.14 145.175C96.9013 145.175 97.6491 145.376 98.3076 145.758C98.9661 146.14 99.512 146.689 99.89 147.35L100.17 147.79L134.17 219.18C134.528 219.761 134.766 220.409 134.868 221.084C134.97 221.76 134.934 222.449 134.763 223.11C134.592 223.771 134.29 224.391 133.873 224.932C133.457 225.474 132.935 225.925 132.34 226.26L132.08 226.4C131.233 226.876 130.54 227.585 130.085 228.443C129.629 229.301 129.43 230.272 129.51 231.24C129.58 232.048 129.455 232.862 129.145 233.611C128.834 234.361 128.349 235.025 127.728 235.548C127.107 236.07 126.37 236.436 125.579 236.614C124.787 236.792 123.965 236.777 123.18 236.57L121.18 236.05C120.079 235.759 118.911 235.847 117.866 236.301C116.821 236.755 115.96 237.547 115.42 238.55L112.73 243.55C112.098 244.724 111.028 245.601 109.754 245.993C108.479 246.384 107.102 246.257 105.92 245.64L98.49 241.76C97.7678 241.377 96.9627 241.176 96.145 241.176C95.3273 241.176 94.5222 241.377 93.8 241.76L86.36 245.64C85.1801 246.259 83.8033 246.387 82.5295 245.996C81.2558 245.604 80.1884 244.725 79.56 243.55L76.86 238.55C76.3235 237.546 75.4637 236.753 74.42 236.3C73.3763 235.846 72.2099 235.758 71.11 236.05L69.11 236.57C68.325 236.776 67.502 236.791 66.7101 236.613C65.9183 236.435 65.1807 236.069 64.5595 235.547C63.9382 235.025 63.4515 234.361 63.1401 233.612C62.8287 232.862 62.7017 232.049 62.77 231.24V231.24C62.8593 230.271 62.6636 229.296 62.2071 228.437C61.7506 227.577 61.053 226.869 60.2 226.4L59.95 226.25C59.3559 225.915 58.8356 225.464 58.4203 224.923C58.005 224.382 57.7033 223.763 57.5333 223.103C57.3633 222.443 57.3285 221.755 57.4311 221.081C57.5336 220.406 57.7713 219.76 58.13 219.18V219.18Z" fill="#FFC800"/>
<path opacity="0.1" d="M58.13 219.18L92.13 147.78L92.39 147.35C92.768 146.689 93.3138 146.14 93.9724 145.758C94.6309 145.376 95.3787 145.175 96.14 145.175C96.9013 145.175 97.6491 145.376 98.3076 145.758C98.9661 146.14 99.512 146.689 99.89 147.35L100.17 147.79L134.17 219.18C134.528 219.761 134.766 220.409 134.868 221.084C134.97 221.76 134.934 222.449 134.763 223.11C134.592 223.771 134.29 224.391 133.873 224.932C133.457 225.474 132.935 225.925 132.34 226.26L132.08 226.4C131.233 226.876 130.54 227.585 130.085 228.443C129.629 229.301 129.43 230.272 129.51 231.24C129.58 232.048 129.455 232.862 129.145 233.611C128.834 234.361 128.349 235.025 127.728 235.548C127.107 236.07 126.37 236.436 125.579 236.614C124.787 236.792 123.965 236.777 123.18 236.57L121.18 236.05C120.079 235.759 118.911 235.847 117.866 236.301C116.821 236.755 115.96 237.547 115.42 238.55L112.73 243.55C112.098 244.724 111.028 245.601 109.754 245.993C108.479 246.384 107.102 246.257 105.92 245.64L98.49 241.76C97.7678 241.377 96.9627 241.176 96.145 241.176C95.3273 241.176 94.5222 241.377 93.8 241.76L86.36 245.64C85.1801 246.259 83.8033 246.387 82.5295 245.996C81.2558 245.604 80.1884 244.725 79.56 243.55L76.86 238.55C76.3235 237.546 75.4637 236.753 74.42 236.3C73.3763 235.846 72.2099 235.758 71.11 236.05L69.11 236.57C68.325 236.776 67.502 236.791 66.7101 236.613C65.9183 236.435 65.1807 236.069 64.5595 235.547C63.9382 235.025 63.4515 234.361 63.1401 233.612C62.8287 232.862 62.7017 232.049 62.77 231.24V231.24C62.8593 230.271 62.6636 229.296 62.2071 228.437C61.7506 227.577 61.053 226.869 60.2 226.4L59.95 226.25C59.3559 225.915 58.8356 225.464 58.4203 224.923C58.005 224.382 57.7033 223.763 57.5333 223.103C57.3633 222.443 57.3285 221.755 57.4311 221.081C57.5336 220.406 57.7713 219.76 58.13 219.18V219.18Z" fill="black"/>
<path d="M100.64 360.79C100.702 359.303 101.336 357.897 102.411 356.866C103.485 355.836 104.916 355.26 106.405 355.26C107.894 355.26 109.325 355.836 110.399 356.866C111.474 357.897 112.108 359.303 112.17 360.79V361.11C112.087 361.585 111.891 362.032 111.599 362.415C111.306 362.798 110.926 363.105 110.49 363.31C109.226 363.953 107.828 364.288 106.41 364.288C104.992 364.288 103.594 363.953 102.33 363.31C101.892 363.106 101.51 362.8 101.215 362.417C100.921 362.034 100.724 361.586 100.64 361.11V360.79Z" fill="#37474F"/>
<path d="M102.33 363.31C101.892 363.106 101.51 362.8 101.215 362.417C100.921 362.034 100.724 361.586 100.64 361.11V360.79C100.669 359.784 100.962 358.803 101.488 357.945C102.014 357.087 102.756 356.382 103.64 355.9C103.64 355.95 100.77 359.51 102.87 361.9C104.32 363.54 109.3 363.84 111.48 362.55C111.182 362.85 110.846 363.109 110.48 363.32C109.217 363.96 107.82 364.292 106.404 364.29C104.988 364.289 103.592 363.953 102.33 363.31V363.31Z" fill="#222222"/>
<path d="M110 363.69C110 362.611 110.429 361.575 111.192 360.812C111.955 360.049 112.991 359.62 114.07 359.62C115.149 359.62 116.185 360.049 116.948 360.812C117.711 361.575 118.14 362.611 118.14 363.69C118.144 363.727 118.144 363.763 118.14 363.8C118.145 363.84 118.145 363.88 118.14 363.92C118.085 364.256 117.947 364.574 117.739 364.844C117.532 365.115 117.261 365.33 116.95 365.47C116.058 365.923 115.071 366.159 114.07 366.159C113.069 366.159 112.082 365.923 111.19 365.47C110.882 365.326 110.613 365.11 110.406 364.84C110.199 364.571 110.059 364.255 110 363.92V363.69Z" fill="#455A64"/>
<path d="M111.15 365.47C110.842 365.326 110.573 365.11 110.366 364.84C110.159 364.57 110.02 364.255 109.96 363.92V363.69C109.976 363.227 110.07 362.771 110.24 362.34C110.14 364.09 110.96 365.14 113.54 365.47C116.12 365.8 117.79 364.71 118.01 364.31C117.792 364.814 117.402 365.225 116.91 365.47C116.018 365.923 115.031 366.159 114.03 366.159C113.029 366.159 112.042 365.923 111.15 365.47V365.47Z" fill="#37474F"/>
<path d="M80.1101 359.62C80.1101 358.55 80.5352 357.523 81.2919 356.767C82.0486 356.01 83.0749 355.585 84.1451 355.585C85.2152 355.585 86.2416 356.01 86.9983 356.767C87.755 357.523 88.1801 358.55 88.1801 359.62C88.1934 359.693 88.1934 359.767 88.1801 359.84C88.1302 360.176 87.9958 360.493 87.7893 360.763C87.5829 361.032 87.3113 361.244 87.0001 361.38C86.1153 361.829 85.1372 362.063 84.1451 362.063C83.153 362.063 82.1749 361.829 81.2901 361.38C80.9826 361.239 80.7142 361.025 80.5085 360.757C80.3028 360.488 80.166 360.174 80.1101 359.84C80.0968 359.767 80.0968 359.693 80.1101 359.62Z" fill="#455A64"/>
<path d="M81.2901 361.38C80.9826 361.239 80.7142 361.025 80.5085 360.757C80.3028 360.488 80.166 360.174 80.1101 359.84C80.0968 359.767 80.0968 359.693 80.1101 359.62C80.1205 359.161 80.2119 358.707 80.3801 358.28C80.2801 360.01 81.1001 361.06 83.6501 361.39C86.2001 361.72 87.8701 360.63 88.0901 360.23C87.8723 360.729 87.4866 361.136 87.0001 361.38C86.1153 361.829 85.1372 362.063 84.1451 362.063C83.153 362.063 82.1749 361.829 81.2901 361.38V361.38Z" fill="#37474F"/>
<path d="M220.8 370.33L226.66 366.98C226.66 366.98 229.47 351.5 227.37 338.19C224.37 319.48 211.68 313.03 207.05 314.89C202.42 316.75 201.34 322.29 209.69 333.1C214.62 339.48 221 353 220.8 370.33Z" fill="#FFC800"/>
<path opacity="0.3" d="M220.8 370.33L226.66 366.98C226.66 366.98 229.47 351.5 227.37 338.19C224.37 319.48 211.68 313.03 207.05 314.89C202.42 316.75 201.34 322.29 209.69 333.1C214.62 339.48 221 353 220.8 370.33Z" fill="black"/>
<path d="M222.93 362.9H222.87C222.76 362.885 222.661 362.827 222.593 362.739C222.526 362.651 222.496 362.54 222.51 362.43C224.93 344.91 217.89 325.72 209.97 317.99C209.893 317.911 209.849 317.805 209.849 317.695C209.849 317.585 209.893 317.479 209.97 317.4C210.008 317.36 210.054 317.329 210.105 317.307C210.156 317.286 210.21 317.275 210.265 317.275C210.32 317.275 210.375 317.286 210.425 317.307C210.476 317.329 210.522 317.36 210.56 317.4C218.62 325.28 225.8 344.78 223.34 362.56C223.32 362.655 223.269 362.739 223.194 362.801C223.12 362.863 223.027 362.898 222.93 362.9Z" fill="white"/>
<path d="M204.55 379.71C203.63 380.25 201.72 379.08 200.99 378.59C199.736 377.739 198.723 376.578 198.05 375.22C197.29 373.671 197.034 371.922 197.32 370.22C197.465 369.326 197.675 368.443 197.95 367.58C198.19 366.72 198.44 365.87 198.68 365.01C198.984 364.182 199.114 363.3 199.06 362.42C198.84 360.67 197.28 359.42 195.86 358.42C194.44 357.42 192.66 355.7 192.67 353.59C192.785 351.949 193.439 350.392 194.53 349.16C195.53 347.88 196.74 346.75 197.66 345.4C198.377 344.459 198.751 343.302 198.72 342.12C198.619 341.397 198.377 340.701 198.01 340.07C197.15 338.763 196.398 337.389 195.76 335.96C195.454 335.237 195.359 334.443 195.484 333.668C195.61 332.893 195.952 332.169 196.47 331.58C196.987 331.197 197.575 330.92 198.2 330.766C198.825 330.611 199.474 330.582 200.11 330.68C201.31 330.828 202.463 331.234 203.49 331.87C206.84 333.73 208.76 337.71 212.32 339.14C213.728 339.586 215.165 339.937 216.62 340.19C217.351 340.327 218.045 340.614 218.658 341.034C219.271 341.455 219.789 341.998 220.18 342.63C221.48 345.24 219.06 348.45 219.98 351.22C220.79 353.67 223.17 354.61 224.51 356.82C225.054 357.796 225.272 358.921 225.13 360.03C225.012 361.904 224.555 363.74 223.78 365.45C222.905 367.153 221.902 368.788 220.78 370.34C220.75 370.38 204.7 379.63 204.55 379.71Z" fill="#FFC800"/>
<path opacity="0.15" d="M204.55 379.71C203.63 380.25 201.72 379.08 200.99 378.59C199.736 377.739 198.723 376.578 198.05 375.22C197.29 373.671 197.034 371.922 197.32 370.22C197.465 369.326 197.675 368.443 197.95 367.58C198.19 366.72 198.44 365.87 198.68 365.01C198.984 364.182 199.114 363.3 199.06 362.42C198.84 360.67 197.28 359.42 195.86 358.42C194.44 357.42 192.66 355.7 192.67 353.59C192.785 351.949 193.439 350.392 194.53 349.16C195.53 347.88 196.74 346.75 197.66 345.4C198.377 344.459 198.751 343.302 198.72 342.12C198.619 341.397 198.377 340.701 198.01 340.07C197.15 338.763 196.398 337.389 195.76 335.96C195.454 335.237 195.359 334.443 195.484 333.668C195.61 332.893 195.952 332.169 196.47 331.58C196.987 331.197 197.575 330.92 198.2 330.766C198.825 330.611 199.474 330.582 200.11 330.68C201.31 330.828 202.463 331.234 203.49 331.87C206.84 333.73 208.76 337.71 212.32 339.14C213.728 339.586 215.165 339.937 216.62 340.19C217.351 340.327 218.045 340.614 218.658 341.034C219.271 341.455 219.789 341.998 220.18 342.63C221.48 345.24 219.06 348.45 219.98 351.22C220.79 353.67 223.17 354.61 224.51 356.82C225.054 357.796 225.272 358.921 225.13 360.03C225.012 361.904 224.555 363.74 223.78 365.45C222.905 367.153 221.902 368.788 220.78 370.34C220.75 370.38 204.7 379.63 204.55 379.71Z" fill="black"/>
<path d="M214.06 374.65C213.948 374.645 213.842 374.596 213.765 374.514C213.689 374.431 213.647 374.322 213.65 374.21C214.34 357.63 206.53 339.33 200.85 334.01C200.811 333.972 200.779 333.926 200.757 333.875C200.736 333.825 200.725 333.77 200.725 333.715C200.725 333.66 200.736 333.605 200.757 333.555C200.779 333.504 200.811 333.458 200.85 333.42C200.929 333.342 201.035 333.299 201.145 333.299C201.256 333.299 201.362 333.342 201.44 333.42C207.24 338.85 215.21 357.42 214.51 374.27C214.498 374.379 214.444 374.479 214.36 374.549C214.277 374.62 214.169 374.656 214.06 374.65V374.65Z" fill="white"/>
<path d="M211.58 355.06C211.537 355.069 211.493 355.069 211.45 355.06C207.532 353.982 203.508 353.332 199.45 353.12C199.39 353.129 199.329 353.126 199.271 353.109C199.212 353.092 199.158 353.063 199.112 353.024C199.066 352.985 199.029 352.936 199.004 352.881C198.979 352.826 198.966 352.766 198.966 352.705C198.966 352.644 198.979 352.585 199.004 352.529C199.029 352.474 199.066 352.425 199.112 352.386C199.158 352.347 199.212 352.318 199.271 352.301C199.329 352.284 199.39 352.281 199.45 352.29C203.591 352.512 207.695 353.182 211.69 354.29C211.795 354.327 211.882 354.402 211.934 354.5C211.986 354.598 211.999 354.713 211.97 354.82C211.935 354.893 211.88 354.955 211.811 354.998C211.742 355.04 211.661 355.062 211.58 355.06V355.06Z" fill="white"/>
<path d="M439.55 126.11C439.511 125.785 439.39 125.476 439.197 125.211C439.005 124.947 438.747 124.736 438.45 124.6C437.618 124.184 436.7 123.968 435.77 123.968C434.84 123.968 433.922 124.184 433.09 124.6C432.791 124.736 432.533 124.946 432.338 125.21C432.144 125.475 432.021 125.784 431.98 126.11V315.94C431.98 317.12 433.67 318.08 435.76 318.08C437.85 318.08 439.55 317.08 439.55 315.94V126.11Z" fill="#5C3AE2"/>
<path d="M435.76 128.26C437.853 128.26 439.55 127.297 439.55 126.11C439.55 124.923 437.853 123.96 435.76 123.96C433.667 123.96 431.97 124.923 431.97 126.11C431.97 127.297 433.667 128.26 435.76 128.26Z" fill="#455A64"/>
<path d="M478.59 198.43L471.16 185.55L421.74 157.04L418 159.2V176.36L467.42 204.87L471.23 202.77L478.59 198.43Z" fill="#FFC800"/>
<path d="M418 159.2L467.42 187.71L474.85 200.58L467.42 204.87L418 176.36V159.2Z" fill="#FFC800"/>
<g opacity="0.3">
<path opacity="0.3" d="M418 159.2L467.42 187.71L474.87 200.62L467.42 204.87L418 176.36V159.2Z" fill="#5C3AE2"/>
</g>
<path opacity="0.1" d="M471.16 185.55L467.42 187.71L418 159.2L421.74 157.04L471.16 185.55Z" fill="#5C3AE2"/>
<path opacity="0.2" d="M467.42 187.71L471.16 185.55L478.59 198.43L474.87 200.62L467.42 187.71Z" fill="#5C3AE2"/>
<path d="M462.34 154.7L412.92 126.14L405.49 130.43L412.92 143.31L462.34 171.86V154.7Z" fill="#FFC800"/>
<path d="M412.92 126.14L416.55 123.96L466.05 152.56L462.34 154.7L412.92 126.14Z" fill="#FFC800"/>
<g opacity="0.4">
<path opacity="0.4" d="M412.92 126.14L416.55 123.96L466.05 152.56L462.34 154.7L412.92 126.14Z" fill="white"/>
</g>
<path d="M466.05 169.72L462.34 171.86V154.7L466.05 152.56V169.72Z" fill="#FFC800"/>
<path opacity="0.1" d="M466.05 169.72L462.34 171.86V154.7L466.05 152.56V169.72Z" fill="#5C3AE2"/>
<path d="M449.85 207.74L400.43 179.18L393 183.47L400.43 196.35L449.85 224.9V207.74Z" fill="#FFC800"/>
<path d="M400.43 179.18L404.07 177L453.56 205.6L449.85 207.74L400.43 179.18Z" fill="#FFC800"/>
<g opacity="0.4">
<path opacity="0.4" d="M400.43 179.18L404.07 177L453.56 205.6L449.85 207.74L400.43 179.18Z" fill="white"/>
</g>
<path d="M453.56 222.76L449.85 224.9V207.74L453.56 205.6V222.76Z" fill="#FFC800"/>
<path opacity="0.1" d="M453.56 222.76L449.85 224.9V207.74L453.56 205.6V222.76Z" fill="#5C3AE2"/>
<path d="M312.66 79.91C314.337 79.3542 316.085 79.041 317.85 78.98C319.543 78.9052 321.236 79.1321 322.85 79.65C324.39 80.1521 325.805 80.9772 327 82.07C328.087 83.1553 328.937 84.454 329.496 85.8844C330.055 87.3147 330.312 88.8454 330.25 90.38C330.16 91.5629 329.894 92.7258 329.46 93.83C329.045 94.9044 328.533 95.9387 327.93 96.92C327.33 97.92 326.76 98.83 326.23 99.71C325.717 100.545 325.282 101.425 324.93 102.34C324.606 103.149 324.513 104.031 324.66 104.89C324.722 105.293 324.67 105.705 324.51 106.08C324.44 106.262 324.329 106.426 324.185 106.558C324.041 106.69 323.868 106.786 323.68 106.84L319.56 108.2C319.364 108.265 319.157 108.29 318.951 108.275C318.745 108.259 318.544 108.203 318.36 108.11C318.173 108.032 318.008 107.911 317.877 107.756C317.747 107.601 317.655 107.417 317.61 107.22C317.231 105.923 317.119 104.562 317.28 103.22C317.441 102.017 317.761 100.84 318.23 99.72C318.68 98.6418 319.222 97.6046 319.85 96.62C320.477 95.66 321.047 94.74 321.56 93.86C322.034 93.0733 322.422 92.2386 322.72 91.37C322.975 90.6177 322.975 89.8022 322.72 89.05C322.507 88.3845 322.136 87.7808 321.638 87.2912C321.139 86.8016 320.529 86.4408 319.86 86.24C318.203 85.7381 316.425 85.8049 314.81 86.43C311.743 87.4433 309.993 89.7266 309.56 93.28C309.535 93.6543 309.44 94.0206 309.28 94.36C309.18 94.5202 309.049 94.6587 308.894 94.7669C308.74 94.8752 308.565 94.9511 308.38 94.99L304 96.43C303.692 96.5386 303.354 96.5206 303.06 96.38C302.906 96.3085 302.768 96.2045 302.658 96.075C302.548 95.9456 302.466 95.7937 302.42 95.63C302.031 94.2413 301.99 92.7783 302.3 91.37C302.631 89.7538 303.24 88.2075 304.1 86.8C305.052 85.2607 306.244 83.8834 307.63 82.72C309.106 81.4628 310.815 80.5081 312.66 79.91V79.91ZM325 110C325.39 109.883 325.81 109.921 326.172 110.108C326.534 110.294 326.81 110.614 326.94 111L328.52 115.78C328.585 115.971 328.611 116.173 328.595 116.374C328.58 116.575 328.523 116.771 328.43 116.95C328.341 117.133 328.217 117.296 328.064 117.43C327.911 117.564 327.733 117.666 327.54 117.73L322.88 119.27C322.489 119.39 322.066 119.353 321.702 119.166C321.337 118.98 321.061 118.658 320.93 118.27L319.35 113.5C319.227 113.109 319.263 112.685 319.45 112.32C319.637 111.955 319.961 111.678 320.35 111.55L325 110Z" fill="#FFC800"/>
<path d="M345.69 124.11C346.774 123.544 347.932 123.133 349.13 122.89C350.268 122.65 351.439 122.613 352.59 122.78C353.694 122.95 354.747 123.356 355.68 123.97C356.67 124.628 357.47 125.535 358 126.6C358.456 127.421 358.741 128.326 358.84 129.26C358.91 130.072 358.863 130.891 358.7 131.69C358.537 132.479 358.302 133.253 358 134L357.16 136.09C356.908 136.719 356.711 137.368 356.57 138.03C356.439 138.619 356.477 139.232 356.68 139.8C356.76 140.071 356.76 140.359 356.68 140.63C356.651 140.761 356.593 140.884 356.51 140.99C356.427 141.096 356.321 141.181 356.2 141.24L353.55 142.63C353.294 142.761 352.997 142.79 352.72 142.71C352.583 142.678 352.455 142.613 352.349 142.521C352.243 142.429 352.161 142.312 352.11 142.18C351.701 141.34 351.469 140.424 351.43 139.49C351.406 138.653 351.49 137.816 351.68 137C351.864 136.215 352.118 135.449 352.44 134.71C352.75 133.98 353.03 133.29 353.29 132.63C353.522 132.042 353.693 131.433 353.8 130.81C353.886 130.267 353.799 129.71 353.55 129.22C353.327 128.792 353.005 128.424 352.61 128.147C352.215 127.87 351.758 127.693 351.28 127.63C350.094 127.476 348.89 127.722 347.86 128.33C346.909 128.812 346.129 129.576 345.628 130.517C345.127 131.458 344.929 132.532 345.06 133.59C345.087 133.849 345.063 134.11 344.99 134.36C344.886 134.601 344.693 134.791 344.45 134.89L341.62 136.38C341.421 136.488 341.188 136.513 340.97 136.45C340.857 136.418 340.753 136.362 340.663 136.286C340.573 136.21 340.501 136.116 340.45 136.01C340.032 135.106 339.84 134.114 339.89 133.12C339.93 131.983 340.17 130.863 340.6 129.81C341.071 128.652 341.726 127.578 342.54 126.63C343.414 125.591 344.485 124.735 345.69 124.11V124.11ZM357.5 143.21C357.624 143.141 357.761 143.099 357.903 143.087C358.044 143.075 358.186 143.093 358.32 143.14C358.454 143.179 358.578 143.245 358.685 143.334C358.792 143.424 358.879 143.535 358.94 143.66L360.56 146.73C360.688 146.981 360.713 147.271 360.63 147.54C360.545 147.809 360.359 148.035 360.11 148.17L357.11 149.74C356.987 149.808 356.852 149.849 356.713 149.861C356.573 149.873 356.432 149.856 356.3 149.81C356.165 149.774 356.04 149.709 355.931 149.622C355.823 149.534 355.734 149.424 355.67 149.3L354.06 146.22C353.932 145.971 353.906 145.683 353.989 145.415C354.071 145.148 354.254 144.924 354.5 144.79L357.5 143.21Z" fill="#FFC800"/>
<g opacity="0.2">
<path opacity="0.2" d="M345.69 124.11C346.774 123.544 347.932 123.133 349.13 122.89C350.268 122.65 351.439 122.613 352.59 122.78C353.694 122.95 354.747 123.356 355.68 123.97C356.67 124.628 357.47 125.535 358 126.6C358.456 127.421 358.741 128.326 358.84 129.26C358.91 130.072 358.863 130.891 358.7 131.69C358.537 132.479 358.302 133.253 358 134L357.16 136.09C356.908 136.719 356.711 137.368 356.57 138.03C356.439 138.619 356.477 139.232 356.68 139.8C356.76 140.071 356.76 140.359 356.68 140.63C356.651 140.761 356.593 140.884 356.51 140.99C356.427 141.096 356.321 141.181 356.2 141.24L353.55 142.63C353.294 142.761 352.997 142.79 352.72 142.71C352.583 142.678 352.455 142.613 352.349 142.521C352.243 142.429 352.161 142.312 352.11 142.18C351.701 141.34 351.469 140.424 351.43 139.49C351.406 138.653 351.49 137.816 351.68 137C351.864 136.215 352.118 135.449 352.44 134.71C352.75 133.98 353.03 133.29 353.29 132.63C353.522 132.042 353.693 131.433 353.8 130.81C353.886 130.267 353.799 129.71 353.55 129.22C353.327 128.792 353.005 128.424 352.61 128.147C352.215 127.87 351.758 127.693 351.28 127.63C350.094 127.476 348.89 127.722 347.86 128.33C346.909 128.812 346.129 129.576 345.628 130.517C345.127 131.458 344.929 132.532 345.06 133.59C345.087 133.849 345.063 134.11 344.99 134.36C344.886 134.601 344.693 134.791 344.45 134.89L341.62 136.38C341.421 136.488 341.188 136.513 340.97 136.45C340.857 136.418 340.753 136.362 340.663 136.286C340.573 136.21 340.501 136.116 340.45 136.01C340.032 135.106 339.84 134.114 339.89 133.12C339.93 131.983 340.17 130.863 340.6 129.81C341.071 128.652 341.726 127.578 342.54 126.63C343.414 125.591 344.485 124.735 345.69 124.11V124.11ZM357.5 143.21C357.624 143.141 357.761 143.099 357.903 143.087C358.044 143.075 358.186 143.093 358.32 143.14C358.454 143.179 358.578 143.245 358.685 143.334C358.792 143.424 358.879 143.535 358.94 143.66L360.56 146.73C360.688 146.981 360.713 147.271 360.63 147.54C360.545 147.809 360.359 148.035 360.11 148.17L357.11 149.74C356.987 149.808 356.852 149.849 356.713 149.861C356.573 149.873 356.432 149.856 356.3 149.81C356.165 149.774 356.04 149.709 355.931 149.622C355.823 149.534 355.734 149.424 355.67 149.3L354.06 146.22C353.932 145.971 353.906 145.683 353.989 145.415C354.071 145.148 354.254 144.924 354.5 144.79L357.5 143.21Z" fill="black"/>
</g>
<path d="M368 110.29C368.158 110.336 368.306 110.414 368.433 110.519C368.56 110.623 368.665 110.753 368.74 110.9C368.826 111.05 368.879 111.217 368.896 111.389C368.913 111.562 368.894 111.736 368.84 111.9L367.64 115.83C367.536 116.147 367.314 116.412 367.019 116.568C366.725 116.725 366.381 116.761 366.06 116.67L362.22 115.5C362.061 115.452 361.914 115.372 361.787 115.266C361.659 115.159 361.555 115.028 361.48 114.88C361.392 114.73 361.338 114.564 361.32 114.391C361.303 114.218 361.323 114.044 361.38 113.88L362.58 109.95C362.628 109.791 362.708 109.644 362.814 109.517C362.921 109.389 363.052 109.285 363.2 109.21C363.35 109.124 363.517 109.071 363.689 109.054C363.862 109.037 364.036 109.056 364.2 109.11L368 110.29ZM374 84.36C375.384 84.7808 376.7 85.3971 377.91 86.19C379.069 86.9368 380.085 87.8851 380.91 88.99C381.696 90.052 382.249 91.2688 382.53 92.56C382.806 93.9411 382.724 95.37 382.29 96.71C381.987 97.7774 381.473 98.7735 380.78 99.64C380.16 100.387 379.436 101.04 378.63 101.58C377.84 102.097 377.007 102.545 376.14 102.92L373.66 104C372.925 104.311 372.221 104.693 371.56 105.14C370.955 105.523 370.473 106.071 370.17 106.72C370.022 107.017 369.793 107.267 369.51 107.44C369.379 107.531 369.228 107.59 369.07 107.611C368.911 107.631 368.75 107.614 368.6 107.56L365.2 106.56C364.875 106.461 364.602 106.239 364.44 105.94C364.345 105.793 364.288 105.625 364.274 105.45C364.26 105.276 364.29 105.1 364.36 104.94C364.721 103.894 365.289 102.932 366.03 102.11C366.707 101.382 367.477 100.746 368.32 100.22C369.128 99.708 369.981 99.2727 370.87 98.92C371.74 98.57 372.55 98.22 373.31 97.92C373.996 97.6167 374.649 97.2448 375.26 96.81C375.789 96.4277 376.178 95.8836 376.37 95.26C376.54 94.7163 376.577 94.1394 376.476 93.5787C376.375 93.018 376.139 92.4901 375.79 92.04C374.922 90.9208 373.704 90.125 372.33 89.78C371.126 89.3922 369.833 89.3848 368.625 89.7588C367.417 90.1328 366.354 90.87 365.58 91.87C365.386 92.1076 365.152 92.3105 364.89 92.47C364.598 92.5863 364.272 92.5863 363.98 92.47L360.36 91.37C360.106 91.2878 359.89 91.1176 359.75 90.89C359.682 90.7674 359.641 90.6319 359.629 90.4924C359.617 90.3529 359.634 90.2124 359.68 90.08C360.079 88.9689 360.745 87.973 361.62 87.18C362.601 86.2542 363.739 85.5094 364.98 84.98C366.341 84.3994 367.786 84.0415 369.26 83.92C370.854 83.7555 372.464 83.905 374 84.36V84.36Z" fill="#FFC800"/>
<g opacity="0.6">
<path opacity="0.6" d="M368 110.29C368.158 110.336 368.306 110.414 368.433 110.519C368.56 110.623 368.665 110.753 368.74 110.9C368.826 111.05 368.879 111.217 368.896 111.389C368.913 111.562 368.894 111.736 368.84 111.9L367.64 115.83C367.536 116.147 367.314 116.412 367.019 116.568C366.725 116.725 366.381 116.761 366.06 116.67L362.22 115.5C362.061 115.452 361.914 115.372 361.787 115.266C361.659 115.159 361.555 115.028 361.48 114.88C361.392 114.73 361.338 114.564 361.32 114.391C361.303 114.218 361.323 114.044 361.38 113.88L362.58 109.95C362.628 109.791 362.708 109.644 362.814 109.517C362.921 109.389 363.052 109.285 363.2 109.21C363.35 109.124 363.517 109.071 363.689 109.054C363.862 109.037 364.036 109.056 364.2 109.11L368 110.29ZM374 84.36C375.384 84.7808 376.7 85.3971 377.91 86.19C379.069 86.9368 380.085 87.8851 380.91 88.99C381.696 90.052 382.249 91.2688 382.53 92.56C382.806 93.9411 382.724 95.37 382.29 96.71C381.987 97.7774 381.473 98.7735 380.78 99.64C380.16 100.387 379.436 101.04 378.63 101.58C377.84 102.097 377.007 102.545 376.14 102.92L373.66 104C372.925 104.311 372.221 104.693 371.56 105.14C370.955 105.523 370.473 106.071 370.17 106.72C370.022 107.017 369.793 107.267 369.51 107.44C369.379 107.531 369.228 107.59 369.07 107.611C368.911 107.631 368.75 107.614 368.6 107.56L365.2 106.56C364.875 106.461 364.602 106.239 364.44 105.94C364.345 105.793 364.288 105.625 364.274 105.45C364.26 105.276 364.29 105.1 364.36 104.94C364.721 103.894 365.289 102.932 366.03 102.11C366.707 101.382 367.477 100.746 368.32 100.22C369.128 99.708 369.981 99.2727 370.87 98.92C371.74 98.57 372.55 98.22 373.31 97.92C373.996 97.6167 374.649 97.2448 375.26 96.81C375.789 96.4277 376.178 95.8836 376.37 95.26C376.54 94.7163 376.577 94.1394 376.476 93.5787C376.375 93.018 376.139 92.4901 375.79 92.04C374.922 90.9208 373.704 90.125 372.33 89.78C371.126 89.3922 369.833 89.3848 368.625 89.7588C367.417 90.1328 366.354 90.87 365.58 91.87C365.386 92.1076 365.152 92.3105 364.89 92.47C364.598 92.5863 364.272 92.5863 363.98 92.47L360.36 91.37C360.106 91.2878 359.89 91.1176 359.75 90.89C359.682 90.7674 359.641 90.6319 359.629 90.4924C359.617 90.3529 359.634 90.2124 359.68 90.08C360.079 88.9689 360.745 87.973 361.62 87.18C362.601 86.2542 363.739 85.5094 364.98 84.98C366.341 84.3994 367.786 84.0415 369.26 83.92C370.854 83.7555 372.464 83.905 374 84.36V84.36Z" fill="white"/>
</g>
<path d="M313.7 348.64C313.965 350.447 313.815 352.29 313.26 354.03C312.2 356.85 310.06 358.1 308.79 359.2C307.366 360.468 306.119 361.921 305.08 363.52C304.055 365.275 302.743 366.847 301.2 368.17C300 369.17 296.68 369.17 295.09 368.49C293.5 367.81 292.97 367.17 293.09 364.61C293.21 362.05 301.02 361.33 301.02 361.33L313.7 348.64Z" fill="#455A64"/>
<path d="M294.28 357C293.61 357.24 293.42 358.5 293.28 361C293.16 362.9 292.28 365.66 294.9 366.91C296.99 367.91 300.37 367.35 301.84 365.58C303.66 363.39 304.9 361.45 307.49 358.77C309.74 356.45 312.05 355.7 313.12 351C313.81 348 313.34 346.7 311.32 345.79C308.53 344.54 304.04 348.36 301.82 348.93C299.91 349.42 295 356.75 294.28 357Z" fill="#FFC800"/>
<path opacity="0.2" d="M294.28 357C293.61 357.24 293.42 358.5 293.28 361C293.16 362.9 292.28 365.66 294.9 366.91C296.99 367.91 300.37 367.35 301.84 365.58C303.66 363.39 304.9 361.45 307.49 358.77C309.74 356.45 312.05 355.7 313.12 351C313.81 348 313.34 346.7 311.32 345.79C308.53 344.54 304.04 348.36 301.82 348.93C299.91 349.42 295 356.75 294.28 357Z" fill="black"/>
<path d="M301.81 348.92L302.19 348.8C303.463 348.896 304.689 349.327 305.743 350.048C306.796 350.77 307.64 351.757 308.19 352.91C308.55 353.75 307.38 354.37 306.71 353.71C306.12 352.59 305.265 351.632 304.219 350.919C303.173 350.206 301.968 349.76 300.71 349.62C301.026 349.315 301.4 349.077 301.81 348.92V348.92Z" fill="#FAFAFA"/>
<path d="M300 350.32C301.194 350.479 302.33 350.935 303.303 351.646C304.276 352.357 305.056 353.3 305.57 354.39C305.93 355.22 304.76 355.84 304.09 355.19C303.596 354.212 302.891 353.356 302.027 352.684C301.162 352.011 300.159 351.539 299.09 351.3C299.37 351 299.68 350.61 300 350.32Z" fill="#FAFAFA"/>
<path d="M348.24 388.16C348.63 390.3 347.83 391.39 345.06 392.92C342.29 394.45 337.96 394.92 333.46 393.5C328.96 392.08 326.83 390.07 324.96 389.56C323.09 389.05 318.43 388.92 316.58 388.34C314.73 387.76 314.78 386.8 314.83 384.56L348.24 388.16Z" fill="#455A64"/>
<path d="M316.87 373.82C316.299 375.461 315.811 377.13 315.41 378.82C314.99 380.68 314.41 383.82 315.01 385.19C315.61 386.56 318.16 387.56 322.11 387.61C324.66 387.61 328.61 389.46 331.3 391.03C333.99 392.6 337.14 392.73 340.12 392.44C343.64 392.09 347.32 390.13 347.91 388.69C348.5 387.25 348.68 386.16 340.48 382.47C340.4 382.47 330.95 378.74 327.04 374.24L316.87 373.82Z" fill="#FFC800"/>
<g opacity="0.2">
<path opacity="0.2" d="M316.87 373.82C316.299 375.461 315.811 377.13 315.41 378.82C314.99 380.68 314.41 383.82 315.01 385.19C315.61 386.56 318.16 387.56 322.11 387.61C324.66 387.61 328.61 389.46 331.3 391.03C333.99 392.6 337.14 392.73 340.12 392.44C343.64 392.09 347.32 390.13 347.91 388.69C348.5 387.25 348.68 386.16 340.48 382.47C340.4 382.47 330.95 378.74 327.04 374.24L316.87 373.82Z" fill="black"/>
</g>
<path d="M332.42 391.59C332.42 391.59 333.27 384.5 339.08 382.59C344.34 380.86 348.81 384.81 348.24 388.16C347.85 390.42 341.4 395.42 332.42 391.59Z" fill="#FAFAFA"/>
<path d="M337.65 381.23C336.169 381.33 334.763 381.917 333.65 382.9C331.96 384.26 331.89 385.19 331.89 385.19C331.761 385.327 331.592 385.418 331.408 385.451C331.223 385.483 331.033 385.455 330.865 385.371C330.698 385.287 330.562 385.15 330.478 384.983C330.394 384.815 330.367 384.625 330.4 384.44C330.4 384.44 330.86 380.87 335.59 380.23C335.995 380.157 336.413 380.214 336.783 380.394C337.154 380.573 337.457 380.866 337.65 381.23V381.23Z" fill="#FAFAFA"/>
<path d="M334.38 379.58C332.906 379.561 331.478 380.096 330.38 381.08C328.69 382.45 328.66 383.55 328.66 383.55C328.531 383.687 328.362 383.778 328.178 383.811C327.993 383.843 327.803 383.815 327.635 383.731C327.468 383.647 327.332 383.511 327.248 383.343C327.164 383.175 327.137 382.985 327.17 382.8C327.17 382.8 327.62 379.22 332.35 378.59C332.75 378.519 333.161 378.577 333.526 378.755C333.891 378.933 334.19 379.222 334.38 379.58V379.58Z" fill="#FAFAFA"/>
<path d="M331.14 377.65C329.669 377.528 328.205 377.964 327.04 378.87C325.26 380.12 325.15 381.21 325.15 381.21C325.011 381.332 324.836 381.407 324.652 381.425C324.467 381.442 324.282 381.401 324.122 381.306C323.962 381.212 323.837 381.07 323.763 380.9C323.689 380.73 323.67 380.541 323.71 380.36C323.71 380.36 324.42 376.83 329.18 376.51C329.585 376.467 329.994 376.555 330.346 376.76C330.699 376.965 330.977 377.277 331.14 377.65V377.65Z" fill="#FAFAFA"/>
<path d="M294.36 352.93L294.26 357.75C295.402 358.511 296.729 358.947 298.1 359.011C299.471 359.074 300.833 358.763 302.04 358.11C302.18 357.82 302.67 353.11 302.67 353.11L294.36 352.93Z" fill="#FFA8A7"/>
<path d="M316.94 370.49C316.94 370.49 316.94 372.77 316.86 374.08C316.78 375.39 318.33 377.36 322.33 377.3C325.13 377.3 327.11 376.54 327.04 374.23L327.11 370.9L316.94 370.49Z" fill="#FFA8A7"/>
<path d="M290 312C290.47 301.84 292.65 297.43 292.65 297.43C292.65 297.43 292.12 284.86 290.74 269.43C288.64 245.98 290.5 242.51 295.32 232.08C295.32 232.08 334.19 227.84 335.06 244.23C336.15 264.64 335.5 306.09 334.81 313.23C334.12 320.37 334.27 313.77 332.23 328.31C330.61 339.8 327.13 370.86 327.13 370.86C325.532 371.633 323.767 372 321.994 371.928C320.22 371.857 318.491 371.349 316.96 370.45C316.96 370.45 314.5 332.31 315.01 324.01C315.62 313.88 316.25 311.31 316.25 311.31C316.25 311.31 312.25 278.38 311.7 273.08C311.7 273.08 310.87 282.53 310.18 289.72C309.49 296.91 309.42 302.72 307.61 317.56C306.19 329.22 302.8 354.37 302.8 354.37C301.407 354.907 299.908 355.115 298.421 354.976C296.934 354.837 295.5 354.356 294.23 353.57C294.23 353.57 289.61 320.17 290 312Z" fill="#455A64"/>
<path d="M311.75 354.46C311.75 354.46 311.65 348.83 304.06 347.89L303.62 348.13C304.495 346.755 305.849 345.754 307.42 345.32C309.96 344.69 311.94 345.38 313.23 347.12C314.52 348.86 313.09 353.39 311.75 354.46Z" fill="#FAFAFA"/>
<path d="M311.68 273.12L311.18 266.39C306.948 264.891 302.918 262.876 299.18 260.39C301.327 264.005 304.8 266.638 308.86 267.73L310.07 274.34L310.17 289.79L311.68 273.12Z" fill="#37474F"/>
<path d="M297.72 141.06C295.59 143.72 279.84 169.06 277.54 173.83C275.24 178.6 274.68 181.66 278.32 185.5C283.79 191.27 297.58 205.19 297.58 205.19L305.3 186.77L290.98 177.77L304.98 148.14L297.72 141.06Z" fill="#FFA8A7"/>
<path d="M291 177.78C291 177.78 287.08 176.4 283.81 178.52C283.81 178.52 286.39 174.88 291.73 176.25L291 177.78Z" fill="#F28F8F"/>
<path d="M305.67 185.32L293 179C288.33 178.33 282.25 185.63 282.42 191.23L293.53 201.03L305.67 185.32Z" fill="#455A64"/>
<path d="M307.51 175.93L306.71 184.74C304.71 185.36 305.08 188.15 306.25 189.87L306.02 192.46L319.02 193.63L320.97 178.76L307.51 175.93Z" fill="#FFA8A7"/>
<path d="M293.25 191.14C294.69 187.23 300.37 184.22 303.82 184.49L306.71 184.74C305.91 186.34 307.07 187.48 309.17 188.09C311.87 188.87 316.84 189.31 319.77 187.58L319.86 186.83C319.86 186.83 325.39 188.41 327.02 189.02C331.6 190.74 333.11 191.63 337.85 203.94C339.85 209.21 338.63 214.67 333.17 217.65C332.76 220.91 332.3 226.04 332.3 226.04C333.807 233.028 334.912 240.096 335.61 247.21C335.61 247.21 332.73 253.74 312.78 252.64C297.33 251.79 290.14 243.97 290.14 243.97C290.52 240.18 292.92 234.13 297.84 222.71C292 206.29 291.11 197 293.25 191.14Z" fill="#37474F"/>
<path d="M375.73 183H375.68C374.981 182.642 374.429 182.05 374.121 181.327C373.813 180.604 373.769 179.796 373.994 179.044C374.22 178.291 374.703 177.642 375.358 177.208C376.013 176.775 376.799 176.584 377.58 176.67C377.598 176.671 377.616 176.676 377.632 176.684C377.648 176.693 377.662 176.704 377.673 176.719C377.684 176.733 377.693 176.749 377.697 176.766C377.702 176.784 377.703 176.802 377.7 176.82C377.699 176.837 377.694 176.853 377.686 176.868C377.679 176.883 377.668 176.896 377.654 176.906C377.641 176.916 377.626 176.924 377.61 176.928C377.594 176.932 377.577 176.933 377.56 176.93C376.844 176.858 376.125 177.037 375.526 177.437C374.928 177.838 374.487 178.434 374.28 179.123C374.073 179.813 374.113 180.553 374.392 181.216C374.671 181.88 375.172 182.426 375.81 182.76C375.825 182.768 375.839 182.78 375.85 182.793C375.861 182.807 375.869 182.823 375.873 182.839C375.878 182.856 375.879 182.874 375.877 182.891C375.875 182.908 375.869 182.925 375.86 182.94C375.848 182.963 375.828 182.981 375.805 182.992C375.782 183.002 375.755 183.005 375.73 183V183Z" fill="#E0E0E0"/>
<path d="M373.69 180.28L374.45 181.22C374.739 181.934 375.233 182.547 375.87 182.98L376.62 183.91L377.19 183.46C377.363 183.325 377.491 183.142 377.559 182.933C377.626 182.725 377.63 182.501 377.57 182.29C377.451 181.729 377.202 181.204 376.842 180.758C376.482 180.311 376.023 179.956 375.5 179.72C375.305 179.617 375.084 179.575 374.865 179.598C374.646 179.621 374.439 179.709 374.27 179.85V179.85L373.69 180.28Z" fill="#455A64"/>
<path d="M375.45 184C376.45 184.38 377.1 183.84 376.94 182.8C376.817 182.241 376.565 181.718 376.204 181.273C375.843 180.829 375.382 180.475 374.86 180.24C373.86 179.86 373.22 180.4 373.38 181.44C373.5 181.999 373.75 182.522 374.11 182.967C374.469 183.411 374.928 183.765 375.45 184V184Z" fill="#222222"/>
<path d="M372.93 181.76L375.02 184.35L375.91 183.63C376.031 183.531 376.121 183.399 376.169 183.25C376.217 183.101 376.221 182.941 376.18 182.79C376.088 182.398 375.907 182.032 375.65 181.721C375.393 181.411 375.068 181.164 374.7 181C374.561 180.927 374.404 180.895 374.248 180.909C374.092 180.924 373.943 180.983 373.82 181.08V181.08L372.93 181.76Z" fill="#37474F"/>
<path d="M353.67 190.93L354.67 194.14C355.18 195.71 356.73 196.96 359.19 197.5C364.19 198.59 370.93 196.45 374.35 192.71C376.05 190.85 376.6 188.94 376.12 187.36L375.12 184.15L373.85 184.79C373.145 184.416 372.391 184.144 371.61 183.98C366.61 182.89 359.87 185.03 356.45 188.77C355.91 189.352 355.453 190.004 355.09 190.71L353.67 190.93Z" fill="#FFC800"/>
<path opacity="0.3" d="M353.67 190.93L354.67 194.14C355.18 195.71 356.73 196.96 359.19 197.5C364.19 198.59 370.93 196.45 374.35 192.71C376.05 190.85 376.6 188.94 376.12 187.36L375.12 184.15L373.85 184.79C373.145 184.416 372.391 184.144 371.61 183.98C366.61 182.89 359.87 185.03 356.45 188.77C355.91 189.352 355.453 190.004 355.09 190.71L353.67 190.93Z" fill="black"/>
<path d="M376.88 183.36C376.462 183.319 376.055 183.2 375.68 183.01C375.665 183.002 375.651 182.99 375.64 182.977C375.629 182.963 375.621 182.947 375.617 182.931C375.612 182.914 375.611 182.896 375.613 182.879C375.615 182.862 375.621 182.845 375.63 182.83C375.637 182.814 375.648 182.799 375.661 182.787C375.675 182.776 375.69 182.767 375.707 182.761C375.724 182.755 375.742 182.753 375.759 182.755C375.777 182.756 375.794 182.762 375.81 182.77C376.152 182.95 376.525 183.062 376.91 183.1C377.707 183.149 378.493 182.889 379.103 182.373C379.713 181.857 380.101 181.126 380.184 180.331C380.268 179.537 380.042 178.74 379.553 178.109C379.064 177.477 378.35 177.058 377.56 176.94C377.542 176.94 377.525 176.937 377.509 176.929C377.493 176.922 377.479 176.911 377.467 176.898C377.456 176.885 377.447 176.869 377.443 176.852C377.438 176.835 377.437 176.817 377.44 176.8C377.441 176.783 377.446 176.766 377.454 176.751C377.461 176.736 377.472 176.722 377.485 176.711C377.498 176.7 377.513 176.691 377.529 176.686C377.546 176.681 377.563 176.679 377.58 176.68C378.029 176.713 378.467 176.835 378.868 177.04C379.269 177.246 379.624 177.529 379.913 177.874C380.202 178.22 380.419 178.62 380.55 179.05C380.682 179.481 380.725 179.934 380.678 180.381C380.631 180.829 380.495 181.263 380.277 181.657C380.059 182.051 379.764 182.397 379.41 182.675C379.056 182.953 378.649 183.157 378.215 183.274C377.78 183.392 377.326 183.421 376.88 183.36V183.36Z" fill="#E0E0E0"/>
<path d="M370.58 180.74C365.63 179.64 358.84 181.74 355.41 185.53C351.98 189.32 353.23 193.19 358.18 194.29C363.13 195.39 369.92 193.23 373.35 189.49C376.78 185.75 375.53 181.83 370.58 180.74Z" fill="#FFC800"/>
<path opacity="0.2" d="M370.58 180.74C365.63 179.64 358.84 181.74 355.41 185.53C351.98 189.32 353.23 193.19 358.18 194.29C363.13 195.39 369.92 193.23 373.35 189.49C376.78 185.75 375.53 181.83 370.58 180.74Z" fill="black"/>
<path d="M357 187C358.713 185.345 360.787 184.11 363.058 183.392C365.33 182.673 367.736 182.491 370.09 182.86C370.955 183.016 371.766 183.388 372.45 183.94C372.69 184.148 372.871 184.416 372.976 184.716C373.082 185.015 373.107 185.337 373.05 185.65C372.829 186.546 372.369 187.365 371.72 188.02C370.006 189.675 367.933 190.91 365.661 191.628C363.39 192.347 360.983 192.529 358.63 192.16C357.768 192.011 356.958 191.643 356.28 191.09L356.18 191C354.88 189.64 356.32 187.76 357 187Z" fill="#FFC800"/>
<path opacity="0.5" d="M357 187C358.713 185.345 360.787 184.11 363.058 183.392C365.33 182.673 367.736 182.491 370.09 182.86C370.955 183.016 371.766 183.388 372.45 183.94C372.69 184.148 372.871 184.416 372.976 184.716C373.082 185.015 373.107 185.337 373.05 185.65C372.829 186.546 372.369 187.365 371.72 188.02C370.006 189.675 367.933 190.91 365.661 191.628C363.39 192.347 360.983 192.529 358.63 192.16C357.768 192.011 356.958 191.643 356.28 191.09L356.18 191C354.88 189.64 356.32 187.76 357 187Z" fill="black"/>
<path d="M357.53 188.62C359.245 186.968 361.319 185.734 363.59 185.016C365.861 184.298 368.267 184.114 370.62 184.48C371.485 184.636 372.296 185.008 372.98 185.56L373.07 185.65C372.849 186.546 372.389 187.365 371.74 188.02C370.026 189.675 367.953 190.91 365.681 191.628C363.41 192.347 361.003 192.529 358.65 192.16C357.788 192.011 356.978 191.643 356.3 191.09L356.2 191C356.419 190.101 356.879 189.278 357.53 188.62V188.62Z" fill="#F0F0F0"/>
<path d="M363.18 188.33L360.29 190.49C360.06 190.66 360.29 190.83 360.64 190.7L364.49 189.12L363.18 188.33Z" fill="#455A64"/>
<path d="M365.51 188.55L368.4 186.39C368.63 186.22 368.4 186.05 368.05 186.18L364.2 187.76L365.51 188.55Z" fill="#455A64"/>
<path d="M365.54 189.15C365.117 189.398 364.642 189.544 364.152 189.577C363.663 189.61 363.173 189.529 362.72 189.34C362.07 188.95 362.26 188.22 363.15 187.73C363.573 187.482 364.048 187.336 364.538 187.303C365.027 187.27 365.517 187.351 365.97 187.54C366.62 187.93 366.43 188.66 365.54 189.15Z" fill="#FFC800"/>
<path d="M365.11 188.9C364.839 189.061 364.534 189.156 364.219 189.177C363.905 189.198 363.59 189.144 363.3 189.02C362.87 188.77 363 188.3 363.58 188.02C363.851 187.859 364.156 187.764 364.471 187.743C364.785 187.722 365.1 187.776 365.39 187.9C365.82 188.11 365.69 188.58 365.11 188.9Z" fill="#37474F"/>
<path d="M377 186.39C376.541 185.631 375.928 184.977 375.2 184.47L376.03 187.11C376.68 189.06 375.26 191.62 373.85 193.11C372.9 194.11 371.12 195.26 370.97 194.9C370.77 194.39 371.07 191.9 370.56 189.64C369.94 186.94 368.34 188.25 367.92 190.28C367.69 191.39 366.49 194.22 366.15 196.37C365.73 199 366.27 201.25 365.48 203.15C364.87 204.64 358.48 212.66 354.74 216.96C350.9 211.84 345.74 205.17 341.23 199.44C334.94 191.38 333.65 189.69 328.61 189.53C324.61 201.07 331.46 212.69 331.46 212.69C331.46 212.69 340.92 224.18 346.81 230.22C352.49 236.05 354.49 235.55 357.22 233.22C359.95 230.89 367 220.44 370 214.65C373 208.86 376.21 204.48 378 201.41C381 196.25 380.13 190.83 377 186.39Z" fill="#FFA8A7"/>
<path d="M327 189C327 189 331.72 188.33 334.91 190.88C336.913 192.696 338.732 194.706 340.34 196.88C344.75 202.78 352.97 213.74 352.97 213.74C351.614 216.19 349.775 218.339 347.565 220.058C345.354 221.776 342.818 223.029 340.11 223.74C340.11 223.74 332.03 215.29 329.01 211.1C323.67 203.71 324.22 193.13 327 189Z" fill="#455A64"/>
<path d="M306.71 184.74C306.71 184.74 300.25 187.6 298.95 191.74L292.88 190.98C294.616 188.041 297.353 185.826 300.59 184.74C302.59 184.17 304.71 184.17 306.71 184.74V184.74Z" fill="#FFC800"/>
<path opacity="0.2" d="M306.71 184.74C306.71 184.74 300.25 187.6 298.95 191.74L292.88 190.98C294.616 188.041 297.353 185.826 300.59 184.74C302.59 184.17 304.71 184.17 306.71 184.74V184.74Z" fill="black"/>
<path d="M320.74 197.65C320.74 197.65 323.26 190 327 189C324.952 187.757 322.623 187.052 320.23 186.95C317.716 188.776 315.718 191.222 314.43 194.05L320.74 197.65Z" fill="#FFC800"/>
<path opacity="0.2" d="M320.74 197.65C320.74 197.65 323.26 190 327 189C324.952 187.757 322.623 187.052 320.23 186.95C317.716 188.776 315.718 191.222 314.43 194.05L320.74 197.65Z" fill="black"/>
<path d="M296.49 189C292.89 188.95 285.8 193.51 284.54 196.32C283.28 199.13 278.31 236.22 281.4 239.94C285.27 244.6 303.05 255.16 311.4 254.86C318.26 254.62 325 249.42 326.04 247.58C327.74 244.58 325.44 203.58 323.25 200.09C319.67 194.53 301.09 189.08 296.49 189Z" fill="#FFC800"/>
<path opacity="0.2" d="M319.33 196.69L315.77 199.09C312.18 201.16 310.24 206.61 310.3 219.66C310.36 232.71 310.11 250.39 312.2 252.26C314.29 254.13 318.5 252.85 318.75 252.78C322.5 251.18 325.34 248.78 326.01 247.6C327.71 244.6 325.41 203.6 323.22 200.11C322.181 198.707 320.855 197.541 319.33 196.69V196.69Z" fill="black"/>
<path opacity="0.1" d="M324.79 249C322.34 251.28 316.89 254.69 311.37 254.89C303.06 255.18 285.27 244.62 281.37 239.96C278.29 236.25 283.19 199.29 284.51 196.34C285.83 193.39 292.86 188.98 296.46 189.02C300.06 189.06 312.82 192.68 319.3 196.69L315.74 199.09C312.16 201.16 310.21 206.61 310.28 219.67C310.35 232.73 310.08 250.4 312.17 252.26C314.26 254.12 318.47 252.85 318.72 252.78C320.936 251.859 322.986 250.583 324.79 249V249Z" fill="black"/>
<path d="M296.12 189C292.12 189 286.18 192.22 284.17 195.34C282.16 198.46 280.72 207.53 282.17 210.2C283.62 212.87 293.46 218.2 300.17 220.9C305.52 223.09 308.32 222.52 310.17 221.17C311.37 220.31 311.58 217.75 311.67 215.85C311.91 210.97 311.51 208.36 314.45 205.49C317.39 202.62 322.64 200.21 323.53 202.37C323.53 202.37 324.72 199.12 318.63 195.98C308.6 190.8 301 189 296.12 189Z" fill="#FFC800"/>
<path d="M301.79 214.72L305.33 216.06C305.33 216.06 304.86 226.83 304.88 231.06C304.88 231.06 304.05 232.87 303.28 233.17C302.51 233.47 301.5 231.44 301.34 229.91C301.18 228.38 301.42 218.37 301.79 214.72Z" fill="#455A64"/>
<path d="M301.69 215.56L305.29 216.8C305.383 216.84 305.484 216.856 305.584 216.847C305.685 216.838 305.781 216.804 305.865 216.749C305.95 216.693 306.019 216.618 306.067 216.529C306.115 216.44 306.14 216.341 306.14 216.24L306.28 214.51C306.281 214.315 306.224 214.124 306.117 213.96C306.011 213.797 305.859 213.668 305.68 213.59L302.07 212.29C301.979 212.25 301.88 212.234 301.782 212.242C301.683 212.25 301.588 212.282 301.505 212.335C301.422 212.389 301.354 212.462 301.306 212.548C301.257 212.634 301.231 212.731 301.23 212.83L301.1 214.65C301.1 214.842 301.156 215.031 301.261 215.192C301.365 215.353 301.514 215.481 301.69 215.56Z" fill="#37474F"/>
<path d="M303.05 228.11C303.339 228.243 303.586 228.454 303.762 228.719C303.939 228.983 304.038 229.292 304.05 229.61C304.068 229.736 304.052 229.865 304.003 229.982C303.953 230.1 303.873 230.201 303.77 230.276C303.667 230.352 303.546 230.397 303.419 230.408C303.292 230.42 303.164 230.396 303.05 230.34C302.759 230.209 302.511 229.999 302.335 229.733C302.158 229.468 302.059 229.159 302.05 228.84C302.07 228.21 302.51 227.89 303.05 228.11Z" fill="#E0E0E0"/>
<path d="M287 207L290.46 208.53C290.46 208.53 289.46 219.26 289.24 223.47C289.24 223.47 288.32 225.24 287.54 225.47C286.76 225.7 285.85 223.65 285.76 222.12C285.67 220.59 286.45 210.62 287 207Z" fill="#455A64"/>
<path d="M286.87 207.82L290.39 209.25C290.48 209.295 290.58 209.316 290.681 209.313C290.781 209.31 290.88 209.282 290.967 209.231C291.054 209.181 291.127 209.109 291.18 209.024C291.233 208.938 291.264 208.841 291.27 208.74L291.5 207.01C291.51 206.818 291.464 206.627 291.368 206.46C291.272 206.294 291.131 206.158 290.96 206.07L287.42 204.58C287.331 204.535 287.232 204.513 287.133 204.515C287.033 204.518 286.936 204.545 286.85 204.595C286.763 204.645 286.691 204.715 286.639 204.8C286.586 204.884 286.556 204.981 286.55 205.08L286.32 206.89C286.303 207.083 286.347 207.276 286.446 207.443C286.545 207.61 286.693 207.742 286.87 207.82Z" fill="#37474F"/>
<path d="M287.58 220.43C287.858 220.581 288.09 220.805 288.251 221.078C288.411 221.352 288.494 221.663 288.49 221.98C288.498 222.102 288.475 222.224 288.421 222.334C288.368 222.444 288.286 222.538 288.185 222.607C288.084 222.676 287.967 222.717 287.845 222.726C287.723 222.736 287.6 222.713 287.49 222.66C287.209 222.513 286.975 222.289 286.816 222.015C286.657 221.741 286.578 221.427 286.59 221.11C286.59 220.48 287.05 220.18 287.58 220.43Z" fill="#E0E0E0"/>
<path d="M283.2 227.54C283.2 231.85 283.08 233.63 283.27 235.7C283.296 236.549 283.539 237.378 283.975 238.108C284.41 238.837 285.025 239.444 285.76 239.87C287.85 241.35 296.86 246.09 299.52 247.36C302.78 248.9 306.33 249.93 306.28 247.36C306.28 245.15 306.28 240.45 306.28 238.84C306.28 236.84 305.28 235.57 301.28 233.7C297.45 231.93 288.92 227.13 286.56 226.06C284.56 225.19 283.21 226.25 283.2 227.54Z" fill="#FFC800"/>
<path d="M329.34 158.81C329.34 158.81 336.15 150.03 331.09 145.27C325.09 139.64 317.14 139.76 306.75 143.38C301.89 145.08 294.82 150.01 294.19 159.55C293.71 166.92 314.25 172.35 313.78 177.39L329.34 158.81Z" fill="#222222"/>
<path d="M331.09 162.64C331.09 162.64 333.87 167.1 333.48 167.56C332.788 167.989 332.026 168.293 331.23 168.46L331.09 162.64Z" fill="#F28F8F"/>
<path d="M322.59 148.48C325.37 150.02 330.18 152.85 331.15 163.28C332.15 173.99 329.68 177.64 328.15 179C327.15 179.91 322.07 180.12 319.45 179.23C316.16 178.11 309.09 174.38 305.88 168.78C302.1 162.19 301.52 153.52 306.17 150.26C312.75 145.67 320.23 147.19 322.59 148.48Z" fill="#FFA8A7"/>
<path d="M320.82 179.56C323.078 179.969 325.398 179.883 327.62 179.31C325.25 179.318 322.926 178.652 320.92 177.39L320.82 179.56Z" fill="#F28F8F"/>
<path d="M322.45 161.09C324.253 160.414 325.838 159.26 327.036 157.752C328.234 156.244 328.999 154.439 329.25 152.53C330.3 145.74 321.81 142.86 321.81 142.86L322.45 161.09Z" fill="#222222"/>
<path d="M321.55 170.43C320.99 171.32 318.8 172.16 316.49 169.76C314.18 167.36 314.26 163 317.58 161.99C320.9 160.98 322.49 164.83 322.49 164.83C325.61 158.76 323.41 148.95 323.41 148.95C323.41 148.95 316.17 141.5 304.41 145.06C298.1 146.97 294.86 153.56 294.16 158.47C293.46 163.38 291.57 172.15 294.02 175.33C296.47 178.51 305.93 183.43 314.43 183.02C322.93 182.61 322.95 180.93 322.95 180.93L321.65 170.2C321.65 170.2 321.63 170.29 321.55 170.43Z" fill="#222222"/>
<path d="M297.72 141.06C301.02 137.06 306.25 137.99 310.32 138.66C314.39 139.33 320.32 139.9 319.32 142.66C318.32 145.42 315.32 147.89 308.32 147.21C301.32 146.53 300.03 147.21 298.46 149.06C298.42 149 293.84 147.16 297.72 141.06Z" fill="#FFA8A7"/>
</svg>
