<svg width="126" height="126" viewBox="0 0 126 126" fill="none" xmlns="http://www.w3.org/2000/svg">
<path d="M21.9239 63.5166C-0.75606 76.608 -0.75606 97.8491 21.9239 110.946C44.6039 124.042 81.3959 124.05 104.076 110.946C126.756 97.8415 126.756 76.608 104.076 63.5166C81.3959 50.4252 44.6039 50.4202 21.9239 63.5166Z" fill="#FAFAFA"/>
<path d="M63.436 11.4358C63.0277 11.529 62.68 11.8062 62.2969 11.9549C61.7098 12.1792 61.0369 12.1111 60.4548 12.3455C60.0792 12.5095 59.761 12.7816 59.5406 13.1272C59.3202 13.4728 59.2078 13.8761 59.2175 14.2859C59.2383 14.6955 59.3654 15.0926 59.5863 15.4382C59.8073 15.7837 60.1144 16.0658 60.4775 16.2565C60.9815 16.5236 61.5359 16.6774 62.0424 16.9445C62.5011 17.1965 62.8665 17.5518 63.3755 17.7181C63.8459 17.8808 64.3596 17.8656 64.8195 17.6753C65.0965 17.5558 65.3304 17.3544 65.4898 17.0982C65.7645 16.6774 66.0996 16.0222 66.0316 15.498C65.9686 15.0192 65.6712 14.6362 65.4847 14.2027C65.2983 13.7693 65.2731 13.2401 65.1697 12.7588C64.9933 11.9322 64.3558 11.2216 63.436 11.4358Z" fill="#F5F5F5"/>
<path d="M61.2587 11.2946C61.3932 11.2349 61.523 11.165 61.6468 11.0855C61.8119 10.9865 61.9452 10.8423 62.031 10.6699C62.1167 10.4975 62.1513 10.3042 62.1306 10.1128C62.1121 9.76616 62.0346 9.42527 61.9013 9.10477C61.8155 8.85501 61.6895 8.62094 61.5283 8.41177C61.4755 8.34318 61.4081 8.28723 61.3309 8.24799C61.2538 8.20876 61.1688 8.18723 61.0823 8.18497C60.9598 8.2001 60.8422 8.24233 60.738 8.30858C60.6338 8.37484 60.5457 8.46346 60.48 8.56801C60.2508 8.87315 60.0729 9.21361 59.9533 9.57601C59.8439 9.87035 59.8084 10.1871 59.85 10.4983C59.8712 10.6543 59.9276 10.8034 60.0149 10.9344C60.1023 11.0654 60.2182 11.1748 60.354 11.2543C60.6107 11.3796 60.9058 11.4013 61.1781 11.3148L61.2587 11.2946Z" fill="#F5F5F5"/>
<path d="M63.1059 7.87501C63.3705 7.33069 63.7914 6.88465 64.4214 6.89473C65.1572 6.90733 65.3764 7.80193 65.3134 8.40673C65.2697 9.06367 65.003 9.68599 64.5574 10.1707C63.9577 10.7428 63.1992 10.4681 62.9245 9.72973C62.7393 9.11162 62.8045 8.44552 63.1059 7.87501V7.87501Z" fill="#F5F5F5"/>
<path d="M66.4802 14.0112C66.438 13.8696 66.4085 13.7246 66.392 13.5778C66.3622 13.3882 66.3872 13.194 66.464 13.0182C66.5407 12.8423 66.6661 12.692 66.8254 12.5849C67.1061 12.3746 67.4206 12.2135 67.7553 12.1086C68.0009 12.0135 68.2607 11.9598 68.5239 11.9499C68.6109 11.946 68.6977 11.9616 68.778 11.9956C68.8582 12.0297 68.9298 12.0812 68.9876 12.1464C69.0524 12.2522 69.0928 12.3711 69.1059 12.4945C69.119 12.6178 69.1044 12.7426 69.0632 12.8596C68.9748 13.2328 68.8267 13.5894 68.6247 13.9155C68.4669 14.1868 68.2466 14.4166 67.9821 14.5858C67.8489 14.6682 67.6989 14.7197 67.5432 14.7362C67.3874 14.7528 67.23 14.7341 67.0824 14.6815C66.8217 14.5644 66.616 14.3514 66.5079 14.0868C66.4978 14.0616 66.4877 14.0364 66.4802 14.0112Z" fill="#F5F5F5"/>
<path d="M68.1232 10.3572C68.3752 9.80532 68.4332 9.19296 68.0174 8.72172C67.5335 8.16732 66.707 8.5806 66.2987 9.01152C65.8277 9.47324 65.5266 10.0807 65.4445 10.7352C65.3991 11.5618 66.1022 11.9599 66.8405 11.6928C67.4253 11.431 67.8853 10.9521 68.1232 10.3572V10.3572Z" fill="#F5F5F5"/>
<path d="M14.3313 14.2305C14.1095 14.6589 14.0969 15.1629 13.9356 15.6165C13.6836 16.2994 13.1318 16.8336 12.8999 17.5191C12.7626 17.9705 12.7625 18.4525 12.8998 18.9039C13.0371 19.3554 13.3056 19.7557 13.671 20.0542C14.0463 20.3399 14.4893 20.5232 14.9568 20.5859C15.4242 20.6487 15.8999 20.5887 16.3372 20.412C16.9496 20.16 17.4964 19.8022 18.1012 19.5577C18.6581 19.3385 19.2478 19.2931 19.7745 18.9706C20.2687 18.6813 20.6392 18.2203 20.8152 17.6753C20.9195 17.3474 20.9195 16.9952 20.8152 16.6673C20.654 16.1104 20.3289 15.3292 19.8224 14.9965C19.3158 14.6639 18.7992 14.6639 18.2801 14.4925C17.761 14.3212 17.2721 13.9608 16.7681 13.6887C15.929 13.2401 14.8302 13.2678 14.3313 14.2305Z" fill="#EBEBEB"/>
<path d="M12.5799 16.0298C12.6306 15.8652 12.6669 15.6966 12.6882 15.5258C12.7265 15.3075 12.7007 15.0827 12.614 14.8788C12.5272 14.6749 12.3832 14.5004 12.1993 14.3766C11.8802 14.1304 11.5214 13.9403 11.1384 13.8147C10.8555 13.7049 10.557 13.6402 10.2539 13.6232C10.1541 13.6188 10.0545 13.6364 9.96215 13.6747C9.86984 13.713 9.78707 13.7711 9.71967 13.8449C9.64354 13.9656 9.59542 14.1018 9.57885 14.2435C9.56228 14.3853 9.57768 14.5289 9.62391 14.6639C9.72343 15.0955 9.89373 15.5076 10.1279 15.8836C10.3049 16.1992 10.5556 16.4672 10.8587 16.6648C11.0106 16.7617 11.1825 16.823 11.3614 16.8439C11.5404 16.8649 11.7217 16.845 11.8919 16.7858C12.1851 16.6564 12.4189 16.4217 12.5471 16.128C12.5597 16.0877 12.5698 16.06 12.5799 16.0298Z" fill="#EBEBEB"/>
<path d="M10.9722 11.8566C10.6924 11.2216 10.6194 10.5185 11.0982 9.97418C11.6576 9.33914 12.6102 9.81794 13.0738 10.3144C13.5375 10.8108 14.0138 11.5744 14.0516 12.2976C14.1045 13.2502 13.2956 13.7088 12.4464 13.3963C11.771 13.1494 11.2544 12.4992 10.9722 11.8566Z" fill="#EBEBEB"/>
<path d="M18.8622 13.4946C18.7068 13.4231 18.5576 13.3389 18.4162 13.2426C18.2267 13.1285 18.0746 12.9617 17.9784 12.7625C17.8822 12.5634 17.8461 12.3406 17.8744 12.1212C17.8966 11.7205 17.9879 11.3267 18.144 10.957C18.2464 10.671 18.3935 10.403 18.58 10.1632C18.6431 10.0861 18.7222 10.0236 18.8118 9.98013C18.9015 9.93662 18.9995 9.9131 19.0991 9.91119C19.2403 9.9334 19.3748 9.98705 19.4926 10.0682C19.6104 10.1493 19.7084 10.2558 19.7795 10.3799C20.0397 10.7358 20.2406 11.1315 20.3742 11.5517C20.4949 11.8872 20.5329 12.2468 20.4851 12.6C20.4611 12.7789 20.3967 12.9499 20.2967 13.1001C20.1967 13.2504 20.0638 13.3758 19.908 13.4669C19.6109 13.6084 19.2706 13.6301 18.958 13.5274L18.8622 13.4946Z" fill="#EBEBEB"/>
<path d="M16.884 9.32402C16.5816 8.69654 16.0978 8.18246 15.372 8.19002C14.5278 8.20262 14.2708 9.2333 14.3438 9.9137C14.4169 10.5941 14.679 11.4257 15.2107 11.9473C15.9012 12.6051 16.7756 12.2901 17.0906 11.4433C17.3527 10.773 17.1965 9.95654 16.884 9.32402Z" fill="#EBEBEB"/>
<path d="M105.192 15.3896C105.066 15.7702 105.124 16.1885 105.051 16.5841C104.943 17.1788 104.547 17.6954 104.452 18.2902C104.399 18.6809 104.463 19.0784 104.638 19.4321C104.812 19.7858 105.087 20.0796 105.429 20.2759C105.776 20.4633 106.166 20.5569 106.56 20.5476C106.954 20.5383 107.339 20.4265 107.677 20.223C108.146 19.9433 108.549 19.5653 109.02 19.283C109.449 19.031 109.93 18.9101 110.321 18.5724C110.689 18.2677 110.933 17.8381 111.006 17.3653C111.046 17.0788 110.998 16.7869 110.867 16.5287C110.658 16.0927 110.288 15.4904 109.824 15.2863C109.36 15.0822 108.937 15.1502 108.489 15.0872C108.04 15.0242 107.604 14.7823 107.143 14.616C106.377 14.364 105.475 14.5278 105.192 15.3896Z" fill="#F5F5F5"/>
<path d="M103.99 17.1083C104.009 16.9672 104.017 16.8247 104.013 16.6824C104.015 16.4976 103.964 16.3162 103.865 16.1601C103.766 16.004 103.624 15.8799 103.456 15.8029C103.16 15.6423 102.839 15.534 102.506 15.4829C102.258 15.4292 102.003 15.4156 101.75 15.4426C101.668 15.4518 101.588 15.4792 101.518 15.5228C101.447 15.5664 101.387 15.625 101.342 15.6946C101.294 15.8045 101.273 15.9237 101.278 16.0433C101.283 16.1628 101.315 16.2797 101.372 16.385C101.509 16.7268 101.701 17.0436 101.942 17.3225C102.129 17.5591 102.371 17.7467 102.647 17.8693C102.785 17.929 102.935 17.9564 103.085 17.9495C103.236 17.9425 103.382 17.9013 103.514 17.829C103.746 17.682 103.911 17.4507 103.975 17.1839C103.98 17.1587 103.988 17.136 103.99 17.1083Z" fill="#F5F5F5"/>
<path d="M102.105 13.8852C101.79 13.3963 101.634 12.8268 101.957 12.3152C102.332 11.718 103.179 11.9826 103.633 12.3303C104.151 12.698 104.529 13.2313 104.704 13.8423C104.872 14.621 104.268 15.1023 103.527 14.9637C102.93 14.8042 102.42 14.4169 102.105 13.8852V13.8852Z" fill="#F5F5F5"/>
<path d="M108.826 14.175C108.689 14.1392 108.556 14.0911 108.428 14.0313C108.257 13.9621 108.109 13.845 108.003 13.6939C107.896 13.5428 107.836 13.3642 107.828 13.1796C107.794 12.842 107.818 12.5011 107.899 12.1716C107.944 11.922 108.03 11.6813 108.151 11.4584C108.192 11.3859 108.248 11.3232 108.316 11.2749C108.384 11.2265 108.462 11.1937 108.544 11.1787C108.663 11.1778 108.781 11.2038 108.889 11.2549C108.997 11.3059 109.092 11.3807 109.166 11.4735C109.429 11.7317 109.648 12.0314 109.814 12.3606C109.96 12.6239 110.04 12.9189 110.046 13.2199C110.048 13.3705 110.015 13.5195 109.951 13.6557C109.887 13.7919 109.793 13.9118 109.675 14.0061C109.45 14.1635 109.173 14.2268 108.902 14.1825C108.876 14.1825 108.851 14.18 108.826 14.175V14.175Z" fill="#F5F5F5"/>
<path d="M106.646 11.0023C106.314 10.526 105.845 10.1682 105.25 10.274C104.555 10.395 104.482 11.282 104.63 11.8314C104.775 12.4477 105.124 12.9968 105.621 13.3888C106.276 13.8398 106.954 13.4644 107.103 12.7235C107.18 12.1123 107.017 11.4949 106.646 11.0023V11.0023Z" fill="#F5F5F5"/>
<path d="M90.7957 31.1976C90.1959 31.4496 89.7499 31.9713 89.1904 32.3089C88.3513 32.8129 87.3029 32.8961 86.4713 33.4152C85.9399 33.7709 85.5262 34.2766 85.283 34.868C85.0398 35.4595 84.978 36.1099 85.1055 36.7366C85.2518 37.3591 85.5573 37.933 85.9919 38.4022C86.4266 38.8713 86.9756 39.2195 87.5852 39.4128C88.4319 39.6825 89.324 39.7631 90.1757 40.0353C90.9469 40.2873 91.6046 40.7409 92.4437 40.8543C93.2107 40.9747 93.9952 40.8097 94.6487 40.3906C95.0385 40.1271 95.3384 39.7508 95.5081 39.312C95.813 38.5888 96.1456 37.4926 95.8961 36.7089C95.6693 35.9881 95.1099 35.4816 94.7017 34.8693C94.2934 34.2569 94.112 33.453 93.8197 32.7399C93.3207 31.5303 92.1464 30.6155 90.7957 31.1976Z" fill="#EBEBEB"/>
<path d="M87.4138 31.5806C87.606 31.4543 87.7865 31.3109 87.9531 31.1522C88.4571 30.7012 88.5579 30.1921 88.4268 29.5294C88.3046 28.9931 88.0915 28.4817 87.7968 28.0174C87.5967 27.6597 87.3416 27.3357 87.0408 27.0572C86.9395 26.9659 86.819 26.8983 86.6882 26.8595C86.5574 26.8207 86.4196 26.8116 86.2848 26.833C85.9043 26.9061 85.6523 27.2639 85.4784 27.6091C85.2115 28.1439 85.0328 28.7183 84.9492 29.3101C84.8645 29.7921 84.8974 30.2875 85.045 30.7541C85.1217 30.9852 85.2497 31.196 85.4195 31.3705C85.5893 31.5451 85.7964 31.679 86.0253 31.7621C86.4531 31.8856 86.9123 31.8377 87.3054 31.6285L87.4138 31.5806Z" fill="#EBEBEB"/>
<path d="M89.3089 25.825C89.5609 24.9178 90.0875 24.1164 91.0577 23.9577C92.1892 23.7737 92.7739 25.0866 92.8394 26.0115C92.9074 26.9817 92.7487 28.1283 92.1615 28.9296C91.4055 29.9729 90.1455 29.7587 89.5331 28.7028C89.0392 27.8662 89.0543 26.7397 89.3089 25.825Z" fill="#EBEBEB"/>
<path d="M96.1758 34.3123C96.0737 34.1065 95.9894 33.8924 95.9238 33.6722C95.7121 33.0296 95.8759 32.5408 96.3194 32.0292C96.6899 31.6279 97.1263 31.293 97.6097 31.0388C97.9623 30.8263 98.3469 30.6723 98.7487 30.5827C98.88 30.5556 99.0156 30.5573 99.1461 30.5878C99.2767 30.6182 99.399 30.6767 99.5047 30.7591C99.797 31.0111 99.8399 31.4471 99.8172 31.8326C99.785 32.4292 99.6556 33.0166 99.4342 33.5714C99.2688 34.0322 98.9948 34.4462 98.6353 34.7785C98.454 34.9419 98.2381 35.0621 98.0038 35.1302C97.7694 35.1982 97.5227 35.2124 97.2821 35.1716C96.8481 35.066 96.4727 34.7947 96.2363 34.4156C96.2186 34.3854 96.196 34.3501 96.1758 34.3123Z" fill="#EBEBEB"/>
<path d="M97.6903 28.2517C97.9146 27.337 97.8466 26.3819 97.078 25.7695C96.1809 25.0539 95.0292 25.9157 94.5202 26.6893C93.9859 27.5033 93.5651 28.5819 93.6861 29.5672C93.8423 30.8499 95.0292 31.2707 96.0901 30.6533C96.9293 30.1644 97.4661 29.1741 97.6903 28.2517Z" fill="#EBEBEB"/>
<path d="M114.232 37.7042C113.889 37.8353 113.622 38.1125 113.299 38.2864C112.815 38.5384 112.223 38.5661 111.742 38.8357C111.433 39.0207 111.186 39.2936 111.034 39.6196C110.881 39.9455 110.829 40.3096 110.885 40.6652C110.95 41.0192 111.105 41.3501 111.337 41.6254C111.569 41.9007 111.868 42.1109 112.205 42.2352C112.674 42.4091 113.173 42.4872 113.644 42.656C114.07 42.8148 114.428 43.092 114.892 43.1777C115.322 43.2684 115.771 43.1965 116.152 42.9761C116.381 42.8431 116.563 42.6412 116.671 42.399C116.862 42.0008 117.077 41.391 116.958 40.9475C116.84 40.504 116.55 40.2368 116.338 39.8815C116.152 39.4897 116.005 39.0803 115.9 38.6593C115.643 37.9613 115.008 37.4144 114.232 37.7042Z" fill="#EBEBEB"/>
<path d="M112.321 37.8303C112.433 37.7636 112.538 37.6877 112.636 37.6035C112.77 37.4996 112.87 37.3594 112.925 37.1996C112.98 37.0399 112.987 36.8677 112.946 36.7038C112.891 36.4016 112.784 36.1111 112.631 35.8445C112.529 35.637 112.393 35.4473 112.231 35.2825C112.176 35.229 112.111 35.1882 112.039 35.1629C111.967 35.1376 111.891 35.1286 111.815 35.1364C111.71 35.165 111.613 35.2171 111.531 35.2886C111.449 35.3602 111.384 35.4495 111.341 35.5497C111.176 35.8433 111.06 36.1615 110.996 36.4921C110.937 36.7608 110.942 37.0398 111.011 37.3061C111.048 37.4387 111.114 37.5612 111.205 37.6646C111.296 37.768 111.409 37.8496 111.535 37.9033C111.773 37.9825 112.031 37.968 112.258 37.863L112.321 37.8303Z" fill="#EBEBEB"/>
<path d="M113.541 34.6475C113.71 34.1435 114.027 33.7075 114.574 33.6395C115.217 33.5664 115.509 34.3199 115.522 34.8415C115.556 35.4191 115.394 35.9912 115.061 36.4644C114.605 37.0289 113.912 36.8752 113.589 36.2653C113.364 35.7525 113.347 35.1727 113.541 34.6475V34.6475Z" fill="#EBEBEB"/>
<path d="M117.18 39.6018C117.128 39.4837 117.086 39.3615 117.054 39.2364C117.003 39.0759 117 38.9041 117.045 38.7419C117.09 38.5796 117.18 38.4337 117.306 38.3216C117.526 38.1065 117.782 37.9309 118.062 37.8025C118.266 37.6924 118.486 37.6159 118.715 37.5757C118.79 37.5633 118.866 37.5675 118.939 37.5879C119.013 37.6084 119.08 37.6447 119.138 37.6942C119.207 37.7788 119.256 37.8776 119.281 37.9836C119.307 38.0895 119.309 38.1998 119.287 38.3065C119.252 38.6414 119.163 38.9683 119.022 39.2742C118.917 39.529 118.752 39.7546 118.541 39.9319C118.434 40.0186 118.31 40.0802 118.176 40.1121C118.043 40.1439 117.904 40.1452 117.77 40.1159C117.53 40.0442 117.326 39.8826 117.203 39.6648C117.194 39.6443 117.186 39.6233 117.18 39.6018Z" fill="#EBEBEB"/>
<path d="M118.188 36.2376C118.337 35.7336 118.324 35.1893 117.911 34.8264C117.424 34.4005 116.754 34.8516 116.447 35.2725C116.091 35.7279 115.898 36.2897 115.9 36.8676C115.955 37.5934 116.61 37.8605 117.223 37.543C117.702 37.2497 118.048 36.7816 118.188 36.2376V36.2376Z" fill="#EBEBEB"/>
<path d="M13.0788 46.0102C12.8268 46.4915 12.784 47.0686 12.5874 47.5852C12.2926 48.3588 11.6374 48.9561 11.3526 49.7347C11.1812 50.2494 11.1673 50.8035 11.3128 51.3261C11.4582 51.8487 11.7564 52.3159 12.1691 52.668C12.5902 53.0062 13.0919 53.2293 13.625 53.3154C14.1582 53.4015 14.7046 53.3478 15.2107 53.1594C15.9163 52.9074 16.5514 52.4891 17.2595 52.227C17.9021 51.9901 18.58 51.9549 19.1898 51.597C19.7613 51.2804 20.1963 50.7647 20.412 50.148C20.5391 49.7715 20.547 49.365 20.4347 48.9838C20.2633 48.3412 19.9131 47.439 19.341 47.0459C18.8143 46.6855 18.1793 46.6402 17.577 46.4436C16.9747 46.2471 16.4455 45.8086 15.8811 45.4835C14.9335 44.919 13.6761 44.919 13.0788 46.0102Z" fill="#F5F5F5"/>
<path d="M11.0275 48.0237C11.0882 47.8387 11.1337 47.649 11.1636 47.4567C11.2644 46.8947 11.0653 46.5041 10.6344 46.1311C10.275 45.8399 9.86847 45.6124 9.43234 45.4583C9.11178 45.3215 8.77155 45.2365 8.42434 45.2063C8.31018 45.1985 8.19571 45.216 8.08902 45.2573C7.98233 45.2987 7.88604 45.363 7.80694 45.4457C7.71632 45.5817 7.65749 45.7364 7.63481 45.8982C7.61212 46.0601 7.62617 46.2249 7.6759 46.3806C7.77512 46.876 7.95474 47.3519 8.20762 47.7893C8.40113 48.1548 8.68044 48.4678 9.02158 48.7015C9.19274 48.8168 9.38794 48.8914 9.59232 48.9198C9.7967 48.9482 10.0049 48.9296 10.2009 48.8653C10.5508 48.7253 10.8321 48.454 10.9847 48.1093C11.0023 48.0892 11.0149 48.0564 11.0275 48.0237Z" fill="#F5F5F5"/>
<path d="M9.29624 43.2054C8.99132 42.4696 8.9258 41.6632 9.48776 41.0533C10.1455 40.3427 11.219 40.9122 11.7558 41.4943C12.2925 42.0764 12.7965 42.9509 12.8217 43.79C12.8545 44.8812 11.917 45.3827 10.9544 45.0047C10.1757 44.7048 9.60116 43.9463 9.29624 43.2054Z" fill="#F5F5F5"/>
<path d="M18.2826 45.2869C18.1061 45.204 17.9374 45.1053 17.7786 44.9921C17.3023 44.6771 17.1587 44.2638 17.1864 43.6943C17.2255 43.2337 17.3423 42.7829 17.5316 42.3612C17.6576 42.0375 17.8336 41.7357 18.0533 41.4666C18.1265 41.38 18.2175 41.3101 18.3201 41.2619C18.4227 41.2136 18.5346 41.188 18.648 41.1869C18.807 41.2172 18.9573 41.2824 19.088 41.3779C19.2187 41.4733 19.3267 41.5966 19.404 41.7388C19.6983 42.1504 19.923 42.6076 20.0693 43.092C20.1987 43.485 20.2315 43.9033 20.165 44.3117C20.1291 44.5148 20.0477 44.7072 19.9268 44.8744C19.8059 45.0415 19.6487 45.1791 19.467 45.2768C19.1243 45.4318 18.7347 45.4472 18.3809 45.3197L18.2826 45.2869Z" fill="#F5F5F5"/>
<path d="M16.128 40.4637C15.8004 39.7379 15.2586 39.1356 14.4295 39.1281C13.4618 39.1281 13.1418 40.2923 13.2048 41.071C13.2728 41.89 13.5525 42.835 14.1447 43.4221C14.9184 44.1958 15.9264 43.8556 16.3119 42.8955C16.632 42.1319 16.4707 41.1945 16.128 40.4637Z" fill="#F5F5F5"/>
<path d="M27.1253 106.442C22.5112 108.95 15.0293 108.95 10.4227 106.442C5.81616 103.935 5.8086 99.8701 10.4227 97.3703C15.0368 94.8704 22.5187 94.8629 27.1253 97.3703C31.7318 99.8777 31.7369 103.935 27.1253 106.442Z" fill="#E6E6E6"/>
<path d="M106.077 101.213C94.4672 107.526 75.6428 107.526 64.0332 101.213C52.4235 94.9007 52.416 84.672 64.0332 78.372C75.6504 72.072 94.4672 72.072 106.077 78.372C117.687 84.672 117.684 94.9032 106.077 101.213Z" fill="#E6E6E6"/>
<path d="M51.6776 98.6832C43.7825 102.967 30.9784 102.967 23.0832 98.6832C15.188 94.3992 15.1855 87.4314 23.0832 83.1398C30.9809 78.8483 43.7825 78.8558 51.6776 83.1398C59.5728 87.4238 59.5753 94.3916 51.6776 98.6832Z" fill="#E6E6E6"/>
<path d="M116.437 106.442C111.822 108.95 104.341 108.95 99.734 106.442C95.1274 103.935 95.1199 99.8701 99.734 97.3703C104.348 94.8704 111.83 94.8629 116.437 97.3703C121.043 99.8777 121.048 103.935 116.437 106.442Z" fill="#E6E6E6"/>
<path d="M41.9984 65.6913L41.832 65.6762C40.4864 65.5653 39.4784 65.6762 38.304 66.3818L35.401 68.1156C34.7231 68.5188 34.0452 68.9245 33.4026 69.3756C32.8948 69.6891 32.471 70.1215 32.1678 70.6356C32.0652 70.8355 32.0052 71.0545 31.9918 71.2788C31.9783 71.5031 32.0117 71.7277 32.0897 71.9384C32.1522 72.0967 32.237 72.2453 32.3417 72.3794C32.4748 72.4776 32.6136 72.5676 32.7575 72.6491C32.9029 73.152 33.2383 73.5785 33.6926 73.8386C34.1469 74.0987 34.6845 74.1719 35.1918 74.0426C35.2711 74.0082 35.3582 73.996 35.4438 74.0073C35.5241 74.0364 35.5953 74.0859 35.6505 74.151C35.9432 74.398 36.2912 74.571 36.6649 74.6552C37.0386 74.7394 37.4271 74.7324 37.7975 74.6348C38.5384 74.4316 39.2195 74.053 39.7833 73.5311C40.3654 73.0271 40.887 72.4752 41.4792 71.9913C42.9434 70.7969 44.7149 71.2353 46.3958 71.573C48.5226 71.9964 50.6369 72.4718 52.7386 72.9993C53.4114 73.1682 54.1851 73.4328 54.3993 74.093C54.4698 74.3123 54.4673 74.5517 54.5429 74.7684C54.5705 74.8802 54.6356 74.9792 54.7273 75.0489C54.819 75.1186 54.9318 75.1548 55.0469 75.1514C55.1501 75.1246 55.2447 75.0716 55.3216 74.9977L56.1028 74.3853C55.9718 74.7734 56.4707 75.1414 56.8588 75.033C57.2469 74.9246 57.4964 74.529 57.6148 74.1384C57.7058 73.739 57.8366 73.3498 58.0054 72.9767C58.1851 72.7055 58.4042 72.4626 58.6556 72.256C60.5456 70.5323 62.2919 68.602 63.4914 66.3415C63.8723 65.6897 64.1287 64.9728 64.2474 64.2272C64.4289 62.6774 63.3251 61.6266 62.3247 60.5783C61.2603 59.4622 60.0578 58.4866 58.7463 57.6752C58.0936 57.272 57.383 56.9016 56.6169 56.8663C56.4393 56.8498 56.2606 56.8793 56.0978 56.952C55.9044 57.0744 55.7497 57.2492 55.6517 57.456C54.2254 59.976 53.734 62.9672 52.1237 65.3713C51.9643 65.6499 51.7339 65.8812 51.4559 66.0416C51.1583 66.1558 50.8376 66.1964 50.521 66.1601C47.6768 66.0794 44.8359 65.9232 41.9984 65.6913Z" fill="#455A64"/>
<path d="M57.8113 71.8351C58.0733 71.5516 58.2802 71.2218 58.4211 70.8624C58.486 70.6837 58.5009 70.4906 58.464 70.3041C58.4271 70.1175 58.34 69.9446 58.212 69.804C58.0022 69.6385 57.7495 69.5362 57.4837 69.5092C56.6438 69.3507 55.7844 69.3226 54.936 69.426C55.0645 68.8943 55.188 68.3298 55.0191 67.8157C54.8503 67.3016 54.2329 66.8934 53.7465 67.1378C53.9186 66.2011 54.003 65.2502 53.9985 64.2978C54.0138 64.094 53.9701 63.8902 53.8725 63.7106C53.7905 63.6019 53.6755 63.5226 53.5448 63.4844C53.414 63.4463 53.2744 63.4514 53.1468 63.499C52.857 64.1589 52.5113 64.7929 52.1136 65.394C51.9542 65.6726 51.7237 65.9039 51.4458 66.0643C51.1482 66.1784 50.8275 66.2191 50.5109 66.1828C47.6666 66.087 44.8257 65.9232 41.9882 65.6914L41.8219 65.6762C40.4762 65.5654 39.4682 65.6762 38.2939 66.3818L35.3909 68.1156C34.713 68.5188 34.0351 68.9245 33.3925 69.3756C32.8847 69.6891 32.4609 70.1215 32.1577 70.6356C32.0551 70.8355 31.9951 71.0545 31.9817 71.2788C31.9682 71.5031 32.0016 71.7277 32.0796 71.9384C32.142 72.0967 32.2269 72.2453 32.3316 72.3794C32.4409 72.508 32.5854 72.6017 32.7474 72.6491C32.8928 73.152 33.2281 73.5786 33.6824 73.8386C34.1368 74.0987 34.6744 74.1719 35.1817 74.0426C35.2609 74.0082 35.3481 73.996 35.4337 74.0074C35.5139 74.0364 35.5852 74.0859 35.6403 74.151C35.9331 74.398 36.281 74.571 36.6548 74.6552C37.0285 74.7394 37.4169 74.7324 37.7874 74.6348C38.5283 74.4316 39.2094 74.053 39.7731 73.5311C40.3553 73.0271 40.8769 72.4752 41.4691 71.9914C42.9332 70.7969 44.7048 71.2354 46.3856 71.573C48.5125 71.9964 50.6268 72.4718 52.7285 72.9994C53.4013 73.1682 54.1749 73.4328 54.3891 74.093C54.4597 74.3123 54.4572 74.5517 54.5328 74.7684C54.5604 74.8802 54.6254 74.9792 54.7171 75.0489C54.8088 75.1186 54.9217 75.1548 55.0368 75.1514C55.14 75.1246 55.2346 75.0716 55.3115 74.9977L56.0927 74.3854C55.9616 74.7734 56.4606 75.1414 56.8487 75.033C57.2367 74.9246 57.4862 74.529 57.6047 74.1384C57.6956 73.7391 57.8265 73.3499 57.9953 72.9767C58.175 72.7055 58.3941 72.4626 58.6454 72.256L58.8848 72.0317C58.5573 71.8528 58.181 71.7839 57.8113 71.8351Z" fill="#E0E0E0"/>
<path opacity="0.2" d="M35.4261 73.957C35.1338 73.0649 35.411 72.319 36.1468 71.752C36.7758 71.241 37.4741 70.8219 38.2208 70.5071L37.243 71.2102C36.235 71.9863 35.2548 72.4954 35.4261 73.957Z" fill="black"/>
<path opacity="0.2" d="M32.76 72.6087C32.7021 71.7746 33.2388 71.1169 33.9369 70.7288C34.5891 70.3225 35.2959 70.0111 36.036 69.804C35.4564 70.1316 34.6299 70.5801 34.0679 70.9178C33.3976 71.2857 32.8961 71.8175 32.7676 72.5987L32.76 72.6087Z" fill="black"/>
<path d="M72.0921 64.26C71.6553 64.501 71.2411 64.781 70.8548 65.0966C70.2114 65.6362 69.639 66.2552 69.1513 66.9388C67.0269 69.8494 66.2129 73.8763 67.735 77.1397C69.3428 80.5921 73.337 82.5779 77.1397 82.3662C75.4739 83.1222 73.4554 82.5376 71.704 83.0819C70.8195 83.3566 70.1542 84.3167 69.9854 85.2264C69.8165 86.1361 70.0937 87.0736 71.2454 87.0736C71.2454 87.5196 72.0921 88.3336 73.594 87.9253C73.6696 88.2529 73.846 88.8476 76.366 88.4293C78.886 88.011 86.194 85.0399 89.1777 83.3414C90.3613 82.7142 91.4689 81.9533 92.4789 81.0734C94.3084 79.4909 95.518 77.1876 96.0674 74.8062C96.7604 71.7822 96.521 68.6473 96.1052 65.583C95.4349 60.6514 94.258 54.873 88.6561 53.5374C88.0166 53.3612 87.3457 53.331 86.693 53.4492C85.6547 53.6735 84.803 54.4446 84.2259 55.3367C82.9079 57.3804 82.8399 59.976 82.9835 62.4204C83.0995 64.4188 81.6202 63.4284 80.3476 63.2268C79.0432 62.9958 77.7155 62.9239 76.3937 63.0126C74.8875 63.118 73.421 63.5433 72.0921 64.26V64.26Z" fill="#37474F"/>
<path d="M71.2454 87.0736C71.069 86.0152 71.1346 84.7476 72.1375 84.3142C73.1405 83.8807 74.975 83.979 74.975 83.979C74.975 83.979 72.5382 83.6136 71.636 84.1806C70.7339 84.7476 70.9556 86.2621 71.2454 87.0736Z" fill="#263238"/>
<path d="M73.5839 87.9178C73.405 86.8619 73.4731 85.5918 74.4735 85.1583C75.4739 84.7249 77.311 84.8257 77.311 84.8257C77.311 84.8257 74.8742 84.4578 73.9745 85.0248C73.0749 85.5918 73.3017 87.1063 73.5839 87.9178Z" fill="#263238"/>
<path d="M78.9289 79.2691C79.4329 79.322 79.9949 79.0751 80.1587 78.5963C79.7227 79.695 80.4107 80.9978 81.4539 81.5674C82.4972 82.1369 83.7446 82.1243 84.9114 81.9302C89.0694 81.2398 92.8569 78.2057 94.059 74.1661C94.6991 72.0115 94.6184 69.6982 94.1724 67.4957C93.4978 64.2205 92.067 61.1484 89.9942 58.5245C88.3991 56.5085 86.3352 54.7142 83.8328 54.117C81.3305 53.5198 78.3569 54.4043 77.1044 56.6521C76.7046 57.4325 76.4486 58.2784 76.3484 59.1494C75.8898 62.3473 76.5097 65.5805 76.1191 68.7809C75.8671 70.817 75.3631 72.9061 75.7587 74.9574C76.0763 76.608 76.9205 79.0524 78.9289 79.2691Z" fill="#F5F5F5"/>
<path d="M90.1404 70.2878C88.9812 69.7334 87.6355 69.683 86.3604 69.8746C85.4356 70.0132 84.4578 70.3206 83.9059 71.0791C83.7875 70.4567 82.8979 70.2803 82.3637 70.623C81.8294 70.9657 81.585 71.6033 81.3708 72.2005C81.2246 71.3084 80.9878 70.2878 80.1814 69.8771C79.375 69.4663 78.251 70.0283 77.6941 70.6658C77.2578 71.1986 76.9415 71.8192 76.7668 72.4853C76.6282 72.198 76.2124 72.2005 75.9074 72.2988C75.8216 72.3287 75.7375 72.3632 75.6554 72.4021C75.5785 73.2548 75.6141 74.114 75.7613 74.9574C76.0813 76.6181 76.9255 79.0524 78.934 79.2691C79.438 79.322 79.9999 79.0751 80.1637 78.5963C79.7278 79.695 80.4157 80.9978 81.459 81.5674C82.5023 82.1369 83.7497 82.1243 84.9164 81.9302C86.1244 81.7265 87.2934 81.3363 88.3814 80.7736C89.7331 79.2774 90.8389 77.5762 91.6574 75.7336C92.0153 74.9549 92.3454 74.1258 92.3 73.269C92.232 71.9762 91.3021 70.8448 90.1404 70.2878Z" fill="#E0E0E0"/>
<path d="M66.4423 45.5515C66.3591 45.6952 66.2785 45.8388 66.1903 45.985C64.9025 48.3739 64.0684 51.2089 64.9303 53.8826C65.8375 56.6824 68.3751 59.0134 70.7615 60.5959C72.0619 61.4552 75.8897 63.562 77.0439 61.4225C77.3539 60.8429 77.3362 60.1625 77.3564 59.4947C77.3816 58.6555 77.4975 57.776 77.999 57.1057C78.5005 56.4354 79.511 56.075 80.2115 56.5211C80.7785 56.8789 80.9852 57.6047 81.0507 58.2851C81.1162 58.9655 81.091 59.6534 81.3808 60.2582C81.4438 60.4148 81.555 60.5472 81.6983 60.6362C81.9075 60.7446 82.162 60.6866 82.3913 60.7421C83.8479 61.0898 83.4195 65.0513 83.2708 66.0996C83.2053 66.5658 83.2154 67.1731 83.6564 67.3445C83.9638 67.4629 84.299 67.2764 84.5888 67.1152C85.2559 66.7422 85.9781 66.4776 86.7283 66.3314C86.9803 66.2836 87.3154 66.2886 87.4137 66.528C87.512 66.7674 87.3079 66.969 87.1617 67.1555C86.9085 67.4763 86.752 67.8627 86.7106 68.2693C86.6995 68.3241 86.6998 68.3805 86.7115 68.4352C86.7232 68.4898 86.7461 68.5415 86.7787 68.5868C86.8586 68.6568 86.9622 68.6938 87.0685 68.6902C87.6581 68.738 88.2503 68.6624 88.8325 68.675C90.4049 68.7128 91.8565 70.1644 91.7733 71.7494C87.9479 70.1114 84.2511 72.77 82.1519 75.852C80.9806 77.5405 80.4197 79.5778 80.5618 81.6278C80.6579 83.2479 81.2168 84.8065 82.1721 86.1185C83.2985 87.7489 86.4183 89.6465 88.2201 89.591C87.3722 89.8519 86.5064 90.0507 85.6295 90.1858C82.918 90.6444 82.0688 90.3622 80.7155 90.7805C79.831 91.0577 79.1657 92.0153 78.9944 92.925C78.823 93.8347 79.1027 94.7722 80.2544 94.7722C80.267 95.2182 81.1036 96.0322 82.603 95.6239C82.6811 95.9515 82.8676 96.5462 85.375 96.1279C87.8824 95.7096 95.203 92.7385 98.1867 91.04C99.3704 90.4131 100.478 89.6521 101.488 88.772C103.32 87.192 104.532 84.8912 105.084 82.5098C105.779 79.4858 105.54 76.351 105.122 73.2866C103.385 60.5077 96.4051 54.2128 93.7817 51.5592C91.7305 49.4878 89.3566 47.9102 86.8291 46.4839C84.4628 45.1483 82.0058 43.7875 80.2771 41.6203C79.5337 40.6778 78.9263 39.632 78.1703 38.6996C77.4975 37.8731 76.618 36.8978 75.4865 36.8878C74.2694 36.8878 73.1228 37.7294 72.2433 38.4829C69.9131 40.4837 67.95 42.8758 66.4423 45.5515V45.5515Z" fill="#455A64"/>
<path d="M80.2671 94.7797C80.0907 93.7213 80.1562 92.4537 81.1566 92.0203C82.1571 91.5869 83.9941 91.6851 83.9941 91.6851C83.9941 91.6851 81.5573 91.3197 80.6577 91.8867C79.758 92.4537 79.9747 93.9683 80.2671 94.7797Z" fill="#263238"/>
<path d="M82.6131 95.6239C82.4367 94.568 82.5047 93.298 83.5052 92.8645C84.5056 92.4311 86.3427 92.5319 86.3427 92.5319C86.3427 92.5319 83.9059 92.164 83.0037 92.731C82.1015 93.298 82.3233 94.8125 82.6131 95.6239Z" fill="#263238"/>
<path d="M70.308 72.6743C70.8699 75.3379 71.1673 76.1897 71.3538 79.7152C71.5403 83.2406 73.0245 85.7808 72.7373 87.6809C72.45 89.581 71.8452 92.7839 69.9653 94.8326C68.2013 96.763 66.6565 96.4984 66.8127 98.6126C66.8505 98.8142 67.0874 99.6358 67.9669 99.6206C68.2391 100.505 69.431 100.377 69.431 100.377C69.431 100.377 69.8267 101.496 73.3043 100.457C75.1439 99.9054 75.5219 97.6198 75.8923 96.4883C76.439 94.8388 77.081 93.2224 77.8151 91.6474C78.3155 90.5948 78.6106 89.4564 78.6845 88.2932C79.1481 88.0564 80.078 88.5956 80.078 88.5956C80.078 88.5956 80.1309 87.3936 79.1255 86.814C80.4938 86.1185 79.9848 84.9139 79.9848 84.9139C79.9848 84.9139 79.2288 85.8413 78.5937 84.9139C77.9587 83.9866 78.2208 80.3779 78.7777 74.9448C79.0751 72.0418 79.8084 71.8225 80.0805 68.9144C80.1965 67.667 80.3577 66.2054 80.0679 64.9732C79.7781 63.7409 79.007 62.5792 78.5837 61.3771C78.1427 60.1171 77.9259 58.7286 78.3947 57.4913C78.6467 56.8462 79.0574 56.2716 79.2515 55.6088C79.4909 54.7873 79.3623 53.9028 79.1834 53.0636C78.5433 50.0699 77.238 47.439 75.6554 44.8409C74.6121 43.1222 73.0447 40.451 70.7087 40.5342C64.7564 40.8164 55.9868 51.4609 57.4232 62.9622" fill="#455A64"/>
<path d="M79.1128 86.8115C80.4812 86.1159 79.9721 84.9114 79.9721 84.9114C79.9721 84.9114 79.2161 85.8387 78.5811 84.9114C78.1451 84.2889 78.1275 82.4569 78.3291 79.6824L78.2988 79.6547C78.2251 79.5759 78.1362 79.513 78.0374 79.4697C77.9387 79.4264 77.8321 79.4036 77.7243 79.4027C77.379 79.443 77.2203 79.8411 77.1245 80.1738C76.975 80.6996 76.828 81.2255 76.6835 81.7513C76.6256 81.9554 76.5248 82.1973 76.3131 82.2125C76.1014 82.2276 75.9981 82.0587 75.8897 81.9126C75.7574 81.7266 75.5852 81.5724 75.3857 81.4615C75.2872 81.4062 75.1765 81.3761 75.0635 81.3739C74.9505 81.3717 74.8387 81.3975 74.7381 81.4489C74.3853 81.6555 74.3954 82.4216 73.909 82.4241C73.8245 82.4136 73.7431 82.3858 73.6698 82.3425C73.5966 82.2991 73.533 82.2411 73.4831 82.1721C72.9683 81.6187 72.5332 80.9961 72.1904 80.3225C72.0616 80.0146 71.8865 79.7282 71.6713 79.4732C71.5749 79.3676 71.4481 79.2945 71.3084 79.2641C71.3084 79.4127 71.326 79.5589 71.3336 79.7051C71.5175 83.2331 73.0043 85.7707 72.7171 87.6708C72.4298 89.5709 71.825 92.7738 69.9451 94.8225C68.181 96.7529 66.6363 96.4883 66.7925 98.6025C66.8303 98.8041 67.0672 99.6257 67.9467 99.6105C68.2189 100.495 69.4108 100.367 69.4108 100.367C69.4108 100.367 69.8064 101.485 73.2841 100.447C75.1237 99.8953 75.5016 97.6097 75.8721 96.4782C76.4188 94.8287 77.0608 93.2123 77.7948 91.6373C78.2953 90.5847 78.5904 89.4463 78.6643 88.2831C79.1279 88.0463 80.0578 88.5855 80.0578 88.5855C80.0578 88.5855 80.1183 87.3911 79.1128 86.8115Z" fill="#F5F5F5"/>
<path d="M69.4185 100.374C69.2547 99.913 69.1135 99.157 69.7788 98.8495C70.4441 98.5421 71.2152 98.1313 71.2152 98.1313C71.2152 98.1313 69.7284 98.5925 69.3958 98.8092C69.0631 99.0259 68.9422 99.6685 69.4185 100.374Z" fill="#E0E0E0"/>
<path d="M67.9568 99.6231C67.7905 99.162 67.6494 98.406 68.3172 98.0985C68.985 97.7911 69.7536 97.3803 69.7536 97.3803C69.7536 97.3803 68.2643 97.8415 67.9316 98.0607C67.599 98.28 67.4806 98.9175 67.9568 99.6231Z" fill="#E0E0E0"/>
<path d="M53.1543 55.0469C52.5193 57.204 52.5017 59.6308 53.5701 61.5989L54.5605 60.1222C54.5958 63.9878 57.0125 67.5335 60.1322 69.8216C63.252 72.1098 66.8077 73.0976 70.5398 73.9469C70.3735 72.9212 70.1013 71.8351 69.935 70.8095C69.683 69.2723 69.4587 67.6091 70.187 66.2306C70.7918 65.079 71.951 64.3406 72.8204 63.3679C73.7836 62.2787 74.3672 60.9062 74.4836 59.4569C74.5215 59.1957 74.4875 58.9291 74.3853 58.6858C74.1333 58.2196 73.5336 58.0986 73.0094 58.1339C72.4853 58.1692 71.946 58.3002 71.4546 58.1339C71.8729 57.2242 72.6894 56.574 73.3471 55.8205C74.5989 54.3749 75.283 52.5239 75.2724 50.6117C74.7115 50.4901 74.1367 50.446 73.5638 50.4806C73.7705 49.1938 73.9754 47.9044 74.1787 46.6124C74.2509 46.332 74.243 46.0369 74.156 45.7607C73.9695 45.3121 73.4 45.1382 72.9212 45.2365C72.4541 45.3755 72.0207 45.6097 71.6486 45.9245C68.7031 48.0233 65.2553 49.3065 61.6543 49.644C60.476 49.7512 59.2884 49.6927 58.1263 49.4701C57.3451 49.324 56.7554 49.0493 56.0498 49.5382C54.6336 50.5008 53.618 53.4769 53.1543 55.0469Z" fill="#F5F5F5"/>
<path d="M65.089 67.4276C65.08 67.2752 65.0556 67.1241 65.0159 66.9766C64.9983 66.9186 64.9605 66.848 64.9 66.8581C64.8841 66.8627 64.8692 66.8704 64.8562 66.8808C64.8432 66.8912 64.8324 66.904 64.8244 66.9186C64.6834 67.1733 64.5902 67.4518 64.5497 67.7401C64.5376 67.8325 64.5001 67.9198 64.4414 67.9921C64.2927 68.1458 64.1188 67.9669 63.9802 67.8964C63.5553 67.6475 63.1597 67.3516 62.8009 67.0144C62.5186 66.78 61.9567 66.4196 61.682 66.8833C61.4753 67.2311 61.7324 67.6393 61.7399 68.0022C60.2493 67.1755 59.0737 65.8794 58.3959 64.3154C58.343 64.1945 58.2548 64.3306 58.2775 64.4112C58.5445 65.3375 59.0009 66.1983 59.6177 66.9392C60.2345 67.68 60.9983 68.2849 61.8609 68.7154C61.9995 68.7884 62.2339 68.8136 62.3221 68.6448C62.4355 68.4172 62.4709 68.1587 62.4229 67.909C62.4027 67.7678 62.3649 67.6292 62.3473 67.4881C62.346 67.4772 62.346 67.4662 62.3473 67.4554C62.4203 67.5234 62.5287 67.5914 62.5993 67.6444L62.9067 67.8964C63.1122 68.0684 63.3313 68.2234 63.5619 68.36C63.9046 68.5616 64.5699 68.9094 64.9202 68.5516C65.0915 68.3777 65.0865 68.0627 65.0991 67.8384C65.1029 67.7014 65.0996 67.5643 65.089 67.4276Z" fill="#EBEBEB"/>
<path d="M66.8581 58.716C66.7609 58.9067 66.6768 59.1037 66.6061 59.3057C66.5313 59.4639 66.4657 59.6263 66.4096 59.792C66.2811 60.1902 66.145 60.5808 66.0316 60.984C65.9383 61.3116 65.8879 61.6543 65.7796 61.9794C65.7569 62.055 65.7141 62.2163 65.6334 62.2642L65.5981 62.249C65.5105 62.2138 65.4261 62.1708 65.3461 62.1205C65.1647 62.0298 64.9858 61.9391 64.8018 61.8534C64.6501 61.7575 64.4769 61.7012 64.2978 61.6896C63.9551 61.7072 64.0307 62.0752 64.0307 62.312C64.0299 62.5132 64.0113 62.7139 63.9753 62.9118C63.9727 63.0656 63.9419 63.2176 63.8845 63.3604C63.7157 63.5821 63.0807 63.0731 62.9093 62.937C62.8337 62.879 62.8161 63.0378 62.8463 63.0781C63.0674 63.3791 63.3662 63.6143 63.7107 63.7585C64.0534 63.8971 64.1844 63.6905 64.2978 63.3982C64.3718 63.2107 64.4243 63.0154 64.4541 62.816C64.4818 62.6371 64.4541 62.4305 64.4969 62.2591L64.6053 62.3297C64.6985 62.3902 64.7917 62.4506 64.8875 62.5086C65.0619 62.6261 65.2437 62.7321 65.4318 62.8261C65.5875 62.9086 65.7672 62.9342 65.9398 62.8983C66.1123 62.8624 66.2669 62.7673 66.3768 62.6296C66.5649 62.3087 66.6922 61.9559 66.7523 61.5888C66.8857 61.1127 66.9892 60.6288 67.0623 60.1398C67.1381 59.7325 67.1777 59.3193 67.1807 58.905C67.1757 58.7966 66.9539 58.5623 66.8581 58.716Z" fill="#EBEBEB"/>
<path d="M53.5676 49.8254C53.2173 50.7427 53.4718 51.8414 53.7667 52.8167C54.2776 54.6521 54.9866 56.4265 55.8809 58.1087C56.8133 59.7719 58.0633 61.2889 59.6609 62.3221C59.9659 62.5212 60.364 62.7026 60.6689 62.5162C60.9209 62.3675 60.9991 62.0449 61.052 61.7602C61.2284 60.7925 61.3771 59.7996 61.8508 58.9378C62.3548 58.028 63.1713 57.3451 63.95 56.6698C65.6989 55.1376 67.2839 53.4568 68.9572 51.8591C70.6314 50.2586 72.1223 48.477 73.4025 46.5469C74.4735 44.9316 75.5924 42.8551 75.1942 40.8517C73.2866 41.3557 71.4394 42.2251 69.5217 42.7543C67.5436 43.2991 65.535 43.7266 63.5065 44.0345C61.6017 44.3249 59.6815 44.5025 57.7558 44.5662C56.7831 44.5939 54.9989 44.3747 54.3261 45.2894C53.681 46.1664 54.4571 46.7888 54.6814 47.5852C54.8729 48.2706 54.1472 48.82 53.7616 49.4197C53.6843 49.5486 53.6194 49.6844 53.5676 49.8254V49.8254Z" fill="#5C3AE2"/>
<path opacity="0.3" d="M53.5676 49.8254C53.2173 50.7427 53.4718 51.8414 53.7667 52.8167C54.2776 54.6521 54.9866 56.4265 55.8809 58.1087C56.8133 59.7719 58.0633 61.2889 59.6609 62.3221C59.9659 62.5212 60.364 62.7026 60.6689 62.5162C60.9209 62.3675 60.9991 62.0449 61.052 61.7602C61.2284 60.7925 61.3771 59.7996 61.8508 58.9378C62.3548 58.028 63.1713 57.3451 63.95 56.6698C65.6989 55.1376 67.2839 53.4568 68.9572 51.8591C70.6314 50.2586 72.1223 48.477 73.4025 46.5469C74.4735 44.9316 75.5924 42.8551 75.1942 40.8517C73.2866 41.3557 71.4394 42.2251 69.5217 42.7543C67.5436 43.2991 65.535 43.7266 63.5065 44.0345C61.6017 44.3249 59.6815 44.5025 57.7558 44.5662C56.7831 44.5939 54.9989 44.3747 54.3261 45.2894C53.681 46.1664 54.4571 46.7888 54.6814 47.5852C54.8729 48.2706 54.1472 48.82 53.7616 49.4197C53.6843 49.5486 53.6194 49.6844 53.5676 49.8254V49.8254Z" fill="white"/>
<path opacity="0.3" d="M58.2321 51.408C58.7034 51.7137 59.2505 51.8821 59.8122 51.8943C60.4427 51.8787 61.0672 51.7674 61.6644 51.5642C62.6724 51.2702 63.6669 50.9342 64.6481 50.5562C64.895 50.434 65.1691 50.3767 65.4444 50.3899C65.5819 50.4007 65.7102 50.4631 65.8036 50.5645C65.8971 50.6659 65.9488 50.7988 65.9484 50.9368C65.9131 51.1888 65.6687 51.345 65.5351 51.5365C65.3699 51.773 65.1722 51.9851 64.9479 52.1665L63.2243 53.6332L61.1654 55.3972C60.8151 55.6945 60.4522 55.9843 60.112 56.2943C59.7718 56.6042 59.5703 56.8184 59.1217 56.7277C58.7098 56.6198 58.3416 56.3864 58.0683 56.0599C57.2742 55.1705 56.6453 54.1464 56.2111 53.0359C55.9615 52.5246 55.7672 51.9882 55.6315 51.4357C55.5231 50.8637 55.2358 50.3496 55.198 49.7523C55.1703 49.3113 55.4727 48.8981 55.9062 49.3038C56.642 49.9842 57.3527 50.8712 58.2321 51.408Z" fill="#5C3AE2"/>
<path opacity="0.3" d="M60.7067 50.7377C60.2556 50.7528 59.7668 50.7881 59.356 50.5713C59.1418 50.4554 58.6 50.1228 58.9906 49.8909C59.2426 49.7448 59.6181 49.8204 59.8902 49.8027C60.2304 49.7801 60.5706 49.7372 60.8982 49.6843C61.5761 49.5785 62.2439 49.4323 62.9142 49.2912C63.1335 49.2483 63.4359 49.2584 63.4888 49.4777C63.5266 49.6188 63.4182 49.7574 63.3099 49.8582C62.6295 50.4957 61.6442 50.7024 60.7067 50.7377Z" fill="#5C3AE2"/>
<path d="M58.9932 21.4628L57.3653 19.8651C56.9747 19.4796 56.5816 19.1091 55.9768 19.3863L53.9608 20.2734C53.6728 20.3807 53.4059 20.5377 53.172 20.7371C52.9733 20.9542 52.8245 21.2123 52.7361 21.4931C52.2436 22.7921 51.8815 24.1368 51.655 25.5074C51.6281 25.5908 51.6196 25.679 51.6301 25.766C51.6405 25.853 51.6696 25.9368 51.7155 26.0114C51.9423 26.3037 52.4715 26.1651 52.8041 25.9661C53.3913 25.6208 53.8978 25.1193 54.4598 24.7313C54.6059 25.2227 54.8957 26.3491 55.1049 26.4827C55.6265 26.8128 56.317 26.2785 56.8034 26.1223C57.7534 25.8174 58.7085 25.52 59.6409 25.1773C60.0567 25.0261 61.3847 24.6733 61.541 24.2726C61.6972 23.8719 60.732 23.184 60.4599 22.9017L58.9932 21.4628Z" fill="#455A64"/>
<path d="M56.9192 21.4679C57.1409 21.749 57.2991 22.0747 57.383 22.4227C57.467 22.7706 57.4747 23.1327 57.4056 23.4839C57.524 23.557 57.6853 23.4713 57.7811 23.3806C57.8768 23.2898 57.9877 23.1739 58.1314 23.1916C58.2173 23.2094 58.2957 23.2534 58.3556 23.3176C58.7639 23.6804 59.1872 24.0736 59.3233 24.5574C59.3486 24.6222 59.3486 24.6942 59.3233 24.759C59.268 24.8422 59.1835 24.9016 59.0864 24.9253C58.5402 25.1334 57.9382 25.1432 57.3854 24.953C57.4013 25.1006 57.3755 25.2497 57.3109 25.3833C57.2463 25.5169 57.1455 25.6298 57.02 25.709C56.8795 25.7951 56.7218 25.8491 56.5581 25.8674C56.3943 25.8857 56.2286 25.8678 56.0725 25.8149C56.0525 25.8112 56.032 25.8112 56.012 25.8149C55.9853 25.8181 55.9609 25.8317 55.944 25.8527C55.8723 25.9378 55.794 26.017 55.7096 26.0896C55.6628 26.1271 55.6066 26.1512 55.5471 26.1592C55.4876 26.1672 55.427 26.1588 55.372 26.1349C55.3165 26.0986 55.2727 26.0469 55.246 25.9862C55.0564 25.6409 54.9075 25.2747 54.8024 24.8951C54.7554 24.7674 54.7492 24.6283 54.7848 24.4969C54.8246 24.4124 54.8802 24.3363 54.9486 24.2726C55.3883 23.864 55.8 23.4262 56.1809 22.9622C56.3444 22.7291 56.4901 22.4839 56.6168 22.2289C56.6698 22.113 56.9923 21.5636 56.9192 21.4679Z" fill="#37474F"/>
<path d="M72.5155 42.5174C71.2838 43.5203 69.8788 44.289 68.3701 44.7854C67.3935 45.117 66.3554 45.2272 65.331 45.108C64.2499 44.9467 63.2722 44.3923 62.2944 43.9362C62.098 43.8327 61.8874 43.7589 61.6694 43.717C61.3843 43.6944 61.0975 43.7278 60.8252 43.8152C59.7265 44.095 58.6354 44.4326 57.514 44.6116C56.3094 44.8056 54.7974 44.9165 53.7566 44.1781C53.2753 43.8379 52.9805 43.2961 52.7033 42.772C52.3631 42.1319 52.0355 41.4817 51.7079 40.8366C51.6466 40.6849 51.5478 40.5514 51.4206 40.4485C51.0905 40.2217 50.3269 40.5266 49.9842 40.5972C49.941 40.606 49.8964 40.606 49.8532 40.5972C49.7372 40.567 49.707 40.4158 49.7045 40.2973C49.6922 39.3267 50.0113 38.3809 50.6092 37.616L49.8204 37.7975C49.7498 37.8151 49.6591 37.8227 49.6213 37.7622C49.6133 37.7431 49.6091 37.7225 49.6091 37.7017C49.6091 37.6809 49.6133 37.6604 49.6213 37.6412C49.8406 36.2275 50.9267 35.2472 51.7532 34.1662C52.202 33.6379 52.5443 33.0277 52.7612 32.3694C53.0116 31.484 53.235 30.5928 53.4316 29.6957C53.608 28.9019 53.7692 28.0854 54.1876 27.3848C54.6634 26.654 55.2929 26.0357 56.0322 25.573C57.463 24.5813 59.0345 23.81 60.6942 23.2848C62.4002 22.7455 64.0886 22.3801 65.8678 22.811C70.6558 23.9702 73.0523 25.2756 74.408 30.1543C74.5365 30.6382 74.912 34.5769 75.1086 34.9423C75.5723 38.2133 74.5718 40.887 72.5155 42.5174Z" fill="#455A64"/>
<path d="M74.5516 42.961C72.0493 44.9442 68.428 46.5494 65.6888 44.9316C65.6661 44.9316 65.53 44.5032 65.5074 44.5108C65.4847 44.5183 63.5644 44.982 61.4275 45.544C60.3766 45.8234 59.2984 45.9873 58.212 46.0328C56.8688 46.048 55.5458 44.6368 54.7621 43.659C54.4143 43.2256 54.2404 42.7518 53.9658 42.2856C53.8977 42.1697 53.2627 40.7912 53.361 40.7736L52.0178 41.0432C51.9746 41.0521 51.93 41.0521 51.8868 41.0432C51.7708 41.013 51.7406 40.8618 51.7406 40.7434C51.7262 39.7728 52.0446 38.8265 52.6428 38.0621L51.854 38.2435C51.7834 38.2586 51.6927 38.2687 51.6549 38.2082C51.6369 38.1706 51.6325 38.1278 51.6423 38.0873C51.8137 36.9734 52.6327 36.0713 53.4542 35.3153C54.2757 34.5593 55.1703 33.7781 55.5786 32.7272C55.7192 32.3147 55.8345 31.8939 55.9238 31.4672C56.1279 30.6684 56.3698 29.8897 56.5614 29.0833C56.6874 28.5466 56.7982 27.8435 57.1561 27.4025C59.1141 24.9782 63.8366 22.2768 67.8787 23.2596C72.6667 24.4188 75.0632 25.7242 76.419 30.6029C76.55 31.0842 76.923 35.0255 77.122 35.3909C77.616 38.6568 76.608 41.328 74.5516 42.961Z" fill="#455A64"/>
<path d="M79.0851 37.548C78.9314 35.9629 77.6866 34.7407 76.5526 33.6218C75.4186 32.503 74.2493 31.1598 74.3123 29.5697L62.9572 43.2684L63.9652 45.5112C64.0483 45.6977 64.1642 45.9094 64.3658 45.9421C64.5225 45.938 64.6761 45.8975 64.8144 45.8237C65.646 45.5364 66.3592 46.499 67.2109 46.7158C67.6495 46.8202 68.1073 46.8124 68.542 46.693C68.9768 46.5737 69.3744 46.3466 69.6981 46.0328C70.3785 45.4079 71.0917 44.3596 72.014 44.3948C72.3366 44.4074 72.6491 44.5133 72.9716 44.5082C73.6142 44.5082 74.1812 44.032 74.4962 43.47C74.7779 42.8896 74.9562 42.2645 75.0229 41.6228C75.9276 41.7589 76.7466 40.9273 76.9356 40.0327C77.1246 39.1381 76.855 38.2183 76.5878 37.3439C77.4154 37.4624 78.2493 37.5305 79.0851 37.548V37.548Z" fill="#455A64"/>
<path d="M57.8466 46.4637C58.2184 46.9119 58.7107 47.2442 59.2654 47.4213C59.6112 47.4971 59.9717 47.4684 60.301 47.3387C60.6304 47.209 60.9138 46.9843 61.1151 46.6931C61.8937 47.1819 63.058 47.7414 64.003 47.6809C64.0957 47.6827 64.1857 47.6494 64.255 47.5877C64.2965 47.5232 64.3176 47.4476 64.3155 47.3709L64.3684 46.5293C65.7931 46.9483 67.2991 47.0097 68.7532 46.7082C68.2609 46.0227 67.7679 45.3381 67.2739 44.6544C66.8317 44.0904 66.4633 43.4722 66.1777 42.8148C66.0719 42.5426 65.9661 42.2251 65.6939 42.1167C65.529 42.0709 65.3548 42.0709 65.1899 42.1167C62.961 42.505 60.7872 43.1617 58.716 44.0723C58.0003 44.3873 57.2519 44.3041 56.5085 44.5485C56.3821 44.5855 56.2629 44.6435 56.1557 44.7199C55.8155 44.9996 55.8886 45.5742 56.1809 45.9043C56.3597 46.0977 56.5931 46.2322 56.8501 46.2898C57.1071 46.3474 57.3756 46.3255 57.6198 46.2269L57.8466 46.4637Z" fill="#E0E0E0"/>
<path opacity="0.05" d="M57.8466 46.4637C58.2184 46.9119 58.7107 47.2442 59.2654 47.4213C59.6112 47.4971 59.9717 47.4684 60.301 47.3387C60.6304 47.209 60.9138 46.9843 61.1151 46.6931C61.8937 47.1819 63.058 47.7414 64.003 47.6809C64.0957 47.6827 64.1857 47.6494 64.255 47.5877C64.2965 47.5232 64.3176 47.4476 64.3155 47.3709L64.3684 46.5293C65.7931 46.9483 67.2991 47.0097 68.7532 46.7082C68.2609 46.0227 67.7679 45.3381 67.2739 44.6544C66.8317 44.0904 66.4633 43.4722 66.1777 42.8148C66.0719 42.5426 65.9661 42.2251 65.6939 42.1167C65.529 42.0709 65.3548 42.0709 65.1899 42.1167C62.961 42.505 60.7872 43.1617 58.716 44.0723C58.0003 44.3873 57.2519 44.3041 56.5085 44.5485C56.3821 44.5855 56.2629 44.6435 56.1557 44.7199C55.8155 44.9996 55.8886 45.5742 56.1809 45.9043C56.3597 46.0977 56.5931 46.2322 56.8501 46.2898C57.1071 46.3474 57.3756 46.3255 57.6198 46.2269L57.8466 46.4637Z" fill="black"/>
<path d="M52.4513 43.402C52.5092 43.5229 52.5697 43.654 52.6302 43.7648C52.7375 44.0077 52.8906 44.2276 53.0813 44.4125C53.2806 44.567 53.5059 44.6847 53.7465 44.7602C54.4041 45.0483 55.0988 45.2426 55.8104 45.3373C56.432 45.3697 57.055 45.3119 57.6601 45.166C58.5396 44.9845 59.4065 44.7476 60.2633 44.4805C60.5949 44.3576 60.9416 44.2796 61.2939 44.2487C62.1356 44.2184 62.8664 44.7275 63.6375 44.9845C64.013 45.1105 64.3557 45.2138 64.6985 44.9845C64.8657 44.8858 64.9994 44.739 65.0821 44.5633C65.1648 44.3875 65.1927 44.191 65.1621 43.9992C65.462 44.1529 66.4347 44.5032 66.6162 44.0672C66.9261 43.3339 66.0895 42.142 65.7795 41.4918C65.3108 40.5191 64.7715 38.8055 64.2146 37.8806C62.9697 35.8142 60.1524 34.8163 60.1826 34.0276C60.2355 31.4068 60.3767 29.7259 60.9386 28.1786C61.5006 26.6314 63.4788 24.7943 62.8463 24.6305C62.3423 24.5045 59.4518 26.8456 59.0083 27.6268C58.4791 28.5566 57.02 32.8734 56.0145 33.7C55.4223 34.1888 53.2627 34.9474 53.2425 34.96C53.0813 35.0305 52.4588 36.3056 52.2723 36.6685C51.9369 37.3175 51.6357 37.9837 51.3702 38.6644C51.2396 38.9522 51.1456 39.2553 51.0905 39.5665C51.0224 40.2998 51.413 40.9954 51.6852 41.648C51.912 42.2276 52.164 42.8224 52.4513 43.402Z" fill="#F5F5F5"/>
<path opacity="0.05" d="M57.403 42.9685C57.3525 42.9626 57.3015 42.9751 57.2594 43.0038C56.1682 43.5733 54.4697 43.2558 53.9834 42.0361C53.8876 41.8043 53.8397 41.5548 53.7314 41.328C53.7228 41.3013 53.7088 41.2768 53.6901 41.256C53.6714 41.2351 53.6486 41.2184 53.623 41.207C53.1845 41.0836 53.4693 42.1142 53.5147 42.2856C53.7011 42.9635 54.4672 43.4095 55.1149 43.5683C55.5594 43.6757 56.022 43.6851 56.4706 43.596C56.6946 43.5524 56.9083 43.4669 57.1006 43.344C57.1636 43.3037 57.5391 43.0265 57.4282 42.9685H57.403Z" fill="black"/>
<path d="M54.18 38.4199H54.2279C54.4604 38.4669 54.6835 38.5521 54.8881 38.6719C55.052 38.7808 55.1996 38.9123 55.3266 39.0625C55.5225 39.258 55.6738 39.4936 55.7701 39.753C55.8443 39.9504 55.8487 40.1672 55.7827 40.3675C55.7167 40.5678 55.5842 40.7395 55.4072 40.8542C54.9367 41.1882 54.424 41.4585 53.8827 41.6581C53.4755 41.7801 53.0384 41.7552 52.6478 41.5875C52.442 41.4656 52.2643 41.3016 52.1262 41.1062C51.8529 40.7552 51.6181 40.3759 51.4257 39.9748C51.3499 39.838 51.3035 39.6869 51.2896 39.5312C51.2669 38.8181 52.2547 38.2712 52.8696 38.2309C53.3131 38.232 53.7543 38.2957 54.18 38.4199V38.4199Z" fill="#263238"/>
<path d="M70.8473 19.404C71.0287 19.1696 71.248 18.9126 71.5428 18.9C71.7598 18.9243 71.9622 19.0211 72.1174 19.1747C72.9389 19.8274 74.2543 20.5279 74.8667 21.3772C75.3707 22.0802 75.0355 23.4234 74.9398 24.2676C74.6715 26.5969 74.2463 28.9054 73.6672 31.1774C73.3572 31.3564 72.5609 31.064 72.2585 30.8725C70.5544 29.8007 68.9359 28.5984 67.4176 27.2765C66.8833 26.8128 65.9686 26.0669 65.8854 25.3058C65.8023 24.5448 66.5658 24.1366 67.0396 23.6779C68.4108 22.3475 69.6834 20.9191 70.8473 19.404V19.404Z" fill="#455A64"/>
<path d="M70.1416 21.5132C70.1428 21.5342 70.1428 21.5552 70.1416 21.5762C70.1285 21.7947 70.0998 22.012 70.0559 22.2264C69.933 22.537 69.7294 22.8093 69.4663 23.0151L68.738 23.688C68.3799 23.9833 68.0836 24.3464 67.8661 24.7565C67.8468 24.7918 67.8398 24.8326 67.8459 24.8724C67.8635 24.9329 67.9366 24.9555 67.9996 24.9681C68.3226 25.0299 68.6544 25.0299 68.9774 24.9681C68.9572 25.1143 68.9396 25.2605 68.9194 25.4066C68.8612 25.7098 68.8518 26.0203 68.8917 26.3264C68.9107 26.4831 68.9662 26.6331 69.0537 26.7644C69.1412 26.8957 69.2584 27.0047 69.3957 27.0824C69.4964 27.1377 69.6133 27.1555 69.7258 27.1328C69.8185 27.1021 69.9042 27.0532 69.9778 26.9892L70.4818 26.5935C70.4526 27.0155 70.5315 27.4379 70.7111 27.8208C70.817 28.0501 71.0009 28.287 71.2529 28.2895C71.5049 28.292 71.7065 28.0173 71.8502 27.8107C72.0341 28.1081 72.5659 29.0052 73.0195 28.7381C73.1365 28.655 73.2288 28.5418 73.2866 28.4105C73.9191 27.1983 74.0199 25.8249 74.2593 24.5045C74.0548 24.7914 73.7887 25.029 73.4806 25.2C73.148 25.3814 72.7246 25.4772 72.4021 25.2756C72.2468 25.164 72.1213 25.0161 72.0367 24.8447C71.695 24.1414 71.5077 23.3733 71.4873 22.5918C71.4495 22.1155 71.4319 21.6367 71.3739 21.1604C71.3474 20.7467 71.2807 20.3365 71.1748 19.9357C70.7237 20.3893 70.2601 20.8908 70.1416 21.5132Z" fill="#37474F"/>
<path d="M63.577 31.6235C63.3011 31.6672 63.0503 31.809 62.8706 32.0229C62.691 32.2368 62.5946 32.5084 62.5993 32.7877C62.5993 33.39 63.01 33.8411 63.5418 33.7957C63.8158 33.7505 64.0646 33.6083 64.2426 33.3951C64.4207 33.1818 64.5163 32.9118 64.512 32.634C64.5296 32.0317 64.1088 31.5806 63.577 31.6235Z" fill="white"/>
<path d="M63.6325 31.4194C63.3557 31.4625 63.1039 31.6045 62.9236 31.819C62.7434 32.0335 62.647 32.306 62.6522 32.5861C62.6522 33.1859 63.0655 33.637 63.5947 33.5941C63.871 33.551 64.1225 33.4094 64.3026 33.1954C64.4828 32.9814 64.5795 32.7095 64.5749 32.4299C64.585 31.8301 64.1617 31.3765 63.6325 31.4194Z" fill="#263238"/>
<path d="M63.8744 32.4425C63.8362 32.4511 63.7966 32.4511 63.7584 32.4425C63.7202 32.4339 63.6843 32.4169 63.6535 32.3928C63.6226 32.3687 63.5975 32.3381 63.5799 32.3031C63.5624 32.2681 63.5528 32.2296 63.5519 32.1905C63.5404 32.1057 63.5594 32.0196 63.6056 31.9476C63.6517 31.8755 63.722 31.8223 63.8039 31.7974C63.8421 31.7888 63.8817 31.7888 63.9199 31.7973C63.9581 31.8059 63.9939 31.8229 64.0248 31.847C64.0556 31.8711 64.0808 31.9018 64.0983 31.9368C64.1159 31.9717 64.1255 32.0102 64.1264 32.0494C64.1379 32.1341 64.1189 32.2202 64.0727 32.2922C64.0265 32.3643 63.9562 32.4175 63.8744 32.4425Z" fill="#FAFAFA"/>
<path d="M55.2712 30.8398C55.0265 30.8651 54.7991 30.978 54.6311 31.1577C54.463 31.3373 54.3655 31.5716 54.3564 31.8175C54.3388 31.9313 54.3457 32.0476 54.3767 32.1585C54.4076 32.2694 54.4618 32.3724 54.5358 32.4607C54.6097 32.549 54.7017 32.6204 54.8055 32.6703C54.9093 32.7202 55.0225 32.7473 55.1376 32.7499C55.3822 32.7241 55.6092 32.611 55.7772 32.4315C55.9452 32.2519 56.0429 32.0179 56.0524 31.7722C56.07 31.6584 56.0631 31.5421 56.0322 31.4312C56.0012 31.3203 55.947 31.2172 55.873 31.129C55.7991 31.0407 55.7071 30.9692 55.6034 30.9194C55.4996 30.8695 55.3863 30.8423 55.2712 30.8398V30.8398Z" fill="white"/>
<path d="M55.3291 30.6634C55.0843 30.6887 54.857 30.8016 54.6889 30.9813C54.5208 31.1609 54.4233 31.3953 54.4143 31.6411C54.3967 31.7549 54.4036 31.8712 54.4345 31.9821C54.4654 32.093 54.5197 32.196 54.5937 32.2843C54.6676 32.3726 54.7595 32.444 54.8633 32.4939C54.9671 32.5438 55.0804 32.5709 55.1955 32.5735C55.4408 32.5502 55.669 32.4378 55.8371 32.2577C56.0052 32.0775 56.1015 31.8421 56.1077 31.5958C56.1257 31.4821 56.1192 31.3659 56.0886 31.255C56.058 31.1441 56.004 31.041 55.9302 30.9527C55.8565 30.8643 55.7646 30.7928 55.661 30.7429C55.5573 30.693 55.4441 30.6659 55.3291 30.6634V30.6634Z" fill="#263238"/>
<path d="M55.4929 31.5731C55.4593 31.579 55.4248 31.5775 55.3918 31.5685C55.3588 31.5595 55.3283 31.5434 55.3023 31.5213C55.2763 31.4991 55.2555 31.4715 55.2414 31.4404C55.2273 31.4092 55.2203 31.3754 55.2208 31.3412C55.2147 31.2671 55.2349 31.1932 55.2777 31.1324C55.3205 31.0716 55.3833 31.0278 55.4551 31.0086C55.4889 31.0027 55.5236 31.0043 55.5566 31.0132C55.5897 31.0222 55.6204 31.0383 55.6466 31.0604C55.6728 31.0825 55.6938 31.11 55.7082 31.1412C55.7226 31.1723 55.73 31.2062 55.7298 31.2404C55.7358 31.3149 55.7153 31.389 55.672 31.4499C55.6286 31.5107 55.5652 31.5543 55.4929 31.5731V31.5731Z" fill="#FAFAFA"/>
<path d="M77.364 39.3952C77.2904 38.7637 77.0989 38.1517 76.7995 37.5908C76.7542 37.5077 76.6912 37.6312 76.7038 37.6816C76.84 38.0799 76.894 38.5016 76.8625 38.9214C76.7992 39.4286 76.6518 39.9217 76.4266 40.3805C76.0838 41.0206 75.3682 41.58 74.6096 41.5271C74.3929 41.512 74.1258 41.6254 74.1939 41.895C74.278 42.2408 74.2588 42.6037 74.1388 42.9387C74.0187 43.2738 73.8031 43.5663 73.5185 43.78C72.8918 44.2117 72.123 44.3859 71.3714 44.2663C70.754 44.2058 70.3508 44.7224 69.998 45.1559C69.4928 45.7788 68.9131 46.3373 68.2719 46.8191C68.3764 46.8219 68.481 46.8152 68.5843 46.7989C68.736 46.7422 68.8819 46.6713 69.0203 46.5872C69.4665 46.3116 69.8799 45.9861 70.2526 45.617C70.434 45.4507 70.6104 45.2819 70.7944 45.113C70.8846 45.0167 70.9979 44.9449 71.1235 44.9043C71.2491 44.8637 71.383 44.8558 71.5126 44.8812C72.4172 44.977 73.3925 44.8132 74.1107 44.2235C74.4124 43.9833 74.6539 43.676 74.8158 43.326C74.9777 42.9759 75.0555 42.5929 75.0431 42.2075C75.4496 42.1632 75.8402 42.0252 76.1843 41.8044C76.5285 41.5836 76.8167 41.2859 77.0263 40.9349C77.3062 40.4732 77.4249 39.9316 77.364 39.3952V39.3952Z" fill="#37474F"/>
<path d="M86.9173 50.1732C86.8987 49.8157 86.7894 49.4688 86.5998 49.1652C85.9748 48.0816 84.9063 47.3332 83.8278 46.6956C83.3238 46.3982 82.7744 46.1059 82.1948 46.1664C82.2251 46.3327 82.3838 46.436 82.5249 46.5217C83.2579 46.9642 83.9547 47.4639 84.609 48.0161C85.1659 48.4848 85.8261 49.0014 86.0252 49.7272C86.0956 49.8808 86.1051 50.0555 86.0518 50.2159C85.9985 50.3763 85.8863 50.5106 85.7379 50.5915C85.438 50.7961 85.0913 50.9218 84.7299 50.9569C84.5762 50.972 84.3797 51.0023 84.3494 51.1535C84.3192 51.3047 84.4502 51.3929 84.5561 51.4786C84.8333 51.7054 85.0475 52.0783 84.9315 52.4185C84.8822 52.5403 84.8031 52.6478 84.7014 52.7311C84.5996 52.8143 84.4786 52.8706 84.3494 52.8948C84.0903 52.9414 83.8242 52.9337 83.5682 52.8721C83.4599 52.852 83.3288 52.8343 83.2557 52.9175C83.0894 53.0989 83.4901 53.4215 83.6413 53.492C84.0034 53.6317 84.4021 53.645 84.7728 53.5298C84.9769 53.474 85.1651 53.371 85.3222 53.2292C85.4793 53.0874 85.601 52.9107 85.6775 52.7134C85.7492 52.5142 85.7575 52.2978 85.7011 52.0938C85.6446 51.8898 85.5263 51.7083 85.3625 51.5743C85.7485 51.5111 86.1148 51.3602 86.4335 51.1333C86.586 51.0246 86.7097 50.8803 86.794 50.713C86.8783 50.5458 86.9206 50.3605 86.9173 50.1732V50.1732Z" fill="#37474F"/>
<path d="M76.3384 72.072C76.2905 72.014 76.1393 72.1073 75.9957 72.14C75.8264 72.1761 75.6515 72.1756 75.4824 72.1386C75.3134 72.1017 75.1542 72.0292 75.0154 71.9258C74.8366 71.7815 74.6916 71.5998 74.5906 71.3934C74.4896 71.1871 74.435 70.9611 74.4307 70.7314C74.2208 70.9634 73.9685 71.1533 73.6873 71.2908C73.5453 71.3575 73.3875 71.3832 73.2316 71.3649C73.0758 71.3467 72.9281 71.2852 72.8053 71.1875C72.6939 71.0726 72.6156 70.9298 72.5785 70.7742C72.4996 70.4571 72.4808 70.128 72.5231 69.804C72.5768 69.1932 72.709 68.5919 72.9162 68.0148C73.012 67.7502 73.1027 67.4831 73.2186 67.2286C73.3345 66.974 73.5487 66.7523 73.5714 66.4726C73.4101 66.4322 73.264 66.5734 73.1607 66.7044C72.2131 67.919 71.6487 69.5016 71.9309 71.0161C71.9736 71.3942 72.1528 71.7436 72.4349 71.9989C72.6358 72.1243 72.8655 72.196 73.102 72.207C73.3386 72.2181 73.574 72.1681 73.7856 72.0619C73.8013 72.0522 73.8187 72.0459 73.837 72.0433C73.8552 72.0407 73.8737 72.0419 73.8915 72.0468C73.9137 72.0595 73.9314 72.0789 73.9419 72.1022C74.0732 72.3136 74.2498 72.4931 74.459 72.6277C74.6682 72.7624 74.9047 72.8489 75.1515 72.8809C75.428 72.9207 75.7098 72.8676 75.9528 72.7297C76.1349 72.6242 76.272 72.4557 76.3384 72.256C76.356 72.1627 76.356 72.1073 76.3384 72.072Z" fill="#37474F"/>
<path d="M72.576 35.6882C72.5104 35.5966 72.4352 35.5121 72.3518 35.4362C72.4005 35.4295 72.4486 35.4185 72.4954 35.4035C72.661 35.3564 72.8176 35.2823 72.9591 35.1842C73.2892 34.9171 73.0649 34.5416 72.8255 34.2922C72.5402 34.0122 72.2298 33.7592 71.8982 33.5362C71.5397 33.2604 71.1411 33.0412 70.7163 32.886C70.6104 32.8507 70.6306 33.0624 70.6785 33.1027C70.9985 33.3698 71.3412 33.6067 71.6714 33.8587C71.8301 33.9797 71.9838 34.1107 72.135 34.2317C72.2757 34.3238 72.4007 34.4378 72.5055 34.5694C72.5458 34.6424 72.5483 34.6147 72.5055 34.6802C72.4292 34.7322 72.3437 34.769 72.2535 34.7886C72.0961 34.8402 71.9352 34.8806 71.7722 34.9096C71.6985 34.9193 71.6293 34.9502 71.5729 34.9985C71.5165 35.0469 71.4754 35.1106 71.4545 35.1819C71.4337 35.2532 71.4341 35.329 71.4556 35.4001C71.4771 35.4712 71.5188 35.5346 71.5756 35.5824C71.6688 35.6857 71.7898 35.7462 71.8881 35.8344C71.9938 35.9497 72.0752 36.0851 72.1275 36.2326C72.2502 36.4952 72.2839 36.7907 72.2232 37.0742C72.1823 37.184 72.1002 37.2736 71.9944 37.3239C71.8885 37.3742 71.7673 37.3814 71.6562 37.3439C71.5026 37.2927 71.3586 37.216 71.2304 37.1171C71.0918 37.0264 70.9406 36.9734 70.802 36.8878C70.7363 36.8408 70.6662 36.8003 70.5928 36.7668C70.5071 36.7315 70.5122 36.8928 70.5248 36.9306C70.561 37.1177 70.6338 37.2958 70.739 37.4548C70.8206 37.549 70.9127 37.6335 71.0136 37.7068C71.2088 37.852 71.4362 37.9479 71.6764 37.9865C71.8885 38.0328 72.1094 38.0179 72.3134 37.9434C72.5173 37.8688 72.6958 37.7378 72.828 37.5656C73.08 37.1927 73.0145 36.7038 72.886 36.3056C72.8155 36.0849 72.7109 35.8766 72.576 35.6882V35.6882Z" fill="#37474F"/>
<path d="M110.762 82.0663C111.674 81.8798 112.72 81.8395 113.488 81.3103C111.712 84.8383 107.04 86.1386 103.479 86.4234C104.226 85.2163 104.768 83.8939 105.084 82.5098C105.511 80.4779 105.633 78.3937 105.447 76.3258C106.246 74.6273 106.455 72.8582 106.984 71.0993C107.257 71.2439 107.493 71.4478 107.676 71.6959C107.859 71.9441 107.985 72.2302 108.043 72.5332C108.43 71.0268 108.371 69.44 107.871 67.9669C107.332 66.528 106.193 65.268 104.726 64.764C103.554 64.3784 102.347 64.6304 100.81 64.8446C99.1318 65.0815 96.9772 64.8446 95.5736 63.9904C96.1431 63.5771 97.524 62.8992 98.2851 61.0193C95.0556 63.5357 90.9975 64.7447 86.9174 64.4062C87.5499 64.4591 88.0413 62.5993 88.0614 62.1886C88.1118 61.2587 88.0388 60.3036 88.1698 59.3561C88.4744 57.1241 89.5282 55.0618 91.1585 53.5072C89.7901 54.1586 88.5078 54.9771 87.3407 55.944C88.0665 54.18 88.8174 52.348 90.1127 50.9418C90.1833 50.8687 90.2513 50.7931 90.3269 50.7226C90.7162 50.3205 91.1312 49.9443 91.5693 49.5961C93.2728 48.2227 95.3493 47.2324 97.3829 47.056C100.898 46.7561 103.849 47.2903 105.984 48.6083C105.518 47.6006 104.753 46.7604 103.794 46.2017C112.458 47.1517 118.357 56.5992 118.513 64.5599C118.763 71.1547 116.623 78.1351 110.762 82.0663Z" fill="#263238"/>
<path d="M104.726 64.764C105.226 64.9341 105.692 65.1899 106.105 65.52C106.203 65.5956 106.767 64.6052 106.798 64.4944C106.907 64.0864 106.863 63.6525 106.674 63.2747C106.471 62.9578 106.216 62.6782 105.918 62.4481C106.492 62.4083 107.061 62.3241 107.622 62.1961C108.231 62.06 108.882 61.8433 109.247 61.3444C109.612 60.8454 109.57 59.9911 108.995 59.7265C110.348 59.7038 111.797 59.6484 112.883 58.842C113.072 58.7151 113.225 58.5415 113.327 58.338C113.442 58.0027 113.43 57.6364 113.292 57.3098C112.967 56.3195 112.357 55.6668 111.633 54.9562C111.223 54.553 110.036 53.1695 109.365 53.2703C110.501 53.1023 111.63 52.8906 112.752 52.6352C113.148 52.5819 113.522 52.4235 113.836 52.1766L113.871 52.1388C111.329 48.9712 107.866 46.6427 103.791 46.1966C104.751 46.7554 105.515 47.5955 105.981 48.6032C103.847 47.2853 100.896 46.751 97.3804 47.0509C95.3366 47.2273 93.2702 48.2177 91.5667 49.5911C91.1286 49.9392 90.7136 50.3155 90.3244 50.7175C90.2488 50.7881 90.1807 50.8637 90.1102 50.9368C88.8048 52.3429 88.0538 54.1649 87.3382 55.939C88.5053 54.973 89.7877 54.1553 91.156 53.5046C89.5257 55.0592 88.4718 57.1216 88.1672 59.3536C88.0362 60.3011 88.1093 61.2562 88.0589 62.186C88.0387 62.5968 87.5549 64.454 86.9148 64.4036C90.9924 64.7451 95.0493 63.5406 98.28 61.0294C97.524 62.9093 96.138 63.5872 95.5685 64.0004C96.9721 64.8547 99.1267 65.0916 100.805 64.8547C102.347 64.6405 103.554 64.3885 104.726 64.764Z" fill="#F5F5F5"/>
<path d="M95.5735 64.008C96.9772 64.8623 99.1318 65.0992 100.81 64.8623C102.347 64.6481 103.554 64.3961 104.726 64.7816C105.226 64.9517 105.692 65.2075 106.105 65.5376C106.203 65.6132 106.767 64.6229 106.798 64.512C106.907 64.104 106.863 63.6701 106.674 63.2923C106.471 62.9754 106.216 62.6958 105.918 62.4658C106.492 62.426 107.061 62.3417 107.622 62.2138C108.185 62.127 108.711 61.8764 109.134 61.493L108.836 61.5233C107.68 61.6206 106.531 61.2746 105.621 60.5556C105.369 60.3616 105.134 60.0743 105.225 59.7769C104.018 60.5531 102.67 61.3595 101.249 61.1579C101.005 61.1416 100.774 61.0409 100.596 60.8731C100.504 60.7388 100.44 60.5868 100.41 60.4267C100.379 60.2667 100.383 60.102 100.419 59.9432C100.487 59.367 100.629 58.8019 100.843 58.2624C98.6782 57.8012 96.5714 59.3939 94.3564 59.3712C94.064 59.3712 93.6986 59.2729 93.6508 58.9856C93.6422 58.8494 93.6737 58.7136 93.7415 58.595L94.4798 56.9923C93.3491 57.732 92.151 58.3631 90.9014 58.8773C90.41 59.0814 89.7851 59.2477 89.3894 58.8899C89.1643 58.6394 89.0443 58.3118 89.0543 57.9751C89.0105 57.2705 89.1055 56.5641 89.334 55.8961C88.7333 56.9734 88.3401 58.1539 88.1748 59.3762C88.0438 60.3238 88.1168 61.2788 88.0664 62.2087C88.0463 62.6195 87.5624 64.4767 86.9224 64.4263C91.0004 64.7595 95.0546 63.5469 98.28 61.0294C97.524 62.9093 96.143 63.5872 95.5735 64.008Z" fill="#E0E0E0"/>
<path d="M43.0467 80.64C41.7867 93.24 45.9295 96.4354 47.1064 96.8008C48.2832 97.1662 49.8607 97.2796 50.7629 95.8558C51.6651 94.432 48.7847 93.618 48.7847 93.618C47.8296 90.2916 48.9233 85.176 50.0926 83.2608C51.7835 80.4888 52.6126 75.8747 51.3526 72.2837C50.0926 68.6927 43.2331 74.34 43.0467 80.64Z" fill="#37474F"/>
<path d="M48.5704 92.673C48.6259 92.9922 48.6974 93.3085 48.7846 93.6205C48.3663 93.515 47.929 93.5085 47.5077 93.6017C47.0864 93.6949 46.6927 93.8851 46.3579 94.1573C46.3579 94.1573 45.8892 92.7965 48.5704 92.673Z" fill="#263238"/>
<path d="M47.9178 95.0494C47.9402 95.0443 47.9635 95.0443 47.9859 95.0494C48.1946 95.0558 48.4 95.1029 48.5907 95.188C48.8821 95.3504 49.1063 95.6112 49.2232 95.9238C49.3324 96.2131 49.3611 96.5266 49.3063 96.831C49.3063 96.8738 49.2887 96.9192 49.2786 96.962C49.1257 97.0009 48.9697 97.0262 48.8124 97.0376C48.8124 96.9998 48.8351 96.9646 48.8452 96.9242C48.8971 96.6727 48.8815 96.4118 48.7998 96.1682C48.6237 95.7372 48.3147 95.3735 47.9178 95.13C47.9085 95.1244 47.9007 95.1166 47.8951 95.1073C47.8915 95.1017 47.8896 95.0951 47.8896 95.0884C47.8896 95.0817 47.8915 95.0752 47.8951 95.0695C47.8998 95.0601 47.9079 95.0529 47.9178 95.0494Z" fill="#263238"/>
<path d="M50.221 96.4782C50.2362 96.2965 50.2286 96.1137 50.1983 95.9339C50.1221 95.4764 49.9003 95.0557 49.5658 94.7344C49.5356 94.7041 49.5003 94.6714 49.5079 94.626C49.5406 94.5 50.0698 94.8629 50.1253 94.9133C50.3401 95.1199 50.4943 95.3814 50.5713 95.6693C50.6053 95.7877 50.6273 95.9093 50.6368 96.0322C50.5168 96.1971 50.3772 96.3469 50.221 96.4782V96.4782Z" fill="#263238"/>
<path d="M21.3116 85.68C18.8143 85.0273 16.7554 83.5405 14.9662 81.7261C14.5882 81.3431 14.2102 80.95 13.8751 80.5367C10.1581 76.0687 10.0018 69.3479 13.6231 64.8043C15.0973 62.9572 17.01 61.5031 19.0436 60.3011C20.5556 59.414 22.0374 58.8748 23.2293 57.5795C24.3054 56.4127 24.2524 54.9889 23.8996 53.9683C24.8641 54.4216 25.7228 55.072 26.4203 55.8776C27.1178 56.6832 27.6387 57.6261 27.9493 58.6454C28.6725 61.0722 28.04 63.6577 26.5305 65.6435C24.6582 68.108 21.9567 69.8317 20.2305 72.3643C18.653 74.6802 18.2397 77.7344 19.5022 80.2872C20.0276 81.3082 20.7846 82.1921 21.7127 82.8681C22.6408 83.5442 23.7143 83.9936 24.8472 84.1806C25.1131 84.1923 25.3702 84.2797 25.588 84.4326C25.9358 84.7526 25.7997 85.3726 25.4343 85.6699C25.0389 85.9329 24.5673 86.057 24.0937 86.0227C23.1552 86.0327 22.2196 85.9174 21.3116 85.68Z" fill="#37474F"/>
<path d="M27.9568 58.6505C28.6801 61.0772 28.0476 63.6628 26.5381 65.6485C26.271 66.0013 25.9862 66.3365 25.6888 66.6565C26.0358 65.9633 26.2495 65.211 26.3188 64.4389C26.276 64.9278 23.8543 66.7321 23.7056 66.3314C23.6853 66.2474 23.6924 66.1591 23.7258 66.0794C24.0231 65.137 24.4818 64.3154 24.6002 63.3276C23.2671 64.008 22.1407 65.074 20.732 65.5754C20.6413 65.6082 20.5178 65.6284 20.4649 65.5477C20.4401 65.5023 20.4338 65.449 20.4472 65.399C20.5067 65.0995 20.613 64.8112 20.7622 64.5448C21.2465 63.5912 21.8087 62.6792 22.4431 61.8181C21.5223 62.2533 20.6398 62.7649 19.8046 63.3478C19.4317 63.5998 19.0083 63.8971 18.5623 63.8064C18.5836 62.962 18.9303 62.1585 19.53 61.5636C17.5774 62.2821 15.7166 63.2286 13.986 64.3835C15.443 62.7596 17.1536 61.3826 19.0512 60.3061C20.5632 59.4191 22.0449 58.8798 23.2369 57.5845C24.3129 56.4178 24.26 54.994 23.9072 53.9734C24.8716 54.4266 25.7303 55.077 26.4278 55.8826C27.1254 56.6882 27.6462 57.6311 27.9568 58.6505V58.6505Z" fill="#F5F5F5"/>
<path d="M31.1824 92.5999C33.3295 93.6079 37.1372 93.2828 38.6315 90.4856C40.1259 87.6884 40.199 80.9676 36.2804 79.6799C32.3618 78.3922 27.7023 88.452 31.1824 92.5999Z" fill="#455A64"/>
<path d="M30.0989 90.1807L31.6789 84.2915C31.4142 83.7002 31.0569 83.155 30.6205 82.6762C30.7087 82.3687 30.802 82.0638 30.9002 81.7664C31.6999 82.3886 32.3622 83.1693 32.8457 84.0597C34.6097 87.3533 33.516 91.6801 33.516 91.6801C33.516 91.6801 34.8113 92.7335 37.2103 90.284C38.2486 89.2231 38.9466 87.764 39.4027 86.4562C39.3498 88.1572 39.0802 89.644 38.6316 90.4882C37.1372 93.2854 33.3396 93.618 31.1825 92.6024C30.6306 91.8948 30.2588 91.0638 30.0989 90.1807V90.1807Z" fill="#37474F"/>
<path d="M48.7922 62.9471C47.2802 66.2231 52.8468 70.5071 51.423 76.8903C50.3596 81.6581 44.9214 84.5561 43.475 86.2722C42.0285 87.9883 41.2372 92.9956 42.2931 96.2942C42.2931 96.2942 45.1936 97.0175 44.3368 98.469C43.48 99.9205 41.8974 99.8525 40.7105 99.5249C39.5236 99.1973 34.7759 95.8986 34.975 83.3037C34.975 83.3037 32.4399 81.6556 31.6788 84.2915C32.303 85.6633 32.6137 87.1568 32.5886 88.6637C32.5155 90.7754 31.1824 92.5999 31.1824 92.5999C32.0657 92.5662 32.9501 92.633 33.8183 92.799C34.9397 93.051 35.2043 94.059 34.9397 94.7092C34.6751 95.3593 33.4277 96.0296 32.1677 95.765C30.9077 95.5004 24.9 94.3261 21.9491 90.8863C18.9982 87.4465 17.8239 81.6883 19.6232 78.3317C21.9819 73.9318 24.076 72.4576 31.9384 68.6776C35.3278 67.0497 36.8045 64.3356 36.9356 61.4805L48.7922 62.9471Z" fill="#455A64"/>
<path d="M51.4659 73.0977C51.2573 72.8597 51.0071 72.6616 50.7276 72.513C51.1077 73.476 51.1309 74.5432 50.7931 75.5219C50.6512 75.8841 50.4827 76.2353 50.2891 76.5727C50.2487 76.2379 50.1639 75.91 50.0371 75.5975C50.1606 76.0461 49.9262 76.8877 49.7977 77.238C49.0948 78.9714 48.0164 80.5275 46.6401 81.7942C47.1441 80.7257 47.0055 79.4027 46.2924 78.5913L46.1412 79.7303C45.3499 79.3498 44.9517 78.5812 44.5082 77.8756C44.2411 77.4522 43.6539 75.8873 44.1756 75.4488C43.8196 75.7511 43.5962 76.1808 43.5531 76.6458C43.538 76.8449 43.4775 77.1221 43.2785 77.1019C43.2069 77.0886 43.142 77.0513 43.0945 76.9961C41.0457 75.091 40.1108 71.3664 42.3385 67.6721C42.8425 66.8506 48.9359 66.6641 49.2231 66.8934C50.2866 67.7099 50.4428 68.0325 50.7855 68.6574C51.2417 69.4941 51.5415 70.303 51.6146 71.8427C51.6139 72.2654 51.564 72.6865 51.4659 73.0977V73.0977Z" fill="#FAFAFA"/>
<path d="M48.7922 62.9471L36.9482 61.4805C36.8948 62.618 36.6102 63.7327 36.1116 64.7565C37.0667 65.9106 39.0625 66.8052 40.1108 67.1303C42.3287 67.8416 44.6785 68.044 46.9854 67.7225C47.2296 67.6848 47.4711 67.6318 47.7086 67.5637C48.2495 67.4035 48.7684 67.1767 49.2534 66.8884C48.6209 65.4091 48.258 64.1113 48.7922 62.9471Z" fill="#5C3AE2"/>
<path d="M27.3748 80.078C29.338 80.4866 31.0861 81.5944 32.2938 83.1953C32.0118 83.5118 31.802 83.8859 31.6789 84.2915C30.686 81.9302 27.3748 80.078 27.3748 80.078Z" fill="#37474F"/>
<path d="M36.676 94.6336C35.3004 90.8556 34.525 86.8856 34.3778 82.8677C34.5315 78.876 35.7865 78.3317 35.7865 78.3317C35.7865 78.3317 35.0506 79.9067 34.975 83.3036C34.975 83.3036 35.0078 87.3986 36.676 94.6336Z" fill="#37474F"/>
<path d="M42.0487 95.3518C42.1169 95.67 42.201 95.9845 42.3007 96.2943C41.8792 96.2007 41.4417 96.2068 41.023 96.3123C40.6043 96.4177 40.216 96.6195 39.8891 96.9016C39.8891 96.9016 39.3725 95.5559 42.0487 95.3518Z" fill="#37474F"/>
<path d="M29.484 93.6709C30.1407 93.4847 30.7296 93.1128 31.18 92.5999C31.7019 92.5825 32.2244 92.5951 32.7449 92.6377C31.5958 94.0464 29.484 93.6709 29.484 93.6709Z" fill="#37474F"/>
<path d="M41.4691 97.7458C41.4906 97.7407 41.5131 97.7407 41.5346 97.7458C41.744 97.744 41.9516 97.7852 42.1445 97.8667C42.4411 98.0185 42.6735 98.2715 42.7997 98.5799C42.9177 98.8659 42.9561 99.1785 42.9105 99.4846L42.8879 99.6181C42.7351 99.6599 42.5792 99.6894 42.4217 99.7063C42.4217 99.6685 42.4443 99.6333 42.4519 99.5929C42.4964 99.3393 42.473 99.0785 42.3839 98.8369C42.1942 98.412 41.8737 98.0588 41.4691 97.8289L41.4489 97.8088C41.4451 97.8027 41.4431 97.7957 41.4431 97.7886C41.4431 97.7815 41.4451 97.7745 41.4489 97.7685C41.4525 97.7586 41.4597 97.7504 41.4691 97.7458Z" fill="#263238"/>
<path d="M43.8152 99.104C43.8232 98.9225 43.8096 98.7406 43.7748 98.5622C43.6834 98.1068 43.4485 97.6926 43.1045 97.3804C43.0743 97.3526 43.039 97.3199 43.0466 97.2745C43.0743 97.146 43.6136 97.4963 43.6715 97.5442C43.8926 97.7446 44.0546 98.0017 44.1402 98.2876C44.1768 98.4059 44.2021 98.5274 44.2158 98.6505C44.101 98.8172 43.9665 98.9695 43.8152 99.104V99.104Z" fill="#263238"/>
<path d="M32.4047 94.3035C32.4229 94.2884 32.4446 94.2781 32.4677 94.2732C32.668 94.2154 32.8778 94.1974 33.0851 94.2203C33.4115 94.2854 33.7043 94.4639 33.9117 94.7243C34.0739 94.9282 34.1861 95.1672 34.2392 95.4223C34.1079 95.4989 33.9705 95.5646 33.8285 95.6189C33.7799 95.4292 33.6943 95.2511 33.5765 95.0947C33.2777 94.736 32.8712 94.4833 32.4173 94.374C32.408 94.3719 32.3994 94.3675 32.3921 94.3614C32.3892 94.3555 32.3877 94.3491 32.3877 94.3425C32.3877 94.336 32.3892 94.3295 32.3921 94.3236C32.3945 94.3159 32.3989 94.309 32.4047 94.3035V94.3035Z" fill="#263238"/>
<path d="M34.7759 94.9813C34.7338 94.8126 34.6721 94.6493 34.592 94.495C34.3777 94.0839 34.0378 93.752 33.6218 93.5474C33.584 93.5273 33.5411 93.5046 33.5336 93.4592C33.5336 93.3307 34.1434 93.5147 34.2089 93.5449C34.4776 93.6771 34.705 93.8801 34.8666 94.1321C34.9253 94.2197 34.9759 94.3125 35.0178 94.4093C35.0041 94.5121 34.9778 94.6127 34.9397 94.7092C34.8995 94.8078 34.8443 94.8996 34.7759 94.9813V94.9813Z" fill="#263238"/>
<path d="M43.6312 80.325C43.6312 80.325 43.9891 84.6695 42.8601 87.2727C43.0203 86.9113 43.227 86.5724 43.475 86.2647C43.817 85.8868 44.1904 85.5386 44.5913 85.2239C44.5527 83.5482 44.228 81.8914 43.6312 80.325V80.325Z" fill="#37474F"/>
<path d="M35.8193 55.4047C34.7331 53.4971 35.0305 49.0392 36.6408 48.137C38.1528 47.2828 41.6631 51.7658 41.6631 51.7658C41.6631 51.7658 38.7853 54.936 35.8193 55.4047Z" fill="#37474F"/>
<path d="M37.6563 54.2581C39.6723 53.0813 41.6631 51.7658 41.6631 51.7658C41.6631 51.7658 38.3216 47.5045 37.0742 48.2177C36.2879 48.5528 35.4866 51.0527 37.6563 54.2581Z" fill="#FFA8A7"/>
<path d="M40.5115 51.8364C40.169 51.6692 39.882 51.4067 39.6849 51.0804C39.4274 50.7171 39.2931 50.2808 39.3019 49.8355C38.5459 50.3521 38.2359 51.5995 38.2359 51.5995C37.1397 51.4256 37.2103 50.3395 37.2103 50.3395C36.6509 50.9418 36.671 52.4588 37.6311 53.2476C38.149 53.3148 38.6751 53.2271 39.1431 52.9956C40.0075 52.5798 40.4535 52.1388 40.5115 51.8364Z" fill="#F28F8F"/>
<path d="M38.2132 53.5147C37.4925 53.0107 37.0414 51.9523 37.3463 51.219C37.3463 51.219 37.8503 51.8465 38.4223 51.8692C38.4223 51.8692 38.7071 49.7952 39.8562 49.4777C39.8562 49.4777 39.6042 50.8435 40.6122 51.5869C40.9398 53.5147 38.2132 53.5147 38.2132 53.5147Z" fill="#455A64"/>
<path d="M44.4376 50.8385C45.4456 49.1627 48.3436 47.5121 50.095 48.7368C51.0829 49.4273 49.1601 54.3287 49.1601 54.3287C49.1601 54.3287 45.8639 53.0007 44.4376 50.8385Z" fill="#37474F"/>
<path d="M45.8413 52.2069C47.4591 53.3157 49.1601 54.3287 49.1601 54.3287C49.1601 54.3287 51.0829 49.4273 50.0951 48.7368C49.4222 48.4193 47.4037 49.1123 45.8413 52.2069Z" fill="#FFA8A7"/>
<path d="M48.9611 53.2426C49.0661 53.0339 49.2049 52.844 49.3718 52.6806C49.4802 52.3706 49.5986 52.0078 49.712 51.6272C49.2205 51.384 48.6804 51.2548 48.132 51.2492C48.0967 50.71 48.5831 50.1682 48.5831 50.1682C47.9329 49.9817 46.8544 50.6167 46.6276 51.718C46.7875 52.1374 47.03 52.5205 47.3407 52.8444C47.6986 53.0334 48.0236 53.1947 48.2908 53.3207C48.5172 53.345 48.7463 53.3184 48.9611 53.2426V53.2426Z" fill="#F28F8F"/>
<path d="M46.9048 52.096C47.1215 51.34 47.8473 50.6344 48.4999 50.6772C48.4999 50.6772 48.1295 51.287 48.2479 51.7885C48.2479 51.7885 49.9515 51.4181 50.4857 52.3051C50.4857 52.3051 49.3492 52.4941 49.014 53.5828C47.5827 54.432 46.9048 52.096 46.9048 52.096Z" fill="#455A64"/>
<path d="M43.7597 50.715C45.6425 50.9274 47.4126 51.72 48.8249 52.983C50.1324 54.1476 51.2228 55.5349 52.0455 57.0805C52.4636 57.7512 52.7939 58.4728 53.0283 59.2276C53.2605 60.1301 53.2422 61.0789 52.9754 61.9719C52.8824 61.598 52.7283 61.2421 52.5193 60.9185C52.5626 61.4579 52.4581 61.999 52.2169 62.4834C52.2005 62.2494 52.1362 62.0212 52.0279 61.8131C51.9315 61.9891 51.822 62.1576 51.7003 62.3171C51.5566 62.5288 51.4079 62.7329 51.2517 62.9345C50.9276 63.3462 50.5712 63.7313 50.1857 64.0861C49.4278 64.8114 48.5129 65.3521 47.512 65.6662C47.3042 65.7251 47.0929 65.7714 46.8795 65.8048C44.8685 66.0844 42.8204 65.9078 40.8869 65.2882C39.9707 65.0049 39.0832 64.6362 38.2359 64.1869C37.8831 63.9979 36.6735 63.1361 36.6256 62.5464C36.5038 62.5997 36.3987 62.685 36.3215 62.7933C36.2443 62.9016 36.1978 63.0287 36.1871 63.1613C35.7837 62.8296 35.4922 62.3818 35.352 61.8787C35.2118 61.3756 35.2297 60.8415 35.4034 60.349C34.964 60.616 34.6133 61.0071 34.3954 61.4729C33.9342 60.9109 33.8587 60.1272 33.9116 59.404C34.0023 58.1742 34.6046 57.1536 35.2547 56.1406C37.0792 53.298 40.272 50.8662 43.7597 50.715Z" fill="#455A64"/>
<path d="M52.0279 61.8181C51.8424 62.1416 51.6353 62.4523 51.408 62.748C51.1918 63.0558 50.9553 63.3488 50.6999 63.625C50.1924 64.1845 49.6107 64.672 48.9712 65.074C48.3279 65.4796 47.6098 65.7521 46.8594 65.8753C46.1094 65.9918 45.35 66.0373 44.5914 66.0114C43.0793 65.9537 41.5854 65.6604 40.1638 65.142C39.4513 64.8886 38.7603 64.5785 38.0974 64.2147C37.7742 64.0121 37.4697 63.781 37.1877 63.5242C37.0458 63.3944 36.9143 63.2537 36.7945 63.1033C36.6639 62.9473 36.577 62.7595 36.5425 62.559L36.6534 62.6271C36.5454 62.6742 36.452 62.7497 36.3833 62.8455C36.3145 62.9413 36.2729 63.0539 36.2628 63.1714V63.3226L36.1469 63.2293C35.7309 62.8879 35.4309 62.4258 35.2883 61.9069C35.1457 61.3879 35.1674 60.8374 35.3506 60.3313L35.4463 60.412C35.009 60.667 34.658 61.047 34.4383 61.5031L34.4005 61.5838L34.3426 61.5132C34.0476 61.1187 33.8781 60.6445 33.8562 60.1524C33.822 59.6694 33.8628 59.184 33.9772 58.7135C34.209 57.7735 34.7332 56.9495 35.2372 56.1456C34.7332 56.9545 34.2292 57.7962 34.0326 58.7286C33.9322 59.1936 33.9016 59.6709 33.9419 60.1449C33.9671 60.6158 34.134 61.0682 34.4207 61.4427H34.3249C34.5482 60.9638 34.9087 60.5621 35.3607 60.2885L35.5245 60.1877L35.4564 60.3691C35.2893 60.8465 35.2722 61.3635 35.4073 61.8509C35.5425 62.3382 35.8234 62.7726 36.2124 63.0958L36.0864 63.1512C36.0976 63.0039 36.1489 62.8624 36.2346 62.7421C36.3203 62.6217 36.4372 62.5271 36.5728 62.4683L36.6685 62.428L36.6837 62.5363C36.7176 62.7053 36.7949 62.8624 36.9079 62.9925C37.0227 63.1362 37.1491 63.2702 37.2859 63.3931C37.5595 63.6418 37.8557 63.8645 38.1705 64.0584C38.8262 64.4122 39.5067 64.7179 40.2066 64.9732C41.6167 65.4994 43.1004 65.8021 44.604 65.8703C45.35 65.8985 46.097 65.8623 46.8367 65.7619C47.2036 65.7019 47.5645 65.61 47.9153 65.4873C48.2652 65.3557 48.6025 65.1929 48.9233 65.0009C49.5614 64.6105 50.1459 64.1386 50.6621 63.5973C50.9249 63.3302 51.1683 63.0447 51.3904 62.743C51.6227 62.4488 51.8357 62.1399 52.0279 61.8181V61.8181Z" fill="#263238"/>
<path d="M44.0999 59.976C46.2142 58.7589 45.1079 53.5047 45.1079 53.5047C46.2117 55.7979 46.6199 58.5245 48.8073 59.4241C50.7074 60.2053 51.7255 60.8429 51.2618 62.9244C50.2739 64.3659 48.7418 65.7292 46.9324 65.9484C45.3675 66.15 43.4296 66.0542 41.1137 65.3512C40.1234 62.5817 41.4237 61.5233 44.0999 59.976Z" fill="#FAFAFA"/>
<path d="M41.6732 57.9903C41.6448 58.1682 41.6699 58.3505 41.7453 58.5142C41.8207 58.6778 41.943 58.8154 42.0967 58.9095C42.2504 59.0035 42.4285 59.0498 42.6086 59.0425C42.7886 59.0352 42.9624 58.9746 43.1079 58.8683C43.2535 58.7621 43.3642 58.6151 43.426 58.4458C43.4879 58.2766 43.4981 58.0928 43.4553 57.9178C43.4126 57.7427 43.3189 57.5843 43.186 57.4626C43.0531 57.3409 42.8871 57.2615 42.7089 57.2343C42.4716 57.1987 42.2297 57.2581 42.0358 57.3996C41.842 57.5411 41.7117 57.7533 41.6732 57.9903V57.9903Z" fill="white"/>
<path d="M41.517 57.9172C41.4886 58.0951 41.5137 58.2775 41.5891 58.4411C41.6645 58.6048 41.7868 58.7423 41.9404 58.8364C42.0941 58.9305 42.2723 58.9768 42.4523 58.9694C42.6323 58.9621 42.8061 58.9015 42.9517 58.7953C43.0972 58.689 43.2079 58.542 43.2698 58.3727C43.3316 58.2035 43.3418 58.0197 43.2991 57.8447C43.2564 57.6696 43.1626 57.5112 43.0297 57.3895C42.8968 57.2679 42.7308 57.1884 42.5527 57.1612C42.3152 57.1249 42.073 57.184 41.879 57.3257C41.685 57.4673 41.5548 57.6799 41.517 57.9172V57.9172Z" fill="#263238"/>
<path d="M42.4141 57.8063C42.4141 57.8601 42.3981 57.9127 42.3682 57.9575C42.3383 58.0023 42.2958 58.0371 42.2461 58.0577C42.1963 58.0783 42.1416 58.0837 42.0888 58.0732C42.036 58.0627 41.9875 58.0368 41.9495 57.9987C41.9114 57.9607 41.8855 57.9122 41.875 57.8594C41.8645 57.8066 41.8699 57.7519 41.8905 57.7021C41.9111 57.6524 41.946 57.6099 41.9907 57.58C42.0355 57.5501 42.0881 57.5341 42.1419 57.5341C42.1777 57.5341 42.213 57.5412 42.2461 57.5549C42.2791 57.5685 42.3091 57.5886 42.3344 57.6138C42.3596 57.6391 42.3797 57.6691 42.3934 57.7021C42.407 57.7352 42.4141 57.7706 42.4141 57.8063V57.8063Z" fill="#FAFAFA"/>
<path d="M47.9959 57.4409C47.9709 57.6049 47.9951 57.7726 48.0655 57.9229C48.1358 58.0731 48.2491 58.1992 48.391 58.2851C48.5329 58.371 48.6971 58.4129 48.8628 58.4055C49.0286 58.3981 49.1884 58.3418 49.3221 58.2436C49.4558 58.1454 49.5575 58.0098 49.6141 57.8539C49.6708 57.698 49.68 57.5287 49.6406 57.3676C49.6011 57.2065 49.5148 57.0606 49.3925 56.9485C49.2702 56.8364 49.1174 56.7631 48.9535 56.7378C48.8444 56.7206 48.733 56.7252 48.6257 56.7513C48.5183 56.7774 48.4173 56.8245 48.3282 56.8899C48.2392 56.9552 48.164 57.0376 48.107 57.1322C48.0499 57.2267 48.0122 57.3317 47.9959 57.4409V57.4409Z" fill="white"/>
<path d="M47.8523 57.3728C47.8272 57.537 47.8514 57.7048 47.9218 57.8552C47.9921 58.0056 48.1055 58.1317 48.2476 58.2176C48.3897 58.3035 48.554 58.3453 48.7199 58.3378C48.8857 58.3303 49.0456 58.2737 49.1793 58.1753C49.313 58.0769 49.4145 57.941 49.471 57.7849C49.5274 57.6287 49.5363 57.4594 49.4965 57.2982C49.4567 57.137 49.3699 56.9913 49.2473 56.8794C49.1246 56.7676 48.9715 56.6946 48.8073 56.6698C48.5875 56.6365 48.3634 56.6919 48.1843 56.8237C48.0053 56.9555 47.8858 57.153 47.8523 57.3728Z" fill="#263238"/>
<path d="M48.6814 57.2695C48.6814 57.3194 48.6666 57.3681 48.6389 57.4095C48.6112 57.451 48.5719 57.4833 48.5258 57.5024C48.4798 57.5214 48.4291 57.5264 48.3802 57.5167C48.3313 57.507 48.2864 57.483 48.2512 57.4477C48.2159 57.4125 48.1919 57.3676 48.1822 57.3187C48.1725 57.2698 48.1775 57.2191 48.1965 57.1731C48.2156 57.1271 48.2479 57.0877 48.2894 57.06C48.3308 57.0323 48.3795 57.0175 48.4294 57.0175C48.4962 57.0175 48.5603 57.0441 48.6076 57.0913C48.6548 57.1386 48.6814 57.2027 48.6814 57.2695Z" fill="#FAFAFA"/>
<path d="M40.7861 61.3242H40.7987C40.8305 61.3014 40.8523 61.2673 40.8598 61.2289C40.8673 61.1905 40.8599 61.1507 40.8391 61.1176C40.3955 60.3742 39.5665 59.5249 38.1376 59.6963C38.1189 59.6991 38.1009 59.7055 38.0847 59.7152C38.0685 59.725 38.0543 59.7378 38.0431 59.7531C38.0319 59.7683 38.0237 59.7856 38.0192 59.8039C38.0147 59.8223 38.0138 59.8414 38.0167 59.8601C38.0205 59.8987 38.0392 59.9342 38.0689 59.9591C38.0986 59.9841 38.1368 59.9965 38.1754 59.9937C39.4556 59.8399 40.1914 60.606 40.6022 61.2763C40.6214 61.3058 40.6509 61.327 40.6849 61.3359C40.7189 61.3447 40.755 61.3406 40.7861 61.3242Z" fill="#263238"/>
<path d="M40.3854 61.6795C40.3992 61.671 40.4119 61.6609 40.4232 61.6493C40.4493 61.6202 40.4637 61.5825 40.4637 61.5435C40.4637 61.5044 40.4493 61.4667 40.4232 61.4376C40.1569 61.205 39.8441 61.0317 39.5056 60.9292C39.1672 60.8266 38.8108 60.7972 38.4602 60.8429C38.4247 60.8541 38.3947 60.878 38.3757 60.91C38.3568 60.9419 38.3503 60.9797 38.3575 61.0162C38.3646 61.0527 38.385 61.0852 38.4146 61.1076C38.4442 61.13 38.4811 61.1408 38.5181 61.1377C38.8227 61.0978 39.1323 61.122 39.427 61.2088C39.7216 61.2956 39.9949 61.443 40.2292 61.6417C40.2479 61.6638 40.273 61.6794 40.3011 61.6862C40.3292 61.693 40.3588 61.6906 40.3854 61.6795Z" fill="#263238"/>
<path d="M40.441 62.2969C40.4671 62.2811 40.4875 62.2573 40.4989 62.2289C40.5148 62.193 40.5164 62.1523 40.5032 62.1153C40.4901 62.0783 40.4633 62.0477 40.4283 62.0298C40.0023 61.8496 39.539 61.775 39.0778 61.8123C38.6167 61.8496 38.1714 61.9977 37.7798 62.244C37.7468 62.2657 37.7235 62.2993 37.7145 62.3378C37.7056 62.3762 37.7119 62.4167 37.732 62.4507C37.75 62.4834 37.7803 62.5076 37.8162 62.518C37.8522 62.5284 37.8907 62.5241 37.9235 62.5061C38.2759 62.2825 38.6771 62.1472 39.093 62.1117C39.5088 62.0761 39.9272 62.1414 40.3124 62.302C40.3325 62.3123 40.3548 62.3172 40.3774 62.3163C40.3999 62.3154 40.4218 62.3088 40.441 62.2969V62.2969Z" fill="#263238"/>
<path d="M51.3652 59.7618H51.3526C51.3169 59.7457 51.2886 59.7169 51.2733 59.681C51.2579 59.645 51.2565 59.6047 51.2694 59.5678C51.5592 58.7513 52.2043 57.7559 53.6382 57.64C53.6574 57.6386 53.6766 57.6411 53.6947 57.6475C53.7128 57.6538 53.7295 57.6637 53.7437 57.6767C53.7578 57.6897 53.7692 57.7054 53.777 57.7229C53.7849 57.7404 53.7891 57.7594 53.7894 57.7786C53.7937 57.817 53.7825 57.8555 53.7584 57.8857C53.7344 57.916 53.6993 57.9354 53.6609 57.9398C52.3757 58.0432 51.7936 58.9478 51.534 59.6761C51.522 59.7092 51.4978 59.7364 51.4665 59.7523C51.4351 59.7682 51.3989 59.7716 51.3652 59.7618V59.7618Z" fill="#263238"/>
<path d="M51.8288 60.0314C51.8134 60.0273 51.7989 60.0205 51.7859 60.0113C51.7544 59.9876 51.733 59.9529 51.726 59.9141C51.719 59.8753 51.7269 59.8353 51.7482 59.8021C51.9631 59.5211 52.2354 59.2891 52.5469 59.1214C52.8584 58.9537 53.2021 58.8542 53.555 58.8294C53.5933 58.8307 53.6296 58.847 53.656 58.8749C53.6824 58.9027 53.6968 58.9397 53.6961 58.9781C53.6971 58.9972 53.6943 59.0162 53.6879 59.0342C53.6814 59.0522 53.6715 59.0687 53.6586 59.0828C53.6457 59.0969 53.6301 59.1082 53.6127 59.1162C53.5954 59.1242 53.5766 59.1286 53.5575 59.1293C53.2505 59.152 52.9517 59.2389 52.6804 59.3843C52.4091 59.5297 52.1714 59.7304 51.9825 59.9735C51.9667 59.9986 51.9431 60.0178 51.9154 60.0283C51.8876 60.0387 51.8572 60.0399 51.8288 60.0314V60.0314Z" fill="#263238"/>
<path d="M51.8944 60.6463C51.8653 60.6364 51.8404 60.6168 51.8238 60.5909C51.802 60.5583 51.7933 60.5187 51.7994 60.4799C51.8054 60.4412 51.8259 60.4061 51.8566 60.3817C52.2389 60.1215 52.6785 59.9574 53.1378 59.9034C53.5972 59.8495 54.0628 59.9072 54.495 60.0718C54.5309 60.0869 54.5597 60.1151 54.5756 60.1506C54.5915 60.1862 54.5933 60.2264 54.5807 60.2633C54.5697 60.299 54.5449 60.3289 54.5118 60.3464C54.4787 60.3639 54.4401 60.3675 54.4043 60.3565V60.3565C54.0148 60.2067 53.5948 60.1532 53.1802 60.2006C52.7656 60.248 52.3686 60.3949 52.0229 60.6287C52.0046 60.6421 51.9833 60.6507 51.9609 60.6538C51.9384 60.6569 51.9156 60.6543 51.8944 60.6463V60.6463Z" fill="#263238"/>
<path d="M48.9106 62.2112C48.8928 62.1695 48.8592 62.1366 48.8172 62.1195C48.7752 62.1025 48.7281 62.1029 48.6863 62.1205C48.526 62.2018 48.3477 62.2414 48.168 62.2357C47.9884 62.2299 47.813 62.1791 47.6582 62.0878C47.3206 61.8564 47.0857 61.5033 47.003 61.1024C47.003 61.0546 46.9904 61.0092 46.9828 60.9613C46.9763 60.9172 46.9528 60.8774 46.9174 60.8502C46.882 60.8231 46.8374 60.8109 46.7931 60.8162C46.7488 60.8214 46.7083 60.8437 46.6802 60.8784C46.6521 60.913 46.6386 60.9572 46.6426 61.0016C46.6459 61.0549 46.6526 61.108 46.6628 61.1604C46.7111 61.4539 46.667 61.7552 46.5365 62.0224C46.406 62.2897 46.1956 62.5098 45.9345 62.6522C45.3977 62.942 44.7198 62.9042 44.357 62.5691C44.3409 62.5517 44.3214 62.5378 44.2997 62.5283C44.2781 62.5188 44.2546 62.5139 44.231 62.5139C44.2073 62.5139 44.1839 62.5188 44.1622 62.5283C44.1405 62.5378 44.121 62.5517 44.105 62.5691C44.0879 62.5853 44.0743 62.6049 44.065 62.6265C44.0557 62.6482 44.0509 62.6715 44.0509 62.6951C44.0509 62.7187 44.0557 62.742 44.065 62.7636C44.0743 62.7853 44.0879 62.8048 44.105 62.8211C44.396 63.0686 44.7689 63.1989 45.1508 63.1865C45.4742 63.1866 45.7927 63.107 46.0781 62.9546C46.2912 62.8453 46.4784 62.6916 46.6271 62.5038C46.7758 62.316 46.8824 62.0985 46.94 61.866C47.0748 62.0736 47.2527 62.2497 47.4616 62.3826C47.6627 62.5028 47.8907 62.5709 48.1249 62.5805C48.359 62.5902 48.5919 62.5412 48.8022 62.438C48.8248 62.431 48.8456 62.4194 48.8635 62.404C48.8813 62.3886 48.8958 62.3696 48.9059 62.3483C48.9161 62.327 48.9218 62.3038 48.9226 62.2803C48.9234 62.2567 48.9193 62.2332 48.9106 62.2112V62.2112Z" fill="#263238"/>
<path d="M46.8468 61.4023C47.0988 61.3847 47.6809 60.8076 47.7036 60.4094C47.7263 60.0113 45.7531 60.2784 45.7506 60.5909C45.7481 61.0369 46.6024 61.42 46.8468 61.4023Z" fill="#F28F8F"/>
<path d="M118.319 99.4442L117.122 94.5983H111.097C109.103 94.2556 107.065 94.2556 105.071 94.5983H99.0487L97.8491 99.4442C97.393 101.249 98.3531 103.149 100.77 104.535C104.802 106.868 111.354 106.868 115.398 104.535C117.802 103.149 118.775 101.249 118.319 99.4442Z" fill="#5C3AE2"/>
<path opacity="0.1" d="M118.319 99.4442L117.122 94.5983H111.097C109.103 94.2556 107.065 94.2556 105.071 94.5983H99.0487L97.8491 99.4442C97.393 101.249 98.3531 103.149 100.77 104.535C104.802 106.868 111.354 106.868 115.398 104.535C117.802 103.149 118.775 101.249 118.319 99.4442Z" fill="black"/>
<path d="M108.085 100.614C113.126 100.614 117.213 98.2544 117.213 95.3442C117.213 92.434 113.126 90.0749 108.085 90.0749C103.044 90.0749 98.9579 92.434 98.9579 95.3442C98.9579 98.2544 103.044 100.614 108.085 100.614Z" fill="#5C3AE2"/>
<path opacity="0.5" d="M108.085 100.614C113.126 100.614 117.213 98.2544 117.213 95.3442C117.213 92.434 113.126 90.0749 108.085 90.0749C103.044 90.0749 98.9579 92.434 98.9579 95.3442C98.9579 98.2544 103.044 100.614 108.085 100.614Z" fill="white"/>
<path opacity="0.7" d="M102.461 98.4136C105.555 100.132 110.57 100.132 113.665 98.4136C116.759 96.6949 116.757 93.9153 113.665 92.1992C110.573 90.4831 105.555 90.4831 102.461 92.1992C99.3661 93.9153 99.3661 96.6974 102.461 98.4136Z" fill="#5C3AE2"/>
<path d="M115.975 95.5206C115.799 95.2566 115.56 95.0406 115.279 94.8919C114.998 94.7433 114.685 94.6666 114.368 94.6688C114.312 94.6688 114.259 94.6688 114.204 94.6688C114.219 94.6027 114.227 94.5351 114.227 94.4672C114.221 94.1883 114.104 93.9231 113.903 93.7299C113.702 93.5367 113.432 93.4312 113.153 93.4366C112.97 93.4362 112.791 93.4823 112.631 93.5705C112.471 93.6586 112.336 93.786 112.238 93.9406C112.131 93.5359 111.891 93.1789 111.557 92.926C111.223 92.6731 110.815 92.5388 110.396 92.5445C109.95 92.5437 109.517 92.6958 109.169 92.9754C109.117 92.7189 108.973 92.4902 108.764 92.3325C108.555 92.1747 108.295 92.0988 108.034 92.1189C107.773 92.139 107.529 92.2538 107.346 92.4417C107.164 92.6296 107.057 92.8777 107.045 93.1392C107.045 93.2069 107.052 93.2744 107.065 93.3408C106.686 93.2138 106.277 93.2066 105.894 93.3202C105.51 93.4338 105.171 93.6628 104.923 93.9758C104.828 93.8119 104.692 93.6759 104.528 93.5816C104.363 93.4873 104.177 93.4382 103.988 93.4391C103.85 93.4364 103.713 93.461 103.584 93.5113C103.456 93.5617 103.338 93.6368 103.239 93.7326C103.139 93.8283 103.06 93.9426 103.004 94.0691C102.949 94.1956 102.919 94.3318 102.917 94.4698C102.919 94.5078 102.923 94.5457 102.929 94.5832C102.654 94.4424 102.349 94.369 102.04 94.369C101.617 94.3636 101.205 94.5003 100.87 94.7571C100.535 95.014 100.295 95.376 100.19 95.7852C100.379 96.7428 101.135 97.6752 102.458 98.4085C105.553 100.127 110.568 100.127 113.662 98.4085C115.111 97.6122 115.882 96.574 115.975 95.5206Z" fill="#B16668"/>
<path d="M103.146 97.587C102.978 97.4267 102.873 97.2117 102.85 96.9807C102.826 96.7497 102.886 96.5179 103.018 96.327C103.177 96.1015 103.418 95.9463 103.689 95.8938C103.961 95.8412 104.242 95.8953 104.474 96.0448C104.601 96.1232 104.708 96.2292 104.788 96.3548C104.868 96.4805 104.918 96.6226 104.935 96.7705C104.86 96.6542 104.76 96.5554 104.643 96.4807C104.421 96.3402 104.154 96.2899 103.896 96.34C103.639 96.3901 103.41 96.537 103.257 96.7504C103.173 96.871 103.12 97.0098 103.101 97.1553C103.081 97.3008 103.097 97.4488 103.146 97.587V97.587Z" fill="#9A4A4D"/>
<path d="M107.856 97.7155C107.893 97.4633 108.02 97.233 108.213 97.0671C108.407 96.9011 108.654 96.8107 108.908 96.8126C109.163 96.8144 109.409 96.9084 109.6 97.0771C109.791 97.2458 109.914 97.478 109.948 97.7306C109.962 97.878 109.942 98.0266 109.891 98.1653C109.839 98.3041 109.757 98.4294 109.65 98.532C109.696 98.4038 109.714 98.267 109.701 98.1313C109.669 97.8727 109.537 97.6369 109.333 97.4751C109.128 97.3133 108.869 97.2385 108.61 97.267C108.458 97.2801 108.312 97.3273 108.181 97.405C108.051 97.4827 107.94 97.5888 107.856 97.7155Z" fill="#9A4A4D"/>
<path d="M104.298 96.2816C104.152 96.1435 104.061 95.9576 104.041 95.7579C104.02 95.5581 104.072 95.3577 104.187 95.193C104.323 94.9959 104.531 94.8595 104.766 94.8124C105.001 94.7654 105.245 94.8115 105.447 94.941C105.555 95.0086 105.647 95.0996 105.715 95.2073C105.784 95.315 105.827 95.4367 105.843 95.5634C105.778 95.4619 105.692 95.3758 105.591 95.3114C105.4 95.1902 105.171 95.1467 104.95 95.1898C104.728 95.233 104.532 95.3595 104.401 95.5433C104.325 95.6485 104.275 95.7708 104.257 95.8996C104.239 96.0283 104.253 96.1595 104.298 96.2816V96.2816Z" fill="#9A4A4D"/>
<path d="M109.789 97.8214C109.716 97.6337 109.713 97.4263 109.779 97.2361C109.845 97.0459 109.976 96.8854 110.149 96.7831C110.352 96.6592 110.595 96.6181 110.827 96.6683C111.059 96.7185 111.263 96.8562 111.397 97.0528C111.467 97.1577 111.513 97.2776 111.53 97.4031C111.546 97.5286 111.533 97.6562 111.492 97.776C111.477 97.6596 111.434 97.5484 111.369 97.4509C111.242 97.2647 111.048 97.1346 110.827 97.0877C110.607 97.0408 110.377 97.0806 110.185 97.1989C110.075 97.2647 109.982 97.3552 109.913 97.4632C109.844 97.5713 109.802 97.694 109.789 97.8214V97.8214Z" fill="#9A4A4D"/>
<path d="M107.821 95.3921C107.749 95.2041 107.746 94.9966 107.812 94.8065C107.879 94.6165 108.01 94.4561 108.184 94.3538C108.386 94.2301 108.628 94.189 108.86 94.2393C109.092 94.2895 109.296 94.4271 109.429 94.6235C109.499 94.7285 109.545 94.8483 109.562 94.9737C109.579 95.0991 109.567 95.2267 109.527 95.3467C109.509 95.2308 109.467 95.1199 109.403 95.0216C109.276 94.8359 109.082 94.7062 108.861 94.6593C108.641 94.6125 108.411 94.6519 108.219 94.7696C108.109 94.8354 108.016 94.9259 107.946 95.0339C107.877 95.1419 107.834 95.2646 107.821 95.3921V95.3921Z" fill="#9A4A4D"/>
<path d="M109.323 94.8049C109.265 94.6544 109.263 94.4884 109.316 94.3362C109.369 94.184 109.474 94.0555 109.612 93.9733C109.776 93.8715 109.972 93.8371 110.16 93.8776C110.348 93.918 110.513 94.0301 110.62 94.19C110.677 94.2743 110.713 94.3703 110.727 94.4708C110.74 94.5712 110.731 94.6735 110.699 94.7696C110.684 94.6792 110.65 94.593 110.598 94.5176C110.496 94.3685 110.341 94.2642 110.165 94.2262C109.988 94.1882 109.804 94.2195 109.65 94.3135C109.561 94.3638 109.484 94.4345 109.427 94.5199C109.371 94.6053 109.335 94.703 109.323 94.8049Z" fill="#9A4A4D"/>
<path d="M29.0077 99.4442L27.8107 94.5983H21.7854C19.7916 94.2556 17.7539 94.2556 15.7601 94.5983H9.73726L8.53774 99.4442C8.08162 101.249 9.04174 103.149 11.4584 104.535C15.4904 106.868 22.0424 106.868 26.087 104.535C28.4911 103.149 29.4638 101.249 29.0077 99.4442Z" fill="#5C3AE2"/>
<path opacity="0.1" d="M29.0077 99.4442L27.8107 94.5983H21.7854C19.7916 94.2556 17.7539 94.2556 15.7601 94.5983H9.73726L8.53774 99.4442C8.08162 101.249 9.04174 103.149 11.4584 104.535C15.4904 106.868 22.0424 106.868 26.087 104.535C28.4911 103.149 29.4638 101.249 29.0077 99.4442Z" fill="black"/>
<path d="M18.7739 100.614C23.8149 100.614 27.9014 98.2544 27.9014 95.3442C27.9014 92.434 23.8149 90.0749 18.7739 90.0749C13.733 90.0749 9.64648 92.434 9.64648 95.3442C9.64648 98.2544 13.733 100.614 18.7739 100.614Z" fill="#5C3AE2"/>
<path opacity="0.5" d="M18.7739 100.614C23.8149 100.614 27.9014 98.2544 27.9014 95.3442C27.9014 92.434 23.8149 90.0749 18.7739 90.0749C13.733 90.0749 9.64648 92.434 9.64648 95.3442C9.64648 98.2544 13.733 100.614 18.7739 100.614Z" fill="white"/>
<path opacity="0.7" d="M13.1493 98.4136C16.2438 100.132 21.2586 100.132 24.3532 98.4136C27.4478 96.6949 27.4452 93.9153 24.3532 92.1992C21.2612 90.4831 16.2438 90.4831 13.1493 92.1992C10.0547 93.9153 10.0547 96.6974 13.1493 98.4136Z" fill="#5C3AE2"/>
<path d="M26.6641 95.5206C26.4879 95.257 26.249 95.0412 25.9688 94.8925C25.6887 94.7439 25.376 94.667 25.0589 94.6688C25.0009 94.6688 24.948 94.6688 24.8926 94.6688C24.9077 94.6027 24.9153 94.5351 24.9153 94.4672C24.9093 94.1883 24.7929 93.9231 24.5917 93.7299C24.3904 93.5366 24.1207 93.4312 23.8417 93.4366C23.6591 93.4362 23.4793 93.4823 23.3193 93.5704C23.1593 93.6586 23.0243 93.786 22.927 93.9406C22.8192 93.5359 22.5795 93.1789 22.2458 92.926C21.9121 92.6731 21.5035 92.5388 21.0849 92.5445C20.637 92.5472 20.2037 92.7038 19.8576 92.988C19.8055 92.7314 19.6614 92.5028 19.4524 92.3451C19.2435 92.1873 18.9841 92.1114 18.7231 92.1315C18.4621 92.1516 18.2174 92.2664 18.0351 92.4543C17.8528 92.6422 17.7455 92.8903 17.7333 93.1518C17.7336 93.2195 17.7404 93.287 17.7534 93.3534C17.3744 93.2264 16.9654 93.2192 16.5822 93.3328C16.1989 93.4464 15.86 93.6753 15.6114 93.9884C15.5168 93.8245 15.3804 93.6885 15.2162 93.5942C15.052 93.4999 14.8658 93.4508 14.6765 93.4517C14.3995 93.4469 14.1318 93.5518 13.9317 93.7434C13.7316 93.935 13.6153 94.1978 13.608 94.4748C13.6055 94.5126 13.6055 94.5504 13.608 94.5882C13.3326 94.4475 13.0277 94.374 12.7185 94.374C12.296 94.3686 11.8841 94.5053 11.5486 94.7622C11.2132 95.019 10.9738 95.381 10.8688 95.7902C11.0578 96.7478 11.8138 97.6802 13.1368 98.4136C16.2313 100.132 21.2461 100.132 24.3407 98.4136C25.7998 97.6122 26.5709 96.574 26.6641 95.5206Z" fill="#B16668"/>
<path d="M13.8348 97.587C13.6674 97.4264 13.5625 97.2115 13.539 96.9806C13.5154 96.7498 13.5747 96.5181 13.7063 96.327C13.8661 96.1015 14.1067 95.9463 14.378 95.8938C14.6493 95.8412 14.9304 95.8953 15.1629 96.0448C15.2892 96.1229 15.3962 96.2285 15.476 96.3537C15.5559 96.4789 15.6065 96.6205 15.624 96.768C15.5484 96.6517 15.4487 96.5528 15.3317 96.4782C15.1105 96.3372 14.8436 96.2866 14.5861 96.3368C14.3287 96.387 14.1003 96.5341 13.9482 96.7478C13.8639 96.8686 13.8096 97.0077 13.7898 97.1537C13.7701 97.2996 13.7855 97.4482 13.8348 97.587V97.587Z" fill="#9A4A4D"/>
<path d="M18.5321 97.7155C18.569 97.4633 18.6959 97.233 18.8893 97.0671C19.0827 96.9011 19.3296 96.8107 19.5845 96.8126C19.8393 96.8144 20.0849 96.9084 20.2759 97.0771C20.4669 97.2458 20.5904 97.478 20.6237 97.7306C20.6382 97.878 20.619 98.0268 20.5675 98.1656C20.516 98.3045 20.4335 98.4298 20.3263 98.532C20.3724 98.4038 20.3896 98.267 20.3767 98.1313C20.3439 97.8736 20.2112 97.6391 20.0071 97.4783C19.8029 97.3176 19.5438 97.2435 19.2856 97.272C19.1348 97.2846 18.9887 97.331 18.8583 97.4078C18.7278 97.4846 18.6163 97.5898 18.5321 97.7155V97.7155Z" fill="#9A4A4D"/>
<path d="M14.9865 96.2816C14.8408 96.1435 14.7495 95.9576 14.7292 95.7579C14.7088 95.5581 14.7608 95.3577 14.8756 95.193C15.012 94.9959 15.2196 94.8595 15.4547 94.8124C15.6897 94.7654 15.9339 94.8115 16.1356 94.941C16.2438 95.0086 16.3356 95.0996 16.404 95.2073C16.4725 95.315 16.516 95.4367 16.5312 95.5634C16.4669 95.4619 16.3808 95.3758 16.2792 95.3114C16.0891 95.1902 15.8596 95.1467 15.6382 95.1898C15.4168 95.233 15.2205 95.3595 15.0898 95.5433C15.0134 95.6485 14.9641 95.7708 14.946 95.8996C14.928 96.0283 14.9419 96.1595 14.9865 96.2816Z" fill="#9A4A4D"/>
<path d="M20.4775 97.8214C20.4048 97.6337 20.4011 97.4263 20.4671 97.2361C20.5331 97.0459 20.6645 96.8854 20.8379 96.7831C21.0417 96.6554 21.2873 96.6121 21.5226 96.6624C21.7578 96.7127 21.9642 96.8528 22.0979 97.0528C22.1652 97.1594 22.2072 97.28 22.2208 97.4053C22.2343 97.5307 22.219 97.6575 22.176 97.776C22.1581 97.6598 22.1151 97.5488 22.05 97.4509C21.9228 97.2647 21.7288 97.1346 21.5083 97.0877C21.2877 97.0408 21.0576 97.0806 20.8656 97.1989C20.7571 97.2655 20.6656 97.3564 20.5982 97.4644C20.5309 97.5724 20.4896 97.6946 20.4775 97.8214V97.8214Z" fill="#9A4A4D"/>
<path d="M18.5094 95.3921C18.438 95.204 18.4352 94.9967 18.5016 94.8068C18.568 94.6169 18.6993 94.4565 18.8723 94.3538C19.0747 94.2301 19.3169 94.189 19.5488 94.2393C19.7806 94.2895 19.9842 94.4271 20.1172 94.6235C20.1878 94.7285 20.2335 94.8483 20.2505 94.9737C20.2675 95.0991 20.2556 95.2267 20.2155 95.3467C20.1981 95.2308 20.156 95.1199 20.092 95.0216C19.9644 94.8359 19.7705 94.7062 19.5501 94.6593C19.3297 94.6125 19.0997 94.6519 18.9076 94.7696C18.7975 94.8354 18.7042 94.9259 18.6351 95.0339C18.566 95.1419 18.523 95.2646 18.5094 95.3921V95.3921Z" fill="#9A4A4D"/>
<path d="M20.0113 94.8049C19.9537 94.6544 19.9512 94.4884 20.0042 94.3362C20.0573 94.184 20.1624 94.0555 20.3011 93.9733C20.4643 93.8715 20.6608 93.8371 20.849 93.8776C21.0371 93.918 21.2021 94.0301 21.3091 94.19C21.3654 94.2743 21.4017 94.3703 21.4152 94.4708C21.4288 94.5712 21.4192 94.6735 21.3872 94.7696C21.3729 94.6792 21.3384 94.593 21.2864 94.5176C21.1848 94.3685 21.0298 94.2642 20.8534 94.2262C20.6771 94.1882 20.4928 94.2195 20.3389 94.3135C20.2497 94.3642 20.1737 94.4351 20.1168 94.5204C20.0599 94.6057 20.0238 94.7031 20.0113 94.8049Z" fill="#9A4A4D"/>
<path d="M26.1021 36.6786C27.9633 38.5091 30.4525 39.5609 33.0624 39.6194L34.2392 39.5816C36.8143 39.3547 39.2093 38.1659 40.947 36.2521C42.6847 34.3382 43.6376 31.8399 43.6156 29.255C43.5937 26.6701 42.5986 24.1883 40.8287 22.3042C39.0587 20.4202 36.6439 19.2722 34.0653 19.089L32.8885 19.0688C30.8841 19.1501 28.9473 19.816 27.3166 20.9845C25.686 22.1529 24.4328 23.7729 23.7114 25.6447C22.9901 27.5166 22.8321 29.5586 23.2568 31.5192C23.6816 33.4797 24.6707 35.2732 26.1021 36.6786V36.6786Z" fill="#FAFAFA"/>
<path d="M25.4923 37.296C27.3744 39.1416 29.8486 40.2622 32.4772 40.4596C35.1059 40.6569 37.7196 39.9184 39.8563 38.3746L43.0416 39.748C43.1616 39.7998 43.2945 39.8141 43.4227 39.789C43.551 39.7639 43.6687 39.7005 43.7604 39.6073C43.852 39.514 43.9132 39.3952 43.9361 39.2665C43.9589 39.1378 43.9422 39.0052 43.8883 38.8861L42.462 35.726C43.681 33.9814 44.3758 31.9245 44.4645 29.798C44.5531 27.6715 44.0318 25.564 42.9621 23.7239C41.8925 21.8839 40.319 20.388 38.4272 19.4128C36.5354 18.4376 34.4042 18.0236 32.2849 18.2196C30.1656 18.4157 28.1465 19.2137 26.4657 20.5194C24.785 21.8252 23.5126 23.5843 22.7987 25.5894C22.0847 27.5944 21.9589 29.7618 22.4362 31.836C22.9134 33.9101 23.9738 35.8046 25.4923 37.296ZM25.9786 22.1231C27.8086 20.261 30.2798 19.1669 32.8885 19.0638L34.0653 19.084C36.6438 19.2671 39.0587 20.4151 40.8286 22.2992C42.5986 24.1833 43.5937 26.665 43.6156 29.25C43.6375 31.8349 42.6847 34.3332 40.947 36.247C39.2093 38.1609 36.8142 39.3497 34.2392 39.5766L33.0624 39.6144C31.0571 39.5669 29.1095 38.9338 27.4595 37.7932C25.8095 36.6526 24.5291 35.0543 23.7762 33.1951C23.0233 31.3359 22.8306 29.2971 23.2219 27.3298C23.6133 25.3625 24.5715 23.5526 25.9786 22.1231V22.1231Z" fill="#E0E0E0"/>
<path d="M33.3143 35.658C40.5694 31.7923 41.154 27.6469 39.0448 25.6183C37.1548 23.8039 33.6999 25.0009 33.3143 27.5965C32.9313 25.0009 29.4738 23.8039 27.5863 25.6183C25.4771 27.6469 26.0617 31.7923 33.3143 35.658Z" fill="#5C3AE2"/>
</svg>
