<svg width="20" height="20" viewBox="0 0 20 20" fill="none" xmlns="http://www.w3.org/2000/svg">
<path d="M4.19592 10.5875C4.17659 10.3943 4.1667 10.1983 4.1667 10C4.1667 9.80169 4.17659 9.60569 4.19592 9.41247L2.67151 7.69338L4.33818 4.80662L6.58918 5.26726C6.90611 5.03845 7.24694 4.84068 7.60722 4.67844L8.33337 2.5H11.6667L12.3928 4.67844C12.7531 4.84068 13.094 5.03845 13.4109 5.26726L15.6619 4.80662L17.3286 7.69338L15.8041 9.41247C15.8235 9.60569 15.8334 9.80169 15.8334 10C15.8334 10.1983 15.8235 10.3943 15.8041 10.5875L17.3286 12.3066L15.6619 15.1934L13.4109 14.7327C13.094 14.9616 12.7531 15.1593 12.3928 15.3216L11.6667 17.5H8.33337L7.60722 15.3216C7.24694 15.1593 6.90611 14.9616 6.58918 14.7327L4.33818 15.1934L2.67151 12.3066L4.19592 10.5875Z" stroke="#FFC800" stroke-width="2" stroke-linecap="square"/>
<path d="M9.99996 10.8334C10.4602 10.8334 10.8333 10.4603 10.8333 10C10.8333 9.53978 10.4602 9.16669 9.99996 9.16669C9.53972 9.16669 9.16663 9.53978 9.16663 10C9.16663 10.4603 9.53972 10.8334 9.99996 10.8334Z" stroke="#FFC800" stroke-width="2" stroke-linecap="square"/>
</svg>
