<svg width="20" height="20" viewBox="0 0 20 20" fill="none" xmlns="http://www.w3.org/2000/svg">
<path d="M10 2.5C5.1875 2.5 1.25 6.4375 1.25 11.25C1.25 13.25 1.875 15.125 3.125 16.6875C3.3125 16.875 3.625 17 3.875 16.875C5.4375 16.25 7 15.8125 8.6875 15.6875L11.9375 9.6875C12.125 9.375 12.5 9.25 12.8125 9.4375C13.125 9.625 13.25 10 13.0625 10.3125L10.125 15.625C12.1875 15.625 14.1875 16.0625 16.125 16.875C16.1875 16.9375 16.3125 16.9375 16.375 16.9375C16.5625 16.9375 16.75 16.875 16.875 16.6875C18.125 15.125 18.75 13.25 18.75 11.25C18.75 6.4375 14.8125 2.5 10 2.5ZM5 11.875H3.75C3.375 11.875 3.125 11.625 3.125 11.25C3.125 10.875 3.375 10.625 3.75 10.625H5C5.375 10.625 5.625 10.875 5.625 11.25C5.625 11.625 5.375 11.875 5 11.875ZM6.875 8.125C6.75 8.25 6.5625 8.3125 6.4375 8.3125C6.3125 8.3125 6.125 8.25 6 8.125L5.125 7.25C4.875 7 4.875 6.625 5.125 6.375C5.375 6.125 5.75 6.125 6 6.375L6.875 7.25C7.125 7.5 7.125 7.9375 6.875 8.125ZM10.625 6.25C10.625 6.625 10.375 6.875 10 6.875C9.625 6.875 9.375 6.625 9.375 6.25V5C9.375 4.625 9.625 4.375 10 4.375C10.375 4.375 10.625 4.625 10.625 5V6.25ZM13.5625 8.3125C13.375 8.3125 13.25 8.25 13.125 8.125C12.875 7.875 12.875 7.5 13.125 7.25L14 6.375C14.25 6.125 14.625 6.125 14.875 6.375C15.125 6.625 15.125 7 14.875 7.25L14 8.125C13.875 8.25 13.6875 8.3125 13.5625 8.3125ZM16.25 11.875H15C14.625 11.875 14.375 11.625 14.375 11.25C14.375 10.875 14.625 10.625 15 10.625H16.25C16.625 10.625 16.875 10.875 16.875 11.25C16.875 11.625 16.625 11.875 16.25 11.875Z" fill="#FFC800"/>
</svg>
