<svg width="19" height="26" viewBox="0 0 19 26" fill="none" xmlns="http://www.w3.org/2000/svg">
<path d="M2.24927 15.7819C2.24927 15.7819 4.14852 22.0858 9.00718 24.4474L13.2323 21.2795L15.0275 19.2499L13.4517 17.2974L9.75517 19.6145L8.54034 20.9879H7.52594L6.51762 20.2216L7.05302 18.1286L2.24927 15.7819Z" fill="#5C3AE2"/>
<path d="M6.82428 17.8802C6.82428 17.8802 0.196095 16.0056 0.81958 9.32279C2.27759 0.328282 9.76163 1.46613 9.76163 1.46613L12.8282 2.10406L15.2579 3.50999L16.2663 5.07408L17.4845 8.10383L17.7049 10.8401L17.3266 13.0369L16.4754 14.0403L16.1603 15.8276L15.782 18.3178L14.9941 18.8916L13.4496 17.2959L9.57246 20.5691L8.53984 20.9855C8.53984 20.9855 7.6183 20.9733 7.52372 20.9855C7.42914 20.9979 6.23165 20.5691 6.23165 20.5691L7.0508 18.1262L6.82428 17.8802Z" fill="#FFC800"/>
<path d="M9.85179 16.3309C9.72694 16.2286 9.56031 16.168 9.41266 16.2322L9.26634 16.296C9.19963 16.325 9.166 16.402 9.19956 16.467C9.39288 16.8416 9.82207 17.0933 10.2627 17.0823C10.7192 17.0713 11.1199 16.7801 11.2731 16.4535C11.3028 16.3901 11.268 16.3184 11.204 16.2912L11.0521 16.2266C10.902 16.1628 10.7335 16.2274 10.607 16.3309C10.3816 16.5153 10.0908 16.5266 9.85179 16.3309Z" fill="#1D1D1D"/>
<path d="M18.0922 8.61671C17.825 6.50784 16.9312 4.69948 15.4074 3.23819C13.2607 1.17852 10.6948 0.363967 7.77133 0.784865C5.80546 1.05576 3.99374 2.01034 2.64644 3.48511C0.600308 5.67746 -0.24227 8.29511 0.261889 11.2669C0.303541 11.5138 0.35387 11.7554 0.410273 11.9918C0.745742 13.6372 1.23983 15.2453 1.88544 16.7931C3.88905 21.6083 6.64066 24.052 8.59743 25.254L8.67213 25.2999C8.77669 25.3641 8.90789 25.3646 9.01298 25.3014L9.08858 25.2558C9.22133 25.1759 12.2229 23.3472 15.0386 19.8711L15.049 19.8835C15.2087 19.7006 15.358 19.5372 15.4977 19.3667C16.5876 18.0411 17.0215 16.522 16.7993 14.8098C16.7814 14.6946 16.8058 14.5767 16.8678 14.4785C17.9317 12.7262 18.3643 10.6552 18.0922 8.61671ZM8.84474 24.2655C5.67834 22.2111 3.80054 18.8905 2.7766 16.4363C2.74016 16.3485 2.70458 16.2605 2.66987 16.1726C3.62439 17.1331 4.82448 17.8774 6.26666 18.4098C6.35345 18.4432 6.44716 18.4731 6.54087 18.5057C6.53046 18.5417 6.52526 18.5663 6.51571 18.5935C6.32654 19.0776 6.13911 19.5601 5.94561 20.046C5.75209 20.5318 5.89875 21.0126 6.30398 21.226C7.45374 21.8262 8.9827 21.639 9.96239 20.7753C10.4691 20.3271 10.9724 19.8738 11.4775 19.4229L13.3136 17.7877C13.6815 18.2271 14.0468 18.6707 14.4148 19.1136C12.8214 21.1019 10.9441 22.8383 8.84474 24.2655ZM16.3698 13.2598C15.9607 12.3414 15.3243 11.5467 14.523 10.9523C14.4619 10.9069 14.376 10.9224 14.3325 10.9851C14.0588 11.3792 14.1533 11.9161 14.4899 12.2571C15.3113 13.089 15.7784 14.1185 15.8561 15.3581C15.9229 16.4213 15.64 17.3976 15.0456 18.3008L14.8972 18.1251C11.4797 14.0623 14.9783 18.2208 11.5472 14.1425C11.4957 14.0813 11.251 14.2219 11.1948 14.2787C10.8567 14.6198 10.9832 15.0396 11.2956 15.4049C12.132 16.3827 10.9806 15.0366 12.5656 16.8897C12.5951 16.9248 12.6229 16.9617 12.6619 17.0109C12.5969 17.0707 12.5344 17.1287 12.471 17.1866C11.4263 18.1198 10.3815 19.0522 9.33675 19.9835C8.67292 20.5749 7.62208 20.7481 6.89232 20.3799C7.00425 20.0899 7.11358 19.7981 7.22987 19.5082C7.50234 18.8245 7.78089 18.1436 8.05075 17.4582C8.20679 17.0885 8.27383 16.6866 8.24639 16.2856C8.21893 15.8846 8.09774 15.4959 7.89282 15.1516C7.86716 15.115 7.85336 15.0713 7.85336 15.0263C7.85336 14.9816 7.86716 14.9377 7.89282 14.9011C8.52454 13.7923 9.14931 12.6789 9.78189 11.5709C9.90134 11.349 10.0784 11.1644 10.2938 11.037C10.5093 10.9096 10.755 10.8441 11.0045 10.8477C11.4532 10.8363 11.9027 10.8477 12.3513 10.8477C13.5904 10.8477 14.6352 9.83986 14.7211 8.56312C14.7566 7.95895 14.5693 7.36295 14.1953 6.89078C13.8215 6.41861 12.9186 6.00828 12.7029 5.94405C12.5901 5.91044 12.5054 5.87597 12.4126 5.85568C12.3586 5.84386 12.3045 5.87293 12.2896 5.92656C12.2577 6.04091 12.2512 6.19732 12.2566 6.3541C12.2693 6.72454 12.5733 6.98345 12.9096 7.13294C13.1234 7.22799 13.3132 7.36747 13.4668 7.58522C13.6626 7.86313 13.7535 8.20289 13.7232 8.5429C13.6926 8.87523 13.5469 9.18588 13.3118 9.41986C13.0768 9.65385 12.7676 9.79609 12.4389 9.82141C11.9964 9.84865 11.5512 9.84426 11.1078 9.83548C10.583 9.81719 10.0661 9.96928 9.63265 10.2696C9.60835 10.2862 9.58144 10.2986 9.54153 10.3205C9.381 8.83727 8.71891 7.66069 7.51969 6.80572C6.99641 6.43402 6.33559 6.16295 5.71723 6.0429C5.25211 5.95261 4.88002 6.35116 4.88002 6.82894C4.88002 6.89057 4.92306 6.94377 4.98313 6.9551C5.33154 7.02082 5.67951 7.06328 6.00808 7.17126C8.25553 7.91376 9.21874 10.491 8.04901 12.5946C7.6834 13.2507 7.31346 13.9044 6.93917 14.5558C6.73873 14.9074 6.75087 15.2325 6.97648 15.5708C7.27412 16.0171 7.35568 16.4977 7.13268 17.0092C7.05632 17.1849 6.99297 17.3606 6.91921 17.5496C4.4149 16.8906 1.79693 14.613 1.23289 11.1193C0.609854 7.26439 2.71586 3.8155 5.8866 2.37971C7.47083 1.67163 9.23836 1.49986 10.9267 1.88991C12.615 2.27995 14.134 3.21102 15.2582 4.54482C17.5716 7.31272 17.5621 10.8996 16.3698 13.2598Z" fill="#1D1D1D"/>
</svg>
