<svg width="13" height="20" viewBox="0 0 13 20" fill="none" xmlns="http://www.w3.org/2000/svg">
<g clip-path="url(#clip0_82_74)">
<path d="M10.0995 1.09169C7.91234 -0.363573 5.08631 -0.363573 2.9004 1.09169C0.0833468 2.96421 -0.818469 6.61326 0.803004 9.57883L6.49996 19.9999L12.1969 9.57883C13.8184 6.61326 12.9179 2.96421 10.0995 1.09169ZM11.0719 8.96703L6.50125 17.3287L1.92931 8.96703C0.628541 6.58638 1.35076 3.65921 3.61236 2.15659C4.4898 1.57294 5.49424 1.27984 6.49996 1.27984C7.50569 1.27984 8.51013 1.57166 9.38757 2.15531C11.6492 3.65921 12.3727 6.58638 11.0719 8.96703Z" fill="white"/>
<path d="M6.49999 2.66608C4.73228 2.66608 3.29297 4.10215 3.29297 5.86587C3.29297 7.6296 4.73228 9.06567 6.49999 9.06567C8.26771 9.06567 9.70702 7.6296 9.70702 5.86587C9.70702 4.10215 8.26899 2.66608 6.49999 2.66608ZM6.49999 7.78575C5.43911 7.78575 4.57578 6.92436 4.57578 5.86587C4.57578 4.80738 5.43911 3.94599 6.49999 3.94599C7.56088 3.94599 8.42421 4.80738 8.42421 5.86587C8.42421 6.92436 7.56088 7.78575 6.49999 7.78575Z" fill="white"/>
</g>
<defs>
<clipPath id="clip0_82_74">
<rect width="13" height="20" fill="white"/>
</clipPath>
</defs>
</svg>
