<svg width="554" height="186" viewBox="0 0 554 186" fill="none" xmlns="http://www.w3.org/2000/svg">
<g clip-path="url(#clip0_1083_2692)">
<path d="M17.0703 113.637C17.0703 113.637 31.4838 161.065 68.3564 178.833L100.421 154.999L114.045 139.729L102.086 125.039L74.0329 142.472L64.8135 152.805H57.1152L49.463 147.04L53.5262 131.293L17.0703 113.637Z" fill="#5C3AE2"/>
<path d="M51.7902 129.424C51.7902 129.424 1.48865 115.32 6.2203 65.0414C17.2852 -2.62964 74.0819 5.93107 74.0819 5.93107L97.3544 10.7306L115.793 21.3082L123.446 33.0758L132.691 55.8704L134.364 76.457L131.493 92.9845L125.033 100.534L122.642 113.981L119.771 132.716L113.791 137.033L102.07 125.028L72.6463 149.654L64.8097 152.787C64.8097 152.787 57.8161 152.695 57.0983 152.787C56.3805 152.88 47.2927 149.654 47.2927 149.654L53.5093 131.275L51.7902 129.424Z" fill="#FFC800"/>
<path d="M74.7658 117.768C73.8183 116.998 72.5537 116.542 71.4332 117.025L70.3228 117.505C69.8165 117.723 69.5613 118.303 69.816 118.792C71.2831 121.61 74.5402 123.504 77.884 123.421C81.3482 123.338 84.3893 121.147 85.5523 118.69C85.7778 118.213 85.5137 117.674 85.0279 117.469L83.8746 116.983C82.7355 116.503 81.4571 116.989 80.4969 117.768C78.7868 119.155 76.5799 119.24 74.7658 117.768Z" fill="#1D1D1D"/>
<path d="M137.303 59.7285C135.275 43.8622 128.492 30.2568 116.928 19.2627C100.636 3.76657 81.1632 -2.36181 58.9772 0.804855C44.0581 2.84296 30.3089 10.0248 20.0842 21.1204C4.556 37.6148 -1.83836 57.3089 1.98772 79.6673C2.30382 81.525 2.68577 83.343 3.11381 85.1213C5.6597 97.5007 9.40935 109.599 14.3089 121.244C29.5144 157.472 50.3965 175.857 65.2465 184.901L65.8134 185.246C66.6069 185.729 67.6026 185.733 68.4001 185.257L68.9738 184.914C69.9813 184.313 92.76 170.555 114.129 144.402L114.208 144.495C115.42 143.119 116.553 141.89 117.613 140.607C125.884 130.634 129.177 119.205 127.491 106.323C127.355 105.456 127.54 104.569 128.011 103.83C136.085 90.6465 139.368 75.0651 137.303 59.7285ZM67.1233 177.464C43.0934 162.007 28.8427 137.024 21.072 118.56C20.7954 117.899 20.5254 117.237 20.262 116.576C27.5059 123.802 36.6134 129.402 47.5582 133.408C48.2168 133.659 48.928 133.884 49.6392 134.129C49.5602 134.4 49.5207 134.585 49.4482 134.79C48.0126 138.432 46.5902 142.062 45.1217 145.718C43.6531 149.373 44.7661 152.99 47.8414 154.596C56.567 159.111 68.1703 157.703 75.6052 151.205C79.451 147.833 83.2705 144.422 87.1032 141.03L101.038 128.727C103.83 132.033 106.602 135.371 109.395 138.703C97.3025 153.662 83.0552 166.726 67.1233 177.464ZM124.231 94.661C121.127 87.7517 116.297 81.7727 110.216 77.3002C109.752 76.9589 109.1 77.0754 108.77 77.5472C106.693 80.5126 107.41 84.5519 109.965 87.117C116.198 93.3764 119.743 101.122 120.333 110.448C120.84 118.447 118.693 125.792 114.182 132.588L113.056 131.266C87.1203 100.699 113.671 131.986 87.6321 101.302C87.2412 100.842 85.3849 101.9 84.9578 102.327C82.392 104.893 83.3522 108.052 85.7228 110.8C92.0702 118.157 83.3322 108.029 95.3612 121.971C95.5851 122.235 95.7958 122.513 96.0922 122.883C95.5983 123.333 95.1241 123.769 94.6434 124.205C86.7147 131.226 78.7859 138.241 70.8572 145.248C65.8194 149.697 57.8445 151 52.3063 148.23C53.1558 146.048 53.9855 143.853 54.868 141.672C56.9358 136.528 59.0497 131.405 61.0977 126.248C62.2819 123.467 62.7907 120.443 62.5824 117.426C62.374 114.409 61.4543 111.485 59.8992 108.894C59.7044 108.619 59.5997 108.29 59.5997 107.952C59.5997 107.615 59.7044 107.285 59.8992 107.01C64.6933 98.6672 69.4347 90.2911 74.2354 81.9547C75.1419 80.2855 76.4853 78.8966 78.1205 77.9377C79.7557 76.9789 81.6207 76.4865 83.5142 76.5138C86.9188 76.4279 90.33 76.5138 93.7346 76.5138C103.138 76.5138 111.067 68.931 111.719 59.3253C111.989 54.7798 110.567 50.2957 107.729 46.7433C104.892 43.1909 98.04 40.1037 96.4034 39.6205C95.5472 39.3676 94.9041 39.1083 94.2 38.9556C93.7903 38.8667 93.3797 39.0854 93.2662 39.4889C93.0241 40.3492 92.9751 41.526 93.016 42.7055C93.1128 45.4926 95.4198 47.4405 97.9717 48.5652C99.5946 49.2803 101.035 50.3297 102.2 51.968C103.686 54.0589 104.376 56.6151 104.146 59.1732C103.914 61.6735 102.808 64.0107 101.024 65.7711C99.2405 67.5315 96.8939 68.6017 94.3997 68.7922C91.0412 68.9971 87.6629 68.9641 84.2978 68.898C80.3147 68.7604 76.3921 69.9047 73.1028 72.1638C72.9184 72.2894 72.7142 72.382 72.4113 72.5472C71.193 61.3879 66.1684 52.5358 57.0675 46.1033C53.0963 43.3068 48.0813 41.2674 43.3885 40.3642C39.8587 39.6849 37.0349 42.6834 37.0349 46.278C37.0349 46.7417 37.3615 47.142 37.8174 47.2272C40.4615 47.7217 43.1023 48.0411 45.5958 48.8535C62.6518 54.4398 69.9616 73.8298 61.0845 89.6565C58.3099 94.5927 55.5024 99.5112 52.6619 104.412C51.1407 107.057 51.2329 109.503 52.945 112.048C55.2038 115.406 55.8228 119.022 54.1304 122.87C53.5509 124.192 53.0702 125.514 52.5104 126.936C33.5051 121.978 13.6372 104.842 9.35671 78.5566C4.62844 49.5542 20.611 23.6061 44.6739 12.8038C56.6967 7.47651 70.1105 6.1842 82.9231 9.11876C95.7358 12.0533 107.264 19.0583 115.795 29.0932C133.352 49.9178 133.28 76.9039 124.231 94.661Z" fill="#1D1D1D"/>
</g>
<path d="M281.363 140.194C275.84 140.194 271.363 135.717 271.363 130.194V77.0433C271.363 75.9388 272.258 75.0433 273.363 75.0433C275.321 75.0433 277.614 75.0433 279.759 75.0433C283.785 75.0433 287.048 78.3072 287.048 82.3333C288.36 80.9787 288.72 80.462 290.159 79.3613C291.641 78.2607 293.186 77.3082 294.795 76.5038C296.446 75.6995 298.203 75.0857 300.065 74.6623C301.928 74.239 303.96 74.0273 306.161 74.0273C309.717 74.0273 312.871 74.6412 315.623 75.8688C318.374 77.0542 320.66 78.7475 322.481 80.9488C324.343 83.1078 325.74 85.7113 326.672 88.7593C327.645 91.765 328.132 95.0882 328.132 98.7288V138.194C328.132 139.299 327.237 140.194 326.132 140.194H322.448C316.925 140.194 312.448 135.717 312.448 130.194V98.7288C312.448 94.7495 311.516 91.6803 309.654 89.5213C307.833 87.32 305.082 86.2193 301.399 86.2193C298.689 86.2193 296.149 86.8332 293.779 88.0608C291.408 89.2885 289.164 90.9607 287.048 93.0773V138.194C287.048 139.299 286.152 140.194 285.048 140.194H281.363Z" fill="#1D1D1D"/>
<path d="M345.078 75.0414C350.601 75.0414 355.078 79.5186 355.078 85.0414V138.192C355.078 139.297 354.183 140.192 353.078 140.192H349.394C343.871 140.192 339.394 135.715 339.394 130.192V77.0414C339.394 75.9369 340.289 75.0414 341.394 75.0414H345.078ZM357.429 58.1736C357.429 59.5283 357.154 60.7983 356.604 61.9836C356.053 63.169 355.313 64.2061 354.381 65.0951C353.492 65.9841 352.434 66.7038 351.206 67.2541C349.979 67.7621 348.666 68.0161 347.269 68.0161C345.915 68.0161 344.623 67.7621 343.396 67.2541C342.21 66.7038 341.173 65.9841 340.284 65.0951C339.395 64.2061 338.676 63.169 338.125 61.9836C337.617 60.7983 337.363 59.5283 337.363 58.1736C337.363 56.7766 337.617 55.4643 338.125 54.2366C338.676 53.009 339.395 51.9506 340.284 51.0616C341.173 50.1726 342.21 49.4741 343.396 48.9661C344.623 48.4158 345.915 48.1406 347.269 48.1406C348.666 48.1406 349.979 48.4158 351.206 48.9661C352.434 49.4741 353.492 50.1726 354.381 51.0616C355.313 51.9506 356.053 53.009 356.604 54.2366C357.154 55.4643 357.429 56.7766 357.429 58.1736Z" fill="#1D1D1D"/>
<path d="M419.767 140.207C414.717 140.207 410.623 136.113 410.623 131.063C409.054 133.346 408.675 133.962 407.194 135.19C405.712 136.418 404.103 137.476 402.368 138.365C400.674 139.254 398.833 139.931 396.843 140.397C394.896 140.905 392.779 141.159 390.493 141.159C386.937 141.159 383.678 140.418 380.714 138.937C377.751 137.455 375.19 135.317 373.031 132.523C370.914 129.687 369.263 126.194 368.078 122.046C366.935 117.897 366.363 113.156 366.363 107.822C366.363 102.996 367.019 98.5082 368.332 94.3596C369.644 90.2109 371.528 86.6126 373.983 83.5646C376.439 80.5166 379.381 78.1459 382.81 76.4526C386.239 74.7169 390.091 73.8491 394.367 73.8491C398.007 73.8491 401.119 74.4417 403.701 75.6271C406.284 76.7701 408.591 78.3152 410.623 80.2626V50.1563C410.623 49.0517 411.518 48.1562 412.623 48.1562H416.307C421.83 48.1562 426.307 52.6334 426.307 58.1562V138.207C426.307 139.311 425.412 140.207 424.307 140.207H419.767ZM395.827 128.713C399.087 128.713 401.86 128.036 404.146 126.681C406.432 125.326 408.591 123.4 410.623 120.903V91.6926C408.845 89.5336 406.897 88.0096 404.781 87.1206C402.706 86.2316 400.463 85.7871 398.05 85.7871C395.679 85.7871 393.52 86.2316 391.573 87.1206C389.668 88.0096 388.038 89.3642 386.683 91.1846C385.371 92.9626 384.355 95.2486 383.635 98.0426C382.916 100.794 382.556 104.054 382.556 107.822C382.556 111.632 382.852 114.87 383.445 117.537C384.08 120.162 384.969 122.321 386.112 124.014C387.255 125.665 388.652 126.872 390.303 127.634C391.954 128.353 393.795 128.713 395.827 128.713Z" fill="#1D1D1D"/>
<path d="M467.63 74.0352C472.498 74.0352 476.901 74.8183 480.838 76.3847C484.817 77.951 488.204 80.1735 490.998 83.0522C493.792 85.9308 495.951 89.4445 497.475 93.5932C498.999 97.7418 499.761 102.377 499.761 107.5C499.761 112.664 498.999 117.321 497.475 121.47C495.951 125.618 493.792 129.153 490.998 132.074C488.204 134.995 484.817 137.239 480.838 138.805C476.901 140.371 472.498 141.155 467.63 141.155C462.762 141.155 458.338 140.371 454.359 138.805C450.379 137.239 446.971 134.995 444.135 132.074C441.341 129.153 439.161 125.618 437.595 121.47C436.071 117.321 435.309 112.664 435.309 107.5C435.309 102.377 436.071 97.7418 437.595 93.5932C439.161 89.4445 441.341 85.9308 444.135 83.0522C446.971 80.1735 450.379 77.951 454.359 76.3847C458.338 74.8183 462.762 74.0352 467.63 74.0352ZM467.63 129.09C473.049 129.09 477.049 127.269 479.632 123.629C482.256 119.988 483.569 114.654 483.569 107.627C483.569 100.599 482.256 95.2442 479.632 91.5612C477.049 87.8782 473.049 86.0367 467.63 86.0367C462.127 86.0367 458.063 87.8993 455.438 91.6247C452.813 95.3077 451.501 100.642 451.501 107.627C451.501 114.612 452.813 119.946 455.438 123.629C458.063 127.269 462.127 129.09 467.63 129.09Z" fill="#1D1D1D"/>
<path d="M222.4 126.361C225.702 126.361 228.644 125.811 231.226 124.71C233.851 123.61 236.052 122.064 237.83 120.075C239.651 118.085 241.026 115.672 241.958 112.836C242.931 109.999 243.418 106.824 243.418 103.311V50.1602C243.418 49.0556 244.314 48.1602 245.418 48.1602H250.5C256.023 48.1602 260.5 52.6373 260.5 58.1602V103.311C260.5 108.772 259.611 113.831 257.833 118.487C256.097 123.102 253.578 127.102 250.276 130.489C246.974 133.833 242.974 136.458 238.275 138.363C233.576 140.225 228.284 141.157 222.4 141.157C216.515 141.157 211.224 140.225 206.525 138.363C201.826 136.458 197.825 133.833 194.523 130.489C191.264 127.102 188.745 123.102 186.967 118.487C185.231 113.831 184.363 108.772 184.363 103.311V50.1602C184.363 49.0556 185.259 48.1602 186.363 48.1602H191.445C196.968 48.1602 201.445 52.6373 201.445 58.1602V103.247C201.445 106.761 201.91 109.936 202.842 112.772C203.815 115.609 205.191 118.043 206.969 120.075C208.747 122.064 210.927 123.61 213.51 124.71C216.134 125.811 219.098 126.361 222.4 126.361Z" fill="#1D1D1D"/>
<path d="M547.706 89.0161C547.304 90.0375 546.085 90.3906 545.113 89.879C544.399 89.5027 543.649 89.1134 543.257 88.9264C542.41 88.5031 541.415 88.0374 540.272 87.5294C539.129 86.9791 537.817 86.4922 536.335 86.0689C534.896 85.6456 533.181 85.4339 531.192 85.4339C528.101 85.4339 525.667 86.0901 523.889 87.4024C522.111 88.7147 521.222 90.4292 521.222 92.5459C521.222 93.9429 521.667 95.1282 522.556 96.1019C523.487 97.0332 524.694 97.8587 526.175 98.5784C527.699 99.2981 529.414 99.9542 531.319 100.547C533.224 101.097 535.171 101.711 537.161 102.388C539.15 103.066 541.098 103.849 543.003 104.738C544.908 105.585 546.601 106.685 548.083 108.04C549.607 109.352 550.813 110.94 551.702 112.802C552.634 114.665 553.099 116.909 553.099 119.533C553.099 122.666 552.528 125.566 551.385 128.233C550.242 130.858 548.57 133.144 546.368 135.091C544.167 136.996 541.436 138.499 538.177 139.599C534.959 140.658 531.255 141.187 527.064 141.187C524.821 141.187 522.619 140.975 520.46 140.552C518.344 140.171 516.29 139.621 514.301 138.901C513.725 138.688 513.161 138.459 512.606 138.215C506.912 135.716 507.192 129.467 509.814 124.932C510.308 124.076 511.405 123.847 512.27 124.326C513.244 124.865 514.413 125.522 514.872 125.82C515.761 126.37 516.777 126.963 517.92 127.598C519.063 128.233 520.397 128.826 521.921 129.376C523.487 129.926 525.456 130.201 527.826 130.201C529.689 130.201 531.276 129.99 532.589 129.566C533.943 129.101 535.044 128.508 535.891 127.788C536.78 127.069 537.415 126.243 537.796 125.312C538.219 124.338 538.431 123.343 538.431 122.327C538.431 120.803 537.965 119.555 537.034 118.581C536.145 117.607 534.938 116.761 533.414 116.041C531.933 115.321 530.218 114.686 528.271 114.136C526.366 113.543 524.397 112.908 522.365 112.231C520.376 111.554 518.407 110.77 516.46 109.881C514.555 108.95 512.84 107.786 511.316 106.389C509.835 104.992 508.628 103.277 507.697 101.245C506.808 99.2134 506.363 96.7581 506.363 93.8794C506.363 91.2124 506.892 88.6724 507.951 86.2594C509.009 83.8464 510.554 81.7509 512.586 79.9729C514.661 78.1526 517.222 76.7132 520.27 75.6549C523.36 74.5542 526.916 74.0039 530.938 74.0039C535.425 74.0039 539.51 74.7447 543.193 76.2264C548.924 78.5317 549.625 84.1395 547.706 89.0161Z" fill="#1D1D1D"/>
<defs>
<clipPath id="clip0_1083_2692">
<rect width="136.955" height="186" fill="white" transform="translate(0.90625)"/>
</clipPath>
</defs>
</svg>
