<svg width="250" height="250" viewBox="0 0 250 250" fill="none" xmlns="http://www.w3.org/2000/svg">
<path d="M45.825 208.265C2.08502 183 2.08502 142.065 45.825 116.81C89.565 91.555 160.49 91.555 204.235 116.81C247.98 142.065 247.975 183.01 204.235 208.265C160.495 233.52 89.57 233.5 45.825 208.265Z" fill="#F5F5F5"/>
<path d="M68.575 179.935C94.5683 179.935 115.64 167.768 115.64 152.76C115.64 137.752 94.5683 125.585 68.575 125.585C42.5817 125.585 21.51 137.752 21.51 152.76C21.51 167.768 42.5817 179.935 68.575 179.935Z" fill="#E0E0E0"/>
<path d="M178.695 185.75C207.701 185.75 231.215 172.175 231.215 155.43C231.215 138.685 207.701 125.11 178.695 125.11C149.689 125.11 126.175 138.685 126.175 155.43C126.175 172.175 149.689 185.75 178.695 185.75Z" fill="#E0E0E0"/>
<path d="M115.3 165.85L70.5899 191.665C69.4899 192.3 69.4899 193.33 70.5899 193.965L115.3 219.775C115.919 220.093 116.604 220.259 117.3 220.259C117.996 220.259 118.681 220.093 119.3 219.775L164 193.965C165.1 193.33 165.1 192.3 164 191.665L119.285 165.85C118.667 165.537 117.985 165.374 117.292 165.374C116.6 165.374 115.917 165.537 115.3 165.85Z" fill="#E0E0E0"/>
<path d="M210.255 151.42L206.33 148.21C206.33 148.21 205.495 137.075 208.09 127.595C211.745 114.27 219.245 109.295 223.84 111.565C227.1 113.17 228.25 118.17 221.34 125.335C217.23 129.56 211.545 138.82 210.255 151.42Z" fill="#7B61FF"/>
<path opacity="0.3" d="M210.255 151.42L206.33 148.21C206.33 148.21 205.495 137.075 208.09 127.595C211.745 114.27 219.245 109.295 223.84 111.565C227.1 113.17 228.25 118.17 221.34 125.335C217.23 129.56 211.545 138.82 210.255 151.42Z" fill="black"/>
<path d="M208.77 144.215H208.81C208.85 144.214 208.89 144.206 208.926 144.19C208.963 144.174 208.996 144.151 209.024 144.122C209.052 144.093 209.074 144.059 209.089 144.022C209.103 143.985 209.111 143.945 209.11 143.905C208.77 131.01 215.97 119.315 222.335 114.35C222.398 114.299 222.438 114.225 222.448 114.145C222.457 114.065 222.434 113.984 222.385 113.92C222.361 113.889 222.33 113.862 222.296 113.843C222.261 113.823 222.223 113.811 222.183 113.806C222.143 113.801 222.103 113.805 222.065 113.816C222.027 113.827 221.991 113.845 221.96 113.87C215.46 118.93 208.155 130.835 208.5 143.92C208.502 143.993 208.53 144.064 208.58 144.118C208.63 144.172 208.697 144.207 208.77 144.215Z" fill="white"/>
<path d="M218.195 161.725C220.895 160.845 221.51 159.295 221.975 157.37C222.115 156.724 222.21 156.069 222.26 155.41L222.455 153.47C222.473 152.828 222.623 152.197 222.895 151.615C223.52 150.485 224.895 150.07 226.155 149.735C227.53 149.365 229.055 148.735 229.615 147.32C229.979 146.178 229.955 144.947 229.545 143.82C229.205 142.68 228.7 141.59 228.445 140.43C228.212 139.602 228.27 138.72 228.61 137.93C228.871 137.464 229.223 137.056 229.645 136.73C230.705 135.85 231.955 135.17 232.705 133.97C232.999 133.531 233.171 133.022 233.205 132.495C233.27 130.915 231.995 130.195 230.77 129.8C229.918 129.577 229.027 129.542 228.16 129.695C225.385 130.055 223.015 132.23 220.22 132.245C219.14 132.245 218.085 131.925 217.015 131.8C215.945 131.675 214.755 131.77 213.95 132.49C212.36 133.905 213.14 136.74 211.77 138.37C210.77 139.565 209.19 139.74 207.925 140.53C206.456 141.387 205.336 142.734 204.76 144.335C204.054 146.116 203.835 148.052 204.125 149.945C204.745 153.89 207.575 156.205 210.295 158.77C211.445 159.865 215.5 162.61 218.195 161.725Z" fill="#7B61FF"/>
<path opacity="0.1" d="M218.195 161.725C220.895 160.845 221.51 159.295 221.975 157.37C222.115 156.724 222.21 156.069 222.26 155.41L222.455 153.47C222.473 152.828 222.623 152.197 222.895 151.615C223.52 150.485 224.895 150.07 226.155 149.735C227.53 149.365 229.055 148.735 229.615 147.32C229.979 146.178 229.955 144.947 229.545 143.82C229.205 142.68 228.7 141.59 228.445 140.43C228.212 139.602 228.27 138.72 228.61 137.93C228.871 137.464 229.223 137.056 229.645 136.73C230.705 135.85 231.955 135.17 232.705 133.97C232.999 133.531 233.171 133.022 233.205 132.495C233.27 130.915 231.995 130.195 230.77 129.8C229.918 129.577 229.027 129.542 228.16 129.695C225.385 130.055 223.015 132.23 220.22 132.245C219.14 132.245 218.085 131.925 217.015 131.8C215.945 131.675 214.755 131.77 213.95 132.49C212.36 133.905 213.14 136.74 211.77 138.37C210.77 139.565 209.19 139.74 207.925 140.53C206.456 141.387 205.336 142.734 204.76 144.335C204.054 146.116 203.835 148.052 204.125 149.945C204.745 153.89 207.575 156.205 210.295 158.77C211.445 159.865 215.5 162.61 218.195 161.725Z" fill="black"/>
<path d="M229.22 131.875C229.206 131.837 229.184 131.803 229.156 131.774C229.129 131.745 229.096 131.722 229.059 131.705C229.022 131.689 228.983 131.68 228.942 131.679C228.902 131.678 228.862 131.685 228.825 131.7C225.645 132.95 220.71 137.11 216.37 142.7C216.336 142.718 216.306 142.742 216.281 142.773C216.257 142.803 216.24 142.838 216.23 142.875C213.139 146.799 210.685 151.187 208.96 155.875C208.934 155.949 208.937 156.031 208.97 156.103C209.003 156.174 209.062 156.231 209.135 156.26V156.26C209.211 156.286 209.295 156.281 209.368 156.246C209.44 156.212 209.497 156.15 209.525 156.075C211.224 151.463 213.633 147.144 216.665 143.275C219.558 143.613 222.407 144.255 225.165 145.19C225.203 145.203 225.243 145.209 225.284 145.207C225.324 145.204 225.363 145.194 225.4 145.176C225.436 145.159 225.468 145.134 225.495 145.104C225.522 145.073 225.542 145.038 225.555 145C225.569 144.962 225.575 144.922 225.573 144.882C225.571 144.842 225.561 144.803 225.543 144.766C225.525 144.73 225.5 144.698 225.47 144.672C225.439 144.646 225.403 144.627 225.365 144.615C222.685 143.706 219.922 143.068 217.115 142.71C221.31 137.405 226 133.475 229.045 132.28C229.083 132.265 229.118 132.243 229.148 132.214C229.177 132.186 229.201 132.152 229.217 132.114C229.233 132.076 229.242 132.036 229.243 131.995C229.243 131.954 229.235 131.913 229.22 131.875V131.875Z" fill="white"/>
<path d="M48.4051 148.345C48.7301 141.345 49.4851 134.775 46.2601 124.685C43.5501 116.225 35.5002 107.62 30.2952 107.805C25.4602 107.98 22.5802 113.305 28.3602 119.305C29.5852 120.575 41.4451 130.805 41.9951 142.425L43.2652 149.14C43.304 149.327 43.3852 149.502 43.5024 149.652C43.6195 149.802 43.7697 149.923 43.9411 150.007C44.1126 150.09 44.3009 150.132 44.4914 150.131C44.6819 150.13 44.8697 150.085 45.0402 150L48.4051 148.345Z" fill="#7B61FF"/>
<path opacity="0.3" d="M48.4051 148.345C48.7301 141.345 49.4851 134.775 46.2601 124.685C43.5501 116.225 35.5002 107.62 30.2952 107.805C25.4602 107.98 22.5802 113.305 28.3602 119.305C29.5852 120.575 41.4451 130.805 41.9951 142.425L43.2652 149.14C43.304 149.327 43.3852 149.502 43.5024 149.652C43.6195 149.802 43.7697 149.923 43.9411 150.007C44.1126 150.09 44.3009 150.132 44.4914 150.131C44.6819 150.13 44.8697 150.085 45.0402 150L48.4051 148.345Z" fill="black"/>
<path d="M46.5001 147.87C46.4353 147.852 46.378 147.813 46.3366 147.76C46.2952 147.707 46.2719 147.642 46.2701 147.575C46.0401 129.78 39.6551 117.315 30.0751 111.625C30.0356 111.607 30.0004 111.581 29.9717 111.548C29.943 111.515 29.9215 111.477 29.9086 111.435C29.8956 111.394 29.8916 111.35 29.8967 111.307C29.9017 111.264 29.9158 111.222 29.938 111.185C29.9603 111.148 29.9901 111.115 30.0256 111.09C30.0611 111.065 30.1014 111.048 30.1441 111.039C30.1867 111.031 30.2306 111.031 30.273 111.041C30.3154 111.051 30.3553 111.069 30.3901 111.095C40.0951 116.855 46.6551 129.55 46.8901 147.565C46.8915 147.606 46.8846 147.647 46.8699 147.685C46.8551 147.723 46.8329 147.758 46.8044 147.787C46.776 147.817 46.7419 147.84 46.7042 147.856C46.6665 147.872 46.626 147.88 46.5851 147.88C46.5564 147.882 46.5277 147.878 46.5001 147.87V147.87Z" fill="white"/>
<path d="M44.2601 150.38C43.9769 150.526 43.666 150.61 43.348 150.627C43.0299 150.644 42.7118 150.594 42.4147 150.479C42.1175 150.364 41.8481 150.188 41.6241 149.961C41.4001 149.735 41.2266 149.463 41.1151 149.165C39.7974 145.997 37.8633 143.123 35.4251 140.71C31.0001 136.185 24.8401 133.305 23.8801 130.27C22.7301 126.62 25.9801 124.8 31.2151 126.105C37.5001 127.67 44.2901 135.155 45.0001 150L44.2601 150.38Z" fill="#7B61FF"/>
<path opacity="0.1" d="M44.2601 150.38C43.9769 150.526 43.666 150.61 43.348 150.627C43.0299 150.644 42.7118 150.594 42.4147 150.479C42.1175 150.364 41.8481 150.188 41.6241 149.961C41.4001 149.735 41.2266 149.463 41.1151 149.165C39.7974 145.997 37.8633 143.123 35.4251 140.71C31.0001 136.185 24.8401 133.305 23.8801 130.27C22.7301 126.62 25.9801 124.8 31.2151 126.105C37.5001 127.67 44.2901 135.155 45.0001 150L44.2601 150.38Z" fill="black"/>
<path d="M43.2499 149.43C43.1923 149.413 43.1406 149.38 43.1008 149.335C43.061 149.29 43.0347 149.234 43.0249 149.175C41.0249 136.15 32.5699 130.075 28.3749 128.675C28.2976 128.649 28.2338 128.593 28.1973 128.52C28.1608 128.447 28.1545 128.363 28.1799 128.285C28.1918 128.246 28.2115 128.21 28.2377 128.178C28.2639 128.147 28.2962 128.121 28.3326 128.102C28.3689 128.084 28.4087 128.073 28.4495 128.07C28.4903 128.067 28.5312 128.072 28.5699 128.085C33.2099 129.63 41.6049 135.785 43.6399 149.085C43.6463 149.125 43.6447 149.167 43.635 149.206C43.6254 149.246 43.608 149.284 43.5838 149.317C43.5597 149.35 43.5292 149.378 43.4942 149.399C43.4592 149.42 43.4204 149.434 43.3799 149.44C43.3364 149.444 43.2924 149.441 43.2499 149.43V149.43Z" fill="white"/>
<path d="M208.925 132.655C211.12 139.21 213.005 147.655 215.975 160.425C218.755 172.375 218.77 180.815 214.91 183.71C211.15 186.525 199.96 184.84 192.95 169.91C190.755 165.245 181.89 150.015 181.89 150.015C179.662 149.531 177.503 148.768 175.465 147.745L151.275 148.935C141.375 146.91 124.73 144.55 125.985 140.935C127.315 137.075 132.765 134.015 138.205 132.11C150.1 127.95 158.645 126.995 170.77 126.215L208.925 132.655Z" fill="#37474F"/>
<path d="M174.84 143.5C171.6 138.365 171.545 135.38 171.545 135.38C171.545 135.38 170.865 141.75 173.98 146.175L152.695 148.85L175.465 147.73C177.501 148.753 179.658 149.516 181.885 150C181.885 150 178.085 148.65 174.84 143.5Z" fill="#263238"/>
<path d="M169.285 161.55C170.95 162.805 172.99 163.955 174.84 164.205C175.511 164.297 176.194 164.239 176.84 164.035C179.08 163.36 182.735 163.035 184.415 167.48C186.32 172.515 192.305 174.48 194.16 177.855C195.085 179.56 195.935 184.64 195.46 187.855C195.065 190.49 189.905 189.01 187.78 186.03C185.655 183.05 181.305 179.25 178.5 177.085C174.035 175.085 169 171.97 166.86 170.735L169.285 161.55Z" fill="#874C4C"/>
<path d="M136.435 135.2C123.435 137.23 123.935 144.915 127.655 149.875C131.68 155.22 145.265 161.72 152.585 165.115C159.315 168.24 171.495 173.455 171.495 173.455C171.42 170.063 172.612 166.765 174.84 164.205C167.15 159.79 159.075 145.91 146.815 144.975L136.435 135.2Z" fill="#37474F"/>
<path d="M193.61 189.61C194.374 189.657 195.127 189.41 195.715 188.92C196.265 188.455 197.215 184.695 195.765 180.365C194.666 177.157 192.729 174.302 190.155 172.095C188.595 170.71 187.92 169.015 187.215 166.865C186.51 164.715 184.66 162.135 183.51 161.93C182.36 161.725 180.75 162.74 180.75 162.74L193.61 189.61Z" fill="#263238"/>
<path d="M174.965 175.5C175.365 176.875 176.55 177.13 177.84 177.5C179.59 178.025 181.34 179.63 183.06 181.45C184.215 182.68 185.195 183.95 186.255 185.245C187.315 186.54 188.295 188.48 189.41 189.455C191.04 190.875 194.03 190.32 194.66 188.04C195.205 186.075 195.1 181.315 192.52 176.975C191.115 174.61 187.63 172.475 186.475 169.21C185.7 167.01 184.68 164.395 182.87 162.835C181.8 161.91 180.92 162.235 179.72 162.69C178.126 163.292 176.496 163.793 174.84 164.19C174.998 165.583 175.538 166.905 176.4 168.01C176.728 168.355 176.98 168.766 177.14 169.215C177.197 169.534 177.197 169.861 177.14 170.18C177.085 170.62 176.97 171.15 176.55 171.305C176.376 171.348 176.198 171.378 176.02 171.395C175.355 171.545 175.1 172.34 174.985 173.015C174.826 173.739 174.799 174.486 174.905 175.22C174.919 175.314 174.939 175.408 174.965 175.5V175.5Z" fill="#7B61FF"/>
<path opacity="0.4" d="M174.965 175.5C175.365 176.875 176.55 177.13 177.84 177.5C179.59 178.025 181.34 179.63 183.06 181.45C184.215 182.68 185.195 183.95 186.255 185.245C187.315 186.54 188.295 188.48 189.41 189.455C191.04 190.875 194.03 190.32 194.66 188.04C195.205 186.075 195.1 181.315 192.52 176.975C191.115 174.61 187.63 172.475 186.475 169.21C185.7 167.01 184.68 164.395 182.87 162.835C181.8 161.91 180.92 162.235 179.72 162.69C178.126 163.292 176.496 163.793 174.84 164.19C174.998 165.583 175.538 166.905 176.4 168.01C176.728 168.355 176.98 168.766 177.14 169.215C177.197 169.534 177.197 169.861 177.14 170.18C177.085 170.62 176.97 171.15 176.55 171.305C176.376 171.348 176.198 171.378 176.02 171.395C175.355 171.545 175.1 172.34 174.985 173.015C174.826 173.739 174.799 174.486 174.905 175.22C174.919 175.314 174.939 175.408 174.965 175.5V175.5Z" fill="black"/>
<path d="M181.37 179.8C181.036 179.724 180.726 179.566 180.468 179.34C180.21 179.114 180.013 178.827 179.895 178.505C179.455 177.58 179.715 175.675 180.31 174.375C180.365 174.252 180.45 174.145 180.556 174.062C180.663 173.98 180.788 173.924 180.92 173.901C181.053 173.878 181.189 173.888 181.317 173.929C181.445 173.971 181.561 174.043 181.655 174.14V174.14C181.772 174.262 181.848 174.418 181.873 174.585C181.898 174.753 181.871 174.924 181.795 175.075C181.044 176.535 180.892 178.23 181.37 179.8V179.8Z" fill="#F5F5F5"/>
<path d="M183.855 182.36C183.5 182.229 183.182 182.014 182.928 181.733C182.674 181.453 182.491 181.116 182.395 180.75C182.395 180.75 181.795 178.195 182.84 176.25C182.895 176.132 182.977 176.03 183.079 175.951C183.182 175.872 183.302 175.819 183.43 175.796C183.558 175.773 183.689 175.782 183.813 175.821C183.936 175.86 184.048 175.928 184.14 176.02V176.02C184.254 176.137 184.328 176.287 184.351 176.449C184.374 176.611 184.346 176.775 184.27 176.92C183.8 177.739 183.519 178.652 183.447 179.593C183.375 180.534 183.515 181.48 183.855 182.36Z" fill="#F5F5F5"/>
<path d="M186.255 185.28C185.916 185.111 185.617 184.87 185.379 184.575C185.141 184.28 184.969 183.937 184.875 183.57C184.875 183.57 184.335 181.185 185.375 179.225C185.43 179.107 185.512 179.005 185.614 178.926C185.717 178.847 185.837 178.794 185.965 178.771C186.093 178.748 186.224 178.757 186.347 178.796C186.471 178.835 186.583 178.903 186.675 178.995V178.995C186.787 179.114 186.86 179.265 186.883 179.427C186.906 179.589 186.879 179.754 186.805 179.9C186.299 180.691 185.985 181.59 185.889 182.525C185.794 183.459 185.919 184.403 186.255 185.28V185.28Z" fill="#F5F5F5"/>
<path d="M170.375 158.83C168.045 158.24 164.625 157.405 163.21 155.54C161.795 153.675 158.865 151.875 154.9 154.485C152.4 156.135 149.4 156.68 146.435 156.875C145.155 156.96 143.715 156.8 142.465 157.06C140.965 157.375 139.37 158.295 138.075 159.095C137.227 159.57 136.484 160.211 135.89 160.98C135.406 161.701 135.14 162.547 135.126 163.416C135.112 164.284 135.349 165.138 135.81 165.875C135.987 166.172 136.227 166.427 136.514 166.62C136.801 166.813 137.128 166.939 137.47 166.99C138.84 167.29 139.97 166.86 141.28 166.49C142.35 166.195 143.445 165.965 144.545 165.765C147.022 165.301 149.528 165.009 152.045 164.89C153.12 164.845 155.345 164.68 156.42 164.755C160.92 165.065 167.25 167.585 167.25 167.585L170.375 158.83Z" fill="#9E6767"/>
<path d="M217 180.31C216.26 184.84 211.175 187.025 200.27 184.845C189.365 182.665 163.415 166.345 163.415 166.345C163.415 166.345 164.415 160.08 170.415 158.395C170.415 158.395 175.84 159.395 184.695 161.305C188.684 162.182 192.624 163.267 196.5 164.555C202.5 172.59 208.71 169.345 210.955 172.17C214.685 176.89 217 180.31 217 180.31Z" fill="#37474F"/>
<path d="M134.68 166.125C134.034 165.712 133.571 165.068 133.385 164.325C133.215 163.625 134.65 160.015 138.385 157.39C141.167 155.448 144.418 154.286 147.8 154.025C149.875 153.825 151.42 152.855 153.26 151.525C155.1 150.195 158.115 149.22 159.165 149.73C160.215 150.24 160.915 152.015 160.915 152.015L134.68 166.125Z" fill="#263238"/>
<path d="M158.045 165.75C156.91 166.625 155.8 166.135 154.545 165.685C152.82 165.07 150.45 165.33 148 165.79C146.34 166.105 144.81 166.54 143.18 166.965C141.55 167.39 139.62 168.38 138.145 168.505C135.995 168.69 133.91 166.48 134.745 164.265C135.465 162.355 138.36 158.575 143.005 156.595C145.535 155.515 149.595 155.865 152.465 153.895C154.39 152.575 156.755 151.07 159.14 150.895C160.55 150.78 161.07 151.56 161.77 152.635C162.704 154.057 163.727 155.419 164.835 156.71C163.888 157.738 162.678 158.486 161.335 158.875C160.865 158.958 160.419 159.141 160.025 159.41C159.792 159.635 159.601 159.899 159.46 160.19C159.245 160.58 159.025 161.07 159.27 161.445C159.388 161.582 159.515 161.711 159.65 161.83C160.1 162.33 159.83 163.14 159.53 163.75C159.228 164.427 158.81 165.046 158.295 165.58C158.195 165.63 158.12 165.695 158.045 165.75Z" fill="#7B61FF"/>
<path opacity="0.4" d="M158.045 165.75C156.91 166.625 155.8 166.135 154.545 165.685C152.82 165.07 150.45 165.33 148 165.79C146.34 166.105 144.81 166.54 143.18 166.965C141.55 167.39 139.62 168.38 138.145 168.505C135.995 168.69 133.91 166.48 134.745 164.265C135.465 162.355 138.36 158.575 143.005 156.595C145.535 155.515 149.595 155.865 152.465 153.895C154.39 152.575 156.755 151.07 159.14 150.895C160.55 150.78 161.07 151.56 161.77 152.635C162.704 154.057 163.727 155.419 164.835 156.71C163.888 157.738 162.678 158.486 161.335 158.875C160.865 158.958 160.419 159.141 160.025 159.41C159.792 159.635 159.601 159.899 159.46 160.19C159.245 160.58 159.025 161.07 159.27 161.445C159.388 161.582 159.515 161.711 159.65 161.83C160.1 162.33 159.83 163.14 159.53 163.75C159.228 164.427 158.81 165.046 158.295 165.58C158.195 165.63 158.12 165.695 158.045 165.75Z" fill="black"/>
<path d="M150.35 165.43C150.665 165.567 151.008 165.622 151.35 165.592C151.691 165.561 152.02 165.445 152.305 165.255C153.205 164.755 154.12 163.075 154.405 161.675C154.436 161.542 154.434 161.404 154.398 161.272C154.362 161.141 154.295 161.02 154.201 160.921C154.108 160.822 153.991 160.748 153.862 160.705C153.732 160.662 153.594 160.652 153.46 160.675C153.292 160.705 153.138 160.785 153.018 160.906C152.898 161.027 152.818 161.182 152.79 161.35C152.541 162.976 151.665 164.441 150.35 165.43Z" fill="#F5F5F5"/>
<path d="M146.83 166.03C147.194 166.132 147.578 166.146 147.949 166.069C148.319 165.993 148.666 165.828 148.96 165.59C148.96 165.59 150.96 163.88 151.265 161.685C151.291 161.558 151.285 161.427 151.249 161.303C151.213 161.178 151.148 161.064 151.059 160.971C150.969 160.877 150.859 160.806 150.736 160.764C150.614 160.722 150.483 160.711 150.355 160.73V160.73C150.194 160.758 150.046 160.836 149.931 160.953C149.816 161.069 149.741 161.219 149.715 161.38C149.613 162.322 149.301 163.228 148.801 164.033C148.302 164.838 147.628 165.52 146.83 166.03V166.03Z" fill="#F5F5F5"/>
<path d="M143.17 166.965C143.544 167.03 143.927 167.013 144.293 166.917C144.66 166.82 145.002 166.645 145.295 166.405C145.295 166.405 147.14 164.8 147.45 162.6C147.476 162.473 147.47 162.342 147.434 162.218C147.398 162.093 147.333 161.979 147.244 161.886C147.154 161.792 147.044 161.721 146.921 161.679C146.799 161.637 146.668 161.626 146.54 161.645C146.379 161.673 146.231 161.751 146.116 161.867C146.001 161.984 145.926 162.133 145.9 162.295C145.84 163.232 145.561 164.142 145.087 164.953C144.614 165.764 143.957 166.453 143.17 166.965V166.965Z" fill="#F5F5F5"/>
<path d="M188.95 162.315C188.95 162.315 196.275 163.745 201.705 167.405C201.705 167.405 196.125 160.87 187.5 159.695L188.95 162.315Z" fill="#263238"/>
<path d="M146.815 145C151.655 145.33 155.315 147.795 156.28 148.385L156.78 148.69L159.705 148.545C158.319 147.358 156.748 146.406 155.055 145.725C152.453 144.621 149.569 144.367 146.815 145V145Z" fill="#263238"/>
<path d="M155.965 121.82C161.575 122.9 164.825 122.89 167.5 116.865C171 108.95 176.5 96.175 176.5 96.175L179.27 74.53C173.66 73.735 168.65 76.84 165.395 84.53C162.055 92.42 155.635 108.615 155.635 108.615C151.57 108.28 147.475 108.335 143.405 108.045C141.525 107.91 139.805 107.74 138.24 106.575C137.251 105.748 136.214 104.98 135.135 104.275C134.413 103.83 133.651 103.452 132.86 103.145C132.164 102.841 131.512 102.442 130.925 101.96C130.753 101.811 130.541 101.717 130.315 101.69C129.895 101.69 129.6 102.125 129.515 102.54C129.408 103.122 129.489 103.722 129.745 104.255C130 104.785 130.349 105.265 130.775 105.67C130.915 105.81 131.07 106.03 130.945 106.17C130.892 106.214 130.829 106.244 130.761 106.255C130.694 106.266 130.624 106.259 130.56 106.235C129.104 105.948 127.666 105.574 126.255 105.115C125.602 104.892 124.891 104.917 124.255 105.185C123.18 105.685 122.96 107.14 123.12 108.32C124.165 116.165 132.94 116.895 139.065 118.225C143.52 119.195 147.975 120.165 152.44 121.095C153.6 121.35 154.78 121.595 155.965 121.82Z" fill="#874C4C"/>
<path d="M180.5 74.135C176.5 74.235 172.08 73.665 168.04 79.135C164 84.605 158.405 101.635 158.405 101.635C158.405 101.635 168.805 102.59 171.175 108.275L180.375 90.57L180.5 74.135Z" fill="#7B61FF"/>
<path d="M194.59 74.26C202.515 75.725 207.8 77.435 209.295 78.885C212.665 85.785 208.295 108.935 208.295 108.935L208.44 122.31L208.94 132.655C200.375 139.89 172.72 136.77 168.045 126.63C168.045 126.63 166.85 100.85 168.045 91.005C169.315 80.545 174.045 74.445 183.005 73.92L194.59 74.26Z" fill="#E0E0E0"/>
<path d="M175.07 60.765C181.024 60.765 185.85 55.9386 185.85 49.985C185.85 44.0314 181.024 39.205 175.07 39.205C169.116 39.205 164.29 44.0314 164.29 49.985C164.29 55.9386 169.116 60.765 175.07 60.765Z" fill="#263238"/>
<path d="M196.42 55.135C196.42 55.135 195.55 63.96 194.97 65.46C194.574 66.3869 193.839 67.1275 192.915 67.53L192.37 61.45L196.42 55.135Z" fill="#263238"/>
<path d="M192.74 43.045C193.373 42.8983 194.032 42.8982 194.665 43.0446C195.299 43.191 195.89 43.4802 196.395 43.89C198.08 45.265 197.775 50.19 196.395 55.135L193 55.92L192.74 43.045Z" fill="#263238"/>
<path d="M192 56.035C192.735 56.375 193.575 54.93 194.33 53.94C195.085 52.95 197.74 51.44 199.46 54.195C201.18 56.95 198.93 61.12 196.885 62.195C196.573 62.3812 196.228 62.5032 195.868 62.5536C195.509 62.6041 195.143 62.5821 194.792 62.4889C194.441 62.3957 194.112 62.2332 193.825 62.011C193.538 61.7888 193.298 61.5113 193.12 61.195L194.42 75.145C191.255 82.76 176.46 83.95 181.205 75.485L180.82 71.95C179.077 72.3762 177.294 72.6126 175.5 72.655C173.69 72.63 171.36 71.155 169.705 67.785C167.5 63.25 166.5 58.75 166.595 49.105C166.69 38.53 179.175 37.565 186.19 40.96C193.205 44.355 192 56.035 192 56.035Z" fill="#9E6767"/>
<path d="M191.535 37.405C189.129 36.6767 186.648 36.2222 184.14 36.05C178.72 35.49 173.21 35.05 168.105 33.13C167.501 32.8268 166.821 32.7102 166.15 32.795C164.895 33.105 164.51 34.71 164.6 36C164.683 37.2069 164.972 38.3908 165.455 39.5C164.68 38.76 163.29 39.03 162.615 39.86C162.304 40.2993 162.098 40.8036 162.011 41.3347C161.924 41.8658 161.96 42.4097 162.115 42.925C163.685 49.26 169.905 49.87 174.9 49.28C176.63 49.075 180.26 48.345 181.82 46.435C182.375 47.7198 183.294 48.8143 184.463 49.5837C185.632 50.353 187 50.7637 188.4 50.765C188.532 52.4722 188.854 54.1593 189.36 55.795C189.595 56.545 189.975 57.385 190.735 57.585C191.035 57.639 191.344 57.6097 191.629 57.5004C191.914 57.3911 192.163 57.2059 192.35 56.965C193.095 56.11 193.475 54.965 194.225 54.07C195.18 52.935 195.4 45.14 195.43 43.7C195.441 43.5869 195.481 43.4785 195.545 43.385C196.545 41.565 194.83 38.885 193.24 38.12C192.687 37.8466 192.118 37.6078 191.535 37.405V37.405Z" fill="#263238"/>
<path d="M194.895 43.555C195.135 43.7989 195.421 43.9918 195.738 44.1222C196.054 44.2527 196.393 44.3179 196.735 44.3139C197.077 44.31 197.415 44.237 197.728 44.0994C198.041 43.9618 198.323 43.7623 198.558 43.513C198.792 43.2636 198.973 42.9696 199.091 42.6484C199.209 42.3273 199.26 41.9856 199.243 41.644C199.225 41.3024 199.139 40.9679 198.989 40.6604C198.839 40.353 198.628 40.0791 198.37 39.855L194.895 43.555Z" fill="#263238"/>
<path d="M180.795 72C180.795 72 186.07 70.4 188.115 69C189.48 68.065 190.505 65.425 190.76 64.525C190.824 66.3373 190.349 68.1278 189.395 69.67C187.98 71.845 181.05 74.3 181.05 74.3L180.795 72Z" fill="#874C4C"/>
<path d="M179.85 56.365C179.866 56.5487 179.919 56.7273 180.004 56.8907C180.09 57.0541 180.207 57.1989 180.349 57.3169C180.49 57.4349 180.654 57.5238 180.83 57.5784C181.006 57.6329 181.191 57.6522 181.375 57.635C181.661 57.6152 181.934 57.5103 182.16 57.3339C182.385 57.1574 182.553 56.9174 182.641 56.6448C182.729 56.3722 182.734 56.0795 182.654 55.8043C182.575 55.5291 182.414 55.2841 182.194 55.1007C181.974 54.9174 181.704 54.8042 181.419 54.7756C181.134 54.747 180.847 54.8044 180.595 54.9404C180.342 55.0764 180.137 55.2848 180.004 55.5386C179.871 55.7925 179.818 56.0803 179.85 56.365V56.365Z" fill="#263238"/>
<path d="M183.73 52.285L180.925 51.065C180.77 51.4486 180.769 51.8771 180.922 52.2616C181.074 52.6461 181.369 52.9571 181.745 53.13C181.93 53.2084 182.13 53.2487 182.331 53.2485C182.532 53.2482 182.732 53.2075 182.917 53.1286C183.102 53.0498 183.27 52.9344 183.409 52.7895C183.549 52.6446 183.658 52.473 183.73 52.285V52.285Z" fill="#263238"/>
<path d="M182.54 63.5L178.18 65.715C178.313 66.0095 178.504 66.2742 178.741 66.4931C178.979 66.712 179.259 66.8807 179.563 66.989C179.867 67.0974 180.191 67.1431 180.513 67.1235C180.836 67.1039 181.151 67.0194 181.44 66.875C182.026 66.5656 182.468 66.0403 182.674 65.4103C182.879 64.7804 182.831 64.0952 182.54 63.5V63.5Z" fill="#874C4C"/>
<path d="M182.595 64.5C182.003 64.5013 181.436 64.7374 181.018 65.1564C180.6 65.5754 180.365 66.1431 180.365 66.735C180.366 66.8676 180.379 66.9999 180.405 67.13C180.765 67.1258 181.119 67.0385 181.44 66.875C181.868 66.6542 182.223 66.3145 182.462 65.8967C182.702 65.4789 182.816 65.0009 182.79 64.52C182.725 64.53 182.665 64.5 182.595 64.5Z" fill="#F28F8F"/>
<path d="M170.38 51.64L167.845 53.4C167.953 53.5692 168.094 53.7149 168.26 53.8285C168.425 53.9421 168.612 54.0213 168.809 54.0614C169.006 54.1015 169.209 54.1017 169.405 54.0619C169.602 54.0222 169.789 53.9433 169.955 53.83C170.293 53.5889 170.525 53.2273 170.604 52.8198C170.684 52.4123 170.603 51.99 170.38 51.64V51.64Z" fill="#263238"/>
<path d="M169.795 57.155C169.836 57.4223 169.954 57.6718 170.136 57.8723C170.317 58.0729 170.553 58.2158 170.815 58.2833C171.077 58.3507 171.353 58.3398 171.609 58.2517C171.864 58.1637 172.088 58.0025 172.253 57.7881C172.418 57.5738 172.516 57.3157 172.536 57.046C172.555 56.7763 172.495 56.5068 172.363 56.271C172.23 56.0353 172.031 55.8436 171.791 55.7199C171.55 55.5961 171.279 55.5457 171.01 55.575C170.826 55.5984 170.649 55.6579 170.488 55.7501C170.328 55.8423 170.187 55.9654 170.074 56.1122C169.961 56.2591 169.878 56.4268 169.83 56.6058C169.783 56.7847 169.771 56.9714 169.795 57.155V57.155Z" fill="#263238"/>
<path d="M176.05 56.51L176.475 64.04L172.42 63.145L176.05 56.51Z" fill="#874C4C"/>
<path d="M209.295 78.885C214.07 81.96 215.87 87.53 213.565 95.73C211.035 104.73 206.29 115.965 201.145 123.685C199.07 126.795 197.945 127.685 188.6 126.185C183.87 125.42 179.155 124.405 174.475 123.38C168.87 122.15 162.32 120.52 157.835 118.38C156.33 117.681 154.972 116.7 153.835 115.49C153.454 115.091 153.157 114.619 152.963 114.102C152.769 113.585 152.682 113.035 152.707 112.483C152.731 111.932 152.868 111.391 153.107 110.894C153.347 110.397 153.684 109.953 154.1 109.59C158.76 105.15 160.04 109.055 163.43 110.175C163.43 110.175 165.43 110.175 166.385 110.305C167.25 110.41 167.31 110.265 168.035 110.735C169.5 111.68 170.445 112.46 171.335 112.59C177.28 113.465 191.06 114.355 191.06 114.355L199.82 93.16C199.82 93.16 204.735 78.085 209.295 78.885Z" fill="#9E6767"/>
<path d="M169.54 111.745C169.38 111.69 168.64 110.16 168.42 109.85C167.923 109.118 167.368 108.428 166.76 107.785C166.184 107.169 165.495 106.67 164.73 106.315C163.615 105.87 162.365 105.635 161.23 105.315C161.071 105.251 160.896 105.24 160.73 105.285C160.641 105.325 160.565 105.391 160.513 105.473C160.46 105.556 160.433 105.652 160.435 105.75C160.438 105.945 160.486 106.137 160.575 106.31C160.876 106.97 161.33 107.547 161.9 107.995C162.335 108.345 163.66 109.78 164.03 110.205C164 110.19 169.54 112.125 169.54 111.745Z" fill="#9E6767"/>
<path d="M206.84 77.5C210.47 78.4 213.605 79.56 214.775 84.555C215.945 89.55 215.5 92.155 211.035 103.68C208.32 110.68 206.155 114.9 206.155 114.9C206.155 114.9 203.555 108.3 193.605 107.57L200.06 88.19C200.06 88.19 203.81 79.73 206.84 77.5Z" fill="#7B61FF"/>
<path d="M72.69 162.685C72.69 162.685 56.325 156.685 54.305 155.055C52.615 153.685 53.63 150.405 51.305 149.845C48.61 149.2 46.685 150.645 44.955 152.235C43.315 153.735 41.175 154.42 37.14 153.025C33.105 151.63 29.21 149.645 27.575 150.435C25.94 151.225 27 152.5 34.075 155.75C38.13 157.62 43.295 159.8 46.605 161.105C48.9937 161.993 51.247 163.21 53.3 164.72C57.615 167.72 58.41 168.385 63.515 171.445C73.72 177.56 79.725 179.17 87.845 177.63L72.69 162.685Z" fill="#FFA8A7"/>
<path d="M57.3699 156.65C54.1149 158.525 52.5449 160.59 52.3699 164.195C52.3699 164.195 54.5649 165.895 58.0399 168.3C62.1999 171.18 72.2699 177.735 78.9949 178.42C89.4249 179.48 92.7299 176.34 92.7299 176.34L57.3699 156.65Z" fill="#455A64"/>
<path d="M54.3499 158.97C59.6899 167.97 72.7349 173.555 76.8499 173.97C75.4049 172.785 73.2799 168.75 71.2649 164.375L57.3699 156.65C56.2484 157.261 55.2295 158.044 54.3499 158.97V158.97Z" fill="#37474F"/>
<path d="M23.7399 149.685C23.6595 149.365 23.6524 149.031 23.7191 148.708C23.7857 148.386 23.9244 148.082 24.1249 147.82C25.5649 146.115 27.4049 145.215 28.6599 144.58C30.1827 143.872 31.8592 143.559 33.5349 143.67C36.7349 143.86 39.4849 146.245 42.6849 146.43C45.0699 146.57 47.2399 145.355 49.5649 144.79C50.2975 144.613 51.0527 144.547 51.8049 144.595C52.4449 144.635 53.4549 145.095 53.6849 145.62C54.0026 146.258 54.0651 146.993 53.8599 147.675C53.7149 148.105 52.8299 148.925 52.1899 149.375C51.3199 149.995 50.2299 150.17 48.9299 150.555C45.6499 151.5 30.9699 151.865 23.7399 149.685Z" fill="#37474F"/>
<path d="M54.38 154.16C54.38 154.45 54.43 154.73 54.46 155.025C54.505 155.42 54.29 155.525 53.96 155.77C52.615 156.695 50.915 156.605 49.38 156.34C48.185 156.13 46.97 155.795 45.775 156.025C44.355 156.305 43.22 157.345 42.16 158.335C41.9279 158.553 41.7336 158.808 41.585 159.09C41.585 159.09 33.33 155.565 29.585 153.59C27.685 152.59 25.49 151.65 23.995 150.06C23.91 149.975 24.36 149.415 24.405 149.36C24.9101 148.817 25.5729 148.446 26.3 148.3C27.4841 147.992 28.7154 147.909 29.93 148.055C31.775 148.33 33.57 148.815 35.4 149.175C37.0412 149.497 38.6986 149.731 40.365 149.875C42.1806 150.035 44.0052 150.065 45.825 149.965C47.5314 149.926 49.2154 149.568 50.79 148.91C51.4042 148.643 51.9781 148.291 52.495 147.865C52.7944 147.564 53.0563 147.229 53.275 146.865C53.53 146.5 53.685 145.865 53.945 146.405C54.575 147.645 54.705 149.555 54.615 150.945C54.555 151.9 54.43 152.85 54.395 153.81C54.375 153.925 54.375 154.04 54.38 154.16Z" fill="#FFC800"/>
<path opacity="0.2" d="M54.38 154.16C54.38 154.45 54.43 154.73 54.46 155.025C54.505 155.42 54.29 155.525 53.96 155.77C52.615 156.695 50.915 156.605 49.38 156.34C48.185 156.13 46.97 155.795 45.775 156.025C44.355 156.305 43.22 157.345 42.16 158.335C41.9279 158.553 41.7336 158.808 41.585 159.09C41.585 159.09 33.33 155.565 29.585 153.59C27.685 152.59 25.49 151.65 23.995 150.06C23.91 149.975 24.36 149.415 24.405 149.36C24.9101 148.817 25.5729 148.446 26.3 148.3C27.4841 147.992 28.7154 147.909 29.93 148.055C31.775 148.33 33.57 148.815 35.4 149.175C37.0412 149.497 38.6986 149.731 40.365 149.875C42.1806 150.035 44.0052 150.065 45.825 149.965C47.5314 149.926 49.2154 149.568 50.79 148.91C51.4042 148.643 51.9781 148.291 52.495 147.865C52.7944 147.564 53.0563 147.229 53.275 146.865C53.53 146.5 53.685 145.865 53.945 146.405C54.575 147.645 54.705 149.555 54.615 150.945C54.555 151.9 54.43 152.85 54.395 153.81C54.375 153.925 54.375 154.04 54.38 154.16Z" fill="black"/>
<path d="M32.8798 148.585C31.3398 150.7 31.3498 154.445 31.3498 154.445C31.3498 154.445 28.6998 153.335 26.0948 151.88C23.5948 150.485 23.7398 149.685 23.7398 149.685C23.8654 149.252 24.1201 148.869 24.4698 148.585C25.4162 147.826 26.6222 147.467 27.8298 147.585C29.5471 147.715 31.2426 148.051 32.8798 148.585Z" fill="#FAFAFA"/>
<path d="M32.77 153.19C32.5796 153.791 32.525 154.426 32.61 155.05C32.8524 155.236 33.1321 155.367 33.43 155.435C33.4158 154.792 33.483 154.151 33.63 153.525C33.8 153 32.955 152.675 32.77 153.19Z" fill="#FAFAFA"/>
<path d="M35.2799 154.345C35.0829 154.944 35.0231 155.58 35.1049 156.205C35.3551 156.385 35.6392 156.513 35.9399 156.58C35.9122 155.94 35.9796 155.3 36.1399 154.68C36.3099 154.13 35.4649 153.825 35.2799 154.345Z" fill="#FAFAFA"/>
<path d="M37.7899 155.5C37.5989 156.093 37.5442 156.722 37.6299 157.34C37.87 157.533 38.1502 157.669 38.4499 157.74C38.4356 157.099 38.5028 156.459 38.6499 155.835C38.8199 155.28 37.9999 155 37.7899 155.5Z" fill="#FAFAFA"/>
<path d="M53.9299 146.395C53.9182 146.12 53.8337 145.852 53.6849 145.62C53.6849 145.62 52.8599 147.315 49.9099 148.295C47.1099 149.225 43.1099 149.675 37.3399 148.345C31.5699 147.015 28.2349 145.775 25.6249 146.81C23.0149 147.845 23.7399 149.685 23.7399 149.685C23.7399 149.685 24.9849 147.39 28.6449 147.82C32.1749 148.235 37.3649 150.105 42.1949 150.28C47.2399 150.47 52.3349 149.825 53.9299 146.395Z" fill="#E0E0E0"/>
<path d="M112.595 157.34C110.095 149.47 103.3 144.885 97.2549 139.815C91.2099 134.745 81.5649 126.25 81.5649 126.25L47.5649 119.39C45.4449 123.73 43.3149 132.025 43.3049 138.335C43.3049 144.22 45.0899 152.105 55.3899 159.75C61.6349 164.385 66.6199 168.025 71.0949 170.87C75.8249 173.87 86.2649 179.165 92.4199 177.085C94.318 176.49 95.9127 175.184 96.8706 173.441C97.8285 171.697 98.0755 169.651 97.5599 167.73V167.73C98.2849 167.795 99.0049 167.835 99.6749 167.84C100.455 167.865 101.175 167.84 101.73 167.84C103.768 167.896 105.8 167.588 107.73 166.93C112 165.37 114.04 161.905 112.595 157.34Z" fill="#455A64"/>
<path d="M99.0299 167.5C98.3649 167.5 97.6399 167.455 96.9199 167.385C93.1199 159.28 72.2549 142.695 72.2549 142.695C73.9399 141.875 77.8449 139.785 79.1549 137.435C78.6199 140.435 76.8999 141.935 75.2349 143.165C77.7949 145.46 88.5549 154.53 91.4299 157.255C94.4449 160.11 97.5749 163.43 99.0299 167.5Z" fill="#37474F"/>
<path d="M74.45 76.35C78.89 76.7 81.005 77.935 85.39 82.78C89.775 87.625 97.89 96.395 99.35 98.67C100.81 100.945 105.055 105.865 98.665 109.55C92.275 113.235 78.61 114.47 78.61 114.47L74.45 76.35Z" fill="#F28F8F"/>
<path d="M82.2499 103.525C88.1849 98.645 86.2499 92.28 84.0649 87.995C79.7299 79.425 75.2199 76.055 73.3399 76.085L61.3399 74.53C56.5079 75.2851 51.8406 76.8612 47.5399 79.19C42.8499 81.9 44.0999 84.99 44.7249 87.8C46.4149 95.445 48.5499 99.8 49.1849 102.115C49.8199 104.43 50.9899 108.04 50.0399 111.79C49.6699 113.24 48.6899 114.65 47.2049 118.65C45.8982 121.937 44.8941 125.336 44.2049 128.805C44.2049 128.805 53.7449 137.545 70.5749 135.14C82.9649 133.37 84.5399 128.845 84.5399 128.845L81.6349 113.605C81.9299 108.55 81.9999 106.715 82.2499 103.525Z" fill="#FFC800"/>
<g opacity="0.5">
<path opacity="0.5" d="M82.2499 103.525C88.1849 98.645 86.2499 92.28 84.0649 87.995C79.7299 79.425 75.2199 76.055 73.3399 76.085L61.3399 74.53C56.5079 75.2851 51.8406 76.8612 47.5399 79.19C42.8499 81.9 44.0999 84.99 44.7249 87.8C46.4149 95.445 48.5499 99.8 49.1849 102.115C49.8199 104.43 50.9899 108.04 50.0399 111.79C49.6699 113.24 48.6899 114.65 47.2049 118.65C45.8982 121.937 44.8941 125.336 44.2049 128.805C44.2049 128.805 53.7449 137.545 70.5749 135.14C82.9649 133.37 84.5399 128.845 84.5399 128.845L81.6349 113.605C81.9299 108.55 81.9999 106.715 82.2499 103.525Z" fill="white"/>
</g>
<path d="M78.4999 37.845C72.1349 34.41 63.9399 35.765 60.7199 40.91C60.7199 40.91 57.4749 40.305 54.2199 43.145C50.5449 46.375 50.5799 51.245 50.5299 55.72C50.4699 60.935 48.5299 62.5 47.8199 66.51C47.1099 70.52 49.8199 73.165 52.7849 73.51C52.7849 73.51 51.7849 69.84 52.8399 68.14C52.8399 68.14 52.5199 73.395 57.5199 74.285C61.5449 75.005 64.5699 72.285 64.5699 72.285C64.5699 72.285 59.5399 71.41 58.6749 68.345L59.2199 63.23L68.3299 73.05C73.5749 77.6 80.9449 74.745 81.1599 72.655C81.1599 72.655 75.2199 66.52 83.2349 58.85C91.2499 51.18 84.8599 41.275 78.4999 37.845Z" fill="#37474F"/>
<path d="M83.0648 61C81.9198 70.155 78.7098 72.12 77.1548 72.62C75.5998 73.12 72.7498 72.43 70.0048 71.685L69.5598 76.05C69.5598 76.05 73.8448 80.275 72.7398 81.285C70.6798 83.165 65.2398 82.285 62.6098 80.83C60.7758 79.8928 59.2334 78.4715 58.1498 76.72C57.9233 76.3471 57.8465 75.9022 57.9348 75.475L59.2348 63.225C59.2348 63.225 57.7698 64.09 55.5648 62.605C53.5648 61.27 53.1398 57.105 54.9948 55.31C56.3198 54.04 58.7748 54.075 59.9948 56.38C60.6398 58.05 60.2548 59.565 61.3798 59.515C62.5048 59.465 62.9848 58.415 63.1648 57.545C63.3448 56.675 63.4498 56.045 63.6648 54.91C66.4448 54.65 69.5298 50.91 70.1648 48.22C71.9998 49.29 73.9548 50.155 75.8998 50.255C78.9598 50.405 80.5998 49.985 82.3498 47.975C82.6507 48.5146 82.8697 49.096 82.9998 49.7C83.2783 50.919 83.4457 52.1607 83.4998 53.41C83.5624 55.9476 83.4169 58.4861 83.0648 61Z" fill="#FFA8A7"/>
<path d="M70 71.675C67.085 70.99 61.19 68.63 60.5 66.13C60.5 66.13 60.66 67.67 62.32 69.41C63.98 71.15 69.82 73.515 69.82 73.515L70 71.675Z" fill="#F28F8F"/>
<path d="M73.0998 57.89C73.0779 58.1402 72.9829 58.3784 72.8265 58.575C72.6702 58.7716 72.4595 58.9179 72.2206 58.9956C71.9817 59.0732 71.7253 59.0789 71.4832 59.0119C71.2412 58.9449 71.0242 58.8082 70.8592 58.6187C70.6943 58.4293 70.5888 58.1955 70.5558 57.9465C70.5228 57.6975 70.5638 57.4443 70.6736 57.2184C70.7835 56.9926 70.9574 56.804 71.1736 56.6763C71.3899 56.5485 71.639 56.4872 71.8898 56.5C72.0607 56.5114 72.2276 56.5565 72.381 56.6326C72.5344 56.7087 72.6712 56.8144 72.7837 56.9435C72.8961 57.0727 72.9819 57.2228 73.0362 57.3852C73.0904 57.5476 73.112 57.7192 73.0998 57.89V57.89Z" fill="#263238"/>
<path d="M81.725 58.365C81.7192 58.52 81.6829 58.6723 81.6181 58.8133C81.5534 58.9542 81.4615 59.081 81.3478 59.1865C81.234 59.2919 81.1005 59.3738 80.9551 59.4276C80.8096 59.4814 80.6549 59.506 80.5 59.5C80.3412 59.5002 80.1842 59.4662 80.0398 59.4004C79.8953 59.3345 79.7667 59.2382 79.6628 59.1182C79.5589 58.9981 79.4821 58.8571 79.4376 58.7047C79.3931 58.5523 79.382 58.3921 79.405 58.235C79.4095 58.0798 79.4447 57.927 79.5086 57.7855C79.5725 57.644 79.6638 57.5166 79.7772 57.4106C79.8907 57.3046 80.024 57.2221 80.1695 57.1679C80.315 57.1138 80.4698 57.089 80.625 57.095C80.939 57.118 81.2312 57.2647 81.4374 57.5027C81.6436 57.7408 81.747 58.0508 81.725 58.365Z" fill="#263238"/>
<path d="M76.2399 55.72L75.6299 64.395L79.8149 63.53L76.2399 55.72Z" fill="#F28F8F"/>
<path d="M68.7349 54L71.2799 52.105C71.5268 52.4551 71.6292 52.8869 71.5659 53.3106C71.5026 53.7343 71.2783 54.1173 70.9399 54.38C70.7717 54.5041 70.5801 54.5929 70.3767 54.6411C70.1733 54.6892 69.9623 54.6957 69.7563 54.6603C69.5503 54.6248 69.3537 54.548 69.1781 54.4345C69.0026 54.321 68.8518 54.1732 68.7349 54V54Z" fill="#263238"/>
<path d="M70.9049 64.36L74.8099 66.165C74.5517 66.686 74.1026 67.0874 73.5559 67.2858C73.0093 67.4841 72.4072 67.4642 71.8749 67.23C71.6184 67.1102 71.3887 66.9397 71.1999 66.7287C71.0111 66.5177 70.867 66.2706 70.7763 66.0024C70.6856 65.7341 70.6503 65.4503 70.6724 65.168C70.6945 64.8857 70.7736 64.6108 70.9049 64.36V64.36Z" fill="#874C4C"/>
<path d="M71.8749 67.23C71.5137 67.0636 71.2086 66.796 70.9964 66.4597C70.7843 66.1233 70.6744 65.7326 70.6799 65.335C70.9133 65.2754 71.1555 65.2585 71.3949 65.285C71.8986 65.3512 72.3583 65.6067 72.6805 65.9995C73.0028 66.3923 73.1634 66.893 73.1299 67.4C72.704 67.4735 72.2658 67.4141 71.8749 67.23V67.23Z" fill="#F28F8F"/>
<path d="M80.9448 52.565L83.2498 54.78C83.1127 54.9368 82.945 55.064 82.7571 55.1539C82.5691 55.2438 82.3648 55.2945 82.1567 55.3029C81.9485 55.3113 81.7408 55.2773 81.5462 55.2029C81.3517 55.1284 81.1743 55.0152 81.0249 54.87C80.7188 54.5692 80.5398 54.1623 80.5249 53.7334C80.51 53.3045 80.6604 52.8863 80.9448 52.565V52.565Z" fill="#263238"/>
<path d="M86.6499 85.61C86.0636 85.5206 85.4827 85.3987 84.9099 85.245C83.8523 84.9189 82.7445 84.7868 81.6399 84.855C80.4999 84.955 78.9749 85.43 78.1699 86.235C77.8349 86.565 77.7099 87.35 78.2649 87.545C78.2445 87.6754 78.2614 87.8088 78.3136 87.93C78.3658 88.0512 78.4511 88.1552 78.5599 88.23C78.8214 88.4045 79.1405 88.4708 79.4499 88.415C79.4499 88.725 79.9499 88.915 80.4499 88.87C81.1488 88.6827 81.8719 88.6018 82.5949 88.63C84.1199 88.675 84.3799 89.255 84.3799 89.255" fill="#455A64"/>
<path d="M80.6447 87.415C80.3064 87.3536 79.9575 87.4227 79.6681 87.6082C79.3786 87.7937 79.1702 88.082 79.0847 88.415C79.2063 88.4225 79.3282 88.4225 79.4497 88.415C79.4944 88.132 79.64 87.8748 79.8597 87.691C80.0794 87.5071 80.3583 87.4091 80.6447 87.415Z" fill="#37474F"/>
<path d="M79.4998 86.47C79.1897 86.4534 78.8818 86.5291 78.6148 86.6875C78.3478 86.8459 78.1338 87.08 77.9998 87.36C78.0622 87.4437 78.1472 87.5078 78.2448 87.545C78.3318 87.266 78.4957 87.0171 78.7176 86.827C78.9396 86.6368 79.2107 86.5131 79.4998 86.47V86.47Z" fill="#37474F"/>
<path d="M100.06 81.835L97.5599 82.53L92.5599 83.92L92.1149 84.03L90.9549 84.225C90.1375 84.3011 89.3269 84.4382 88.5299 84.635H88.3549C88.0361 84.6485 87.7203 84.7022 87.4149 84.795C87.2123 84.9506 87.0187 85.1175 86.8349 85.295L86.3049 85.795C86.2449 85.86 86.1849 85.925 86.1249 86L84.5649 88.725C84.2242 89.154 83.7626 89.4709 83.2399 89.635C82.4224 89.8088 81.6907 90.2613 81.1699 90.915C81.115 90.8322 81.0408 90.7639 80.9538 90.716C80.8667 90.6681 80.7693 90.642 80.6699 90.64C80.6485 90.4975 80.5915 90.3628 80.5041 90.2483C80.4166 90.1338 80.3017 90.0432 80.1699 89.985C79.8511 89.8538 79.495 89.8449 79.1699 89.96C79.1699 89.705 78.7349 89.375 77.8649 89.57C76.1449 89.955 75.1299 90.64 73.3399 91.77C71.1099 93.18 70.3899 94.465 70.4249 95.52C70.4162 95.8592 70.4994 96.1945 70.6658 96.4903C70.8321 96.7861 71.0755 97.0313 71.3699 97.2C71.3699 97.2 64.4349 103.83 73.9399 109.46C83.1699 114.925 95.2399 109.085 99.0099 100.335C99.9983 98.0128 100.614 95.5492 100.835 93.035C101.35 88.22 100.395 84.5 100.06 81.835Z" fill="#455A64"/>
<path d="M80.9649 92.575C80.9649 92.575 82.4649 91.905 83.1549 92.725C83.3298 92.6424 83.5226 92.6051 83.7157 92.6165C83.9087 92.6279 84.0959 92.6875 84.2599 92.79C84.3947 92.8785 84.4979 93.0075 84.5545 93.1586C84.6112 93.3096 84.6183 93.4747 84.5749 93.63C84.6826 93.6382 84.786 93.6756 84.8741 93.7381C84.9622 93.8007 85.0316 93.886 85.0749 93.985C85.1318 94.1704 85.1443 94.3666 85.1112 94.5577C85.0782 94.7488 85.0007 94.9294 84.8849 95.085C84.6145 95.5937 84.2453 96.0433 83.7988 96.4073C83.3523 96.7714 82.8376 97.0426 82.2849 97.205C82.8227 97.5152 83.2787 97.9492 83.6153 98.4709C83.9518 98.9927 84.159 99.5871 84.2199 100.205C84.5649 102.625 83.7899 103.88 83.7899 103.88C86.9778 103.107 89.8025 101.26 91.7899 98.65C96.0199 93.22 94.4899 83.65 94.4899 83.65L87.4099 84.845C86.6658 85.2383 86.0219 85.7972 85.5278 86.4785C85.0337 87.1599 84.7026 87.9455 84.5599 88.775C83.0974 88.9125 81.6961 89.4296 80.4949 90.275C80.5711 90.3985 80.6268 90.5336 80.6599 90.675C80.7575 90.6846 80.8521 90.714 80.9381 90.7612C81.024 90.8085 81.0995 90.8727 81.1599 90.95C81.3414 91.1944 81.4224 91.4991 81.3861 91.8013C81.3498 92.1036 81.1991 92.3805 80.9649 92.575V92.575Z" fill="#FFC800"/>
<path opacity="0.3" d="M80.9649 92.575C80.9649 92.575 82.4649 91.905 83.1549 92.725C83.3298 92.6424 83.5226 92.6051 83.7157 92.6165C83.9087 92.6279 84.0959 92.6875 84.2599 92.79C84.3947 92.8785 84.4979 93.0075 84.5545 93.1586C84.6112 93.3096 84.6183 93.4747 84.5749 93.63C84.6826 93.6382 84.786 93.6756 84.8741 93.7381C84.9622 93.8007 85.0316 93.886 85.0749 93.985C85.1318 94.1704 85.1443 94.3666 85.1112 94.5577C85.0782 94.7488 85.0007 94.9294 84.8849 95.085C84.6145 95.5937 84.2453 96.0433 83.7988 96.4073C83.3523 96.7714 82.8376 97.0426 82.2849 97.205C82.8227 97.5152 83.2787 97.9492 83.6153 98.4709C83.9518 98.9927 84.159 99.5871 84.2199 100.205C84.5649 102.625 83.7899 103.88 83.7899 103.88C86.9778 103.107 89.8025 101.26 91.7899 98.65C96.0199 93.22 94.4899 83.65 94.4899 83.65L87.4099 84.845C86.6658 85.2383 86.0219 85.7972 85.5278 86.4785C85.0337 87.1599 84.7026 87.9455 84.5599 88.775C83.0974 88.9125 81.6961 89.4296 80.4949 90.275C80.5711 90.3985 80.6268 90.5336 80.6599 90.675C80.7575 90.6846 80.8521 90.714 80.9381 90.7612C81.024 90.8085 81.0995 90.8727 81.1599 90.95C81.3414 91.1944 81.4224 91.4991 81.3861 91.8013C81.3498 92.1036 81.1991 92.3805 80.9649 92.575V92.575Z" fill="black"/>
<path opacity="0.1" d="M91.4448 90C90.2848 89.955 88.6898 90.24 87.7748 90.945C87.3948 91.235 87.1748 92.005 87.7048 92.275C87.6681 92.4029 87.6678 92.5386 87.704 92.6667C87.7403 92.7948 87.8115 92.9102 87.9098 93C88.151 93.2105 88.4651 93.3182 88.7848 93.3C88.7548 93.615 89.2148 93.895 89.7248 93.885C90.4248 93.885 90.6198 93.65 91.9148 93.92C92.6009 94.0745 93.2287 94.4214 93.7248 94.92C94.153 93.5969 94.4428 92.2329 94.5898 90.85C93.6074 90.363 92.5387 90.0742 91.4448 90V90Z" fill="black"/>
<path d="M94.7648 90.075C93.7325 89.5449 92.6026 89.2318 91.4448 89.155C90.2848 89.105 88.6898 89.395 87.7748 90.1C87.3948 90.39 87.1748 91.16 87.7048 91.43C87.6681 91.5579 87.6678 91.6936 87.704 91.8217C87.7403 91.9498 87.8115 92.0652 87.9098 92.155C88.1521 92.3637 88.4654 92.4711 88.7848 92.455C88.7548 92.77 89.2148 93.05 89.7248 93.04C90.4248 93.04 90.6198 92.805 91.9148 93.075C92.7089 93.2527 93.4233 93.6845 93.9498 94.305L96.2848 90.705C95.7583 90.5465 95.249 90.3355 94.7648 90.075V90.075Z" fill="#455A64"/>
<path d="M89.9698 91.63C89.7899 91.5435 89.5899 91.5071 89.3911 91.5247C89.1922 91.5423 89.0018 91.6132 88.8398 91.73C88.726 91.8061 88.6305 91.9066 88.5605 92.0242C88.4904 92.1419 88.4475 92.2737 88.4348 92.41C88.5502 92.4336 88.6672 92.4487 88.7848 92.455C88.8098 91.92 89.4048 91.61 89.9698 91.63Z" fill="#37474F"/>
<path d="M87.4448 91.155C87.4947 91.2755 87.5873 91.3735 87.7048 91.43C87.787 91.2487 87.9142 91.0915 88.0744 90.9733C88.2346 90.8551 88.4224 90.78 88.6198 90.755C88.4061 90.7156 88.1859 90.7316 87.9801 90.8017C87.7744 90.8717 87.5901 90.9934 87.4448 91.155V91.155Z" fill="#37474F"/>
<path opacity="0.1" d="M100.925 88.295C100.745 85.695 100.275 83.545 100.06 81.835L97.5598 82.53L92.5598 83.92L92.1148 84.03L90.9548 84.225C90.1374 84.3011 89.3268 84.4382 88.5298 84.635H88.3548C88.0358 84.6461 87.7196 84.6999 87.4148 84.795C87.2557 84.8729 87.1021 84.9614 86.9548 85.06C87.2848 85.47 88.5298 86.79 91.2748 87.39C94.5448 88.11 98.0148 87.015 98.0148 87.015C98.2998 87.511 98.736 87.9028 99.2595 88.1331C99.7831 88.3634 100.367 88.4201 100.925 88.295V88.295Z" fill="black"/>
<path d="M95.1898 71.845C94.9498 70.95 93.8298 70.56 92.0398 70.525C90.6248 70.495 89.2748 70.925 87.1898 69.99C85.1048 69.055 83.3798 69.49 82.8148 71.59C82.2498 73.69 82.7297 76.27 85.0197 77.165C87.1397 77.995 90.5847 77.57 92.5197 76.245C94.4547 74.92 95.1898 71.845 95.1898 71.845Z" fill="#37474F"/>
<path d="M88.9998 70.955C89.0471 70.8201 89.0822 70.6812 89.1048 70.54C88.4406 70.4553 87.7931 70.2698 87.1848 69.99C85.0948 69.05 83.3748 69.49 82.8148 71.59C82.6212 72.3062 82.5586 73.0515 82.6298 73.79C83.0416 74.0401 83.5017 74.2003 83.9798 74.26C84.1692 74.2974 84.3647 74.2888 84.5501 74.2348C84.7354 74.1809 84.9051 74.0832 85.0448 73.95C85.3498 73.58 85.2398 72.95 85.5448 72.615C85.8498 72.28 86.5448 72.355 87.0898 72.33C87.5055 72.3046 87.9055 72.162 88.2436 71.9186C88.5816 71.6753 88.8438 71.3412 88.9998 70.955V70.955Z" fill="#FFC800"/>
<path opacity="0.4" d="M88.9998 70.955C89.0471 70.8201 89.0822 70.6812 89.1048 70.54C88.4406 70.4553 87.7931 70.2698 87.1848 69.99C85.0948 69.05 83.3748 69.49 82.8148 71.59C82.6212 72.3062 82.5586 73.0515 82.6298 73.79C83.0416 74.0401 83.5017 74.2003 83.9798 74.26C84.1692 74.2974 84.3647 74.2888 84.5501 74.2348C84.7354 74.1809 84.9051 74.0832 85.0448 73.95C85.3498 73.58 85.2398 72.95 85.5448 72.615C85.8498 72.28 86.5448 72.355 87.0898 72.33C87.5055 72.3046 87.9055 72.162 88.2436 71.9186C88.5816 71.6753 88.8438 71.3412 88.9998 70.955V70.955Z" fill="black"/>
<path d="M100.85 75.84C99.8498 73.685 99.2848 73.205 96.5048 72.225C93.7248 71.245 92.0048 71.355 89.5698 72.86C88.0298 73.81 87.4098 76.33 87.4098 76.33C86.9178 76.394 86.4435 76.5552 86.0143 76.8041C85.5851 77.053 85.2097 77.3847 84.9098 77.78C83.8348 79.43 84.6548 82.37 85.3498 83.36C86.4816 84.946 88.1745 86.0418 90.0848 86.425C93.6598 87.155 96.5448 86.925 98.3398 85.1C100.59 82.825 101.58 77.41 100.85 75.84Z" fill="#455A64"/>
<path d="M100.325 79.335C100.375 79.0798 100.399 78.8201 100.395 78.56C100.395 77.74 100.21 76.645 99.6547 76.02C99.2247 75.381 98.602 74.8958 97.8772 74.6351C97.1524 74.3743 96.3634 74.3515 95.6248 74.57C94.7326 74.7538 93.941 75.2637 93.4047 76C92.9047 76.755 92.7448 77.62 93.4448 78.29C93.7101 78.5063 93.9607 78.7402 94.1948 78.99C94.5148 79.395 94.6497 79.925 94.9497 80.345C95.2892 80.8054 95.7763 81.1354 96.3298 81.28C96.8783 81.4223 97.4507 81.4478 98.0098 81.355C98.3662 81.3333 98.7146 81.2392 99.0335 81.0784C99.3524 80.9177 99.6352 80.6936 99.8647 80.42C100.093 80.0946 100.249 79.7249 100.325 79.335V79.335Z" fill="#FFC800"/>
<path opacity="0.3" d="M100.325 79.335C100.375 79.0798 100.399 78.8201 100.395 78.56C100.395 77.74 100.21 76.645 99.6547 76.02C99.2247 75.381 98.602 74.8958 97.8772 74.6351C97.1524 74.3743 96.3634 74.3515 95.6248 74.57C94.7326 74.7538 93.941 75.2637 93.4047 76C92.9047 76.755 92.7448 77.62 93.4448 78.29C93.7101 78.5063 93.9607 78.7402 94.1948 78.99C94.5148 79.395 94.6497 79.925 94.9497 80.345C95.2892 80.8054 95.7763 81.1354 96.3298 81.28C96.8783 81.4223 97.4507 81.4478 98.0098 81.355C98.3662 81.3333 98.7146 81.2392 99.0335 81.0784C99.3524 80.9177 99.6352 80.6936 99.8647 80.42C100.093 80.0946 100.249 79.7249 100.325 79.335V79.335Z" fill="black"/>
<path d="M95.8499 77.375C95.8509 77.5386 95.8033 77.6988 95.713 77.8352C95.6227 77.9717 95.4939 78.0782 95.343 78.1412C95.192 78.2043 95.0257 78.2211 94.8652 78.1894C94.7047 78.1577 94.5573 78.079 94.4416 77.9634C94.3259 77.8477 94.2472 77.7002 94.2156 77.5397C94.1839 77.3792 94.2006 77.2129 94.2637 77.062C94.3268 76.911 94.4333 76.7822 94.5697 76.692C94.7062 76.6017 94.8663 76.554 95.0299 76.555C95.247 76.5563 95.4548 76.6431 95.6083 76.7966C95.7618 76.9501 95.8486 77.1579 95.8499 77.375V77.375Z" fill="#263238"/>
<path d="M90.0399 75.84C90.0399 76.0022 89.9918 76.1607 89.9017 76.2956C89.8116 76.4304 89.6835 76.5355 89.5337 76.5976C89.3839 76.6596 89.219 76.6759 89.0599 76.6442C88.9009 76.6126 88.7548 76.5345 88.6401 76.4198C88.5254 76.3051 88.4473 76.159 88.4157 76C88.384 75.8409 88.4003 75.676 88.4623 75.5262C88.5244 75.3764 88.6295 75.2483 88.7643 75.1582C88.8992 75.0681 89.0577 75.02 89.2199 75.02C89.4374 75.02 89.646 75.1064 89.7997 75.2602C89.9535 75.4139 90.0399 75.6225 90.0399 75.84V75.84Z" fill="#263238"/>
<path d="M88.0549 82.595H87.9999C87.9745 82.5902 87.9504 82.5804 87.9288 82.5662C87.9073 82.5521 87.8888 82.5337 87.8744 82.5123C87.8599 82.491 87.8499 82.4669 87.8449 82.4416C87.8398 82.4163 87.8398 82.3903 87.8449 82.365L88.2099 80.47C88.2198 80.4189 88.2496 80.3739 88.2928 80.3449C88.3359 80.3158 88.3888 80.305 88.4399 80.315C88.4909 80.3249 88.5359 80.3548 88.565 80.3979C88.5941 80.441 88.6048 80.4939 88.5949 80.545L88.2299 82.44C88.2207 82.4809 88.1988 82.5179 88.1674 82.5457C88.136 82.5735 88.0966 82.5908 88.0549 82.595V82.595Z" fill="#263238"/>
<path d="M89.2299 78.255C88.2299 77.95 87.4549 78 87.2649 78.375C86.9599 79.005 87.4149 79.925 87.7299 80.29C87.9058 80.4458 88.1123 80.5631 88.3361 80.6346C88.56 80.706 88.7962 80.73 89.0299 80.705C89.5949 80.645 90.4999 80.28 90.6699 79.705C90.8399 79.13 90.3049 78.585 89.2299 78.255Z" fill="#263238"/>
<path d="M87.6498 78.33C87.5172 78.4095 87.4185 78.5349 87.3724 78.6824C87.3263 78.8299 87.3361 78.9892 87.3998 79.13C87.5148 79.335 87.7148 78.57 88.2598 78.57C88.8804 78.6342 89.4786 78.8376 90.0098 79.165C90.3498 79.385 90.3598 78.985 89.6848 78.665C88.8598 78.225 88.0798 78.105 87.6498 78.33Z" fill="#37474F"/>
<path d="M89.2598 82.78C89.1398 82.78 89.0248 82.78 88.9048 82.78C88.5508 82.7755 88.2012 82.7012 87.8761 82.5613C87.5509 82.4215 87.2565 82.2188 87.0098 81.965C86.978 81.9239 86.9638 81.8718 86.9703 81.8202C86.9769 81.7687 87.0037 81.7218 87.0448 81.69C87.0859 81.6582 87.138 81.644 87.1895 81.6505C87.2411 81.6571 87.2879 81.6839 87.3198 81.725C87.7552 82.1415 88.3323 82.3773 88.9348 82.385C89.3245 82.4376 89.7208 82.4106 90.0997 82.3058C90.4787 82.2009 90.8325 82.0204 91.1398 81.775C91.1585 81.7573 91.1805 81.7434 91.2046 81.7342C91.2287 81.7249 91.2543 81.7206 91.2801 81.7213C91.3058 81.722 91.3312 81.7277 91.3548 81.7382C91.3783 81.7487 91.3996 81.7638 91.4173 81.7825C91.435 81.8012 91.4489 81.8232 91.4581 81.8473C91.4673 81.8714 91.4717 81.897 91.471 81.9228C91.4703 81.9486 91.4645 81.9739 91.454 81.9975C91.4435 82.021 91.4285 82.0423 91.4098 82.06C90.8073 82.5585 90.041 82.8152 89.2598 82.78V82.78Z" fill="#263238"/>
<path d="M99.2397 73.5C100.34 73.625 102.53 74.145 103.205 75.19C103.88 76.235 106.02 79.725 105.435 83C105.249 84.2016 104.628 85.2929 103.689 86.0656C102.75 86.8384 101.56 87.2386 100.345 87.19C98.5547 87.01 97.4547 86.19 98.3447 83.61C99.2347 81.03 99.9097 77.4 99.2547 75.67C98.6647 74.09 97.9997 73.37 99.2397 73.5Z" fill="#37474F"/>
<path d="M104.59 77.79C104.134 78.4541 103.516 78.991 102.795 79.35C102.451 79.4839 102.125 79.6603 101.825 79.875C101.676 79.9845 101.563 80.1353 101.499 80.3085C101.435 80.4818 101.423 80.6701 101.465 80.85C101.615 81.285 102.135 81.44 102.575 81.565C103.015 81.69 103.53 81.95 103.535 82.41C103.535 82.74 103.27 83.02 103.245 83.35C103.251 83.4687 103.281 83.5849 103.334 83.6914C103.387 83.7979 103.461 83.8923 103.552 83.9688C103.643 84.0453 103.749 84.1021 103.863 84.1359C103.977 84.1697 104.097 84.1796 104.215 84.165C104.661 84.0852 105.059 83.8385 105.33 83.475C105.37 83.325 105.405 83.175 105.435 83.015C105.76 81.185 105.235 79.29 104.59 77.79Z" fill="#FFC800"/>
<path opacity="0.4" d="M104.59 77.79C104.134 78.4541 103.516 78.991 102.795 79.35C102.451 79.4839 102.125 79.6603 101.825 79.875C101.676 79.9845 101.563 80.1353 101.499 80.3085C101.435 80.4818 101.423 80.6701 101.465 80.85C101.615 81.285 102.135 81.44 102.575 81.565C103.015 81.69 103.53 81.95 103.535 82.41C103.535 82.74 103.27 83.02 103.245 83.35C103.251 83.4687 103.281 83.5849 103.334 83.6914C103.387 83.7979 103.461 83.8923 103.552 83.9688C103.643 84.0453 103.749 84.1021 103.863 84.1359C103.977 84.1697 104.097 84.1796 104.215 84.165C104.661 84.0852 105.059 83.8385 105.33 83.475C105.37 83.325 105.405 83.175 105.435 83.015C105.76 81.185 105.235 79.29 104.59 77.79Z" fill="black"/>
<path d="M80.9647 92.575C78.0197 93.865 75.2097 95.3 74.6747 96.99C74.1397 98.68 75.5747 99.07 75.5747 99.07C75.5747 99.07 74.1047 99 74.1047 97.655C74.1047 96.31 75.3247 94.225 80.9647 92.575Z" fill="#37474F"/>
<path d="M83.1199 94C83.4499 93.955 84.0549 93.73 84.1199 93.33C84.1549 93.055 83.9149 93 83.6849 93.005C83.365 93.015 83.0566 93.1272 82.8049 93.325C82.4099 93.66 82.6449 94.065 83.1199 94Z" fill="#37474F"/>
<path d="M83.6449 95C83.9799 95 84.6149 94.905 84.7349 94.5C84.8149 94.235 84.5949 94.14 84.3649 94.1C84.0496 94.05 83.7265 94.1044 83.4449 94.255C82.9999 94.53 83.1699 94.97 83.6449 95Z" fill="#37474F"/>
<path d="M81.6248 93.5C81.9348 93.5 82.5098 93.335 82.5898 92.975C82.6498 92.725 82.4348 92.65 82.2248 92.635C81.9288 92.612 81.6334 92.6876 81.3848 92.85C80.9998 93.115 81.1848 93.5 81.6248 93.5Z" fill="#37474F"/>
<path d="M81.9098 94.195C81.5598 93.865 81.0498 93.57 79.5098 94.01C77.9698 94.45 77.4348 95.16 77.8048 95.485C78.3498 95.955 79.2448 95.22 79.0398 96.315C78.9248 96.935 79.7448 97.395 81.1398 96.315C82.5348 95.235 82.2948 94.555 81.9098 94.195Z" fill="#37474F"/>
<path d="M78.9998 91.31C79.3298 91.27 79.9348 91.045 79.9998 90.64C80.0348 90.37 79.7948 90.315 79.5648 90.315C79.2449 90.325 78.9365 90.4372 78.6848 90.635C78.3048 90.97 78.5398 91.37 78.9998 91.31Z" fill="#37474F"/>
<path d="M79.5398 92.3C79.8748 92.3 80.5048 92.205 80.6298 91.8C80.7098 91.54 80.4898 91.44 80.2598 91.405C79.9429 91.3564 79.6187 91.4108 79.3348 91.56C78.8998 91.835 79.0648 92.275 79.5398 92.3Z" fill="#37474F"/>
<path d="M77.4999 90.8C77.8099 90.8 78.3849 90.64 78.4649 90.3C78.5249 90.05 78.3099 89.98 78.0999 89.96C77.8041 89.9392 77.5094 90.0146 77.2599 90.175C76.8999 90.42 77.0799 90.81 77.4999 90.8Z" fill="#37474F"/>
<path d="M77.8048 91.5C77.4548 91.175 76.9448 90.875 75.4048 91.315C73.8648 91.755 73.3298 92.47 73.6998 92.815C74.2448 93.285 75.1398 92.55 74.9348 93.645C74.8198 94.27 75.6398 94.725 77.0348 93.645C78.4298 92.565 78.1848 91.86 77.8048 91.5Z" fill="#37474F"/>
<path d="M71.3698 105.145C71.323 105.227 71.254 105.294 71.1709 105.338C71.0877 105.382 70.9938 105.402 70.8998 105.395C67.6348 105.14 63.2598 102.395 61.4998 98.595C59.6948 94.675 61.1498 90.095 61.7948 90.035C62.4398 89.975 61.1398 92.605 61.8798 95.91C62.5598 98.95 65.3798 102.725 70.9898 103.65C71.0803 103.663 71.1654 103.701 71.2359 103.759C71.3065 103.817 71.3597 103.894 71.3898 103.98C71.5355 104.356 71.5283 104.774 71.3698 105.145Z" fill="#37474F"/>
<path opacity="0.1" d="M100.09 97.255C99.5899 97.16 99.3149 97.405 98.7849 97.81C98.2549 98.215 97.6149 98.705 97.1599 99.08C95.5723 100.402 93.6395 101.242 91.5899 101.5C90.7023 101.641 89.8018 101.683 88.9049 101.625C88.7057 101.626 88.509 101.581 88.3296 101.495C88.1503 101.408 87.9931 101.282 87.8699 101.125C87.7935 100.941 87.7579 100.742 87.7656 100.543C87.7734 100.343 87.8243 100.148 87.9149 99.97C88.2059 99.2332 88.4367 98.4741 88.6049 97.7C88.7149 97.035 88.7799 95.645 88.1699 95.17C88.0444 95.0912 87.8973 95.0536 87.7494 95.0626C87.6014 95.0715 87.46 95.1266 87.3449 95.22C87.0519 95.4935 86.7963 95.8045 86.5849 96.145C85.8537 97.069 85.1856 98.0412 84.5849 99.055C84.3104 98.3291 83.8331 97.6974 83.2099 97.235C85.0449 95.885 84.9299 95.065 84.9299 95.065C83.9299 96.525 81.5999 97.205 81.5999 97.205C82.2356 97.5159 82.7755 97.9926 83.1628 98.5849C83.55 99.1772 83.7701 99.863 83.7999 100.57C83.4925 101.26 83.1048 101.911 82.6449 102.51C81.7494 103.537 80.5862 104.295 79.2849 104.7C78.3699 105.01 73.9199 105.435 69.8999 105.77C70.6549 106.995 71.9349 108.27 73.9799 109.465C83.2099 114.93 95.2799 109.09 99.0499 100.34C99.4862 99.3354 99.8456 98.2991 100.125 97.24L100.09 97.255Z" fill="black"/>
<path d="M65.62 118.16C68.25 117.76 70.865 117.23 73.455 116.61C79.68 115.11 86.06 113.145 91.755 110.185C93.5368 109.268 95.2321 108.192 96.82 106.97C97.6073 106.425 98.3027 105.759 98.88 104.995C99.4474 104.178 99.9363 103.309 100.34 102.4C100.857 101.242 101.085 99.9757 101.005 98.71C100.97 98.325 100.825 97.865 100.445 97.795C99.945 97.705 99.635 98.365 99.35 98.67C98.9598 99.1076 98.5423 99.5201 98.1 99.905C96.5092 101.222 94.5779 102.061 92.53 102.325C91.6424 102.466 90.7418 102.508 89.845 102.45C89.6458 102.45 89.4492 102.406 89.2699 102.319C89.0906 102.232 88.9334 102.106 88.81 101.95C88.7335 101.766 88.6979 101.567 88.7057 101.368C88.7135 101.168 88.7644 100.973 88.855 100.795C89.1466 100.058 89.3773 99.2992 89.545 98.525C89.655 97.865 89.72 96.47 89.11 96C88.9844 95.9211 88.8374 95.8836 88.6894 95.8925C88.5415 95.9015 88.4 95.9566 88.285 96.05C87.9894 96.321 87.7335 96.6324 87.525 96.975C86.7177 97.971 85.9904 99.0293 85.35 100.14C84.765 101.215 84.35 102.39 83.565 103.34C82.6706 104.367 81.5068 105.124 80.205 105.525C78.705 106.025 67.53 106.865 64.585 107.08L57.5 92C57.5 92 53.755 80.34 47.57 79.215C44.34 81.045 43.395 82.635 42.92 86.215C42.445 89.795 43.83 92.83 45.42 97.665C47.01 102.5 54.54 114.07 56.665 116.375C58.79 118.68 59.915 118.68 63.515 118.44C64.22 118.365 64.92 118.265 65.62 118.16Z" fill="#FFA8A7"/>
<path d="M158.425 158.27L117.29 134.52L76.155 158.27L117.29 182.02L158.425 158.27Z" fill="#FFC800"/>
<path opacity="0.4" d="M158.425 158.27L117.29 134.52L76.155 158.27L117.29 182.02L158.425 158.27Z" fill="white"/>
<path opacity="0.1" d="M158.425 158.27L117.29 134.52L76.155 158.27L117.29 182.02L158.425 158.27Z" fill="black"/>
<path opacity="0.1" d="M117.29 169.065V134.52L76.155 158.27V192.815L117.29 169.065Z" fill="black"/>
<path opacity="0.2" d="M117.29 169.065L76.155 192.815L117.29 216.565L158.425 192.815L117.29 169.065Z" fill="black"/>
<path d="M138.21 90.415C136.345 89.84 135.345 90.17 133.71 91.555C132.075 92.94 131.65 93.29 131.5 95C131.35 96.71 131.855 100.34 133.705 99.77C135.555 99.2 138.21 90.415 138.21 90.415Z" fill="#37474F"/>
<path d="M116.5 143.67C116.155 147.56 119.035 156.205 118.755 158.36C118.475 160.515 116.86 164.22 115.72 166.015C114.72 167.605 114.435 168.34 115.72 171.58C117.005 174.82 119.445 179.58 119.995 180.55C120.545 181.52 122.275 180.955 123.995 180.28C125.715 179.605 127.995 178.205 126.615 176.575C125.975 175.815 122.23 177.075 122.23 177.075C122.23 177.075 120.365 171.575 120.68 169.72C120.995 167.865 125.84 163.805 128.38 159.955C130.92 156.105 127.51 144.835 127.51 144.835L116.5 143.67Z" fill="#FFC800"/>
<path opacity="0.55" d="M116.5 143.67C116.155 147.56 119.035 156.205 118.755 158.36C118.475 160.515 116.86 164.22 115.72 166.015C114.72 167.605 114.435 168.34 115.72 171.58C117.005 174.82 119.445 179.58 119.995 180.55C120.545 181.52 122.275 180.955 123.995 180.28C125.715 179.605 127.995 178.205 126.615 176.575C125.975 175.815 122.23 177.075 122.23 177.075C122.23 177.075 120.365 171.575 120.68 169.72C120.995 167.865 125.84 163.805 128.38 159.955C130.92 156.105 127.51 144.835 127.51 144.835L116.5 143.67Z" fill="black"/>
<path d="M146.395 116.03C146.31 115.675 146.215 115.335 146.115 115.03C146.715 117.24 144.48 123.345 140.32 128.03C136.16 132.715 137.975 136.33 139.065 141.345C138.41 137.9 138.615 136.78 139.6 133.955C141.58 128.295 148.035 128.03 146.395 116.03Z" fill="#FFC800"/>
<path d="M160.865 107.225C158.14 105.655 156.365 106.63 154.115 108.975C152.484 110.78 150.615 112.356 148.56 113.66C148.25 111.585 147.83 109.61 147.765 108.63C147.635 106.75 147.72 104.77 148.97 103.315C150.22 101.86 150.75 101.005 152.25 99.895C152.804 99.5004 153.318 99.0533 153.785 98.56C154.23 98.06 155.075 96.885 154.67 96.195C153.891 96.8113 152.917 97.1272 151.925 97.085C151.521 97.0402 151.136 96.8883 150.81 96.645C150.783 96.6308 150.761 96.6101 150.744 96.5847C150.727 96.5594 150.717 96.5302 150.715 96.5C150.715 96.425 150.8 96.385 150.87 96.36C151.119 96.2879 151.373 96.2327 151.63 96.195C152.408 96.0712 153.144 95.7644 153.78 95.3C154.227 94.9488 154.555 94.4688 154.72 93.925C154.845 93.485 154.745 93.425 154.72 92.985C154.691 92.6335 154.61 92.2881 154.48 91.96C154.11 91.075 153.34 90.84 152.515 90.46C150.64 89.545 149.99 90.56 147.31 90.84C145.31 91.05 140.665 88.765 137.075 91.03C133.165 93.495 132.91 97.53 132.165 101.5C132 102.381 131.764 103.247 131.46 104.09C130.295 106.695 128.995 107.215 127.335 112.59C124.88 120.47 125.465 124.77 121.17 130.74C117.305 136.125 116.275 140.24 116.265 143.175C116.265 148.175 117.145 149.515 121.215 153.025C124.155 155.555 125.555 155.985 128.425 160C129.355 161.295 129.425 166.415 128.735 168.72C128.045 171.025 127.43 172.175 128.12 173.985C128.81 175.795 132.065 183.345 133.25 185.185C134.435 187.025 135.75 186.555 139.69 185.37C143.56 184.215 141.72 181.78 140.335 181.935C139.156 182.104 137.988 182.339 136.835 182.64C136.835 182.64 134.005 175.985 134.01 174.35C134.015 172.715 137.375 165.915 140.04 162.325C142.705 158.735 141.68 153.025 140.04 145.765C138.4 138.505 138.32 137.765 139.635 134.005C140.885 130.435 143.915 129.005 145.57 125.435C147.625 124.535 149.57 123.66 150.335 122.595C151.895 120.435 155.125 115.045 156.47 113.225C158.285 110.765 159.54 109.34 161.47 110.03C163.235 110.665 163.47 110.23 163.47 110.23C163.67 109.235 162.455 108.145 160.865 107.225Z" fill="#FFC800"/>
<path opacity="0.4" d="M160.865 107.225C158.14 105.655 156.365 106.63 154.115 108.975C152.484 110.78 150.615 112.356 148.56 113.66C148.25 111.585 147.83 109.61 147.765 108.63C147.635 106.75 147.72 104.77 148.97 103.315C150.22 101.86 150.75 101.005 152.25 99.895C152.804 99.5004 153.318 99.0533 153.785 98.56C154.23 98.06 155.075 96.885 154.67 96.195C153.891 96.8113 152.917 97.1272 151.925 97.085C151.521 97.0402 151.136 96.8883 150.81 96.645C150.783 96.6308 150.761 96.6101 150.744 96.5847C150.727 96.5594 150.717 96.5302 150.715 96.5C150.715 96.425 150.8 96.385 150.87 96.36C151.119 96.2879 151.373 96.2327 151.63 96.195C152.408 96.0712 153.144 95.7644 153.78 95.3C154.227 94.9488 154.555 94.4688 154.72 93.925C154.845 93.485 154.745 93.425 154.72 92.985C154.691 92.6335 154.61 92.2881 154.48 91.96C154.11 91.075 153.34 90.84 152.515 90.46C150.64 89.545 149.99 90.56 147.31 90.84C145.31 91.05 140.665 88.765 137.075 91.03C133.165 93.495 132.91 97.53 132.165 101.5C132 102.381 131.764 103.247 131.46 104.09C130.295 106.695 128.995 107.215 127.335 112.59C124.88 120.47 125.465 124.77 121.17 130.74C117.305 136.125 116.275 140.24 116.265 143.175C116.265 148.175 117.145 149.515 121.215 153.025C124.155 155.555 125.555 155.985 128.425 160C129.355 161.295 129.425 166.415 128.735 168.72C128.045 171.025 127.43 172.175 128.12 173.985C128.81 175.795 132.065 183.345 133.25 185.185C134.435 187.025 135.75 186.555 139.69 185.37C143.56 184.215 141.72 181.78 140.335 181.935C139.156 182.104 137.988 182.339 136.835 182.64C136.835 182.64 134.005 175.985 134.01 174.35C134.015 172.715 137.375 165.915 140.04 162.325C142.705 158.735 141.68 153.025 140.04 145.765C138.4 138.505 138.32 137.765 139.635 134.005C140.885 130.435 143.915 129.005 145.57 125.435C147.625 124.535 149.57 123.66 150.335 122.595C151.895 120.435 155.125 115.045 156.47 113.225C158.285 110.765 159.54 109.34 161.47 110.03C163.235 110.665 163.47 110.23 163.47 110.23C163.67 109.235 162.455 108.145 160.865 107.225Z" fill="black"/>
<path d="M139.6 133.955C138.6 136.78 138.41 137.9 139.065 141.345C138 136.5 136.265 133 139.94 128.5C141.15 127.285 143.405 126.335 145.535 125.405C143.88 128.96 140.85 130.39 139.6 133.955Z" fill="#FAFAFA"/>
<path d="M118.21 143.645C116.85 145.26 115.005 145.505 110.055 148.57C105.555 151.365 104.42 156.945 106.4 160.475C108.095 163.505 110 165.82 110.305 167.925C110.805 171.355 109.13 172.8 109.13 172.8C109.13 172.8 112.425 171.655 113.02 169.245C113.02 169.245 113.665 172.185 110.94 175.205C110.94 175.205 117.255 176.65 118.55 169.97C119.55 164.835 118.02 161.85 114.86 159.04C112.43 156.88 111.36 153.215 115 150.37C119.32 147.01 119.785 145.26 119.785 145.26C119.785 145.26 120.085 143.67 118.21 143.645Z" fill="#263238"/>
<path d="M154.12 95C154.911 95.0123 155.67 95.3168 156.25 95.855C156.65 96.245 157.93 98.595 157.175 99.405C156.42 100.215 154.5 99.665 154.125 97.905C154.125 97.905 151.255 98.25 150.3 97.11C149.345 95.97 150.7 95.47 151.98 95.305L154.12 95Z" fill="#F28F8F"/>
<path d="M154.67 96.195C154.67 96.195 153.555 97.145 153.8 97.88C154 97.88 154.125 97.88 154.125 97.88C154.22 98.3603 154.457 98.8011 154.805 99.145C155.172 99.453 155.641 99.6119 156.12 99.59C157.12 99.505 156.62 98.695 156.34 97.76C156.06 96.825 155.195 96 154.67 96.195Z" fill="#874C4C"/>
<path d="M154.67 96.195C155.075 96.885 154.225 98.085 153.79 98.56C153.32 99.0538 152.804 99.5024 152.25 99.9C150.75 101 150.205 101.9 148.97 103.32C147.735 104.74 147.64 106.75 147.765 108.63C147.83 109.63 148.265 111.585 148.565 113.66C148.405 113.755 148.24 113.85 148.065 113.935C147.371 111.758 146.486 109.646 145.42 107.625C144.42 105.725 143.53 103.97 144.73 100.92C145.56 98.805 145.34 97.42 148.89 96.165C152.065 95.055 150.54 93.06 149.58 92.49C148.62 91.92 147.93 91.11 148.365 90.645C149.9 90.145 151.075 89.72 152.365 90.36C153.19 90.765 154.06 91.075 154.43 91.955C154.559 92.285 154.64 92.6319 154.67 92.985C154.715 93.43 154.815 93.485 154.695 93.925C154.525 94.4676 154.196 94.9466 153.75 95.3C153.115 95.7648 152.378 96.0701 151.6 96.19C151.345 96.245 151.1 96.28 150.84 96.36C150.77 96.385 150.695 96.425 150.69 96.5C150.685 96.575 150.735 96.61 150.78 96.65C151.116 96.8651 151.507 96.9781 151.905 96.975C152.891 97.057 153.873 96.78 154.67 96.195V96.195Z" fill="#FAFAFA"/>
<path d="M152.03 91.04H152.005C151.905 90.9281 151.795 90.826 151.675 90.735C151.499 90.6653 151.316 90.6134 151.13 90.58C150.995 90.535 150.825 90.4 150.86 90.23C150.86 90.135 150.96 90.09 151.045 90.045C151.314 89.8602 151.619 89.7357 151.94 89.68C152.331 89.6661 152.72 89.7503 153.07 89.925C154.07 90.375 154.515 90.65 154.73 90.99C154.945 91.33 154.59 92.49 154.59 92.49C154.588 92.3139 154.54 92.1414 154.45 91.99C154.19 91.39 153.38 91.405 152.84 91.35C152.546 91.3256 152.265 91.2181 152.03 91.04Z" fill="#263238"/>
<path opacity="0.1" d="M147.765 108.63C147.635 106.75 147.72 104.77 148.97 103.315C150.22 101.86 150.75 101.005 152.25 99.895C152.45 99.75 152.645 99.595 152.835 99.44C150.235 101.25 148.145 100.325 146.73 101.54C145.315 102.755 146.275 105.775 147.23 107.24C147.444 107.689 147.623 108.154 147.765 108.63Z" fill="black"/>
<path d="M141.38 96.27C141.975 95.44 144.64 93.49 145.83 93.015C147.02 92.54 149.15 95.325 149.145 97.605C149.14 99.885 147.56 104.295 145.805 104.175C144.05 104.055 142.275 97.53 141.455 98.3C140.635 99.07 140.295 97.775 141.38 96.27Z" fill="#37474F"/>
<path d="M117.29 216.565L158.425 192.815V158.27L117.29 182.02V216.565Z" fill="#FFC800"/>
<path opacity="0.6" d="M117.29 216.565L158.425 192.815V158.27L117.29 182.02V216.565Z" fill="white"/>
<path opacity="0.1" d="M117.29 182.02L124.74 197.105L158.425 177.7V158.27L117.29 182.02Z" fill="black"/>
<path d="M117.29 216.565L76.155 192.815V158.27L117.29 182.02V216.565Z" fill="#FFC800"/>
<path opacity="0.4" d="M117.29 216.565L76.155 192.815V158.27L117.29 182.02V216.565Z" fill="white"/>
<path opacity="0.1" d="M117.29 182.02L109.845 197.105L76.155 177.7V158.27L117.29 182.02Z" fill="black"/>
<path opacity="0.1" d="M78.96 185.2V189.23C78.9981 189.923 79.1991 190.596 79.5466 191.197C79.8941 191.797 80.3784 192.307 80.96 192.685L90.06 197.94C91.165 198.575 92.06 198.06 92.06 196.79V192.755C92.0214 192.063 91.8202 191.39 91.4727 190.791C91.1252 190.191 90.6412 189.682 90.06 189.305L80.96 184.05C79.855 183.415 78.96 183.93 78.96 185.2Z" fill="black"/>
<path d="M76.1551 158.27L66.8101 170.145L107.975 193.87L117.29 182.02L76.1551 158.27Z" fill="#FFC800"/>
<path opacity="0.6" d="M76.1551 158.27L66.8101 170.145L107.975 193.87L117.29 182.02L76.1551 158.27Z" fill="white"/>
<path d="M158.425 158.27L167.775 170.145L126.61 193.87L117.29 182.02L158.425 158.27Z" fill="#FFC800"/>
<path opacity="0.4" d="M158.425 158.27L167.775 170.145L126.61 193.87L117.29 182.02L158.425 158.27Z" fill="white"/>
<path d="M97.5602 160.35C98.4202 162.85 102.5 163.985 105.255 168.815C106.426 170.918 106.83 173.362 106.4 175.73L82.3552 161.845L80.7102 158.12L97.5602 160.35Z" fill="#F0F0F0"/>
<path d="M73.2751 166.19C73.3201 165.045 74.0101 163.51 74.9051 162.245C76.3465 160.282 78.3821 158.835 80.7101 158.12L86.2851 161.62C80.3301 161.42 78.2851 164.555 77.7301 166.305C77.3501 167.51 77.0301 168.445 76.3251 168.445C76.145 168.459 75.9663 168.404 75.8246 168.292C75.6829 168.18 75.5885 168.018 75.5601 167.84C75.4688 167.946 75.3482 168.022 75.2135 168.06C75.0788 168.098 74.936 168.094 74.8031 168.051C74.6701 168.008 74.5528 167.926 74.466 167.817C74.3792 167.707 74.3267 167.574 74.3151 167.435C74.1927 167.498 74.0528 167.519 73.9172 167.495C73.7815 167.471 73.6578 167.402 73.5651 167.3C73.4417 167.146 73.3521 166.967 73.3021 166.776C73.2522 166.585 73.243 166.385 73.2751 166.19V166.19Z" fill="#F0F0F0"/>
<path d="M73.5652 167.28C73.6229 167.3 73.6841 167.307 73.7449 167.302C73.8057 167.297 73.8648 167.28 73.9184 167.25C73.972 167.221 74.019 167.181 74.0563 167.133C74.0936 167.085 74.1205 167.029 74.1352 166.97C74.2184 166.699 74.3361 166.441 74.4852 166.2C74.3655 166.597 74.3114 167.011 74.3252 167.425C74.2006 167.49 74.0579 167.511 73.9201 167.484C73.7822 167.458 73.6572 167.386 73.5652 167.28V167.28Z" fill="#E0E0E0"/>
<path d="M74.7402 168C74.8888 167.985 75.0286 167.923 75.1386 167.822C75.2486 167.721 75.3228 167.587 75.3502 167.44C75.3957 167.172 75.5093 166.921 75.6802 166.71C75.578 167.069 75.5375 167.443 75.5602 167.815C75.4555 167.921 75.3226 167.995 75.1773 168.027C75.032 168.06 74.8803 168.051 74.7402 168V168Z" fill="#E0E0E0"/>
<path d="M84.0001 171.09C84.2205 169.595 84.7967 168.176 85.6801 166.95C86.8976 165.148 88.539 163.674 90.46 162.655V161.155C90.46 161.155 97.4251 162.58 97.5551 167.2C91.4901 166.64 89.2101 169.7 88.5551 171.475C88.0951 172.685 87.71 173.615 86.99 173.575C86.8057 173.578 86.6268 173.513 86.4888 173.39C86.3508 173.268 86.2638 173.098 86.2451 172.915C86.1439 173.016 86.0154 173.085 85.8754 173.113C85.7355 173.142 85.5903 173.128 85.4578 173.075C85.3253 173.022 85.2113 172.931 85.1299 172.814C85.0486 172.696 85.0034 172.558 85.0001 172.415C84.871 172.471 84.7271 172.484 84.59 172.452C84.4529 172.419 84.3301 172.343 84.24 172.235C84.1224 172.071 84.0403 171.885 83.999 171.688C83.9577 171.491 83.958 171.287 84.0001 171.09V171.09Z" fill="#F0F0F0"/>
<path d="M84.2351 172.225C84.293 172.249 84.3552 172.26 84.4177 172.259C84.4803 172.257 84.5419 172.243 84.5986 172.217C84.6554 172.191 84.7062 172.153 84.7477 172.106C84.7893 172.059 84.8207 172.004 84.8401 171.945C84.9404 171.672 85.0748 171.414 85.2401 171.175C85.0925 171.574 85.013 171.995 85.0051 172.42C84.8733 172.477 84.7262 172.489 84.5869 172.454C84.4475 172.418 84.3238 172.338 84.2351 172.225Z" fill="#E0E0E0"/>
<path d="M85.395 173.03C85.5463 173.025 85.6917 172.97 85.809 172.874C85.9263 172.778 86.0092 172.647 86.045 172.5C86.1084 172.228 86.241 171.976 86.43 171.77C86.3036 172.132 86.2393 172.512 86.24 172.895C86.1273 172.997 85.9875 173.064 85.8375 173.088C85.6875 173.112 85.5338 173.092 85.395 173.03V173.03Z" fill="#E0E0E0"/>
<path d="M80.7203 158.12C80.3603 158.24 79.9953 158.38 79.6353 158.535C81.5601 160.462 83.9045 161.919 86.4853 162.79C89.1053 163.67 93.0153 164.185 96.4853 162.93C97.2155 162.664 97.8743 162.233 98.4103 161.67C98.1041 161.34 97.8526 160.964 97.6653 160.555" fill="#E0E0E0"/>
<path d="M88.5452 146.115C87.6702 143.95 84.3902 141.39 81.8752 142.405C80.4602 142.975 81.4602 148.285 81.4602 148.285C81.4602 148.285 86.2002 148.28 88.5452 146.115Z" fill="#E0E0E0"/>
<path d="M86.435 147.37C84.8292 147.945 83.1404 148.254 81.435 148.285C81.435 148.285 80.435 142.975 81.85 142.405C82.805 142.19 85.2 143.45 86.435 147.37Z" fill="#FFA8A7"/>
<path d="M83.235 145.635C83.2996 145.164 83.1893 144.685 82.925 144.29C83.79 144.22 84.995 145.025 85.21 146.46C85.21 146.46 83.92 148.865 82.015 147.875C81.8183 147.515 81.5612 147.192 81.255 146.92C81.21 146.55 81.17 146.135 81.145 145.71C81.8294 145.544 82.5405 145.518 83.235 145.635V145.635Z" fill="#F28F8F"/>
<path d="M95.0002 148.025C96.9352 146.725 101.085 146.45 102.6 148.705C103.45 149.97 99.0102 154.28 99.0102 154.28C99.0102 154.28 95.7152 151.13 95.0002 148.025Z" fill="#E0E0E0"/>
<path d="M96.03 150.25C97.435 152.305 99.005 154.28 99.005 154.28C99.005 154.28 103.445 149.97 102.595 148.705C101.945 148 99.26 147.7 96.03 150.25Z" fill="#FFA8A7"/>
<path d="M98.8252 153.235C99.0473 153.062 99.2977 152.928 99.5652 152.84C99.8302 152.56 100.13 152.225 100.435 151.87C99.9635 151.347 99.3902 150.925 98.7502 150.63C98.9587 150.206 99.314 149.872 99.7502 149.69C99.0652 149.145 97.5152 149.275 96.7502 150.35C96.7526 150.901 96.8665 151.445 97.0852 151.95C97.4202 152.345 97.7302 152.69 97.9902 152.95C98.2451 153.103 98.5298 153.201 98.8252 153.235V153.235Z" fill="#F28F8F"/>
<path d="M86.7751 161.86C89.1101 162.645 92.5951 163.105 95.6851 161.985C99.3651 160.65 99.5701 155.32 98.6851 152.905C97.8001 150.49 95.9551 148.05 91.7501 146.64C87.5451 145.23 84.6201 146.065 82.4651 147.46C80.3101 148.855 77.3001 153.24 79.4651 156.53C81.2401 159.295 84.4351 161.08 86.7751 161.86Z" fill="#F5F5F5"/>
<path d="M86.7952 161.305C82.1302 159.74 82.3802 156.85 83.5602 155.66C84.7402 154.47 86.6902 154.16 88.9202 154.89C91.1502 155.62 92.5152 157.08 92.7502 158.745C92.9852 160.41 91.4552 162.87 86.7952 161.305Z" fill="#E0E0E0"/>
<path d="M88.1002 157.37L89.1952 157.205C89.2367 157.197 89.2736 157.173 89.2985 157.139C89.3235 157.104 89.3348 157.062 89.3302 157.02C89.3285 157 89.3225 156.98 89.3128 156.963C89.3031 156.945 89.2899 156.93 89.2739 156.918C89.2579 156.905 89.2395 156.897 89.2199 156.892C89.2004 156.887 89.18 156.886 89.1602 156.89L88.2052 157.035L87.5002 156.35C87.4866 156.335 87.47 156.323 87.4515 156.315C87.433 156.307 87.413 156.302 87.3927 156.302C87.3725 156.302 87.3524 156.307 87.3339 156.315C87.3154 156.323 87.2988 156.335 87.2852 156.35C87.2578 156.381 87.2427 156.421 87.2427 156.462C87.2427 156.504 87.2578 156.544 87.2852 156.575L88.1002 157.37Z" fill="#455A64"/>
<path d="M88.8901 159.73C89.0776 159.722 89.2608 159.671 89.4251 159.58C89.7271 159.416 89.9544 159.142 90.0601 158.815C90.0734 158.776 90.0715 158.734 90.0548 158.697C90.0381 158.66 90.0078 158.631 89.9701 158.615C89.9304 158.604 89.8879 158.609 89.8515 158.628C89.8152 158.648 89.7878 158.681 89.7751 158.72C89.6883 158.97 89.5095 159.177 89.2751 159.3C89.1669 159.36 89.0475 159.396 88.9244 159.407C88.8014 159.419 88.6773 159.404 88.5601 159.365C88.4404 159.325 88.3308 159.259 88.2385 159.173C88.1462 159.087 88.0735 158.982 88.0251 158.865C87.9135 158.628 87.8991 158.357 87.9851 158.11L88.2751 157.235C88.2824 157.216 88.2858 157.196 88.2852 157.175C88.2845 157.155 88.2799 157.135 88.2716 157.116C88.2632 157.098 88.2513 157.081 88.2364 157.067C88.2216 157.053 88.2042 157.042 88.1851 157.035C88.1453 157.024 88.1029 157.029 88.0665 157.048C88.0302 157.068 88.0028 157.101 87.9901 157.14L87.7001 158.015C87.5895 158.343 87.6074 158.7 87.7501 159.015C87.8177 159.165 87.915 159.299 88.0363 159.41C88.1575 159.521 88.3 159.606 88.4551 159.66C88.5944 159.711 88.742 159.734 88.8901 159.73V159.73Z" fill="#455A64"/>
<path d="M86.8351 159.04C87.0231 159.034 87.2068 158.983 87.3701 158.89C87.6731 158.727 87.9008 158.453 88.0051 158.125L88.2951 157.25C88.3024 157.231 88.3058 157.211 88.3052 157.19C88.3046 157.17 88.3 157.15 88.2916 157.131C88.2832 157.113 88.2713 157.096 88.2565 157.082C88.2416 157.068 88.2242 157.057 88.2051 157.05C88.1654 157.039 88.1229 157.044 88.0865 157.063C88.0502 157.083 88.0228 157.116 88.0101 157.155L87.7201 158.03C87.6333 158.28 87.4545 158.487 87.2201 158.61C87.1119 158.67 86.9925 158.706 86.8694 158.717C86.7464 158.729 86.6224 158.714 86.5051 158.675C86.265 158.586 86.0699 158.406 85.9621 158.173C85.8544 157.941 85.8429 157.676 85.9301 157.435C85.9381 157.416 85.9421 157.396 85.9418 157.375C85.9415 157.354 85.937 157.334 85.9286 157.315C85.9202 157.297 85.9079 157.28 85.8927 157.266C85.8775 157.252 85.8596 157.242 85.8401 157.235C85.8004 157.224 85.7579 157.229 85.7215 157.248C85.6852 157.268 85.6578 157.301 85.6451 157.34C85.5317 157.658 85.5478 158.009 85.6899 158.315C85.832 158.622 86.0889 158.861 86.4051 158.98C86.5433 159.027 86.6893 159.048 86.8351 159.04Z" fill="#455A64"/>
<path d="M83.5852 152.5C83.5302 152.705 83.5365 152.921 83.6032 153.123C83.6699 153.324 83.7942 153.501 83.9607 153.633C84.1272 153.764 84.3285 153.844 84.5399 153.862C84.7512 153.881 84.9632 153.836 85.1498 153.735C85.3363 153.634 85.4891 153.481 85.5893 153.294C85.6896 153.107 85.7328 152.895 85.7137 152.684C85.6946 152.472 85.614 152.271 85.4818 152.105C85.3497 151.939 85.1718 151.816 84.9702 151.75C84.83 151.708 84.6829 151.694 84.5372 151.709C84.3916 151.724 84.2504 151.767 84.1216 151.837C83.9929 151.907 83.8792 152.001 83.7872 152.115C83.6951 152.229 83.6265 152.36 83.5852 152.5Z" fill="#455A64"/>
<path d="M94.6051 156.215C94.5253 156.411 94.39 156.579 94.2159 156.699C94.0418 156.819 93.8365 156.885 93.6251 156.89C93.4137 156.895 93.2056 156.838 93.0262 156.726C92.8468 156.614 92.704 156.452 92.6153 156.26C92.5267 156.068 92.4961 155.855 92.5272 155.646C92.5584 155.436 92.6499 155.241 92.7907 155.083C92.9314 154.925 93.1151 154.812 93.3193 154.757C93.5236 154.703 93.7393 154.709 93.9401 154.775C94.0789 154.825 94.2063 154.902 94.315 155.002C94.4237 155.102 94.5115 155.222 94.5733 155.356C94.6352 155.49 94.6699 155.635 94.6753 155.782C94.6808 155.93 94.6569 156.077 94.6051 156.215Z" fill="#455A64"/>
<path d="M97.5851 157.895C97.6468 157.89 97.7044 157.862 97.7451 157.815C98.2312 157.203 98.8946 156.755 99.6445 156.534C100.395 156.313 101.194 156.329 101.935 156.58C101.964 156.588 101.995 156.591 102.025 156.587C102.055 156.584 102.084 156.574 102.111 156.559C102.137 156.545 102.161 156.525 102.179 156.501C102.198 156.477 102.212 156.449 102.22 156.42C102.231 156.392 102.236 156.362 102.236 156.331C102.235 156.301 102.228 156.271 102.215 156.244C102.203 156.216 102.185 156.191 102.162 156.171C102.14 156.151 102.114 156.135 102.085 156.125C99.9051 155.4 98.3451 156.47 97.4251 157.495C97.3814 157.54 97.3569 157.6 97.3569 157.662C97.3569 157.725 97.3814 157.785 97.4251 157.83C97.4461 157.851 97.4711 157.867 97.4986 157.878C97.526 157.89 97.5554 157.895 97.5851 157.895Z" fill="#455A64"/>
<path d="M98.0851 158.47C98.1279 158.467 98.1693 158.454 98.2051 158.43C98.6327 158.19 99.106 158.042 99.5944 157.996C100.083 157.951 100.575 158.008 101.04 158.165C101.068 158.176 101.098 158.181 101.129 158.181C101.159 158.18 101.189 158.173 101.216 158.16C101.244 158.148 101.269 158.13 101.289 158.107C101.309 158.085 101.325 158.059 101.335 158.03C101.361 157.974 101.363 157.909 101.341 157.851C101.32 157.793 101.276 157.746 101.22 157.72C100.688 157.537 100.122 157.471 99.5616 157.524C99.0012 157.577 98.4586 157.75 97.9701 158.03C97.9185 158.066 97.8822 158.119 97.8683 158.18C97.8544 158.241 97.864 158.306 97.8951 158.36C97.9135 158.394 97.9411 158.422 97.9746 158.442C98.0081 158.461 98.0464 158.471 98.0851 158.47V158.47Z" fill="#455A64"/>
<path d="M101.585 160.35C101.619 160.35 101.653 160.341 101.683 160.326C101.714 160.31 101.74 160.288 101.76 160.26C101.799 160.211 101.819 160.15 101.814 160.088C101.809 160.025 101.781 159.967 101.735 159.925C101.176 159.442 100.508 159.102 99.7891 158.933C99.07 158.764 98.3206 158.772 97.605 158.955C97.5461 158.977 97.4973 159.019 97.4677 159.074C97.4382 159.13 97.4301 159.194 97.445 159.255C97.4526 159.284 97.4658 159.311 97.4841 159.335C97.5023 159.359 97.5252 159.379 97.5513 159.394C97.5774 159.409 97.6062 159.419 97.636 159.422C97.6659 159.426 97.6961 159.423 97.725 159.415C98.3696 159.25 99.0447 159.244 99.692 159.398C100.339 159.552 100.939 159.862 101.44 160.3C101.48 160.335 101.532 160.353 101.585 160.35Z" fill="#455A64"/>
<path d="M80.6501 152.275C80.711 152.263 80.7653 152.229 80.8022 152.179C80.8392 152.129 80.8563 152.067 80.8501 152.005C80.7251 150.63 80.1151 148.835 77.9401 148.095C77.881 148.079 77.8182 148.087 77.7646 148.116C77.7109 148.145 77.6704 148.194 77.6512 148.252C77.6321 148.31 77.6358 148.373 77.6616 148.429C77.6874 148.484 77.7334 148.527 77.7901 148.55C78.5299 148.798 79.1762 149.266 79.6427 149.892C80.1091 150.517 80.3734 151.27 80.4001 152.05C80.3991 152.082 80.4051 152.114 80.4176 152.143C80.4302 152.173 80.449 152.199 80.4728 152.221C80.4966 152.242 80.5248 152.258 80.5555 152.267C80.5861 152.277 80.6184 152.279 80.6501 152.275Z" fill="#455A64"/>
<path d="M79.9051 152.435H79.9802C80.0383 152.411 80.085 152.365 80.111 152.307C80.137 152.25 80.1402 152.185 80.1202 152.125C79.8962 151.607 79.5653 151.143 79.1491 150.762C78.7329 150.381 78.2408 150.092 77.7052 149.915C77.6435 149.899 77.578 149.908 77.5232 149.941C77.4683 149.973 77.4286 150.026 77.4126 150.087C77.3967 150.149 77.406 150.215 77.4383 150.269C77.4707 150.324 77.5235 150.364 77.5851 150.38C78.0511 150.536 78.4794 150.787 78.8427 151.117C79.2061 151.448 79.4964 151.851 79.6951 152.3C79.7117 152.342 79.7409 152.377 79.7785 152.401C79.8162 152.425 79.8604 152.437 79.9051 152.435Z" fill="#455A64"/>
<path d="M79.675 153.45C79.723 153.45 79.7693 153.432 79.805 153.4C79.8549 153.361 79.8879 153.305 79.8972 153.243C79.9066 153.18 79.8914 153.117 79.855 153.065C79.3955 152.487 78.8032 152.029 78.1285 151.73C77.4538 151.43 76.7167 151.298 75.98 151.345C75.9177 151.351 75.8602 151.381 75.8193 151.429C75.7783 151.476 75.7571 151.537 75.76 151.6C75.7593 151.63 75.7647 151.659 75.7758 151.687C75.7868 151.715 75.8034 151.74 75.8244 151.761C75.8454 151.782 75.8705 151.798 75.8981 151.809C75.9257 151.82 75.9553 151.826 75.985 151.825V151.825C76.649 151.779 77.3142 151.895 77.9238 152.162C78.5333 152.429 79.069 152.84 79.485 153.36C79.5063 153.39 79.535 153.414 79.5683 153.43C79.6015 153.446 79.6383 153.453 79.675 153.45V153.45Z" fill="#455A64"/>
<path d="M85.405 146.285C85.2 145.345 84.31 144.19 83.44 144.19C83.6721 144.605 83.7449 145.09 83.645 145.555C83.645 145.555 81.425 144.97 80.645 146.005C81.031 146.131 81.3789 146.353 81.6568 146.649C81.9347 146.945 82.1335 147.307 82.235 147.7C84.03 148.83 85.405 146.285 85.405 146.285Z" fill="#F5F5F5"/>
<path d="M97.0002 150.345C97.7502 149.735 99.0002 149.585 99.6902 150.13C99.2539 150.312 98.8986 150.646 98.6902 151.07C98.6902 151.07 100.79 152 100.775 153.31C100.429 153.184 100.055 153.154 99.6932 153.224C99.3313 153.293 98.9951 153.46 98.7202 153.705C96.5802 153.45 97.0002 150.345 97.0002 150.345Z" fill="#F5F5F5"/>
<path d="M124.62 167.925C124.608 168.015 124.578 168.102 124.533 168.18C124.487 168.259 124.426 168.327 124.354 168.382C124.282 168.437 124.2 168.478 124.112 168.501C124.024 168.524 123.933 168.53 123.843 168.517C123.753 168.505 123.666 168.476 123.588 168.43C123.509 168.384 123.44 168.324 123.385 168.251C123.33 168.179 123.29 168.097 123.267 168.009C123.244 167.921 123.238 167.83 123.25 167.74C123.51 165.775 122.78 164.295 121.25 163.69C120.4 163.386 119.474 163.371 118.614 163.646C117.755 163.922 117.01 164.473 116.495 165.215C115.64 166.4 115.715 167.775 115.8 169.37C115.91 171.37 116.03 173.63 114.21 175.83C113.191 176.949 111.843 177.714 110.36 178.015L108.45 176.915C110.195 176.8 112.13 176.18 113.145 174.95C114.645 173.165 114.525 171.355 114.42 169.45C114.33 167.75 114.235 165.995 115.37 164.415C116.067 163.425 117.07 162.692 118.226 162.331C119.381 161.969 120.623 161.999 121.76 162.415C123.41 163.06 125.025 164.855 124.62 167.925Z" fill="#F0F0F0"/>
<path d="M124.28 203.335C124.49 203.05 124.747 202.803 125.04 202.605C125.21 202.485 125.402 202.402 125.605 202.36C125.672 202.342 125.743 202.35 125.804 202.383C125.866 202.415 125.912 202.47 125.935 202.535C126.025 202.775 126.12 203.035 126.225 203.38C126.33 203.725 126.43 204.035 126.535 204.38C126.64 204.725 126.745 205.07 126.845 205.41C126.945 205.75 127.03 206.055 127.105 206.315C127.05 206.438 126.976 206.551 126.885 206.65C126.779 206.767 126.658 206.869 126.525 206.955C126.447 207.01 126.361 207.054 126.27 207.085C126.213 207.104 126.152 207.104 126.095 207.085C126.056 207.067 126.023 207.037 126 207C125.965 206.936 125.937 206.869 125.915 206.8L125.78 206.3L124.63 207.045C124.6 207.23 124.575 207.425 124.55 207.62C124.525 207.815 124.495 208.015 124.465 208.2C124.407 208.267 124.346 208.33 124.28 208.39C124.209 208.46 124.13 208.522 124.045 208.575C123.977 208.634 123.897 208.679 123.812 208.707C123.726 208.736 123.635 208.747 123.545 208.74C123.435 208.71 123.38 208.61 123.375 208.44C123.366 208.357 123.366 208.273 123.375 208.19C123.375 208.1 123.405 208 123.42 207.88C123.435 207.76 123.48 207.5 123.525 207.245C123.57 206.99 123.615 206.715 123.67 206.415L123.84 205.495C123.905 205.18 123.96 204.88 124.015 204.6C124.07 204.32 124.12 204.065 124.165 203.845C124.21 203.625 124.255 203.45 124.28 203.335ZM125.085 203.91C125.035 204.18 124.98 204.48 124.915 204.815C124.85 205.15 124.8 205.475 124.75 205.815L125.535 205.315C125.465 205.055 125.395 204.815 125.32 204.555C125.245 204.295 125.18 204.095 125.125 203.9L125.085 203.91Z" fill="#455A64"/>
<path d="M129.1 205.35L128.85 205.5C128.757 205.556 128.66 205.606 128.56 205.65C128.462 205.7 128.362 205.745 128.26 205.785C128.17 205.82 128.076 205.845 127.98 205.86C127.745 205.895 127.62 205.765 127.61 205.48L127.455 201.615C127.447 201.506 127.47 201.397 127.52 201.3C127.571 201.197 127.635 201.102 127.71 201.015C127.887 200.832 128.079 200.665 128.285 200.515C128.459 200.375 128.641 200.245 128.83 200.125C129.107 199.935 129.412 199.792 129.735 199.7C129.969 199.628 130.221 199.642 130.445 199.74C130.673 199.849 130.852 200.04 130.945 200.275C131.08 200.616 131.15 200.979 131.15 201.345C131.167 201.766 131.131 202.188 131.045 202.6C130.958 202.984 130.821 203.355 130.64 203.705C130.463 204.045 130.243 204.361 129.985 204.645C129.72 204.915 129.423 205.152 129.1 205.35V205.35ZM128.695 204.35L128.87 204.265C128.936 204.232 128.999 204.196 129.06 204.155C129.361 203.96 129.602 203.684 129.755 203.36C129.844 203.175 129.906 202.978 129.94 202.775C129.984 202.541 129.999 202.303 129.985 202.065C129.985 201.565 129.865 201.25 129.675 201.115C129.485 200.98 129.245 201.005 128.95 201.195L128.77 201.32C128.71 201.365 128.645 201.415 128.585 201.47L128.695 204.35Z" fill="#455A64"/>
<path d="M134.895 199.405C134.91 199.741 134.882 200.077 134.81 200.405C134.742 200.713 134.638 201.012 134.5 201.295C134.367 201.568 134.199 201.821 134 202.05C133.801 202.272 133.574 202.467 133.325 202.63C133.119 202.773 132.886 202.871 132.64 202.92C132.455 202.954 132.264 202.922 132.1 202.83C131.932 202.722 131.804 202.562 131.735 202.375C131.634 202.115 131.582 201.839 131.58 201.56C131.566 201.236 131.594 200.912 131.665 200.595C131.733 200.285 131.839 199.984 131.98 199.7C132.113 199.425 132.281 199.167 132.48 198.935C132.676 198.709 132.903 198.512 133.155 198.35C133.358 198.203 133.593 198.106 133.84 198.065C134.025 198.031 134.216 198.063 134.38 198.155C134.549 198.262 134.677 198.422 134.745 198.61C134.843 198.864 134.893 199.133 134.895 199.405V199.405ZM132.675 200.84C132.656 201.081 132.72 201.32 132.855 201.52C132.96 201.635 133.1 201.635 133.28 201.52C133.47 201.39 133.611 201.2 133.68 200.98C133.771 200.703 133.809 200.411 133.79 200.12C133.807 199.882 133.745 199.645 133.615 199.445C133.51 199.33 133.37 199.33 133.19 199.445C133.003 199.576 132.863 199.763 132.79 199.98C132.695 200.256 132.656 200.549 132.675 200.84Z" fill="#455A64"/>
<path d="M136.695 200.27C136.65 200.32 136.575 200.38 136.48 200.465C136.385 200.55 136.28 200.615 136.185 200.68C136.102 200.732 136.015 200.777 135.925 200.815C135.863 200.836 135.797 200.836 135.735 200.815C135.706 200.803 135.68 200.784 135.658 200.761C135.637 200.738 135.62 200.71 135.61 200.68C135.578 200.575 135.561 200.465 135.56 200.355L135.405 196.46C135.397 196.349 135.42 196.239 135.47 196.14C135.521 196.039 135.585 195.945 135.66 195.86C135.814 195.692 135.981 195.537 136.16 195.395C136.335 195.249 136.519 195.114 136.71 194.99C137.295 194.615 137.75 194.49 138.07 194.615C138.39 194.74 138.57 195.08 138.57 195.64C138.584 195.907 138.562 196.174 138.505 196.435C138.444 196.696 138.354 196.95 138.235 197.19C138.097 197.437 137.929 197.665 137.735 197.87C137.532 198.087 137.304 198.278 137.055 198.44L136.605 198.73L136.695 200.27ZM136.92 197.4C137.09 197.296 137.23 197.15 137.325 196.975C137.417 196.794 137.459 196.592 137.445 196.39C137.445 196.18 137.39 196.05 137.28 196C137.175 195.955 137.03 196 136.835 196.115L136.67 196.225L136.535 196.335L136.585 197.62L136.92 197.4Z" fill="#455A64"/>
<path d="M140.215 196.615C140.215 196.755 140.26 196.835 140.335 196.85C140.443 196.856 140.548 196.82 140.63 196.75C140.699 196.705 140.766 196.657 140.83 196.605C140.895 196.545 140.955 196.49 141.005 196.435C141.048 196.475 141.084 196.523 141.11 196.575C141.146 196.65 141.164 196.732 141.16 196.815C141.167 197.036 141.111 197.254 141 197.445C140.844 197.699 140.628 197.91 140.37 198.06C140 198.3 139.705 198.375 139.5 198.285C139.295 198.195 139.175 197.9 139.155 197.4L139.015 193.86C139.077 193.795 139.142 193.733 139.21 193.675C139.297 193.601 139.389 193.532 139.485 193.47C139.609 193.369 139.765 193.314 139.925 193.315C140.035 193.315 140.095 193.48 140.105 193.755V194.285L140.935 193.75C140.969 193.807 140.998 193.867 141.02 193.93C141.048 194.021 141.063 194.115 141.065 194.21C141.082 194.381 141.054 194.553 140.985 194.71C140.928 194.832 140.838 194.936 140.725 195.01L140.145 195.385L140.215 196.615Z" fill="#455A64"/>
<path d="M145.695 193.225C145.578 193.442 145.405 193.625 145.195 193.755C145.082 193.838 144.952 193.896 144.815 193.925C144.771 193.934 144.724 193.926 144.686 193.901C144.648 193.877 144.621 193.839 144.61 193.795C144.475 193.385 144.36 193.055 144.27 192.795C144.18 192.535 144.115 192.32 144.065 192.12H144.03C144.03 192.455 144.03 192.755 144.03 193.03C144.03 193.305 144.03 193.565 144.03 193.82C144.03 194.075 144.03 194.32 144.03 194.595C144.03 194.87 144.03 195.155 144.03 195.475C143.964 195.551 143.893 195.621 143.815 195.685C143.732 195.758 143.643 195.825 143.55 195.885C143.424 195.984 143.27 196.042 143.11 196.05C143.005 196.05 142.945 195.935 142.94 195.73V191.39C142.994 191.256 143.066 191.129 143.155 191.015C143.282 190.84 143.444 190.692 143.63 190.58C143.784 190.461 143.97 190.39 144.165 190.375C144.234 190.384 144.3 190.413 144.352 190.46C144.405 190.506 144.442 190.567 144.46 190.635C144.505 190.745 144.55 190.87 144.605 191.01C144.66 191.15 144.705 191.3 144.755 191.455C144.805 191.61 144.86 191.76 144.91 191.915C144.96 192.07 145 192.205 145.04 192.325H145.075C145.155 191.795 145.24 191.28 145.325 190.78C145.41 190.28 145.49 189.86 145.56 189.51C145.634 189.415 145.714 189.325 145.8 189.24C145.904 189.144 146.016 189.057 146.135 188.98C146.282 188.872 146.454 188.801 146.635 188.775C146.664 188.772 146.693 188.774 146.721 188.782C146.749 188.79 146.775 188.803 146.798 188.821C146.821 188.839 146.84 188.862 146.854 188.887C146.868 188.913 146.877 188.941 146.88 188.97C146.88 189.07 146.925 189.225 146.955 189.47C146.985 189.715 147.01 189.93 147.045 190.205C147.08 190.48 147.11 190.765 147.145 191.075C147.18 191.385 147.21 191.675 147.24 191.96C147.27 192.245 147.295 192.5 147.32 192.74C147.345 192.98 147.36 193.16 147.365 193.29C147.301 193.386 147.227 193.474 147.145 193.555C147.053 193.642 146.953 193.719 146.845 193.785C146.726 193.875 146.584 193.929 146.435 193.94C146.32 193.94 146.26 193.84 146.24 193.635C146.19 193.05 146.155 192.52 146.13 192.04C146.105 191.56 146.08 191.17 146.055 190.85H146.02C145.99 191.095 145.935 191.405 145.87 191.785C145.805 192.165 145.79 192.645 145.695 193.225Z" fill="#455A64"/>
<path d="M149.675 192.055C149.463 192.203 149.226 192.31 148.975 192.37C148.783 192.418 148.581 192.401 148.4 192.32C148.217 192.223 148.074 192.066 147.995 191.875C147.881 191.596 147.821 191.297 147.82 190.995C147.806 190.65 147.84 190.306 147.92 189.97C147.997 189.665 148.11 189.369 148.255 189.09C148.39 188.836 148.558 188.6 148.755 188.39C148.926 188.199 149.121 188.031 149.335 187.89C149.52 187.762 149.729 187.674 149.95 187.63C150.118 187.596 150.293 187.615 150.45 187.685C150.598 187.763 150.716 187.888 150.785 188.04C150.874 188.238 150.922 188.453 150.925 188.67C150.931 188.843 150.895 189.014 150.82 189.17C150.74 189.327 150.627 189.465 150.49 189.575L148.935 190.895C148.95 190.962 148.989 191.021 149.044 191.063C149.099 191.104 149.167 191.124 149.235 191.12C149.416 191.109 149.589 191.047 149.735 190.94C149.916 190.824 150.084 190.688 150.235 190.535C150.371 190.396 150.495 190.245 150.605 190.085C150.679 190.102 150.743 190.147 150.785 190.21C150.84 190.288 150.869 190.38 150.87 190.475C150.874 190.739 150.787 190.997 150.625 191.205C150.494 191.388 150.343 191.556 150.175 191.705C150.017 191.834 149.85 191.951 149.675 192.055ZM149.37 188.92C149.27 188.982 149.182 189.062 149.11 189.155C149.038 189.241 148.979 189.337 148.935 189.44C148.893 189.537 148.859 189.637 148.835 189.74C148.818 189.836 148.808 189.933 148.805 190.03L149.885 189.095C149.876 189.047 149.858 189.001 149.832 188.959C149.805 188.918 149.771 188.883 149.73 188.855C149.645 188.795 149.525 188.82 149.37 188.92V188.92Z" fill="#455A64"/>
<path d="M152.535 186.72C152.529 186.483 152.578 186.249 152.68 186.035C152.773 185.821 152.926 185.639 153.12 185.51C153.31 185.385 153.465 185.365 153.58 185.45C153.65 185.511 153.704 185.589 153.737 185.676C153.77 185.764 153.782 185.857 153.77 185.95C153.778 186.187 153.728 186.422 153.625 186.635C153.53 186.841 153.377 187.015 153.185 187.135C152.995 187.26 152.84 187.28 152.725 187.195C152.659 187.136 152.607 187.062 152.574 186.98C152.541 186.897 152.528 186.808 152.535 186.72V186.72ZM152.64 189.32C152.633 189.082 152.681 188.846 152.78 188.63C152.878 188.425 153.032 188.251 153.225 188.13C153.415 188.005 153.57 187.985 153.685 188.07C153.75 188.129 153.801 188.202 153.833 188.283C153.865 188.365 153.878 188.453 153.87 188.54C153.88 188.778 153.832 189.015 153.73 189.23C153.634 189.435 153.481 189.609 153.29 189.73C153.095 189.855 152.945 189.875 152.83 189.79C152.764 189.732 152.713 189.659 152.68 189.577C152.647 189.496 152.633 189.408 152.64 189.32V189.32Z" fill="#455A64"/>
<path d="M155.94 186C155.966 186.534 155.948 187.069 155.885 187.6C155.833 188.038 155.746 188.471 155.625 188.895C155.557 189.132 155.465 189.362 155.35 189.58C155.254 189.781 155.108 189.953 154.925 190.08C154.882 190.113 154.831 190.137 154.778 190.149C154.724 190.161 154.669 190.161 154.615 190.15C154.532 190.131 154.456 190.085 154.4 190.02C154.495 189.755 154.575 189.49 154.645 189.225C154.715 188.96 154.77 188.695 154.815 188.425C154.861 188.147 154.891 187.867 154.905 187.585C154.92 187.282 154.92 186.978 154.905 186.675C154.894 186.387 154.867 186.1 154.825 185.815C154.795 185.583 154.745 185.354 154.675 185.13C154.62 184.941 154.545 184.758 154.45 184.585C154.369 184.427 154.272 184.278 154.16 184.14C154.208 184.001 154.272 183.869 154.35 183.745C154.425 183.617 154.528 183.508 154.65 183.425C154.71 183.372 154.783 183.337 154.862 183.324C154.941 183.31 155.021 183.319 155.095 183.35C155.224 183.423 155.333 183.528 155.41 183.655C155.57 183.938 155.686 184.243 155.755 184.56C155.865 185.033 155.927 185.515 155.94 186Z" fill="#455A64"/>
<path d="M40.8601 56.945C40.6138 56.3 40.141 55.7667 39.5301 55.445V55.445C39.1749 55.26 38.7847 55.1519 38.385 55.1278C37.9852 55.1036 37.5849 55.164 37.2101 55.305C35.8551 55.805 35.2901 57.715 35.6151 59.085C34.9501 57.84 33.2751 56.775 31.9251 57.285C31.5494 57.4253 31.2077 57.6435 30.9225 57.9253C30.6372 58.2071 30.4149 58.5461 30.2701 58.92V58.92C30.0262 59.5644 30.0262 60.2756 30.2701 60.92C31.0601 63.025 33.4451 63.455 35.6001 64.225L37.8651 65.025L39.0001 62.935C40.1351 60.945 41.6501 59.05 40.8601 56.945Z" fill="#7B61FF"/>
<path d="M157.655 72.56C157.407 71.9159 156.935 71.3832 156.325 71.06V71.06C155.971 70.8729 155.581 70.7633 155.181 70.7383C154.781 70.7133 154.38 70.7735 154.005 70.915C152.65 71.415 152.085 73.325 152.41 74.695C151.75 73.45 150.07 72.385 148.72 72.895C148.345 73.0302 148.002 73.243 147.714 73.5195C147.426 73.7961 147.2 74.1301 147.05 74.5V74.5C146.81 75.145 146.81 75.855 147.05 76.5C147.84 78.6 150.23 79.035 152.38 79.8L154.645 80.6L155.83 78.51C156.93 76.56 158.445 74.665 157.655 72.56Z" fill="#7B61FF"/>
<path d="M102.09 59.835C102.388 59.2109 102.446 58.4994 102.255 57.835V57.835C102.143 57.4537 101.952 57.1005 101.693 56.7988C101.435 56.4971 101.115 56.2538 100.755 56.085C99.4651 55.47 97.7251 56.37 96.9701 57.54C97.4051 56.215 97.0151 54.295 95.7251 53.68C95.3683 53.5086 94.9792 53.415 94.5835 53.4055C94.1878 53.396 93.7947 53.4709 93.4301 53.625V53.625C92.8021 53.8942 92.2937 54.3831 92.0001 55C91.0401 57 92.3701 59 93.2951 61.055L94.2951 63.215L96.5901 62.62C98.7451 62.055 101.13 61.84 102.09 59.835Z" fill="#7B61FF"/>
<path d="M220.3 61.225C220.603 60.6022 220.661 59.8889 220.465 59.225V59.225C220.353 58.8436 220.162 58.4902 219.903 58.1885C219.645 57.8868 219.325 57.6435 218.965 57.475C217.68 56.86 215.94 57.76 215.18 58.93C215.615 57.61 215.225 55.685 213.935 55.07C213.578 54.8998 213.189 54.8069 212.793 54.7974C212.398 54.788 212.005 54.8621 211.64 55.015V55.015C211.007 55.282 210.493 55.7709 210.195 56.39C209.24 58.39 210.57 60.39 211.495 62.445L212.495 64.605L214.795 64.01C216.96 63.445 219.345 63.23 220.3 61.225Z" fill="#7B61FF"/>
</svg>
