<svg width="20" height="20" viewBox="0 0 20 20" fill="none" xmlns="http://www.w3.org/2000/svg">
<path d="M10 18.125C9.33696 18.125 8.70107 17.8616 8.23223 17.3928C7.76339 16.9239 7.5 16.288 7.5 15.625C7.5 15.4592 7.56585 15.3003 7.68306 15.1831C7.80027 15.0658 7.95924 15 8.125 15H11.875C12.0408 15 12.1997 15.0658 12.3169 15.1831C12.4342 15.3003 12.5 15.4592 12.5 15.625C12.5 16.288 12.2366 16.9239 11.7678 17.3928C11.2989 17.8616 10.663 18.125 10 18.125ZM8.91875 16.25C9.02863 16.4394 9.18635 16.5967 9.37611 16.706C9.56587 16.8153 9.78101 16.8728 10 16.8728C10.219 16.8728 10.4341 16.8153 10.6239 16.706C10.8137 16.5967 10.9714 16.4394 11.0812 16.25H8.91875Z" fill="#FFC800"/>
<path d="M11.25 4.375H8.75C8.58424 4.375 8.42527 4.30915 8.30806 4.19194C8.19085 4.07473 8.125 3.91576 8.125 3.75C8.125 3.25272 8.32254 2.77581 8.67417 2.42417C9.02581 2.07254 9.50272 1.875 10 1.875C10.4973 1.875 10.9742 2.07254 11.3258 2.42417C11.6775 2.77581 11.875 3.25272 11.875 3.75C11.875 3.91576 11.8092 4.07473 11.6919 4.19194C11.5747 4.30915 11.4158 4.375 11.25 4.375Z" fill="#FFC800"/>
<path d="M16.875 16.25H3.125C2.95924 16.25 2.80027 16.1842 2.68306 16.0669C2.56585 15.9497 2.5 15.7908 2.5 15.625C2.49945 14.9192 2.66969 14.2237 2.99619 13.5979C3.32269 12.9721 3.79575 12.4346 4.375 12.0312V8.75C4.37497 7.26463 4.96245 5.83954 6.00925 4.78572C7.05604 3.7319 8.47717 3.1349 9.9625 3.125H10.0313C11.5231 3.125 12.9538 3.71763 14.0087 4.77252C15.0636 5.82742 15.6563 7.25816 15.6563 8.75V12.0312C16.2297 12.438 16.6967 12.977 17.0177 13.6026C17.3386 14.2282 17.5041 14.9219 17.5 15.625C17.5 15.7908 17.4342 15.9497 17.3169 16.0669C17.1997 16.1842 17.0408 16.25 16.875 16.25ZM3.8125 15H16.1875C16.099 14.5667 15.9195 14.1571 15.6609 13.7984C15.4023 13.4396 15.0706 13.1398 14.6875 12.9187C14.5921 12.8637 14.513 12.7844 14.4581 12.6889C14.4032 12.5934 14.3746 12.4851 14.375 12.375V8.75C14.375 7.58968 13.9141 6.47688 13.0936 5.65641C12.2731 4.83594 11.1603 4.375 10 4.375C8.83968 4.375 7.72688 4.83594 6.90641 5.65641C6.08594 6.47688 5.625 7.58968 5.625 8.75V12.375C5.62544 12.4851 5.59677 12.5934 5.54189 12.6889C5.48701 12.7844 5.40788 12.8637 5.3125 12.9187C4.92944 13.1398 4.59766 13.4396 4.33908 13.7984C4.0805 14.1571 3.90102 14.5667 3.8125 15Z" fill="#FFC800"/>
</svg>
