<svg width="48" height="48" viewBox="0 0 48 48" fill="none" xmlns="http://www.w3.org/2000/svg">
<path d="M24 44C26.4726 44 28.5958 42.5044 29.5144 40.3686C29.839 39.6136 30.9116 39.1694 31.675 39.4736C33.835 40.3344 36.3938 39.8906 38.1422 38.1422C39.8904 36.3938 40.3342 33.835 39.4736 31.6752C39.1694 30.9116 39.6136 29.839 40.3686 29.5144C42.5044 28.5958 44 26.4726 44 24C44 21.5274 42.5044 19.4043 40.3686 18.4856C39.6136 18.1609 39.1694 17.0884 39.4736 16.3249C40.3344 14.1651 39.8906 11.6062 38.1422 9.85788C36.3938 8.10954 33.835 7.66572 31.6752 8.52642C30.9116 8.83068 29.839 8.3864 29.5144 7.6314C28.5958 5.49556 26.4726 4 24 4C21.5274 4 19.4043 5.49554 18.4856 7.63138C18.1609 8.38636 17.0884 8.83062 16.3249 8.52638C14.1651 7.66568 11.6062 8.10948 9.85788 9.85782C8.10954 11.6062 7.66572 14.165 8.52642 16.3249C8.83068 17.0883 8.3864 18.1609 7.6314 18.4856C5.49556 19.4043 4 21.5274 4 24C4 26.4726 5.49554 28.5958 7.63138 29.5144C8.38636 29.839 8.83062 30.9116 8.52638 31.675C7.66568 33.835 8.10948 36.3938 9.85782 38.1422C11.6062 39.8904 14.165 40.3342 16.3249 39.4736C17.0883 39.1694 18.1609 39.6136 18.4856 40.3686C19.4043 42.5044 21.5274 44 24 44Z" fill="#5C3AE2" stroke="white" stroke-width="2" stroke-linecap="round" stroke-linejoin="round"/>
<path d="M16 25L21 30L32 19" stroke="white" stroke-width="2" stroke-linecap="round" stroke-linejoin="round"/>
</svg>
